<?xml version="1.0" standalone="no"?>
<!DOCTYPE svg PUBLIC "-//W3C//DTD SVG 1.1//EN" "http://www.w3.org/Graphics/SVG/1.1/DTD/svg11.dtd">
<svg xmlns="http://www.w3.org/2000/svg">
<defs >
<font id="NotoSerifDisplay" horiz-adv-x="594" ><font-face
    font-family="Noto Serif Display Medium"
    units-per-em="1000"
    panose-1="2 2 5 2 8 5 5 2 2 4"
    ascent="1069"
    descent="-293"
    alphabetic="0" />
<glyph unicode=" " horiz-adv-x="225" />
<glyph unicode="!" horiz-adv-x="347" d="M166 208L107 714H239L181 208H166ZM173 -7Q145 -7 130 10T114 64Q114 101 129 118T173 135Q201 135 216 118T232 64Q232 27 217 10T173 -7Z" />
<glyph unicode="&quot;" horiz-adv-x="303" d="M75 479L30 714H135L90 479H75ZM213 479L168 714H273L228 479H213Z" />
<glyph unicode="#" horiz-adv-x="559" d="M100 0L143 233H25V243H145L190 488H57V498H192L232 714H242L202 498H393L433 714H443L403 498H534V488H401L356 243H502V233H354L311 0H301L344 233H153L110 0H100ZM155 243H346L391 488H200L155 243Z" />
<glyph unicode="$" horiz-adv-x="559" d="M275 42Q222 42 181 50T111 75T69 116T54 171Q54 197 64 214T91 240T132 249Q133 183 148 140T194 75T275 52V316Q227 338 191 358T130 400T93 451T80 518Q80 590 127 635T275 684V760H285V684Q346 684 388 671T451 635T473
577Q473 544 450 526T385 508Q385 562 375 598T343 653T285 674V421Q331 400 369 381T436 341T479 290T495 218Q495 140 443 93T285 42V-79H275V42ZM285 52Q342 54 373 84T405 173Q405 222 377 252T285 311V52ZM275 674Q226 674 197 645T167 557Q167 526 177 504T212
463T275 425V674Z" />
<glyph unicode="%" horiz-adv-x="899" d="M263 0L620 714H631L274 0H263ZM210 280Q122 280 82 341T42 503Q42 604 82 664T211 724Q296 724 337 664T379 503Q379 436 361 386T305 308T210 280ZM210 290Q237 290 252 311T274 379T281 503Q281 580 275 626T253 693T211
714Q185 714 169 694T145 627T138 503Q138 426 145 379T168 311T210 290ZM688 -10Q600 -10 560 51T520 213Q520 314 560 374T689 434Q774 434 815 374T857 213Q857 146 839 96T783 18T688 -10ZM688 0Q715 0 730 21T752 89T759 213Q759 290 753 336T731 403T689
424Q663 424 647 404T623 337T616 213Q616 136 623 89T646 21T688 0Z" />
<glyph unicode="&amp;" horiz-adv-x="758" d="M279 -10Q203 -10 149 15T67 86T39 190Q39 238 57 275T115 340T215 388Q183 424 163 453T134 511T125 570Q125 617 145 652T207 705T313 724Q380 724 420 706T480 656T499 583Q499 549 484 519T432 463T325 413L510
217Q519 258 523 301T527 382V422H717V412H706Q675 412 655 403T623 370T600 305Q592 273 581 239T554 171L632 89Q660 59 679 42T713 17T741 10H748V0H578L500 84Q475 56 444 35T372 2T279 -10ZM299 1Q357 1 398 28T470 115L224 378Q197 359 180 333T156 273T148
194Q148 142 157 105T186 45T234 12T299 1ZM317 422Q364 447 384 483T404 582Q404 628 394 657T364 700T313 714Q269 714 247 685T224 598Q224 565 232 540T260 488T317 422Z" />
<glyph unicode="&apos;" horiz-adv-x="165" d="M75 479L30 714H135L90 479H75Z" />
<glyph unicode="(" horiz-adv-x="361" d="M329 -131Q232 -92 172 -32T85 114T57 317Q57 434 84 519T172 665T329 763V753Q279 722 249 679T203 580T182 458T177 317Q177 242 182 176T202 54T248 -46T329 -121V-131Z" />
<glyph unicode=")" horiz-adv-x="361" d="M32 -121Q82 -90 112 -46T158 54T179 176T184 317Q184 392 179 458T159 579T113 678T32 753V763Q130 725 189 665T276 520T304 317Q304 201 277 115T190 -32T32 -131V-121Z" />
<glyph unicode="*" horiz-adv-x="501" d="M202 375L240 549L77 436L39 520L229 568L39 615L77 700L240 586L202 760H296L255 586L419 698L457 614L266 568L457 521L419 438L255 549L295 375H202Z" />
<glyph unicode="+" horiz-adv-x="559" d="M269 143V347H65V367H269V572H289V367H494V347H289V143H269Z" />
<glyph unicode="," horiz-adv-x="262" d="M34 -144Q65 -134 88 -121T126 -88T140 -43Q140 -21 131 -10T110 8T85 21T63 39T54 73Q54 104 73 119T121 135Q156 135 179 112T202 38Q202 -22 163 -75T34 -154V-144Z" />
<glyph unicode="-" horiz-adv-x="310" d="M25 263V283H285V263H25Z" />
<glyph unicode="." horiz-adv-x="262" d="M131 -7Q103 -7 88 10T72 64Q72 101 87 118T131 135Q159 135 174 118T190 64Q190 27 175 10T131 -7Z" />
<glyph unicode="/" horiz-adv-x="288" d="M26 -121L252 760H262L36 -121H26Z" />
<glyph unicode="0" horiz-adv-x="559" d="M280 -10Q196 -10 143 36T66 165T42 359Q42 470 66 552T143 679T281 724Q361 724 413 679T491 552T517 358Q517 247 492 165T414 36T280 -10ZM280 0Q313 0 336 18T372 78T392 189T399 358Q399 458 393 526T373 635T337
695T281 714Q247 714 224 696T187 636T167 526T160 358Q160 258 166 189T186 79T223 19T280 0Z" />
<glyph unicode="1" horiz-adv-x="559" d="M96 0V10H167Q192 10 208 17T233 40T241 80V648Q203 599 180 574T141 539T110 529Q86 529 73 544T59 587Q103 588 133 595T189 618T242 663L295 718H355V80Q355 57 362 42T386 18T428 10H486V0H96Z" />
<glyph unicode="2" horiz-adv-x="559" d="M47 0V79L190 229Q239 280 271 321T321 398T346 472T354 551Q354 609 344 645T312 698T254 714Q217 714 195 695T163 632T153 515Q125 515 103 522T69 546T56 592Q56 629 79 659T147 706T257 724Q325 724 372 704T444
645T468 554Q468 522 457 490T417 420T337 331T204 207L69 88H390Q438 88 458 104T482 165L483 183H493L487 0H47Z" />
<glyph unicode="3" horiz-adv-x="559" d="M249 -10Q185 -10 140 6T73 48T50 106Q50 137 69 154T119 171Q119 111 134 73T178 18T249 0Q297 0 327 22T372 86T387 187Q387 255 368 295T311 352T211 370H172V380H211Q265 380 298 399T347 457T363 559Q363 641 338
677T263 714Q225 714 202 693T169 628T159 520Q116 520 89 537T61 598Q61 634 84 662T153 707T264 724Q363 724 421 682T479 558Q479 511 457 474T390 412T273 378Q330 376 373 363T445 327T489 270T504 192Q504 137 483 98T425 35T343 1T249 -10Z" />
<glyph unicode="4" horiz-adv-x="559" d="M205 0V10H233Q259 10 277 17T305 40T315 82V193H16V240L318 714H425V252H544V193H425V82Q425 56 434 40T463 17T507 10H520V0H205ZM35 252H315V447Q315 471 315 503T315 572T315 641T317 697Q310 684 299 667T276 630T252
592T231 559L35 252Z" />
<glyph unicode="5" horiz-adv-x="559" d="M247 -11Q180 -11 139 5T78 46T58 99Q58 125 75 141T126 158Q126 105 139 70T181 17T250 0Q294 0 321 22T362 92T375 214Q375 288 360 331T313 395T233 415Q198 415 173 406T129 383T95 352L83 356L115 713H455L460 554H450L449
566Q447 588 440 601T418 619T379 625H117L93 364Q123 397 165 413T259 430Q324 430 376 407T460 337T492 217Q492 164 477 122T430 51T352 5T247 -11Z" />
<glyph unicode="6" horiz-adv-x="559" d="M293 -10Q225 -10 172 27T88 144T57 352Q57 426 73 493T122 612T206 694T326 724Q382 724 419 709T474 670T493 618Q493 589 471 571T404 553Q404 609 396 644T369 696T320 714Q273 714 241 680T191 573T169 383Q186 397
206 409T252 428T312 435Q403 435 457 381T512 230Q512 159 487 105T412 21T293 -10ZM296 0Q334 0 356 21T388 91T399 220Q399 293 388 337T352 401T287 422Q263 422 241 414T201 394T169 368Q170 268 177 198T199 84T238 20T296 0Z" />
<glyph unicode="7" horiz-adv-x="559" d="M183 0L484 625H164Q113 625 92 607T66 538L65 524H55L61 713H515V679L261 0H183Z" />
<glyph unicode="8" horiz-adv-x="559" d="M278 -10Q199 -10 147 14T68 81T42 177Q42 240 80 285T206 355Q156 381 125 409T80 471T65 543Q65 590 86 631T155 698T278 724Q347 724 393 702T463 641T486 553Q486 492 451 452T336 391Q400 362 440 331T498 263T517
181Q517 91 453 41T278 -10ZM284 0Q354 0 388 39T422 146Q422 177 414 201T383 248T322 294T220 348Q179 323 161 283T143 180Q143 86 179 43T284 0ZM321 399Q350 417 365 440T387 491T394 554Q394 610 381 645T342 697T277 714Q221 714 192 680T162 580Q162 528
179 499T232 447T321 399Z" />
<glyph unicode="9" horiz-adv-x="559" d="M232 -11Q179 -11 145 3T94 39T77 84Q77 104 88 117T120 135Q128 64 158 32T239 -1Q293 -1 324 33T371 142T389 343Q375 325 354 310T304 285T239 275Q183 275 140 299T72 370T47 484Q47 556 73 610T148 694T265 724Q334
724 387 689T471 580T502 388Q502 308 489 237T445 109T362 21T232 -11ZM267 294Q299 294 323 305T364 332T390 361Q389 457 383 524T362 634T325 695T267 714Q231 714 207 692T172 621T161 488Q161 418 172 375T207 313T267 294Z" />
<glyph unicode=":" horiz-adv-x="291" d="M145 399Q118 399 103 416T87 471Q87 508 102 525T145 542Q173 542 188 525T204 471Q204 434 189 417T145 399ZM145 -7Q118 -7 103 10T87 64Q87 101 102 118T145 135Q173 135 188 118T204 64Q204 27 189 10T145 -7Z" />
<glyph unicode=";" horiz-adv-x="291" d="M50 -144Q80 -134 104 -121T142 -88T156 -43Q156 -21 147 -10T126 8T101 21T79 39T70 73Q70 104 89 119T137 135Q172 135 195 112T218 38Q218 -22 179 -75T50 -154V-144ZM146 399Q118 399 103 416T88 471Q88 508 103 525T146
542Q174 542 189 525T205 471Q205 434 190 417T146 399Z" />
<glyph unicode="&lt;" horiz-adv-x="559" d="M494 119L65 347V367L494 595V572L87 357L494 142V119Z" />
<glyph unicode="=" horiz-adv-x="559" d="M68 455V475H491V455H68ZM68 239V259H491V239H68Z" />
<glyph unicode="&gt;" horiz-adv-x="559" d="M65 119V142L472 357L65 572V595L494 367V347L65 119Z" />
<glyph unicode="?" horiz-adv-x="514" d="M200 341Q251 345 283 364T329 424T344 534Q344 593 334 633T301 693T241 714Q207 714 185 697T151 642T140 545Q97 545 69 562T41 615Q41 645 63 670T129 709T233 724Q340 724 401 677T462 539Q462 462 413 412T261 338L238
208H223L200 341ZM229 -7Q201 -7 186 10T170 64Q170 101 185 118T229 135Q256 135 271 118T287 64Q287 27 272 10T229 -7Z" />
<glyph unicode="@" horiz-adv-x="921" d="M430 -142Q323 -142 240 -103T109 17T61 219Q61 325 95 415T192 572T341 676T531 714Q644 714 719 671T833 555T872 390Q872 319 854 261T805 162T737 99T660 77Q640 77 620 83T581 106T552 149T541 218H539Q526 169 504
138T453 92T390 77Q334 77 297 117T260 238Q260 281 274 331T318 427T393 500T499 529Q540 529 560 517T591 484L670 520H680L629 266Q623 238 619 210T614 158Q614 121 628 105T667 88Q696 88 721 108T764 169T794 266T805 397Q805 504 771 572T676 672T531 704Q453
704 384 671T261 576T176 422T145 215Q145 120 167 54T228 -52T321 -112T438 -131Q508 -131 578 -108T715 -34L721 -43Q677 -76 630 -98T532 -131T430 -142ZM418 96Q444 96 467 114T508 168T536 254L579 479Q575 492 558 505T513 518Q481 518 456 497T412 440T382
363T365 279T359 203Q359 145 375 121T418 96Z" />
<glyph unicode="A" horiz-adv-x="718" d="M1 0V10H33Q55 10 69 17T94 40T115 87L337 714H401L644 68Q653 46 661 34T681 16T708 10H718V0H428V10H460Q493 10 508 18T524 49Q524 55 523 61T521 76T515 94L455 260H188L132 103Q128 94 126 85T123 69T121 55Q121
30 141 20T208 10H244V0H1ZM191 270H451L381 462Q370 494 359 525T339 587T322 644Q315 623 309 603T295 563T280 522T264 477L191 270Z" />
<glyph unicode="B" horiz-adv-x="659" d="M35 0V10H56Q80 10 96 17T121 39T130 80V637Q130 661 122 675T96 697T56 704H35V714H310Q442 714 508 671T575 542Q575 492 553 457T486 403T376 378V376Q495 372 550 324T605 192Q605 96 539 48T340 0H35ZM335 10Q414
10 447 52T481 191Q481 256 467 294T421 351T337 369H246V10H335ZM307 379Q359 379 390 395T436 445T451 537Q451 628 418 666T305 704H246V379H307Z" />
<glyph unicode="C" horiz-adv-x="629" d="M376 -10Q270 -10 199 36T92 164T56 356Q56 465 92 548T201 677T386 724Q453 724 499 708T569 666T593 608Q593 574 566 555T496 536Q496 600 483 639T443 695T370 713Q304 713 263 674T202 557T183 359Q183 238 204 159T271
40T390 0Q459 0 502 36T565 151Q578 146 584 136T590 112Q590 92 578 71T539 32T473 2T376 -10Z" />
<glyph unicode="D" horiz-adv-x="738" d="M35 0V10H56Q80 10 96 17T121 39T130 80V638Q130 662 122 676T97 697T56 704H35V714H348Q453 714 527 674T642 554T682 361Q682 252 645 171T533 45T348 0H35ZM325 10Q406 10 457 46T531 159T555 361Q555 482 532 557T458
668T326 704H246V10H325Z" />
<glyph unicode="E" horiz-adv-x="631" d="M35 0V10H56Q80 10 96 17T121 39T130 79V637Q130 661 122 676T97 697T56 704H35V714H552L558 537H548L546 570Q542 620 528 649T482 691T400 704H247V379H494V369H247V10H427Q481 10 513 22T561 64T580 144L582 177H592L585
0H35Z" />
<glyph unicode="F" horiz-adv-x="599" d="M35 0V10H56Q80 10 96 17T121 39T130 79V637Q130 661 122 676T97 697T56 704H35V714H553L559 537H549L546 570Q543 620 528 649T482 691T400 704H247V362H494V352H247V80Q247 55 255 40T280 17T320 10H347V0H35Z" />
<glyph unicode="G" horiz-adv-x="729" d="M407 -10Q289 -10 211 36T95 164T56 358Q56 466 94 548T211 677T406 724Q482 724 534 710T614 670T642 613Q642 579 617 560T539 537Q539 600 525 639T481 696T400 714Q323 714 275 678T205 564T183 358Q183 230 207 152T285
37T423 0Q449 0 473 4T518 13V253Q518 277 510 292T483 314T439 322H433V332H708V322H701Q677 322 663 314T642 290T635 249V38Q583 14 528 2T407 -10Z" />
<glyph unicode="H" horiz-adv-x="800" d="M36 0V10H57Q81 10 97 17T122 39T130 80V637Q130 661 122 676T98 697T57 704H36V714H342V704H321Q297 704 281 697T256 675T247 634V378H553V634Q553 659 545 674T521 697T480 704H459V714H765V704H744Q721 704 705 698T679
676T670 637V80Q670 55 679 40T704 17T744 10H765V0H459V10H480Q504 10 520 17T545 39T553 80V368H247V80Q247 55 255 40T280 17T321 10H342V0H36Z" />
<glyph unicode="I" horiz-adv-x="376" d="M35 0V10H56Q80 10 96 17T121 39T130 80V637Q130 661 122 676T97 697T56 704H35V714H341V704H320Q297 704 280 697T255 675T247 634V80Q247 55 255 40T280 17T320 10H341V0H35Z" />
<glyph unicode="J" horiz-adv-x="368" d="M-14 -240V-230H-2Q38 -230 67 -214T113 -157T130 -47V638Q130 662 122 676T97 697T57 704H36V714H342V704H321Q297 704 281 697T256 675T247 634V-6Q247 -74 228 -119T177 -190T101 -228T8 -240H-14Z" />
<glyph unicode="K" horiz-adv-x="709" d="M35 0V10H56Q80 10 96 17T121 39T130 79V638Q130 662 122 676T97 697T56 704H35V714H341V704H320Q297 704 280 697T255 675T246 634V305L494 582Q513 603 525 619T543 647T549 670Q549 682 539 689T508 700T453 703V714H681V703Q658
703 637 696T592 668T534 610L382 441L597 126Q620 92 637 70T668 34T693 16T716 10H718V0H695Q643 0 610 4T554 19T516 46T482 91L305 355L246 289V80Q246 55 254 40T280 17T320 10H341V0H35Z" />
<glyph unicode="L" horiz-adv-x="632" d="M35 0V10H56Q80 10 96 17T121 39T130 80V637Q130 661 122 676T97 697T56 704H35V714H341V704H320Q297 704 281 697T256 675T247 635V10H421Q476 10 509 25T559 78T579 179L582 217H592L585 0H35Z" />
<glyph unicode="M" horiz-adv-x="942" d="M35 0V10H84Q107 10 123 17T148 39T157 79V638Q157 662 149 676T124 697T84 704H35V714H258L499 128L706 714H907V704H886Q862 704 846 697T821 675T812 634V80Q812 55 820 40T845 17T886 10H907V0H626V10H631Q652 10
667 17T691 39T700 78V666L466 0H435L167 655V80Q167 55 176 40T203 17T247 10H271V0H35Z" />
<glyph unicode="N" horiz-adv-x="770" d="M35 0V10H73Q97 10 113 17T138 39T147 80V638Q147 662 139 676T114 697T73 704H35V714H247L620 152V635Q620 660 612 675T587 697T547 704H506V714H745V704H704Q680 704 664 697T639 675T630 634V0H592L157 655V80Q157
55 165 40T190 17T230 10H275V0H35Z" />
<glyph unicode="O" horiz-adv-x="754" d="M377 -10Q269 -10 198 36T91 165T56 359Q56 470 91 552T198 679T378 725Q481 725 552 680T661 552T698 358Q698 247 661 165T552 36T377 -10ZM377 0Q428 0 465 20T525 84T559 196T571 358Q571 452 560 519T525 630T466
694T378 715Q327 715 290 695T229 631T194 520T182 358Q182 264 193 196T228 85T289 21T377 0Z" />
<glyph unicode="P" horiz-adv-x="613" d="M35 0V10H56Q80 10 96 17T121 39T130 80V638Q130 662 122 676T97 697T56 704H35V714H323Q453 714 515 658T577 504Q577 459 563 419T516 346T430 296T301 277H246V79Q246 54 255 39T280 17T320 10H347V0H35ZM291 287Q335
287 365 298T415 335T443 401T452 499Q452 573 438 618T391 683T306 704H246V287H291Z" />
<glyph unicode="Q" horiz-adv-x="754" d="M564 -233Q523 -233 483 -222T409 -184T353 -115T326 -7Q236 4 176 52T86 178T56 359Q56 470 91 552T198 679T378 725Q481 725 552 680T661 552T698 358Q698 214 635 118T452 -3Q454 -67 465 -109T495 -177T540 -212T599
-223H615V-233H564ZM377 0Q428 0 465 20T525 84T559 196T571 358Q571 452 560 519T525 630T466 694T378 715Q327 715 290 695T229 631T194 520T182 358Q182 264 193 196T228 85T289 21T377 0Z" />
<glyph unicode="R" horiz-adv-x="670" d="M35 0V10H56Q80 10 96 17T121 39T130 79V638Q130 662 122 676T97 697T56 704H35V714H319Q408 714 466 693T552 630T581 528Q581 471 558 434T500 375T425 341L557 129Q580 93 596 70T626 33T650 15T673 10H676V0H656Q610
0 579 3T526 16T487 44T452 91L305 333H246V79Q246 54 254 39T280 17T320 10H341V0H35ZM313 343Q365 343 396 361T442 418T457 521Q457 586 442 626T395 685T311 704H246V343H313Z" />
<glyph unicode="S" horiz-adv-x="556" d="M257 -10Q205 -10 165 1T97 31T57 75T43 129Q43 155 53 171T83 196T126 205Q127 132 143 87T190 21T268 0Q331 0 370 36T410 142Q410 188 392 216T337 268T241 317Q205 333 172 352T112 396T72 455T57 535Q57 596 84 638T161
702T280 724Q341 724 384 708T452 666T477 609Q477 578 453 560T386 541Q386 628 360 670T271 713Q237 713 209 699T164 657T148 582Q148 536 166 506T221 454T316 404Q372 380 414 354T481 289T505 193Q505 131 476 86T392 15T257 -10Z" />
<glyph unicode="T" horiz-adv-x="624" d="M158 0V10H179Q203 10 219 17T244 39T253 80V704H176Q125 704 94 692T48 650T30 570L27 534H17L24 714H601L607 534H597L595 570Q592 620 577 649T531 691T448 704H370V80Q370 55 378 40T403 17T443 10H464V0H158Z" />
<glyph unicode="U" horiz-adv-x="725" d="M369 -10Q288 -10 230 12T141 85T110 217V638Q110 662 102 676T77 697T37 704H15V714H321V704H300Q277 704 261 697T236 675T227 635V195Q227 121 247 80T305 22T389 5Q456 5 503 29T577 98T603 206V638Q603 662 595 676T569
697T529 704H503V714H710V704H686Q663 704 646 697T621 675T613 634V205Q613 137 585 89T503 16T369 -10Z" />
<glyph unicode="V" horiz-adv-x="681" d="M81 652Q74 672 65 683T43 699T12 704H0V714H290V704H256Q229 704 215 696T200 667Q200 661 201 654T205 638T210 621L332 266Q341 241 348 218T363 171T376 128T387 87Q395 113 403 141T421 198T439 254L554 614Q558
624 560 632T563 649T565 663Q565 686 550 695T500 704H439V714H681V704H647Q628 704 615 697T591 674T571 628L368 0H310L81 652Z" />
<glyph unicode="W" horiz-adv-x="1053" d="M87 651Q81 671 73 682T51 699T16 704H7V714H298V704H271Q240 704 226 695T211 662Q211 656 212 649T215 632T220 614L319 284Q329 251 338 218T355 149T371 76Q376 103 385 141T406 223L528 707H578L719 288Q733 249
745 208T767 131T783 70Q790 97 795 120T806 167T820 221L919 603Q923 620 925 633T927 656Q927 683 911 693T860 704H829V714H1033V704H1011Q990 704 976 697T953 673T935 626L775 0H700L508 585L363 0H284L87 651Z" />
<glyph unicode="X" horiz-adv-x="680" d="M9 0V10H30Q51 10 67 16T98 39T132 82L300 332L118 650Q107 671 95 682T69 699T33 704H24V714H311V704H299Q269 704 256 697T243 675Q243 665 249 650T266 616L377 422L506 614Q520 635 527 650T535 676Q535 692 520 698T474
704H428V714H649V704H632Q612 704 596 698T564 676T530 632L382 412L573 78Q589 51 602 37T630 16T665 10H671V0H385V10H400Q428 10 442 17T456 40Q456 50 451 64T431 102L306 322L157 100Q148 86 142 75T132 54T128 38Q128 22 143 16T188 10H247V0H9Z" />
<glyph unicode="Y" horiz-adv-x="644" d="M160 0V10H190Q214 10 231 17T256 39T265 79V303L82 651Q72 671 62 682T41 699T14 704H-4V714H288V704H255Q229 704 217 698T204 675Q204 664 209 650T224 615L314 439Q325 421 333 404T349 370T364 340T377 312Q390 339
407 374T444 447L519 598Q531 621 537 638T543 668Q543 688 527 696T475 704H427V714H651V704H625Q609 704 597 697T572 673T545 626L382 302V79Q382 54 391 39T417 17T457 10H487V0H160Z" />
<glyph unicode="Z" horiz-adv-x="612" d="M38 0V10L423 704H221Q166 704 133 691T85 647T68 564L66 530H56L62 714H552V704L167 10H405Q459 10 490 23T538 67T558 150L561 184H571L564 0H38Z" />
<glyph unicode="[" horiz-adv-x="375" d="M100 -128V760H338V750H295Q266 750 248 744T222 723T213 678V-46Q213 -74 221 -90T248 -112T295 -118H338V-128H100Z" />
<glyph unicode="\" horiz-adv-x="236" d="M226 -121L0 760H10L236 -121H226Z" />
<glyph unicode="]" horiz-adv-x="375" d="M37 -128V-118H80Q109 -118 127 -112T153 -90T162 -46V678Q162 707 154 722T127 744T80 750H37V760H275V-128H37Z" />
<glyph unicode="^" horiz-adv-x="504" d="M55 261L239 714H263L449 261H427L251 694L77 261H55Z" />
<glyph unicode="_" horiz-adv-x="459" d="M-5 -123V-103H464V-123H-5Z" />
<glyph unicode="`" horiz-adv-x="265" d="M215 606Q195 621 170 641T119 683T73 724T40 756V766H141Q152 744 166 717T195 664T225 616V606H215Z" />
<glyph unicode="a" horiz-adv-x="573" d="M212 -10Q137 -10 93 30T49 140Q49 217 105 254T276 295L358 298V387Q358 440 352 473T328 521T274 537Q221 537 205 502T189 385Q141 385 116 399T91 447Q91 483 116 505T184 537T278 547Q373 547 420 508T468 375V76Q468
51 474 37T494 16T530 10H533V0H365V104H363Q352 63 330 38T278 2T212 -10ZM241 8Q276 8 302 28T343 80T358 151V287L299 285Q221 281 192 247T162 133Q162 91 170 63T197 22T241 8Z" />
<glyph unicode="b" horiz-adv-x="624" d="M369 -10Q306 -10 268 26T217 140H215V0H18V10H27Q53 10 70 17T97 40T106 84V677Q106 704 97 720T70 743T27 750H21V760H216V580Q216 554 216 506T214 401H216Q229 475 268 511T372 547Q469 547 520 478T571 269Q571 177
548 115T480 21T369 -10ZM345 8Q385 8 410 35T446 122T458 274Q458 364 447 420T410 502T345 529Q277 529 247 465T216 273Q216 139 248 74T345 8Z" />
<glyph unicode="c" horiz-adv-x="502" d="M288 -10Q218 -10 165 17T83 106T53 269Q53 373 83 434T165 521T283 547Q330 547 371 535T437 500T462 442Q462 421 452 406T420 383T362 375Q362 432 355 468T330 520T279 537Q244 537 219 514T180 433T166 268Q166 171
180 112T225 27T307 0Q340 0 367 12T413 53T443 132Q454 129 460 120T467 95Q467 71 448 47T389 7T288 -10Z" />
<glyph unicode="d" horiz-adv-x="624" d="M255 -10Q189 -10 144 21T76 114T53 269Q53 363 75 424T142 516T252 547Q318 547 356 511T407 401H409Q409 438 409 472T408 535T408 580V677Q408 704 399 720T372 743T329 750H323V760H518V84Q518 56 527 40T554 17T597
10H606V0H409V140H407Q394 63 356 27T255 -10ZM279 8Q344 8 376 73T408 273Q408 358 394 414T352 500T279 529Q239 529 214 503T177 420T165 274Q165 181 176 122T213 36T279 8Z" />
<glyph unicode="e" horiz-adv-x="545" d="M297 -10Q180 -10 117 62T53 264Q53 405 113 476T282 547Q382 547 439 487T497 307V283H166Q166 182 180 120T225 29T306 0Q343 0 372 14T421 58T448 131Q462 128 468 118T475 94Q475 72 456 48T397 7T297 -10ZM382 293Q382
382 372 435T340 512T281 537Q242 537 218 513T181 435T166 293H382Z" />
<glyph unicode="f" horiz-adv-x="379" d="M25 0V10H40Q66 10 83 17T110 40T119 84V526H29V536H119V582Q119 673 167 721T317 770Q363 770 392 761T436 736T451 698Q451 680 440 667T408 647T358 640Q358 707 345 733T298 760Q260 760 245 727T229 607V536H369V526H229V87Q229
58 238 41T265 17T308 10H349V0H25Z" />
<glyph unicode="g" horiz-adv-x="544" d="M232 -240Q123 -240 70 -205T17 -109Q17 -75 33 -51T84 -12T173 4Q130 15 108 43T85 104Q85 136 106 162T172 204Q122 221 93 261T63 362Q63 448 111 497T257 547Q293 547 322 538T375 512Q393 533 417 551T474 569Q504
569 519 554T534 515Q534 495 521 481T476 466Q476 497 465 512T431 527Q419 527 409 523T383 506Q412 481 427 445T443 364Q443 289 398 240T257 191Q237 191 219 193T184 200Q162 190 154 177T145 148Q145 123 162 112T217 100H332Q424 100 464 58T504 -51Q504
-138 438 -189T232 -240ZM241 -230Q331 -230 376 -197T422 -98Q422 -49 396 -25T316 -1H209Q180 -1 156 -11T118 -46T103 -111Q103 -151 119 -177T166 -217T241 -230ZM254 201Q285 201 303 218T329 271T337 364Q337 425 329 463T303 519T253 537Q223 537 205 518T178
461T169 363Q169 306 177 270T205 218T254 201Z" />
<glyph unicode="h" horiz-adv-x="644" d="M18 0V10H27Q53 10 71 17T97 43T106 95V668Q106 700 97 717T72 742T28 750H21V760H216V558Q216 539 216 520T216 482T215 443H217Q230 489 254 511T308 540T364 547Q452 547 495 501T539 352V96Q539 62 546 44T569 18T612
10H616V0H429V385Q429 450 407 489T331 528Q287 528 262 503T227 438T216 351V95Q216 61 224 43T250 18T293 10H300V0H18Z" />
<glyph unicode="i" horiz-adv-x="329" d="M21 0V10H34Q60 10 77 17T104 40T113 84V453Q113 480 104 496T78 519T34 526H29V536H223V87Q223 58 232 41T259 17T302 10H315V0H21ZM163 630Q141 630 127 644T112 691Q112 724 126 737T163 751Q184 751 199 738T214 691Q214
658 199 644T163 630Z" />
<glyph unicode="j" horiz-adv-x="312" d="M-14 -240V-230H-7Q29 -230 54 -213T93 -150T106 -21V451Q106 480 97 496T70 519T24 526H21V536H216V-8Q216 -97 189 -148T113 -219T3 -240H-14ZM156 630Q134 630 119 644T104 691Q104 724 119 737T156 751Q177 751 192
738T208 691Q208 658 193 644T156 630Z" />
<glyph unicode="k" horiz-adv-x="599" d="M18 0V10H27Q53 10 70 17T97 40T106 84V677Q106 704 97 720T70 743T27 750H21V760H216V341Q216 322 216 304T216 268T214 230L390 424Q405 440 415 453T429 476T434 495Q434 512 411 519T337 526V536H564V526Q540 526
521 521T478 497T416 437L337 349L500 101Q528 59 545 40T573 16T597 10H600V0H564Q527 0 501 3T454 15T418 39T387 80L266 271L216 215V87Q216 58 225 41T251 17T295 10H300V0H18Z" />
<glyph unicode="l" horiz-adv-x="322" d="M14 0V10H27Q53 10 70 17T97 40T106 84V677Q106 704 97 720T70 743T27 750H14V760H216V87Q216 58 225 41T251 17T295 10H307V0H14Z" />
<glyph unicode="m" horiz-adv-x="956" d="M25 0V10H34Q60 10 77 17T104 40T113 84V453Q113 480 104 496T78 519T34 526H29V536H222V442H224Q238 486 261 508T313 539T372 547Q430 547 472 520T533 425H535Q546 475 567 501T618 537T681 547Q768 547 810 499T852
349V89Q852 59 859 42T884 17T929 10H932V0H742V373Q742 451 721 487T651 524Q614 524 589 504T551 445T539 354V89Q539 59 547 42T572 17T617 10H620V0H429V373Q429 451 408 487T336 524Q297 524 272 503T235 441T223 341V87Q223 58 232 41T259 17T302 10H307V0H25Z"
/>
<glyph unicode="n" horiz-adv-x="651" d="M25 0V10H34Q61 10 78 17T104 43T113 95V444Q113 476 105 493T79 518T36 526H29V536H222V443H224Q238 489 262 511T315 540T371 547Q460 547 503 501T546 352V96Q546 62 553 44T577 18T619 10H624V0H436V385Q436 450 414
489T338 528Q295 528 270 503T234 438T223 351V95Q223 61 231 43T257 18T301 10H307V0H25Z" />
<glyph unicode="o" horiz-adv-x="587" d="M292 -10Q181 -10 117 59T53 269Q53 410 114 478T295 547Q406 547 470 479T534 269Q534 128 473 59T292 -10ZM294 0Q340 0 368 26T408 112T421 269Q421 366 409 425T368 510T293 537Q247 537 219 511T179 425T166 269Q166
171 178 112T219 27T294 0Z" />
<glyph unicode="p" horiz-adv-x="623" d="M21 -240V-230H30Q56 -230 73 -223T100 -200T109 -156V453Q109 480 100 496T74 519T30 526H20V536H218V401H220Q233 475 271 511T375 547Q473 547 523 478T574 269Q574 130 523 60T372 -10Q310 -10 272 26T220 140H218Q219
113 219 85T219 30V-153Q219 -181 228 -198T255 -223T298 -230H307V-240H21ZM348 8Q389 8 414 35T450 122T462 274Q462 364 451 420T414 502T348 529Q304 529 276 500T233 415T219 273Q219 184 233 125T276 37T348 8Z" />
<glyph unicode="q" horiz-adv-x="623" d="M297 -240V-230H329Q354 -230 372 -223T399 -200T408 -156V34Q408 53 408 70T408 105T409 140H407Q398 89 378 56T328 6T255 -10Q156 -10 105 60T53 269Q53 363 75 424T142 516T252 547Q318 547 356 511T407 401H409V536H603V526H597Q572
526 554 519T527 496T518 453V-153Q518 -181 527 -198T554 -223T597 -230H610V-240H297ZM279 8Q322 8 351 37T394 125T408 273Q408 400 377 464T279 529Q239 529 214 503T177 420T165 274Q165 181 176 122T213 36T279 8Z" />
<glyph unicode="r" horiz-adv-x="485" d="M22 0V10H34Q60 10 77 17T104 40T113 84V453Q113 480 104 496T78 519T34 526H31V536H222V440H224Q232 468 247 492T291 531T364 547Q416 547 443 527T470 469Q470 435 445 414T368 393Q368 459 349 484T303 509Q278 509
262 492T238 446T226 384T223 317V87Q223 58 232 41T259 17T302 10H320V0H22Z" />
<glyph unicode="s" horiz-adv-x="461" d="M216 -10Q162 -10 123 3T62 40T41 99Q41 128 53 143T82 164T112 170Q112 112 122 75T157 19T221 0Q272 0 302 26T333 106Q333 141 321 161T280 196T204 232Q150 255 116 277T66 329T49 400Q49 471 99 508T239 546Q291
546 326 533T380 499T398 452Q398 425 378 408T318 391Q318 470 297 503T231 536Q201 536 179 526T145 495T132 441Q132 407 146 387T191 351T268 317Q322 296 355 273T403 221T418 151Q418 73 365 32T216 -10Z" />
<glyph unicode="t" horiz-adv-x="367" d="M241 -10Q167 -10 131 24T95 146V526H20V536Q59 536 88 543T139 567Q161 583 174 608T195 670H205V536H342V526H205V107Q205 56 224 31T282 6Q296 6 311 9T344 18V8Q331 2 302 -4T241 -10Z" />
<glyph unicode="u" horiz-adv-x="644" d="M279 -10Q191 -10 148 36T105 185V441Q105 474 98 492T73 518T27 526H24V536H215V172Q215 114 223 78T252 25T306 8Q348 8 375 32T415 100T428 207V443Q428 476 420 493T394 518T349 526H346V536H538V91Q538 59 547 42T573
17T617 10H620V0H433V125H431Q423 79 406 52T368 12T323 -5T279 -10Z" />
<glyph unicode="v" horiz-adv-x="586" d="M66 474Q59 494 51 505T31 521T3 526V536H269V526H242Q211 526 196 518T181 489Q181 480 184 469T192 443L272 220Q284 186 293 159T312 104T333 42Q339 61 345 80T358 118T372 158L468 437Q473 452 476 464T479 485Q479
507 462 516T404 526H374V536H584V526H563Q542 526 528 520T504 497T483 449L329 0H240L66 474Z" />
<glyph unicode="w" horiz-adv-x="860" d="M67 473Q62 494 54 505T34 521T9 526H0V536H260V526H236Q204 526 190 518T176 488Q176 479 178 467T184 441L248 214Q255 188 262 160T277 105T292 53H294Q300 75 305 95T315 136T327 179L421 532H485L594 203Q601 184
607 165T619 127T632 88T644 49H647Q653 72 659 97T672 148T686 200L747 433Q751 448 753 461T756 484Q756 507 740 516T685 526H651V536H860V526H836Q818 526 804 520T779 496T761 448L643 0H560L411 453L290 0H206L67 473Z" />
<glyph unicode="x" horiz-adv-x="597" d="M7 0V10H28Q48 10 64 15T95 36T131 77L262 255L115 473Q102 492 90 503T64 520T33 526H23V536H296V526H285Q254 526 241 520T228 501Q228 491 233 479T250 451L337 322L423 437Q437 456 444 471T452 498Q452 514 437 520T392
526H350V536H566V526H553Q534 526 519 521T489 502T455 463L343 313L512 64Q526 44 537 32T561 15T587 10H593V0H317V10H331Q364 10 379 17T395 38Q395 50 386 67T358 112L268 245L160 99Q145 79 138 65T130 38Q130 22 145 16T190 10H237V0H7Z" />
<glyph unicode="y" horiz-adv-x="569" d="M36 -230Q106 -230 149 -219T218 -186T262 -127T300 -42L74 473Q65 494 57 505T40 521T19 526H3V536H256V526H248Q220 526 205 518T189 489Q189 480 192 469T201 443L290 230Q298 212 305 193T320 156T333 120T344 88Q356
122 366 153T384 206L461 435Q466 450 468 461T471 482Q471 505 456 515T405 526H363V536H569V526H563Q539 526 524 520T498 496T476 448L324 -4Q300 -76 278 -122T226 -194T153 -230T43 -240H36V-230Z" />
<glyph unicode="z" horiz-adv-x="516" d="M35 0V10L342 522H193Q150 522 124 512T85 476T65 408L63 388H53L63 536H460V526L153 14H327Q371 14 397 25T437 65T455 139L457 167H467L461 0H35Z" />
<glyph unicode="{" horiz-adv-x="432" d="M313 -127Q240 -127 201 -88T162 18V205Q162 248 147 270T104 301T44 312V322Q77 323 104 332T146 363T162 424V616Q162 685 201 722T313 760H387V750H355Q311 750 294 724T276 647V439Q276 408 263 383T222 341T148 319V317Q195
311 222 295T263 253T276 196V-14Q276 -64 293 -90T355 -117H387V-127H313Z" />
<glyph unicode="|" horiz-adv-x="559" d="M255 -240V760H303V-240H255Z" />
<glyph unicode="}" horiz-adv-x="432" d="M44 -127V-117H77Q121 -117 138 -91T156 -14V196Q156 228 168 253T209 294T284 317V319Q238 325 210 341T169 382T156 439V647Q156 698 139 724T77 750H44V760H118Q193 760 231 723T270 616V424Q270 385 286 363T328 332T387
322V312Q355 311 329 302T286 270T270 205V18Q270 -49 232 -88T118 -127H44Z" />
<glyph unicode="~" horiz-adv-x="559" d="M64 277Q69 300 74 327T91 379T121 420T170 436Q205 436 232 416T284 369Q310 343 334 320T389 297Q419 297 435 319T459 374T475 436H494Q491 418 485 391T468 338T437 295T387 277Q350 277 322 303T268 357Q253 374
238 387T207 408T171 416Q143 416 127 399T102 350T84 277H64Z" />
<glyph unicode="&#xa0;" horiz-adv-x="225" />
<glyph unicode="&#xa1;" horiz-adv-x="347" d="M107 -180L165 326H180L239 -180H107ZM173 399Q145 399 130 416T114 471Q114 508 129 525T173 542Q200 542 215 525T231 471Q231 433 216 416T173 399Z" />
<glyph unicode="&#xa2;" horiz-adv-x="559" d="M305 85Q234 87 182 116T102 205T73 364Q73 464 103 524T185 612T305 642V714H315V642Q369 642 411 630T478 595T502 536Q502 515 492 500T459 478T402 470Q402 526 394 561T366 613T315 631V95Q361 95 391 107T440
149T472 227Q484 225 490 216T497 191Q497 166 478 142T419 102T315 85V0H305V85ZM305 631Q262 630 236 603T198 517T185 363Q185 273 197 216T235 131T305 96V631Z" />
<glyph unicode="&#xa3;" horiz-adv-x="559" d="M407 -11Q382 -11 359 -2T311 22Q286 36 262 48T206 61Q169 61 137 43T79 7L57 -9L51 -1L73 17Q96 35 120 65T161 137T178 226Q178 263 169 296T148 360H42V370H144Q128 412 113 454T98 544Q98 629 153 676T313 724Q374
724 413 709T471 669T490 613Q490 577 466 559T398 541Q398 602 387 640T353 696T293 714Q241 714 216 679T191 577Q191 536 199 501T219 433T243 370H408V360H247Q253 344 257 328T264 294T267 259Q267 221 253 190T212 129T145 67L146 65Q173 85 208 104T285
123Q316 123 339 112T382 89Q404 75 423 64T463 53Q484 53 500 65T532 103L540 98Q527 72 508 47T465 5T407 -11Z" />
<glyph unicode="&#xa4;" horiz-adv-x="559" d="M109 144L65 188L128 252Q112 275 104 301T96 357Q96 387 104 414T129 464L65 528L109 572L173 508Q195 524 222 532T279 541Q307 541 334 533T383 508L449 573L493 528L429 463Q445 441 454 414T463 357Q463 328
454 302T429 252L493 188L450 144L385 208Q363 192 336 183T279 174Q249 174 223 183T173 208L109 144ZM279 233Q314 233 342 250T386 295T403 357Q403 393 387 421T342 466T279 483Q245 483 217 467T172 422T155 357Q155 323 171 295T216 250T279 233Z" />
<glyph unicode="&#xa5;" horiz-adv-x="559" d="M128 0V10H155Q178 10 194 17T219 39T227 79V195H80V205H227V306H80V316H225L61 651Q46 681 36 692T11 704H4V714H259V704H227Q203 704 191 698T179 675Q179 664 184 650T198 615L275 447Q284 427 292 410T307 378T320
348T332 320Q339 340 345 357T366 410L442 599Q450 620 454 636T459 664Q459 686 445 695T398 704H359V714H552V704H539Q514 704 497 687T463 626L341 316H486V306H339V205H486V195H339V79Q339 54 347 39T371 17T410 10H437V0H128Z" />
<glyph unicode="&#xa6;" horiz-adv-x="559" d="M269 360V760H289V360H269ZM269 -240V160H289V-240H269Z" />
<glyph unicode="&#xa7;" horiz-adv-x="544" d="M274 -114Q232 -114 199 -106T143 -82T108 -45T96 3Q96 31 107 47T134 70T166 78Q166 -12 194 -57T289 -103Q323 -103 350 -91T393 -52T409 16Q409 53 393 78T338 128T231 186Q194 205 165 223T116 263T85 308T74
362Q74 404 93 432T144 477Q121 501 109 529T96 596Q96 677 147 718T284 760Q336 760 373 746T431 706T451 648Q451 616 431 600T374 583Q374 663 351 706T270 750Q241 750 218 738T182 701T168 638Q168 600 183 575T235 528T328 478Q378 454 416 430T475 374T497
298Q497 253 477 225T427 177Q446 155 457 128T468 62Q468 12 448 -27T385 -90T274 -114ZM415 189Q424 202 428 217T433 251Q433 271 425 290T394 329T322 371Q268 397 225 420T153 469Q142 458 137 443T132 411Q132 382 148 361T199 317T290 267Q316 254 339 242T381
217T415 189Z" />
<glyph unicode="&#xa8;" horiz-adv-x="577" d="M385 630Q366 630 353 643T340 688Q340 721 353 733T385 746Q403 746 416 734T430 688Q430 656 417 643T385 630ZM191 630Q172 630 159 643T146 688Q146 721 159 733T191 746Q209 746 222 734T236 688Q236 656 223
643T191 630Z" />
<glyph unicode="&#xa9;" horiz-adv-x="845" d="M422 -10Q342 -10 275 17T159 93T82 210T55 358Q55 438 82 505T158 621T274 697T422 725Q502 725 569 698T686 622T763 505T790 357Q790 277 763 210T687 94T570 17T422 -10ZM426 128Q357 128 311 156T241 237T218
358Q218 429 243 480T318 558T440 586Q480 586 511 578T561 553T580 515Q580 491 560 478T510 465Q510 503 501 527T472 563T421 575Q379 575 353 553T314 482T302 358Q302 282 317 233T363 161T437 138Q485 138 518 165T564 244Q572 240 577 233T582 214Q582 193
562 174T507 141T426 128ZM424 0Q501 0 565 26T677 101T751 215T778 358Q778 435 752 500T678 614T565 688T422 715Q345 715 280 689T168 614T94 501T67 358Q67 279 94 213T170 100T284 26T424 0Z" />
<glyph unicode="&#xaa;" horiz-adv-x="392" d="M137 380Q89 380 61 404T33 471Q33 520 73 544T197 572L240 574V623Q240 671 230 690T194 709Q168 709 158 689T148 614Q106 614 83 624T60 658Q60 680 78 693T127 713T195 719Q264 719 297 695T331 612V435Q331
413 340 405T374 396V386H247V455H245Q233 418 206 399T137 380ZM178 406Q198 406 211 418T232 450T240 492V563L211 562Q165 561 147 540T128 481Q128 444 142 425T178 406Z" />
<glyph unicode="&#xab;" horiz-adv-x="525" d="M445 77L252 265V275L445 463H460L352 270L460 77H445ZM259 77L65 265V275L259 463H274L165 270L274 77H259Z" />
<glyph unicode="&#xac;" horiz-adv-x="559" d="M467 120V355H62V375H487V120H467Z" />
<glyph unicode="&#xad;" horiz-adv-x="310" d="M25 263V283H285V263H25Z" />
<glyph unicode="&#xae;" horiz-adv-x="845" d="M422 -10Q342 -10 275 17T159 93T82 210T55 358Q55 438 82 505T158 621T274 697T422 725Q502 725 569 698T686 622T763 505T790 357Q790 277 763 210T687 94T570 17T422 -10ZM424 0Q501 0 565 26T677 101T751 215T778
358Q778 435 752 500T678 614T565 688T422 715Q345 715 280 689T168 614T94 501T67 358Q67 279 94 213T170 100T284 26T424 0ZM231 141V151H244Q264 151 278 157T293 186V529Q293 553 279 559T244 565H231V575H414Q500 575 543 545T587 457Q587 423 574 401T539
366T490 345L588 188Q602 167 613 159T638 151V141H531L411 342H371V186Q371 163 386 157T420 151H434V141H231ZM413 352Q464 352 485 376T507 458Q507 516 485 540T410 565H371V352H413Z" />
<glyph unicode="&#xaf;" horiz-adv-x="459" d="M-5 780V800H464V780H-5Z" />
<glyph unicode="&#xb0;" horiz-adv-x="400" d="M199 423Q132 423 90 465T48 574Q48 641 90 683T199 726Q267 726 309 684T351 574Q351 507 309 465T199 423ZM200 443Q257 443 293 479T329 574Q329 634 293 670T200 706Q144 706 107 670T70 574Q70 515 106 479T200 443Z" />
<glyph unicode="&#xb1;" horiz-adv-x="559" d="M65 21V41H494V21H65ZM269 143V347H65V367H269V572H289V367H494V347H289V143H269Z" />
<glyph unicode="&#xb2;" horiz-adv-x="400" d="M41 387V439L164 546Q196 575 214 601T239 655T246 713Q246 748 240 771T221 804T187 815Q164 815 151 802T132 762T126 693Q92 693 71 705T49 746Q49 770 64 787T112 815T189 825Q264 825 301 797T338 713Q338 687
328 664T290 616T212 556L71 454H284Q314 454 326 464T341 501L342 516H352L347 387H41Z" />
<glyph unicode="&#xb3;" horiz-adv-x="400" d="M174 380Q107 380 73 402T38 461Q38 483 51 497T88 511Q88 448 108 419T173 390Q217 390 237 415T258 496Q258 555 234 581T154 608H121V618H154Q200 618 220 644T241 724Q241 773 227 793T183 814Q150 814 137 786T124
696Q88 696 67 704T46 740Q46 764 62 782T109 812T186 824Q255 824 295 797T336 721Q336 677 303 649T209 615V613Q275 608 314 582T353 503Q353 457 327 430T259 392T174 380Z" />
<glyph unicode="&#xb4;" horiz-adv-x="265" d="M40 616Q54 638 69 664T99 717T124 766H225V756Q213 743 193 724T147 684T96 642T50 606H40V616Z" />
<glyph unicode="&#xb5;" horiz-adv-x="629" d="M167 -240Q145 -240 127 -230T97 -192T85 -110Q85 -86 87 -54T91 19T95 111T97 225V536H207V184Q207 125 216 86T245 28T300 9Q336 9 361 31T400 96T413 205V536H523V96Q523 49 537 30T587 10H591V0H528Q478 0 450
25T414 104H412Q397 46 365 18T271 -10Q228 -10 194 4T138 48T105 122Q105 63 109 19T123 -57T150 -109T189 -139T245 -153Q245 -190 228 -215T167 -240Z" />
<glyph unicode="&#xb6;" horiz-adv-x="620" d="M169 -111V-101H182Q205 -101 223 -96T253 -76T264 -29V386H193Q135 386 102 413T54 485T40 582Q40 636 55 676T104 738T195 760H579V750H566Q544 750 525 745T495 725T484 678V-29Q484 -60 495 -75T525 -96T566
-101H579V-111H420V750H328V-111H169Z" />
<glyph unicode="&#xb7;" horiz-adv-x="262" d="M131 284Q103 284 88 301T72 356Q72 393 87 410T131 427Q159 427 174 410T190 356Q190 319 175 302T131 284Z" />
<glyph unicode="&#xb8;" horiz-adv-x="333" d="M138 -240Q114 -240 94 -237T57 -229V-218Q72 -222 85 -224T110 -226Q151 -226 170 -204T189 -135Q189 -110 182 -94T164 -69T135 -59L149 2H159L148 -50Q206 -53 239 -75T272 -139Q272 -184 239 -212T138 -240Z" />
<glyph unicode="&#xb9;" horiz-adv-x="400" d="M62 387V397H116Q134 397 146 403T158 435V764Q140 742 128 728T105 707T81 700Q63 700 53 711T43 741Q73 742 92 745T128 757T162 781L207 819H251V435Q251 410 263 404T294 397H338V387H62Z" />
<glyph unicode="&#xba;" horiz-adv-x="408" d="M204 380Q124 380 80 422T35 550Q35 636 78 677T206 719Q283 719 328 678T373 550Q373 465 330 423T204 380ZM205 390Q246 390 262 425T279 550Q279 640 263 674T204 709Q163 709 147 675T130 550Q130 461 146 426T205 390Z" />
<glyph unicode="&#xbb;" horiz-adv-x="525" d="M252 77L360 270L252 463H267L460 275V265L267 77H252ZM65 77L173 270L65 463H80L274 275V265L80 77H65Z" />
<glyph unicode="&#xbc;" horiz-adv-x="840" d="M283 543V553H337Q355 553 367 559T379 591V920Q361 898 349 884T326 863T302 856Q284 856 274 867T264 897Q294 898 313 901T349 913T383 937L428 975H472V591Q472 566 484 560T515 553H559V543H283ZM237 0L594
714H605L248 0H237ZM566 0V10H594Q611 10 623 16T635 48V124H454V157L644 432H727V170H818V124H727V48Q727 23 740 17T769 10H789V0H566ZM475 170H635V340Q635 352 635 362T635 383T637 407Q633 399 625 387T605 357L475 170Z" />
<glyph unicode="&#xbd;" horiz-adv-x="840" d="M283 543V553H337Q355 553 367 559T379 591V920Q361 898 349 884T326 863T302 856Q284 856 274 867T264 897Q294 898 313 901T349 913T383 937L428 975H472V591Q472 566 484 560T515 553H559V543H283ZM217 0L574
714H585L228 0H217ZM495 0V52L618 159Q650 188 668 214T693 268T700 326Q700 361 694 384T675 417T641 428Q618 428 605 415T586 375T580 306Q546 306 525 318T503 359Q503 383 518 400T566 428T643 438Q718 438 755 410T792 326Q792 300 782 277T744 229T666 169L525
67H738Q768 67 780 77T795 114L796 129H806L801 0H495Z" />
<glyph unicode="&#xbe;" horiz-adv-x="840" d="M174 536Q107 536 73 558T38 617Q38 639 51 653T88 667Q88 604 108 575T173 546Q217 546 237 571T258 652Q258 711 234 737T154 764H121V774H154Q200 774 220 800T241 880Q241 929 227 949T183 970Q150 970 137 942T124
852Q88 852 67 860T46 896Q46 920 62 938T109 968T186 980Q255 980 295 953T336 877Q336 833 303 805T209 771V769Q275 764 314 738T353 659Q353 613 327 586T259 548T174 536ZM257 0L614 714H625L268 0H257ZM566 0V10H594Q611 10 623 16T635 48V124H454V157L644
432H727V170H818V124H727V48Q727 23 740 17T769 10H789V0H566ZM475 170H635V340Q635 352 635 362T635 383T637 407Q633 399 625 387T605 357L475 170Z" />
<glyph unicode="&#xbf;" horiz-adv-x="514" d="M314 191Q263 187 231 168T185 108T170 -2Q170 -61 180 -101T213 -161T273 -182Q307 -182 329 -165T363 -110T374 -13Q417 -13 445 -30T473 -83Q473 -113 451 -138T385 -177T281 -192Q174 -192 113 -145T52 -7Q52
70 101 120T253 194L276 324H291L314 191ZM285 539Q313 539 328 522T344 468Q344 431 329 414T285 397Q258 397 243 414T227 468Q227 505 242 522T285 539Z" />
<glyph unicode="&#xc0;" horiz-adv-x="718" d="M1 0V10H33Q55 10 69 17T94 40T115 87L337 714H401L644 68Q653 46 661 34T681 16T708 10H718V0H428V10H460Q493 10 508 18T524 49Q524 55 523 61T521 76T515 94L455 260H188L132 103Q128 94 126 85T123 69T121 55Q121
30 141 20T208 10H244V0H1ZM191 270H451L381 462Q370 494 359 525T339 587T322 644Q315 623 309 603T295 563T280 522T264 477L191 270ZM380 771Q360 786 335 806T284 848T238 889T205 921V931H306Q317 909 331 882T360 829T390 781V771H380Z" />
<glyph unicode="&#xc1;" horiz-adv-x="718" d="M1 0V10H33Q55 10 69 17T94 40T115 87L337 714H401L644 68Q653 46 661 34T681 16T708 10H718V0H428V10H460Q493 10 508 18T524 49Q524 55 523 61T521 76T515 94L455 260H188L132 103Q128 94 126 85T123 69T121 55Q121
30 141 20T208 10H244V0H1ZM191 270H451L381 462Q370 494 359 525T339 587T322 644Q315 623 309 603T295 563T280 522T264 477L191 270ZM328 781Q342 803 357 829T387 882T412 931H513V921Q501 908 481 889T435 849T384 807T338 771H328V781Z" />
<glyph unicode="&#xc2;" horiz-adv-x="718" d="M1 0V10H33Q55 10 69 17T94 40T115 87L337 714H401L644 68Q653 46 661 34T681 16T708 10H718V0H428V10H460Q493 10 508 18T524 49Q524 55 523 61T521 76T515 94L455 260H188L132 103Q128 94 126 85T123 69T121 55Q121
30 141 20T208 10H244V0H1ZM191 270H451L381 462Q370 494 359 525T339 587T322 644Q315 623 309 603T295 563T280 522T264 477L191 270ZM205 781Q225 802 245 828T286 881T320 931H402Q416 909 435 882T476 828T517 781V771H507Q487 782 460 799T406 836T361 871Q343
855 316 836T262 800T215 771H205V781Z" />
<glyph unicode="&#xc3;" horiz-adv-x="718" d="M1 0V10H33Q55 10 69 17T94 40T115 87L337 714H401L644 68Q653 46 661 34T681 16T708 10H718V0H428V10H460Q493 10 508 18T524 49Q524 55 523 61T521 76T515 94L455 260H188L132 103Q128 94 126 85T123 69T121 55Q121
30 141 20T208 10H244V0H1ZM191 270H451L381 462Q370 494 359 525T339 587T322 644Q315 623 309 603T295 563T280 522T264 477L191 270ZM439 771Q414 771 390 781T343 804T295 827T244 837Q210 837 201 820T186 781H176Q179 814 190 843T224 889T280 907Q306 907
330 897T377 874T425 852T475 842Q507 842 518 858T533 897H543Q540 866 529 837T495 789T439 771Z" />
<glyph unicode="&#xc4;" horiz-adv-x="718" d="M1 0V10H33Q55 10 69 17T94 40T115 87L337 714H401L644 68Q653 46 661 34T681 16T708 10H718V0H428V10H460Q493 10 508 18T524 49Q524 55 523 61T521 76T515 94L455 260H188L132 103Q128 94 126 85T123 69T121 55Q121
30 141 20T208 10H244V0H1ZM191 270H451L381 462Q370 494 359 525T339 587T322 644Q315 623 309 603T295 563T280 522T264 477L191 270ZM456 795Q437 795 424 808T411 853Q411 886 424 898T456 911Q474 911 487 899T501 853Q501 821 488 808T456 795ZM262 795Q243
795 230 808T217 853Q217 886 230 898T262 911Q280 911 293 899T307 853Q307 821 294 808T262 795Z" />
<glyph unicode="&#xc5;" horiz-adv-x="718" d="M1 0V10H33Q55 10 69 17T94 41T116 87L321 669Q285 679 265 705T244 772Q244 825 278 853T364 881Q416 881 450 853T484 772Q484 735 467 709T417 672L644 68Q653 46 661 34T681 16T708 10H718V0H428V10H460Q493
10 508 18T524 49Q524 55 523 61T521 76T515 94L455 260H188L132 103Q128 94 126 85T123 69T121 55Q121 30 141 20T208 10H244V0H1ZM191 270H451L381 462Q370 494 359 525T339 587T322 644Q313 616 304 590T286 537T264 477L191 270ZM364 673Q410 673 441 697T472
772Q472 824 441 847T364 871Q319 871 288 848T256 772Q256 721 287 697T364 673Z" />
<glyph unicode="&#xc6;" horiz-adv-x="964" d="M1 0V10H28Q46 10 60 18T88 43T117 88L448 704H317V714H884L890 537H880L878 570Q875 620 860 649T815 691T732 704H579V379H826V369H579V10H759Q813 10 845 22T893 64T912 144L914 177H924L917 0H368V10H389Q415
10 431 15T454 35T462 75V258H220L136 103Q127 85 123 71T118 45Q118 26 133 18T180 10H238V0H1ZM225 268H462V704H460L225 268Z" />
<glyph unicode="&#xc7;" horiz-adv-x="629" d="M376 -10Q270 -10 199 36T92 164T56 356Q56 465 92 548T201 677T386 724Q453 724 499 708T569 666T593 608Q593 574 566 555T496 536Q496 600 483 639T443 695T370 713Q304 713 263 674T202 557T183 359Q183 238
204 159T271 40T390 0Q459 0 502 36T565 151Q578 146 584 136T590 112Q590 92 578 71T539 32T473 2T376 -10ZM339 -241Q315 -241 295 -238T258 -230V-219Q273 -223 286 -225T311 -227Q352 -227 371 -205T390 -136Q390 -111 383 -95T365 -70T336 -60L350 1H360L349
-51Q407 -54 440 -76T473 -140Q473 -185 440 -213T339 -241Z" />
<glyph unicode="&#xc8;" horiz-adv-x="631" d="M35 0V10H56Q80 10 96 17T121 39T130 79V637Q130 661 122 676T97 697T56 704H35V714H552L558 537H548L546 570Q542 620 528 649T482 691T400 704H247V379H494V369H247V10H427Q481 10 513 22T561 64T580 144L582 177H592L585
0H35ZM348 771Q328 786 303 806T252 848T206 889T173 921V931H274Q285 909 299 882T328 829T358 781V771H348Z" />
<glyph unicode="&#xc9;" horiz-adv-x="631" d="M35 0V10H56Q80 10 96 17T121 39T130 79V637Q130 661 122 676T97 697T56 704H35V714H552L558 537H548L546 570Q542 620 528 649T482 691T400 704H247V379H494V369H247V10H427Q481 10 513 22T561 64T580 144L582 177H592L585
0H35ZM280 781Q294 803 309 829T339 882T364 931H465V921Q453 908 433 889T387 849T336 807T290 771H280V781Z" />
<glyph unicode="&#xca;" horiz-adv-x="631" d="M35 0V10H56Q80 10 96 17T121 39T130 79V637Q130 661 122 676T97 697T56 704H35V714H552L558 537H548L546 570Q542 620 528 649T482 691T400 704H247V379H494V369H247V10H427Q481 10 513 22T561 64T580 144L582 177H592L585
0H35ZM163 781Q183 802 203 828T244 881T278 931H360Q374 909 393 882T434 828T475 781V771H465Q445 782 418 799T364 836T319 871Q301 855 274 836T220 800T173 771H163V781Z" />
<glyph unicode="&#xcb;" horiz-adv-x="631" d="M35 0V10H56Q80 10 96 17T121 39T130 79V637Q130 661 122 676T97 697T56 704H35V714H552L558 537H548L546 570Q542 620 528 649T482 691T400 704H247V379H494V369H247V10H427Q481 10 513 22T561 64T580 144L582 177H592L585
0H35ZM416 795Q397 795 384 808T371 853Q371 886 384 898T416 911Q434 911 447 899T461 853Q461 821 448 808T416 795ZM222 795Q203 795 190 808T177 853Q177 886 190 898T222 911Q240 911 253 899T267 853Q267 821 254 808T222 795Z" />
<glyph unicode="&#xcc;" horiz-adv-x="376" d="M35 0V10H56Q80 10 96 17T121 39T130 80V637Q130 661 122 676T97 697T56 704H35V714H341V704H320Q297 704 280 697T255 675T247 634V80Q247 55 255 40T280 17T320 10H341V0H35ZM218 771Q198 786 173 806T122 848T76
889T43 921V931H144Q155 909 169 882T198 829T228 781V771H218Z" />
<glyph unicode="&#xcd;" horiz-adv-x="376" d="M35 0V10H56Q80 10 96 17T121 39T130 80V637Q130 661 122 676T97 697T56 704H35V714H341V704H320Q297 704 280 697T255 675T247 634V80Q247 55 255 40T280 17T320 10H341V0H35ZM146 781Q160 803 175 829T205 882T230
931H331V921Q319 908 299 889T253 849T202 807T156 771H146V781Z" />
<glyph unicode="&#xce;" horiz-adv-x="376" d="M35 0V10H56Q80 10 96 17T121 39T130 80V637Q130 661 122 676T97 697T56 704H35V714H341V704H320Q297 704 280 697T255 675T247 634V80Q247 55 255 40T280 17T320 10H341V0H35ZM32 781Q52 802 72 828T113 881T147
931H229Q243 909 262 882T303 828T344 781V771H334Q314 782 287 799T233 836T188 871Q170 855 143 836T89 800T42 771H32V781Z" />
<glyph unicode="&#xcf;" horiz-adv-x="376" d="M35 0V10H56Q80 10 96 17T121 39T130 80V637Q130 661 122 676T97 697T56 704H35V714H341V704H320Q297 704 280 697T255 675T247 634V80Q247 55 255 40T280 17T320 10H341V0H35ZM283 795Q264 795 251 808T238 853Q238
886 251 898T283 911Q301 911 314 899T328 853Q328 821 315 808T283 795ZM89 795Q70 795 57 808T44 853Q44 886 57 898T89 911Q107 911 120 899T134 853Q134 821 121 808T89 795Z" />
<glyph unicode="&#xd0;" horiz-adv-x="738" d="M35 0V10H56Q80 10 96 17T121 39T130 80V369H38V379H130V638Q130 662 122 676T97 697T56 704H35V714H348Q453 714 527 674T642 554T682 361Q682 252 645 171T533 45T348 0H35ZM325 10Q406 10 457 46T531 159T555
361Q555 482 532 557T458 668T326 704H246V379H404V369H246V10H325Z" />
<glyph unicode="&#xd1;" horiz-adv-x="770" d="M35 0V10H73Q97 10 113 17T138 39T147 80V638Q147 662 139 676T114 697T73 704H35V714H247L620 152V635Q620 660 612 675T587 697T547 704H506V714H745V704H704Q680 704 664 697T639 675T630 634V0H592L157 655V80Q157
55 165 40T190 17T230 10H275V0H35ZM476 771Q451 771 427 781T380 804T332 827T281 837Q247 837 238 820T223 781H213Q216 814 227 843T261 889T317 907Q343 907 367 897T414 874T462 852T512 842Q544 842 555 858T570 897H580Q577 866 566 837T532 789T476 771Z"
/>
<glyph unicode="&#xd2;" horiz-adv-x="754" d="M377 -10Q269 -10 198 36T91 165T56 359Q56 470 91 552T198 679T378 725Q481 725 552 680T661 552T698 358Q698 247 661 165T552 36T377 -10ZM377 0Q428 0 465 20T525 84T559 196T571 358Q571 452 560 519T525 630T466
694T378 715Q327 715 290 695T229 631T194 520T182 358Q182 264 193 196T228 85T289 21T377 0ZM407 771Q387 786 362 806T311 848T265 889T232 921V931H333Q344 909 358 882T387 829T417 781V771H407Z" />
<glyph unicode="&#xd3;" horiz-adv-x="754" d="M377 -10Q269 -10 198 36T91 165T56 359Q56 470 91 552T198 679T378 725Q481 725 552 680T661 552T698 358Q698 247 661 165T552 36T377 -10ZM377 0Q428 0 465 20T525 84T559 196T571 358Q571 452 560 519T525 630T466
694T378 715Q327 715 290 695T229 631T194 520T182 358Q182 264 193 196T228 85T289 21T377 0ZM336 781Q350 803 365 829T395 882T420 931H521V921Q509 908 489 889T443 849T392 807T346 771H336V781Z" />
<glyph unicode="&#xd4;" horiz-adv-x="754" d="M377 -10Q269 -10 198 36T91 165T56 359Q56 470 91 552T198 679T378 725Q481 725 552 680T661 552T698 358Q698 247 661 165T552 36T377 -10ZM377 0Q428 0 465 20T525 84T559 196T571 358Q571 452 560 519T525 630T466
694T378 715Q327 715 290 695T229 631T194 520T182 358Q182 264 193 196T228 85T289 21T377 0ZM222 781Q242 802 262 828T303 881T337 931H419Q433 909 452 882T493 828T534 781V771H524Q504 782 477 799T423 836T378 871Q360 855 333 836T279 800T232 771H222V781Z"
/>
<glyph unicode="&#xd5;" horiz-adv-x="754" d="M377 -10Q269 -10 198 36T91 165T56 359Q56 470 91 552T198 679T378 725Q481 725 552 680T661 552T698 358Q698 247 661 165T552 36T377 -10ZM377 0Q428 0 465 20T525 84T559 196T571 358Q571 452 560 519T525 630T466
694T378 715Q327 715 290 695T229 631T194 520T182 358Q182 264 193 196T228 85T289 21T377 0ZM451 771Q426 771 402 781T355 804T307 827T256 837Q222 837 213 820T198 781H188Q191 814 202 843T236 889T292 907Q318 907 342 897T389 874T437 852T487 842Q519
842 530 858T545 897H555Q552 866 541 837T507 789T451 771Z" />
<glyph unicode="&#xd6;" horiz-adv-x="754" d="M377 -10Q269 -10 198 36T91 165T56 359Q56 470 91 552T198 679T378 725Q481 725 552 680T661 552T698 358Q698 247 661 165T552 36T377 -10ZM377 0Q428 0 465 20T525 84T559 196T571 358Q571 452 560 519T525 630T466
694T378 715Q327 715 290 695T229 631T194 520T182 358Q182 264 193 196T228 85T289 21T377 0ZM471 795Q452 795 439 808T426 853Q426 886 439 898T471 911Q489 911 502 899T516 853Q516 821 503 808T471 795ZM277 795Q258 795 245 808T232 853Q232 886 245 898T277
911Q295 911 308 899T322 853Q322 821 309 808T277 795Z" />
<glyph unicode="&#xd7;" horiz-adv-x="559" d="M82 145L68 159L266 357L68 555L82 569L280 371L477 569L491 555L293 357L491 159L477 145L280 343L82 145Z" />
<glyph unicode="&#xd8;" horiz-adv-x="754" d="M197 37Q126 82 91 165T56 359Q56 470 91 552T198 679T378 725Q428 725 470 714T549 682L589 755H600L557 676Q626 631 662 549T698 358Q698 247 661 165T552 36T377 -10Q326 -10 283 1T205 32L166 -40H155L197 37ZM522
634Q499 675 464 695T378 715Q327 715 290 695T229 631T194 520T182 358Q182 267 192 201T226 91L522 634ZM377 0Q428 0 465 20T525 84T559 196T571 358Q571 449 561 515T528 624L231 81Q255 39 291 20T377 0Z" />
<glyph unicode="&#xd9;" horiz-adv-x="725" d="M369 -10Q288 -10 230 12T141 85T110 217V638Q110 662 102 676T77 697T37 704H15V714H321V704H300Q277 704 261 697T236 675T227 635V195Q227 121 247 80T305 22T389 5Q456 5 503 29T577 98T603 206V638Q603 662
595 676T569 697T529 704H503V714H710V704H686Q663 704 646 697T621 675T613 634V205Q613 137 585 89T503 16T369 -10ZM404 771Q384 786 359 806T308 848T262 889T229 921V931H330Q341 909 355 882T384 829T414 781V771H404Z" />
<glyph unicode="&#xda;" horiz-adv-x="725" d="M369 -10Q288 -10 230 12T141 85T110 217V638Q110 662 102 676T77 697T37 704H15V714H321V704H300Q277 704 261 697T236 675T227 635V195Q227 121 247 80T305 22T389 5Q456 5 503 29T577 98T603 206V638Q603 662
595 676T569 697T529 704H503V714H710V704H686Q663 704 646 697T621 675T613 634V205Q613 137 585 89T503 16T369 -10ZM333 781Q347 803 362 829T392 882T417 931H518V921Q506 908 486 889T440 849T389 807T343 771H333V781Z" />
<glyph unicode="&#xdb;" horiz-adv-x="725" d="M369 -10Q288 -10 230 12T141 85T110 217V638Q110 662 102 676T77 697T37 704H15V714H321V704H300Q277 704 261 697T236 675T227 635V195Q227 121 247 80T305 22T389 5Q456 5 503 29T577 98T603 206V638Q603 662
595 676T569 697T529 704H503V714H710V704H686Q663 704 646 697T621 675T613 634V205Q613 137 585 89T503 16T369 -10ZM228 781Q248 802 268 828T309 881T343 931H425Q439 909 458 882T499 828T540 781V771H530Q510 782 483 799T429 836T384 871Q366 855 339 836T285
800T238 771H228V781Z" />
<glyph unicode="&#xdc;" horiz-adv-x="725" d="M369 -10Q288 -10 230 12T141 85T110 217V638Q110 662 102 676T77 697T37 704H15V714H321V704H300Q277 704 261 697T236 675T227 635V195Q227 121 247 80T305 22T389 5Q456 5 503 29T577 98T603 206V638Q603 662
595 676T569 697T529 704H503V714H710V704H686Q663 704 646 697T621 675T613 634V205Q613 137 585 89T503 16T369 -10ZM483 795Q464 795 451 808T438 853Q438 886 451 898T483 911Q501 911 514 899T528 853Q528 821 515 808T483 795ZM289 795Q270 795 257 808T244
853Q244 886 257 898T289 911Q307 911 320 899T334 853Q334 821 321 808T289 795Z" />
<glyph unicode="&#xdd;" horiz-adv-x="644" d="M160 0V10H190Q214 10 231 17T256 39T265 79V303L82 651Q72 671 62 682T41 699T14 704H-4V714H288V704H255Q229 704 217 698T204 675Q204 664 209 650T224 615L314 439Q325 421 333 404T349 370T364 340T377 312Q390
339 407 374T444 447L519 598Q531 621 537 638T543 668Q543 688 527 696T475 704H427V714H651V704H625Q609 704 597 697T572 673T545 626L382 302V79Q382 54 391 39T417 17T457 10H487V0H160ZM299 781Q313 803 328 829T358 882T383 931H484V921Q472 908 452 889T406
849T355 807T309 771H299V781Z" />
<glyph unicode="&#xde;" horiz-adv-x="613" d="M35 0V10H56Q80 10 96 17T121 39T130 80V637Q130 661 122 676T97 697T56 704H35V714H341V704H320Q297 704 281 697T255 675T246 635V574H323Q452 574 514 522T577 371Q577 312 551 262T464 181T301 151H246V79Q246
54 255 39T280 17T320 10H341V0H35ZM291 161Q349 161 384 182T436 248T452 367Q452 438 438 480T391 543T306 564H246V161H291Z" />
<glyph unicode="&#xdf;" horiz-adv-x="663" d="M441 -10Q393 -10 357 2T300 38T280 97Q280 125 291 140T317 161T344 167Q344 110 355 73T390 18T448 0Q477 0 497 11T529 45T541 102Q541 138 528 160T490 200T426 238Q390 257 361 276T315 323T298 397Q298 442
316 472T372 520T462 537Q462 617 450 664T410 733T341 755Q280 755 252 717T223 591V0H18V10H40Q63 10 79 17T104 39T113 80V526H32V536H113V560Q113 637 143 682T225 746T341 765Q424 765 473 736T545 654T569 526H493Q461 526 435 517T394 488T378 435Q378 406
390 387T426 353T481 321Q518 301 550 280T601 229T620 147Q620 70 574 30T441 -10Z" />
<glyph unicode="&#xe0;" horiz-adv-x="573" d="M212 -10Q137 -10 93 30T49 140Q49 217 105 254T276 295L358 298V387Q358 440 352 473T328 521T274 537Q221 537 205 502T189 385Q141 385 116 399T91 447Q91 483 116 505T184 537T278 547Q373 547 420 508T468 375V76Q468
51 474 37T494 16T530 10H533V0H365V104H363Q352 63 330 38T278 2T212 -10ZM241 8Q276 8 302 28T343 80T358 151V287L299 285Q221 281 192 247T162 133Q162 91 170 63T197 22T241 8ZM312 606Q292 621 267 641T216 683T170 724T137 756V766H238Q249 744 263 717T292
664T322 616V606H312Z" />
<glyph unicode="&#xe1;" horiz-adv-x="573" d="M212 -10Q137 -10 93 30T49 140Q49 217 105 254T276 295L358 298V387Q358 440 352 473T328 521T274 537Q221 537 205 502T189 385Q141 385 116 399T91 447Q91 483 116 505T184 537T278 547Q373 547 420 508T468 375V76Q468
51 474 37T494 16T530 10H533V0H365V104H363Q352 63 330 38T278 2T212 -10ZM241 8Q276 8 302 28T343 80T358 151V287L299 285Q221 281 192 247T162 133Q162 91 170 63T197 22T241 8ZM246 616Q260 638 275 664T305 717T330 766H431V756Q419 743 399 724T353 684T302
642T256 606H246V616Z" />
<glyph unicode="&#xe2;" horiz-adv-x="573" d="M212 -10Q137 -10 93 30T49 140Q49 217 105 254T276 295L358 298V387Q358 440 352 473T328 521T274 537Q221 537 205 502T189 385Q141 385 116 399T91 447Q91 483 116 505T184 537T278 547Q373 547 420 508T468 375V76Q468
51 474 37T494 16T530 10H533V0H365V104H363Q352 63 330 38T278 2T212 -10ZM241 8Q276 8 302 28T343 80T358 151V287L299 285Q221 281 192 247T162 133Q162 91 170 63T197 22T241 8ZM126 616Q146 637 166 663T207 716T241 766H323Q337 744 356 717T397 663T438
616V606H428Q408 617 381 634T327 671T282 706Q264 690 237 671T183 635T136 606H126V616Z" />
<glyph unicode="&#xe3;" horiz-adv-x="573" d="M212 -10Q137 -10 93 30T49 140Q49 217 105 254T276 295L358 298V387Q358 440 352 473T328 521T274 537Q221 537 205 502T189 385Q141 385 116 399T91 447Q91 483 116 505T184 537T278 547Q373 547 420 508T468 375V76Q468
51 474 37T494 16T530 10H533V0H365V104H363Q352 63 330 38T278 2T212 -10ZM241 8Q276 8 302 28T343 80T358 151V287L299 285Q221 281 192 247T162 133Q162 91 170 63T197 22T241 8ZM364 606Q339 606 315 616T268 639T220 662T169 672Q135 672 126 655T111 616H101Q104
649 115 678T149 724T205 742Q231 742 255 732T302 709T350 687T400 677Q432 677 443 693T458 732H468Q465 701 454 672T420 624T364 606Z" />
<glyph unicode="&#xe4;" horiz-adv-x="573" d="M212 -10Q137 -10 93 30T49 140Q49 217 105 254T276 295L358 298V387Q358 440 352 473T328 521T274 537Q221 537 205 502T189 385Q141 385 116 399T91 447Q91 483 116 505T184 537T278 547Q373 547 420 508T468 375V76Q468
51 474 37T494 16T530 10H533V0H365V104H363Q352 63 330 38T278 2T212 -10ZM241 8Q276 8 302 28T343 80T358 151V287L299 285Q221 281 192 247T162 133Q162 91 170 63T197 22T241 8ZM631 630Q612 630 599 643T586 688Q586 721 599 733T631 746Q649 746 662 734T676
688Q676 656 663 643T631 630ZM437 630Q418 630 405 643T392 688Q392 721 405 733T437 746Q455 746 468 734T482 688Q482 656 469 643T437 630Z" />
<glyph unicode="&#xe5;" horiz-adv-x="573" d="M212 -10Q137 -10 93 30T49 140Q49 217 105 254T276 295L358 298V387Q358 440 352 473T328 521T274 537Q221 537 205 502T189 385Q141 385 116 399T91 447Q91 483 116 505T184 537T278 547Q373 547 420 508T468 375V76Q468
51 474 37T494 16T530 10H533V0H365V104H363Q352 63 330 38T278 2T212 -10ZM241 8Q276 8 302 28T343 80T358 151V287L299 285Q221 281 192 247T162 133Q162 91 170 63T197 22T241 8ZM286 596Q236 596 201 624T166 705Q166 758 201 786T286 814Q336 814 371 786T406
705Q406 652 371 624T286 596ZM286 606Q334 606 364 631T394 705Q394 755 364 779T286 804Q238 804 208 780T178 705Q178 656 208 631T286 606Z" />
<glyph unicode="&#xe6;" horiz-adv-x="850" d="M216 -10Q163 -10 126 8T69 60T49 140Q49 217 105 254T276 295L358 298V387Q358 440 352 473T328 521T274 537Q221 537 205 502T189 385Q141 385 116 399T91 447Q91 483 116 505T184 537T278 547Q315 547 344 541T396
523T434 490Q462 518 500 532T587 547Q688 547 745 487T803 307V283H471Q472 182 485 120T530 29T611 0Q648 0 677 14T727 58T753 131Q767 128 774 118T781 94Q781 72 761 48T702 7T603 -10Q521 -10 466 26T385 130Q372 84 350 53T294 6T216 -10ZM244 6Q278 6 304
23T344 70T358 140V287L299 285Q247 283 217 267T175 219T162 133Q162 68 182 37T244 6ZM688 293Q688 382 678 435T646 512T586 537Q547 537 523 513T486 435T471 293H688Z" />
<glyph unicode="&#xe7;" horiz-adv-x="502" d="M288 -10Q218 -10 165 17T83 106T53 269Q53 373 83 434T165 521T283 547Q330 547 371 535T437 500T462 442Q462 421 452 406T420 383T362 375Q362 432 355 468T330 520T279 537Q244 537 219 514T180 433T166 268Q166
171 180 112T225 27T307 0Q340 0 367 12T413 53T443 132Q454 129 460 120T467 95Q467 71 448 47T389 7T288 -10ZM258 -240Q234 -240 214 -237T177 -229V-218Q192 -222 205 -224T230 -226Q271 -226 290 -204T309 -135Q309 -110 302 -94T284 -69T255 -59L269 2H279L268
-50Q326 -53 359 -75T392 -139Q392 -184 359 -212T258 -240Z" />
<glyph unicode="&#xe8;" horiz-adv-x="545" d="M297 -10Q180 -10 117 62T53 264Q53 405 113 476T282 547Q382 547 439 487T497 307V283H166Q166 182 180 120T225 29T306 0Q343 0 372 14T421 58T448 131Q462 128 468 118T475 94Q475 72 456 48T397 7T297 -10ZM382
293Q382 382 372 435T340 512T281 537Q242 537 218 513T181 435T166 293H382ZM321 606Q301 621 276 641T225 683T179 724T146 756V766H247Q258 744 272 717T301 664T331 616V606H321Z" />
<glyph unicode="&#xe9;" horiz-adv-x="545" d="M297 -10Q180 -10 117 62T53 264Q53 405 113 476T282 547Q382 547 439 487T497 307V283H166Q166 182 180 120T225 29T306 0Q343 0 372 14T421 58T448 131Q462 128 468 118T475 94Q475 72 456 48T397 7T297 -10ZM382
293Q382 382 372 435T340 512T281 537Q242 537 218 513T181 435T166 293H382ZM248 616Q262 638 277 664T307 717T332 766H433V756Q421 743 401 724T355 684T304 642T258 606H248V616Z" />
<glyph unicode="&#xea;" horiz-adv-x="545" d="M297 -10Q180 -10 117 62T53 264Q53 405 113 476T282 547Q382 547 439 487T497 307V283H166Q166 182 180 120T225 29T306 0Q343 0 372 14T421 58T448 131Q462 128 468 118T475 94Q475 72 456 48T397 7T297 -10ZM382
293Q382 382 372 435T340 512T281 537Q242 537 218 513T181 435T166 293H382ZM124 616Q144 637 164 663T205 716T239 766H321Q335 744 354 717T395 663T436 616V606H426Q406 617 379 634T325 671T280 706Q262 690 235 671T181 635T134 606H124V616Z" />
<glyph unicode="&#xeb;" horiz-adv-x="545" d="M297 -10Q180 -10 117 62T53 264Q53 405 113 476T282 547Q382 547 439 487T497 307V283H166Q166 182 180 120T225 29T306 0Q343 0 372 14T421 58T448 131Q462 128 468 118T475 94Q475 72 456 48T397 7T297 -10ZM382
293Q382 382 372 435T340 512T281 537Q242 537 218 513T181 435T166 293H382ZM630 630Q611 630 598 643T585 688Q585 721 598 733T630 746Q648 746 661 734T675 688Q675 656 662 643T630 630ZM436 630Q417 630 404 643T391 688Q391 721 404 733T436 746Q454 746
467 734T481 688Q481 656 468 643T436 630Z" />
<glyph unicode="&#xec;" horiz-adv-x="329" d="M21 0V10H34Q60 10 77 17T104 40T113 84V453Q113 480 104 496T78 519T34 526H29V536H223V87Q223 58 232 41T259 17T302 10H315V0H21ZM453 606Q433 621 408 641T357 683T311 724T278 756V766H379Q390 744 404 717T433
664T463 616V606H453Z" />
<glyph unicode="&#xed;" horiz-adv-x="329" d="M21 0V10H34Q60 10 77 17T104 40T113 84V453Q113 480 104 496T78 519T34 526H29V536H223V87Q223 58 232 41T259 17T302 10H315V0H21ZM129 616Q143 638 158 664T188 717T213 766H314V756Q302 743 282 724T236 684T185
642T139 606H129V616Z" />
<glyph unicode="&#xee;" horiz-adv-x="329" d="M21 0V10H34Q60 10 77 17T104 40T113 84V453Q113 480 104 496T78 519T34 526H29V536H223V87Q223 58 232 41T259 17T302 10H315V0H21ZM259 616Q279 637 299 663T340 716T374 766H456Q470 744 489 717T530 663T571
616V606H561Q541 617 514 634T460 671T415 706Q397 690 370 671T316 635T269 606H259V616Z" />
<glyph unicode="&#xef;" horiz-adv-x="329" d="M21 0V10H34Q60 10 77 17T104 40T113 84V453Q113 480 104 496T78 519T34 526H29V536H223V87Q223 58 232 41T259 17T302 10H315V0H21ZM246 630Q227 630 214 643T201 688Q201 721 214 733T246 746Q264 746 277 734T291
688Q291 656 278 643T246 630ZM52 630Q33 630 20 643T7 688Q7 721 20 733T52 746Q70 746 83 734T97 688Q97 656 84 643T52 630Z" />
<glyph unicode="&#xf0;" horiz-adv-x="587" d="M292 -10Q218 -10 164 18T82 105T53 251Q53 338 81 395T161 481T279 510Q310 510 335 503T380 481T413 445Q401 511 376 561T316 649L177 572V584L308 657Q274 694 233 717T148 751V761Q205 750 254 729T345 677L455
739V727L354 670Q441 606 487 509T534 291Q534 190 507 123T425 23T292 -10ZM294 0Q340 0 368 25T408 106T421 250Q421 338 408 393T365 473T290 499Q245 499 218 474T178 395T166 250Q166 161 178 106T219 26T294 0Z" />
<glyph unicode="&#xf1;" horiz-adv-x="651" d="M25 0V10H34Q61 10 78 17T104 43T113 95V444Q113 476 105 493T79 518T36 526H29V536H222V443H224Q238 489 262 511T315 540T371 547Q460 547 503 501T546 352V96Q546 62 553 44T577 18T619 10H624V0H436V385Q436
450 414 489T338 528Q295 528 270 503T234 438T223 351V95Q223 61 231 43T257 18T301 10H307V0H25ZM406 606Q381 606 357 616T310 639T262 662T211 672Q177 672 168 655T153 616H143Q146 649 157 678T191 724T247 742Q273 742 297 732T344 709T392 687T442 677Q474
677 485 693T500 732H510Q507 701 496 672T462 624T406 606Z" />
<glyph unicode="&#xf2;" horiz-adv-x="587" d="M292 -10Q181 -10 117 59T53 269Q53 410 114 478T295 547Q406 547 470 479T534 269Q534 128 473 59T292 -10ZM294 0Q340 0 368 26T408 112T421 269Q421 366 409 425T368 510T293 537Q247 537 219 511T179 425T166
269Q166 171 178 112T219 27T294 0ZM322 606Q302 621 277 641T226 683T180 724T147 756V766H248Q259 744 273 717T302 664T332 616V606H322Z" />
<glyph unicode="&#xf3;" horiz-adv-x="587" d="M292 -10Q181 -10 117 59T53 269Q53 410 114 478T295 547Q406 547 470 479T534 269Q534 128 473 59T292 -10ZM294 0Q340 0 368 26T408 112T421 269Q421 366 409 425T368 510T293 537Q247 537 219 511T179 425T166
269Q166 171 178 112T219 27T294 0ZM266 616Q280 638 295 664T325 717T350 766H451V756Q439 743 419 724T373 684T322 642T276 606H266V616Z" />
<glyph unicode="&#xf4;" horiz-adv-x="587" d="M292 -10Q181 -10 117 59T53 269Q53 410 114 478T295 547Q406 547 470 479T534 269Q534 128 473 59T292 -10ZM294 0Q340 0 368 26T408 112T421 269Q421 366 409 425T368 510T293 537Q247 537 219 511T179 425T166
269Q166 171 178 112T219 27T294 0ZM135 616Q155 637 175 663T216 716T250 766H332Q346 744 365 717T406 663T447 616V606H437Q417 617 390 634T336 671T291 706Q273 690 246 671T192 635T145 606H135V616Z" />
<glyph unicode="&#xf5;" horiz-adv-x="587" d="M292 -10Q181 -10 117 59T53 269Q53 410 114 478T295 547Q406 547 470 479T534 269Q534 128 473 59T292 -10ZM294 0Q340 0 368 26T408 112T421 269Q421 366 409 425T368 510T293 537Q247 537 219 511T179 425T166
269Q166 171 178 112T219 27T294 0ZM370 606Q345 606 321 616T274 639T226 662T175 672Q141 672 132 655T117 616H107Q110 649 121 678T155 724T211 742Q237 742 261 732T308 709T356 687T406 677Q438 677 449 693T464 732H474Q471 701 460 672T426 624T370 606Z"
/>
<glyph unicode="&#xf6;" horiz-adv-x="587" d="M292 -10Q181 -10 117 59T53 269Q53 410 114 478T295 547Q406 547 470 479T534 269Q534 128 473 59T292 -10ZM294 0Q340 0 368 26T408 112T421 269Q421 366 409 425T368 510T293 537Q247 537 219 511T179 425T166
269Q166 171 178 112T219 27T294 0ZM387 630Q368 630 355 643T342 688Q342 721 355 733T387 746Q405 746 418 734T432 688Q432 656 419 643T387 630ZM193 630Q174 630 161 643T148 688Q148 721 161 733T193 746Q211 746 224 734T238 688Q238 656 225 643T193 630Z"
/>
<glyph unicode="&#xf7;" horiz-adv-x="559" d="M65 347V367H494V347H65ZM280 144Q263 144 251 153T239 186Q239 211 251 220T280 229Q297 229 309 220T321 186Q321 163 309 154T280 144ZM280 486Q263 486 251 495T239 529Q239 553 251 562T280 571Q297 571 309
562T321 529Q321 505 309 496T280 486Z" />
<glyph unicode="&#xf8;" horiz-adv-x="587" d="M147 32Q102 66 78 124T53 269Q53 410 114 478T295 547Q338 547 374 537T438 506L482 576H492L446 501Q488 468 511 410T534 269Q534 128 473 59T292 -10Q211 -10 154 27L113 -40H102L147 32ZM294 0Q340 0 368 26T408
112T421 269Q421 322 418 363T405 435L188 82Q203 38 229 19T294 0ZM402 447Q387 495 361 516T293 537Q247 537 219 511T179 425T166 269Q166 155 184 93L402 447Z" />
<glyph unicode="&#xf9;" horiz-adv-x="644" d="M279 -10Q191 -10 148 36T105 185V441Q105 474 98 492T73 518T27 526H24V536H215V172Q215 114 223 78T252 25T306 8Q348 8 375 32T415 100T428 207V443Q428 476 420 493T394 518T349 526H346V536H538V91Q538 59 547
42T573 17T617 10H620V0H433V125H431Q423 79 406 52T368 12T323 -5T279 -10ZM330 606Q310 621 285 641T234 683T188 724T155 756V766H256Q267 744 281 717T310 664T340 616V606H330Z" />
<glyph unicode="&#xfa;" horiz-adv-x="644" d="M279 -10Q191 -10 148 36T105 185V441Q105 474 98 492T73 518T27 526H24V536H215V172Q215 114 223 78T252 25T306 8Q348 8 375 32T415 100T428 207V443Q428 476 420 493T394 518T349 526H346V536H538V91Q538 59 547
42T573 17T617 10H620V0H433V125H431Q423 79 406 52T368 12T323 -5T279 -10ZM279 616Q293 638 308 664T338 717T363 766H464V756Q452 743 432 724T386 684T335 642T289 606H279V616Z" />
<glyph unicode="&#xfb;" horiz-adv-x="644" d="M279 -10Q191 -10 148 36T105 185V441Q105 474 98 492T73 518T27 526H24V536H215V172Q215 114 223 78T252 25T306 8Q348 8 375 32T415 100T428 207V443Q428 476 420 493T394 518T349 526H346V536H538V91Q538 59 547
42T573 17T617 10H620V0H433V125H431Q423 79 406 52T368 12T323 -5T279 -10ZM161 616Q181 637 201 663T242 716T276 766H358Q372 744 391 717T432 663T473 616V606H463Q443 617 416 634T362 671T317 706Q299 690 272 671T218 635T171 606H161V616Z" />
<glyph unicode="&#xfc;" horiz-adv-x="644" d="M279 -10Q191 -10 148 36T105 185V441Q105 474 98 492T73 518T27 526H24V536H215V172Q215 114 223 78T252 25T306 8Q348 8 375 32T415 100T428 207V443Q428 476 420 493T394 518T349 526H346V536H538V91Q538 59 547
42T573 17T617 10H620V0H433V125H431Q423 79 406 52T368 12T323 -5T279 -10ZM415 630Q396 630 383 643T370 688Q370 721 383 733T415 746Q433 746 446 734T460 688Q460 656 447 643T415 630ZM221 630Q202 630 189 643T176 688Q176 721 189 733T221 746Q239 746
252 734T266 688Q266 656 253 643T221 630Z" />
<glyph unicode="&#xfd;" horiz-adv-x="569" d="M36 -230Q106 -230 149 -219T218 -186T262 -127T300 -42L74 473Q65 494 57 505T40 521T19 526H3V536H256V526H248Q220 526 205 518T189 489Q189 480 192 469T201 443L290 230Q298 212 305 193T320 156T333 120T344
88Q356 122 366 153T384 206L461 435Q466 450 468 461T471 482Q471 505 456 515T405 526H363V536H569V526H563Q539 526 524 520T498 496T476 448L324 -4Q300 -76 278 -122T226 -194T153 -230T43 -240H36V-230ZM257 616Q271 638 286 664T316 717T341 766H442V756Q430
743 410 724T364 684T313 642T267 606H257V616Z" />
<glyph unicode="&#xfe;" horiz-adv-x="623" d="M13 -240V-230H26Q52 -230 69 -223T96 -200T105 -156V677Q105 704 96 720T69 743T26 750H23V760H215V552Q215 536 215 512T215 460T213 401H215Q228 475 266 511T370 547Q468 547 519 478T570 269Q570 130 518 60T368
-10Q305 -10 267 26T216 140H214Q215 124 215 107T215 71T215 36V-153Q215 -181 224 -198T250 -223T294 -230H309V-240H13ZM344 8Q384 8 409 35T445 122T457 274Q457 364 446 420T409 502T344 529Q299 529 271 500T229 415T215 273Q215 184 229 125T271 37T344
8Z" />
<glyph unicode="&#xff;" horiz-adv-x="569" d="M36 -230Q106 -230 149 -219T218 -186T262 -127T300 -42L74 473Q65 494 57 505T40 521T19 526H3V536H256V526H248Q220 526 205 518T189 489Q189 480 192 469T201 443L290 230Q298 212 305 193T320 156T333 120T344
88Q356 122 366 153T384 206L461 435Q466 450 468 461T471 482Q471 505 456 515T405 526H363V536H569V526H563Q539 526 524 520T498 496T476 448L324 -4Q300 -76 278 -122T226 -194T153 -230T43 -240H36V-230ZM396 630Q377 630 364 643T351 688Q351 721 364 733T396
746Q414 746 427 734T441 688Q441 656 428 643T396 630ZM202 630Q183 630 170 643T157 688Q157 721 170 733T202 746Q220 746 233 734T247 688Q247 656 234 643T202 630Z" />
<glyph unicode="&#x2013;" horiz-adv-x="500" d="M-5 259V279H505V259H-5Z" />
<glyph unicode="&#x2014;" horiz-adv-x="1000" d="M-5 259V279H1005V259H-5Z" />
<glyph unicode="&#x2018;" horiz-adv-x="258" d="M137 425Q102 425 79 449T56 523Q56 583 95 636T224 715V705Q194 695 170 681T132 649T118 603Q118 582 127 571T149 553T174 540T195 523T204 489Q204 457 185 441T137 425Z" />
<glyph unicode="&#x2019;" horiz-adv-x="258" d="M34 435Q65 445 88 458T126 491T140 536Q140 558 131 569T110 586T85 599T63 616T54 650Q54 683 73 698T121 714Q156 714 179 691T202 616Q202 557 163 504T34 425V435Z" />
<glyph unicode="&#x201a;" horiz-adv-x="262" d="M34 -144Q65 -134 88 -121T126 -88T140 -43Q140 -21 131 -10T110 8T85 20T63 38T54 71Q54 104 73 119T121 135Q156 135 179 112T202 38Q202 -22 163 -75T34 -154V-144Z" />
<glyph unicode="&#x201c;" horiz-adv-x="461" d="M339 425Q305 425 282 449T258 523Q258 583 297 636T427 715V705Q396 695 373 681T335 649T321 603Q321 582 329 571T351 553T376 540T398 523T407 489Q407 457 388 441T339 425ZM137 425Q102 425 79 449T56 523Q56
583 95 636T224 715V705Q194 695 170 681T132 649T118 603Q118 582 127 571T149 553T174 540T195 523T204 489Q204 457 185 441T137 425Z" />
<glyph unicode="&#x201d;" horiz-adv-x="461" d="M34 435Q65 445 88 458T126 491T140 536Q140 558 131 569T110 586T85 599T63 616T54 650Q54 683 73 698T121 714Q156 714 179 691T202 616Q202 557 163 504T34 425V435ZM237 435Q267 445 291 458T328 491T342 536Q342
558 334 569T313 586T287 599T266 616T257 650Q257 683 276 698T324 714Q358 714 381 691T405 616Q405 557 366 504T237 425V435Z" />
<glyph unicode="&#x201e;" horiz-adv-x="461" d="M34 -144Q65 -134 88 -121T126 -88T140 -43Q140 -21 131 -10T110 8T85 20T63 38T54 71Q54 104 73 119T121 135Q156 135 179 112T202 38Q202 -22 163 -75T34 -154V-144ZM237 -144Q267 -134 291 -121T328 -88T342
-43Q342 -21 334 -10T313 8T287 20T266 38T257 71Q257 104 276 119T324 135Q358 135 381 112T405 38Q405 -22 366 -75T237 -154V-144Z" />
<glyph unicode="&#x2022;" horiz-adv-x="372" d="M186 207Q148 207 122 222T83 271T69 356Q69 409 82 441T122 489T186 505Q224 505 250 490T289 442T303 356Q303 304 290 271T250 223T186 207Z" />
<glyph unicode="&#x2039;" horiz-adv-x="339" d="M259 77L65 265V275L259 463H274L165 270L274 77H259Z" />
<glyph unicode="&#x203a;" horiz-adv-x="339" d="M65 77L173 270L65 463H80L274 275V265L80 77H65Z" />
</font>
</defs>
</svg>
