<?xml version="1.0" standalone="no"?>
<!DOCTYPE svg PUBLIC "-//W3C//DTD SVG 1.1//EN" "http://www.w3.org/Graphics/SVG/1.1/DTD/svg11.dtd">
<svg xmlns="http://www.w3.org/2000/svg">
<defs >
<font id="NotoSerifDisplay" horiz-adv-x="594" ><font-face
    font-family="Noto Serif Display Thin"
    units-per-em="1000"
    panose-1="2 2 5 2 8 5 5 2 2 4"
    ascent="1069"
    descent="-293"
    alphabetic="0" />
<glyph unicode=" " horiz-adv-x="225" />
<glyph unicode="!" horiz-adv-x="271" d="M119 200L112 714H140L135 200H119ZM129 -5Q122 -5 116 3T109 35Q109 58 115 65T129 73Q137 73 143 66T149 35Q149 12 143 4T129 -5Z" />
<glyph unicode="&quot;" horiz-adv-x="192" d="M46 479L30 714H72L56 479H46ZM136 479L120 714H162L146 479H136Z" />
<glyph unicode="#" horiz-adv-x="559" d="M100 0L143 233H25V243H145L190 488H57V498H192L232 714H242L202 498H393L433 714H443L403 498H534V488H401L356 243H502V233H354L311 0H301L344 233H153L110 0H100ZM155 243H346L391 488H200L155 243Z" />
<glyph unicode="$" horiz-adv-x="549" d="M270 39Q210 39 172 52T113 86T84 129T76 169Q76 185 78 195T85 210T97 215Q97 169 109 131T159 71T270 49V361Q231 378 201 395T151 434T120 481T109 542Q109 606 152 645T270 688V760H280V688Q342 688 379 670T434 624T451
567Q451 543 446 532T430 521Q430 572 418 607T373 660T280 678V385Q334 365 369 344T425 299T454 249T463 192Q463 121 412 80T280 39V-79H270V39ZM280 49Q354 49 394 87T435 191Q435 244 403 283T280 357V49ZM270 678Q206 674 172 640T137 547Q137 504 151 478T195
432T270 390V678Z" />
<glyph unicode="%" horiz-adv-x="884" d="M238 0L628 714H640L250 0H238ZM203 280Q127 280 93 340T59 503Q59 604 93 664T204 724Q277 724 312 665T347 503Q347 437 333 387T288 309T203 280ZM201 290Q245 290 271 316T308 391T319 503Q319 575 307 622T268 691T202
714Q160 714 135 687T98 613T87 503Q87 432 99 385T136 314T201 290ZM681 -10Q605 -10 571 50T537 213Q537 314 571 374T682 434Q755 434 790 375T825 213Q825 147 811 97T766 19T681 -10ZM679 0Q723 0 749 26T786 101T797 213Q797 285 785 332T746 401T680 424Q638
424 613 397T576 323T565 213Q565 142 577 95T614 24T679 0Z" />
<glyph unicode="&amp;" horiz-adv-x="668" d="M229 -10Q166 -10 120 17T48 90T22 194Q22 249 40 289T94 358T181 404Q158 429 138 453T107 507T95 580Q95 615 111 648T164 702T264 724Q320 724 355 704T406 651T423 582Q423 536 401 503T333 446T219 403L448 156Q474
209 484 271T495 382V415H627V405H596Q564 405 549 402T528 384T519 335Q515 289 502 235T465 138L561 35Q571 25 582 20T609 12T648 10H663V0H554L450 112Q428 80 399 52T328 7T229 -10ZM229 0Q304 0 354 35T434 130L189 395Q159 385 127 364T72 304T50 201Q50
152 63 115T100 52T157 13T229 0ZM211 412Q310 436 352 478T395 581Q395 620 381 650T338 697T266 714Q196 714 160 680T123 580Q123 544 133 517T164 466T211 412Z" />
<glyph unicode="&apos;" horiz-adv-x="102" d="M46 479L30 714H72L56 479H46Z" />
<glyph unicode="(" horiz-adv-x="278" d="M246 -114Q179 -87 138 -39T77 95T57 315Q57 451 76 536T137 670T246 744V733Q189 711 156 668T108 567T89 445T85 315Q85 251 89 188T109 68T157 -33T246 -103V-114Z" />
<glyph unicode=")" horiz-adv-x="278" d="M57 -103Q113 -77 145 -33T193 67T213 187T218 315Q218 380 214 444T195 566T147 667T57 733V744Q124 719 165 671T226 537T246 315Q246 180 227 95T166 -38T57 -114V-103Z" />
<glyph unicode="*" horiz-adv-x="420" d="M192 378L198 554L60 473L47 499L197 570L47 641L59 666L198 585L191 760H219L213 584L352 665L363 639L214 569L364 501L352 475L213 554L220 378H192Z" />
<glyph unicode="+" horiz-adv-x="559" d="M269 143V347H65V367H269V572H289V367H494V347H289V143H269Z" />
<glyph unicode="," horiz-adv-x="194" d="M30 -143Q58 -134 77 -116T106 -74T117 -30Q117 -19 112 -11T100 3T86 15T73 27T68 42Q68 56 75 64T95 73Q115 73 126 54T138 0Q138 -50 113 -92T30 -154V-143Z" />
<glyph unicode="-" horiz-adv-x="310" d="M25 263V283H285V263H25Z" />
<glyph unicode="." horiz-adv-x="194" d="M88 -5Q81 -5 75 3T68 35Q68 58 74 65T88 73Q96 73 102 66T108 35Q108 12 102 4T88 -5Z" />
<glyph unicode="/" horiz-adv-x="288" d="M9 -121L268 760H279L20 -121H9Z" />
<glyph unicode="0" horiz-adv-x="559" d="M280 -10Q203 -10 154 29T82 150T59 359Q59 482 81 563T153 684T281 724Q359 724 407 685T477 564T500 358Q500 235 477 153T404 31T280 -10ZM279 0Q330 0 366 21T426 87T461 199T472 358Q472 449 463 516T431 627T371
692T280 714Q226 714 189 692T129 624T97 513T87 358Q87 264 98 196T132 85T192 21T279 0Z" />
<glyph unicode="1" horiz-adv-x="559" d="M134 0V10H206Q231 10 243 16T258 40T262 98V690Q232 646 209 619T166 581T126 569Q110 569 103 575T96 589Q129 592 155 604T202 636T244 683L270 718H290V98Q290 59 293 41T309 16T346 10H415V0H134Z" />
<glyph unicode="2" horiz-adv-x="559" d="M71 0V22L242 209Q300 273 338 318T399 399T430 467T439 539Q439 583 424 623T373 688T276 714Q227 714 192 699T140 651T124 569Q115 569 109 573T101 586T98 607Q98 631 117 658T175 705T276 724Q344 724 386 698T447
630T467 541Q467 501 456 466T418 389T341 293T216 158L88 25H415Q454 25 464 39T476 95L478 127H488L483 0H71Z" />
<glyph unicode="3" horiz-adv-x="559" d="M272 -9Q209 -9 169 7T110 49T90 102Q90 122 99 129T117 136Q117 93 132 63T181 17T273 1Q323 1 364 21T431 83T457 189Q457 254 439 293T381 349T277 367H238V382H276Q321 382 356 401T411 458T432 554Q432 635 394 674T284
714Q234 714 201 698T152 650T136 569Q126 569 118 578T110 604Q110 631 129 659T186 705T281 724Q369 724 414 681T460 555Q460 499 436 461T377 402T310 375Q339 373 369 364T426 336T468 281T485 192Q485 139 468 101T420 39T352 3T272 -9Z" />
<glyph unicode="4" horiz-adv-x="559" d="M267 0V10H320Q345 10 357 16T372 40T376 98V208H23V225L375 714H404V233H545V208H404V98Q404 59 407 41T423 16T460 10H498V0H267ZM41 233H376V449Q376 471 376 504T376 573T377 644T378 701Q366 685 355 669T331 636T308
603T284 570L41 233Z" />
<glyph unicode="5" horiz-adv-x="559" d="M249 -10Q197 -10 159 4T101 42T80 93Q80 110 87 117T106 126Q106 78 125 51T179 12T255 0Q312 0 351 26T411 101T432 216Q432 279 409 322T347 386T258 408Q232 408 207 403T161 387T122 361L110 365L143 712H437L440
601H430L429 629Q428 656 424 667T406 681T364 684H156L127 384Q154 403 189 413T258 423Q313 423 359 400T432 331T460 216Q460 169 447 128T407 56T342 8T249 -10Z" />
<glyph unicode="6" horiz-adv-x="559" d="M293 -10Q227 -10 180 27T107 142T81 338Q81 446 99 520T149 639T225 704T318 724Q371 724 402 709T447 671T461 624Q461 608 456 599T437 589Q437 635 425 662T386 702T318 714Q259 714 212 677T137 560T109 348Q145
376 175 393T235 418T296 427Q381 427 434 374T488 220Q488 152 467 100T403 19T293 -10ZM296 0Q352 0 388 27T442 104T460 221Q460 278 442 321T388 388T296 412Q264 412 236 405T178 382T109 335Q111 254 122 192T157 87T214 22T296 0Z" />
<glyph unicode="7" horiz-adv-x="559" d="M185 0L475 684H123Q96 684 86 676T73 631L69 568H59L65 712H493V690L213 0H185Z" />
<glyph unicode="8" horiz-adv-x="559" d="M278 -10Q212 -10 167 11T98 73T74 169Q74 242 119 290T262 371Q205 396 169 422T116 480T99 555Q99 608 121 646T185 704T286 724Q348 724 389 703T451 645T472 562Q472 494 434 450T314 378Q382 349 421 320T476 255T493
167Q493 79 433 35T278 -10ZM278 0Q363 0 414 39T465 169Q465 204 456 231T424 280T366 322T276 365Q185 337 144 291T102 171Q102 85 146 43T278 0ZM300 384Q350 400 382 423T429 479T444 558Q444 602 429 637T379 693T286 714Q210 714 169 675T127 561Q127 522
142 492T194 437T300 384Z" />
<glyph unicode="9" horiz-adv-x="559" d="M231 -11Q186 -11 158 0T117 28T103 60Q103 68 106 75T120 85Q129 40 155 20T231 -1Q307 -1 355 41T427 165T450 367Q438 356 412 339T349 307T268 293Q201 293 157 319T92 391T71 490Q71 559 91 611T153 694T257 724Q329
724 378 687T452 576T478 388Q478 289 464 215T421 90T344 14T231 -11ZM268 303Q314 303 351 318T414 352T450 380Q450 458 438 520T402 625T343 691T261 714Q203 714 167 685T115 605T99 488Q99 432 118 391T175 326T268 303Z" />
<glyph unicode=":" horiz-adv-x="224" d="M101 433Q94 433 88 441T81 473Q81 496 87 503T101 511Q109 511 115 504T121 473Q121 450 115 442T101 433ZM101 -5Q94 -5 88 3T81 35Q81 58 87 65T101 73Q109 73 115 66T121 35Q121 12 115 4T101 -5Z" />
<glyph unicode=";" horiz-adv-x="224" d="M42 -143Q70 -134 89 -116T118 -74T129 -30Q129 -19 124 -11T112 3T98 15T85 27T80 42Q80 56 87 64T107 73Q127 73 138 54T150 0Q150 -50 125 -92T42 -154V-143ZM110 433Q103 433 97 441T90 473Q90 496 96 503T110 511Q118
511 124 504T130 473Q130 450 124 442T110 433Z" />
<glyph unicode="&lt;" horiz-adv-x="559" d="M494 119L65 347V367L494 595V572L87 357L494 142V119Z" />
<glyph unicode="=" horiz-adv-x="559" d="M68 455V475H491V455H68ZM68 239V259H491V239H68Z" />
<glyph unicode="&gt;" horiz-adv-x="559" d="M65 119V142L472 357L65 572V595L494 367V347L65 119Z" />
<glyph unicode="?" horiz-adv-x="460" d="M204 332Q239 341 276 364T340 432T366 546Q366 599 349 636T298 694T214 714Q155 714 125 696T84 648T74 579Q60 579 54 589T48 618Q48 637 62 662T113 705T212 724Q298 724 344 675T391 543Q391 467 350 414T233 330L226
201H211L204 332ZM217 -5Q210 -5 204 3T197 35Q197 58 203 65T217 73Q225 73 231 66T237 35Q237 12 231 4T217 -5Z" />
<glyph unicode="@" horiz-adv-x="921" d="M392 -142Q293 -142 224 -106T119 2T83 186Q83 308 118 405T214 572T357 677T530 714Q628 714 700 673T811 559T850 392Q850 323 833 266T786 166T721 101T650 77Q625 77 606 85T574 108T554 144T547 190H545Q535 167
516 141T468 96T401 77Q347 77 311 114T274 237Q274 299 292 352T343 445T419 507T513 529Q540 529 568 520T614 497L638 520H647L590 291Q580 250 578 227T575 184Q575 136 592 112T650 87Q679 87 709 109T764 173T806 271T822 394Q822 488 785 557T683 665T534
704Q437 704 359 665T226 556T141 393T111 192Q111 105 129 44T183 -56T271 -113T392 -132Q474 -132 536 -103T646 -37L653 -45Q623 -68 584 -90T498 -127T392 -142ZM405 87Q440 87 469 109T518 162T546 224L606 473Q594 494 570 506T513 519Q473 519 440 504T382
462T338 399T311 322T302 235Q302 156 330 122T405 87Z" />
<glyph unicode="A" horiz-adv-x="645" d="M-4 0V10H15Q38 10 49 13T66 26T80 58L306 714H317L544 58Q552 36 558 26T575 13T609 10H627V0H422V10H460Q498 10 506 17T515 38Q515 50 510 70T497 109T487 137L445 259H161L119 137Q116 128 110 109T97 70T91 38Q91
24 100 17T146 10H202V0H-4ZM165 269H442L361 505Q352 532 341 564T320 628T303 679Q300 668 293 646T277 599T261 551T248 515L165 269Z" />
<glyph unicode="B" horiz-adv-x="622" d="M52 0V10H93Q118 10 130 16T145 40T149 98V616Q149 655 146 673T130 698T93 704H52V714H290Q403 714 456 674T509 541Q509 488 492 456T444 406T374 380V378Q457 371 498 326T539 200Q539 95 484 48T320 0H52ZM315 10Q422
10 466 56T511 197Q511 257 494 295T436 352T321 371H177V10H315ZM287 381Q365 381 407 400T465 455T481 543Q481 631 437 667T285 704H177V381H287Z" />
<glyph unicode="C" horiz-adv-x="550" d="M323 -10Q233 -10 174 34T86 161T57 358Q57 473 87 555T177 680T323 724Q395 724 437 707T497 664T516 610Q516 589 511 579T493 568Q492 617 478 649T427 697T323 714Q245 714 192 672T112 550T85 358Q85 245 111 165T189
43T323 0Q397 0 437 30T492 111Q501 110 505 105T510 93Q510 79 498 62T463 28T404 1T323 -10Z" />
<glyph unicode="D" horiz-adv-x="677" d="M50 0V10H93Q118 10 130 16T145 40T149 98V616Q149 655 146 673T130 698T93 704H50V714H315Q415 714 481 669T582 540T616 342Q616 233 585 157T487 40T319 0H50ZM305 10Q405 10 467 46T559 156T588 342Q588 455 559 536T467
660T306 704H177V10H305Z" />
<glyph unicode="E" horiz-adv-x="585" d="M50 0V10H93Q118 10 130 16T145 40T149 98V616Q149 655 146 673T130 698T93 704H50V714H490L497 551H487L483 635Q482 663 478 677T461 698T422 704H177V380H421V370H177V10H456Q482 10 494 16T511 37T517 79L521 163H531L524
0H50Z" />
<glyph unicode="F" horiz-adv-x="550" d="M50 0V10H93Q118 10 130 16T145 40T149 98V616Q149 655 146 673T130 698T93 704H50V714H492L497 551H487L484 635Q483 663 479 677T463 698T424 704H177V356H423V346H177V98Q177 59 180 41T196 16T233 10H303V0H50Z" />
<glyph unicode="G" horiz-adv-x="644" d="M373 -10Q267 -10 198 36T94 164T59 358Q59 473 98 555T209 680T379 724Q449 724 489 708T546 665T564 608Q564 586 558 576T538 566Q538 618 525 650T476 698T375 714Q287 714 223 673T123 553T87 358Q87 247 117 167T213
43T383 0Q425 0 466 6T534 26V209Q534 248 531 270T515 302T478 312H445V322H637V312H618Q593 312 581 306T566 282T562 224V26Q522 7 478 -1T373 -10Z" />
<glyph unicode="H" horiz-adv-x="761" d="M50 0V10H93Q118 10 130 16T145 40T149 98V616Q149 655 146 673T130 698T93 704H50V714H278V704H233Q208 704 196 698T181 674T177 616V379H584V616Q584 655 581 673T565 698T528 704H483V714H711V704H668Q643 704 631
698T616 674T612 616V98Q612 59 615 41T631 16T668 10H711V0H483V10H528Q553 10 565 16T580 40T584 98V369H177V98Q177 59 180 41T196 16T233 10H278V0H50Z" />
<glyph unicode="I" horiz-adv-x="325" d="M50 0V10H93Q118 10 130 16T145 40T149 98V616Q149 655 146 673T130 698T93 704H50V714H273V704H233Q208 704 196 698T181 674T177 616V98Q177 59 180 41T196 16T233 10H273V0H50Z" />
<glyph unicode="J" horiz-adv-x="343" d="M22 -240V-230H30Q85 -230 115 -208T157 -139T169 -17V616Q169 655 166 673T150 698T113 704H72V714H295V704H253Q228 704 216 698T201 674T197 616V-16Q197 -75 189 -117T161 -187T108 -227T25 -240H22Z" />
<glyph unicode="K" horiz-adv-x="658" d="M50 0V10H93Q118 10 130 16T145 40T149 98V616Q149 655 146 673T130 698T93 704H50V714H276V704H233Q208 704 196 698T181 674T177 616V260L467 603Q492 633 505 649T523 674T528 690Q528 697 522 700T501 703T463 704V714H620V704Q596
704 580 698T544 672T490 613L313 403L562 106Q591 72 608 53T637 24T658 13T681 10H686V0H662Q646 0 633 4T606 19T573 50T527 104L294 382L177 242V98Q177 59 180 41T196 16T233 10H278V0H50Z" />
<glyph unicode="L" horiz-adv-x="583" d="M50 0V10H93Q118 10 130 16T145 40T149 98V616Q149 655 146 673T130 698T93 704H50V714H273V704H233Q208 704 196 698T181 674T177 616V10H456Q482 10 494 16T511 37T516 79L521 205H531L524 0H50Z" />
<glyph unicode="M" horiz-adv-x="908" d="M50 0V10H93Q118 10 130 16T145 40T149 98V616Q149 655 146 673T130 698T93 704H50V714H169L438 31L706 714H824V704H783Q758 704 746 698T731 674T727 616V98Q727 59 730 41T746 16T783 10H824V0H588V10H643Q668 10 680
16T695 40T699 98V669L437 0H420L159 663V98Q159 59 162 41T178 16T215 10H248V0H50Z" />
<glyph unicode="N" horiz-adv-x="731" d="M50 0V10H93Q118 10 130 16T145 40T149 98V616Q149 655 146 673T130 698T93 704H50V714H155L582 55V616Q582 655 579 673T563 698T526 704H485V714H689V704H648Q623 704 611 698T596 674T592 616V0H582L159 653V98Q159
59 162 41T178 16T215 10H256V0H50Z" />
<glyph unicode="O" horiz-adv-x="686" d="M343 -10Q248 -10 185 33T90 159T58 359Q58 476 90 557T187 682T344 725Q446 725 508 682T598 556T627 358Q627 247 598 164T507 36T343 -10ZM343 0Q411 0 459 24T539 93T584 206T599 358Q599 444 585 510T541 622T463
691T344 715Q280 715 232 692T151 623T102 511T86 358Q86 272 102 205T150 93T231 24T343 0Z" />
<glyph unicode="P" horiz-adv-x="562" d="M50 0V10H93Q118 10 130 16T145 40T149 98V616Q149 655 146 673T130 698T93 704H50V714H299Q412 714 461 661T511 509Q511 462 499 422T460 353T388 308T277 292H177V98Q177 59 180 41T196 16T233 10H293V0H50ZM276 302Q337
302 377 319T440 365T473 431T483 509Q483 574 465 617T406 682T299 704H177V302H276Z" />
<glyph unicode="Q" horiz-adv-x="686" d="M537 -218Q504 -218 471 -210T409 -179T361 -116T336 -10Q245 -8 183 34T90 158T58 359Q58 470 88 552T182 680T344 725Q445 725 507 682T598 557T627 358Q627 186 562 92T364 -10Q368 -62 380 -99T412 -161T461 -196T528
-208H544V-218H537ZM343 0Q410 0 458 23T538 92T584 204T599 358Q599 444 585 510T541 622T463 691T344 715Q275 715 226 690T146 617T101 504T86 358Q86 272 102 206T150 93T230 24T343 0Z" />
<glyph unicode="R" horiz-adv-x="592" d="M50 0V10H93Q118 10 130 16T145 40T149 98V616Q149 655 146 673T130 698T93 704H50V714H253Q337 714 388 696T464 639T488 533Q488 475 467 434T409 367T327 333L497 81Q513 57 525 43T547 22T568 13T589 10H600V0H596Q567
0 548 4T514 19T487 46T456 90L297 329H177V98Q177 59 180 41T196 16T233 10H273V0H50ZM279 339Q331 339 371 361T436 427T460 532Q460 589 443 627T384 685T264 704H177V339H279Z" />
<glyph unicode="S" horiz-adv-x="490" d="M259 -10Q211 -10 177 1T120 32T86 76T75 126Q75 138 77 147T86 161T101 166Q101 109 118 72T171 18T259 0Q336 0 372 44T409 168Q409 209 393 239T342 297T249 357Q209 380 181 400T135 443T109 494T100 560Q100 606
121 643T181 702T272 724Q318 724 353 709T409 670T429 614Q429 595 423 585T403 575Q403 651 370 682T271 714Q224 714 192 695T144 640T128 555Q128 513 143 484T188 432T259 384Q305 357 345 330T411 266T437 169Q437 118 417 78T358 14T259 -10Z" />
<glyph unicode="T" horiz-adv-x="563" d="M144 0V10H209Q234 10 246 16T261 40T265 98V699H106Q80 699 68 693T51 673T45 630L42 563H32L38 714H523L529 563H519L516 630Q515 658 511 672T494 693T455 699H293V98Q293 59 296 41T312 16T349 10H413V0H144Z" />
<glyph unicode="U" horiz-adv-x="679" d="M339 -10Q271 -10 219 12T139 83T110 214V616Q110 655 107 673T91 698T54 704H13V714H236V704H194Q169 704 157 698T142 674T138 616V210Q138 138 162 93T231 27T339 5Q403 5 450 27T523 92T550 199V616Q550 655 547 673T531
698T494 704H453V714H655V704H616Q591 704 579 698T564 674T560 616V198Q560 133 533 86T456 15T339 -10Z" />
<glyph unicode="V" horiz-adv-x="645" d="M79 656Q72 678 66 688T48 701T14 704H0V714H215V704H163Q126 704 117 697T108 676Q108 665 113 646T126 607T136 577L252 244Q264 211 273 183T290 131T305 84T319 39Q330 71 339 100T360 163T388 244L501 577Q504 587
510 606T523 645T529 676Q529 690 521 697T474 704H429V714H626V704H604Q581 704 570 701T553 688T539 656L317 0H307L79 656Z" />
<glyph unicode="W" horiz-adv-x="1021" d="M105 656Q99 678 93 688T75 701T40 704H21V714H232V704H188Q151 704 142 697T133 676Q133 670 135 661T141 638T151 605L279 189Q289 158 295 136T307 92T320 42Q330 83 338 116T357 189L493 714H507L642 208Q651 176
658 148T671 97T683 51Q688 68 695 93T711 147T729 205L852 605Q860 633 864 649T868 676Q868 690 860 697T813 704H775V714H968V704H943Q921 704 910 701T892 688T878 655L677 0H667L492 669L319 0H306L105 656Z" />
<glyph unicode="X" horiz-adv-x="570" d="M6 0V10H41Q63 10 74 12T94 25T113 57L273 365L114 657Q102 679 95 689T76 701T43 704H12V714H207V704H178Q151 704 145 699T139 684Q139 672 146 657T167 618L289 395L405 617Q416 639 424 655T433 684Q433 693 428 698T396
704H360V714H539V704H509Q487 704 476 702T457 689T438 658L295 384L474 58Q486 37 493 27T512 13T545 10H569V0H375V10H413Q438 10 443 15T449 30Q449 42 441 59T413 110L279 354L164 133Q146 99 136 79T122 49T117 30Q117 21 123 16T156 10H206V0H6Z" />
<glyph unicode="Y" horiz-adv-x="539" d="M159 0V10H208Q233 10 245 16T260 40T264 98V354L71 661Q59 681 51 690T31 701T-2 704H-11V714H166V704H133Q108 704 102 700T95 687Q95 678 101 667T118 639L203 503Q213 487 223 470T244 436T265 401T285 367Q295 387
302 401T325 447L422 638Q430 655 436 667T443 689Q443 695 437 699T405 704H366V714H545V704H518Q497 704 485 702T464 691T446 662L292 358V98Q292 59 295 41T311 16T348 10H396V0H159Z" />
<glyph unicode="Z" horiz-adv-x="498" d="M28 0V22L426 699H121Q95 699 83 693T66 673T60 630L57 579H47L52 714H450V685L56 15H384Q410 15 422 21T439 41T445 83L448 135H458L453 0H28Z" />
<glyph unicode="[" horiz-adv-x="292" d="M100 -128V760H255V750H184Q159 750 147 744T132 720T128 662V-30Q128 -68 131 -87T147 -112T184 -118H255V-128H100Z" />
<glyph unicode="\" horiz-adv-x="270" d="M259 -121L0 760H11L270 -121H259Z" />
<glyph unicode="]" horiz-adv-x="292" d="M37 -128V-118H108Q133 -118 145 -112T160 -87T164 -30V662Q164 701 161 719T145 744T108 750H37V760H192V-128H37Z" />
<glyph unicode="^" horiz-adv-x="504" d="M55 261L239 714H263L449 261H427L251 694L77 261H55Z" />
<glyph unicode="_" horiz-adv-x="459" d="M-5 -106V-86H464V-106H-5Z" />
<glyph unicode="`" horiz-adv-x="208" d="M166 606Q151 623 134 643T99 685T66 724T40 756V766H73Q86 744 103 717T137 663T168 616V606H166Z" />
<glyph unicode="a" horiz-adv-x="517" d="M198 -10Q129 -10 93 27T56 138Q56 218 114 253T290 293L373 296V371Q373 421 364 457T327 512T242 532Q168 532 144 498T119 395Q109 395 104 404T98 428Q98 455 110 481T153 525T242 542Q330 542 365 500T401 386V100Q401
63 404 44T420 17T459 10H466V0H374V115H372Q361 89 339 60T282 11T198 -10ZM204 5Q251 5 289 30T350 94T373 170V286L288 283Q175 279 130 240T84 135Q84 99 97 70T136 23T204 5Z" />
<glyph unicode="b" horiz-adv-x="570" d="M313 -10Q256 -10 211 23T147 139H145V0H20V10H41Q78 10 94 14T114 33T118 84V672Q118 709 114 725T96 746T51 750H20V760H146V560Q146 532 146 487T144 385H146Q164 463 207 503T320 544Q416 544 461 478T506 267Q506
175 482 114T415 21T313 -10ZM317 5Q368 5 404 35T459 124T478 270Q478 362 462 419T411 502T316 529Q228 529 187 461T145 269Q145 142 182 74T317 5Z" />
<glyph unicode="c" horiz-adv-x="448" d="M259 -10Q205 -10 161 19T91 110T64 263Q64 369 89 430T160 516T262 542Q308 542 341 527T391 487T409 433Q409 425 406 419T398 410T384 406Q384 442 370 470T329 515T258 532Q209 532 172 508T113 425T92 264Q92 176
115 117T176 29T259 0Q303 1 332 17T378 60T402 114Q408 110 410 104T413 88Q413 71 395 48T343 7T259 -10Z" />
<glyph unicode="d" horiz-adv-x="570" d="M261 -10Q201 -10 158 22T90 116T66 267Q66 355 86 416T149 510T256 543Q327 543 372 506T432 394H434Q433 413 433 443T432 501T432 543V672Q432 709 428 725T410 746T365 750H340V760H460V84Q460 49 464 34T484 14T537
10H553V0H432V144H430Q412 71 368 31T261 -10ZM261 5Q347 7 390 75T433 265Q433 354 417 412T363 499T256 528Q199 528 163 498T111 409T94 264Q94 179 115 121T174 33T261 5Z" />
<glyph unicode="e" horiz-adv-x="489" d="M266 -10Q173 -10 119 60T64 262Q64 404 114 473T257 542Q340 542 387 476T435 290V276H93Q92 182 114 121T175 30T267 0Q305 0 333 12T380 48T411 103Q416 100 418 96T420 85Q420 68 403 46T351 7T266 -10ZM407 286Q407
358 390 413T339 500T256 532Q200 532 166 501T115 415T94 286H407Z" />
<glyph unicode="f" horiz-adv-x="321" d="M36 0V10H68Q98 10 112 14T131 34T135 88V526H40V536H135V600Q135 682 175 727T286 772Q322 772 345 760T378 730T389 694Q389 681 386 673T377 662T367 658Q367 706 351 734T284 762Q226 762 195 721T163 600V536H307V526H163V88Q163
51 167 35T186 14T230 10H284V0H36Z" />
<glyph unicode="g" horiz-adv-x="510" d="M237 -240Q146 -240 98 -197T49 -80Q49 -39 71 -10T126 35T188 54Q152 62 134 82T116 130Q116 149 129 170T169 213Q121 238 103 282T85 372Q85 446 128 494T250 542Q286 542 314 530T363 498Q390 528 409 542T450 557Q469
557 480 547T492 517Q492 500 485 490T469 480Q469 510 462 522T439 534Q425 534 409 524T370 491Q381 475 394 440T407 364Q407 289 368 243T250 196Q231 196 213 199T179 208Q157 191 148 174T138 140Q138 109 163 90T230 71H313Q384 71 421 38T458 -65Q458 -144
403 -192T237 -240ZM241 -230Q336 -230 383 -190T430 -66Q430 -1 400 22T311 46H220Q180 46 148 34T96 -7T77 -82Q77 -124 92 -157T144 -210T241 -230ZM247 206Q288 206 317 220T363 269T379 365Q379 426 364 462T319 515T247 532Q208 532 178 516T131 463T113
364Q113 307 130 273T178 222T247 206Z" />
<glyph unicode="h" horiz-adv-x="595" d="M16 0V10H41Q78 10 94 14T114 33T118 84V672Q118 709 114 725T96 746T51 750H26V760H146V482Q146 474 146 466T146 447T145 416H147Q159 456 183 484T240 527T314 542Q392 542 433 500T475 362V84Q475 49 479 34T499 14T552
10H569V0H447V360Q447 449 416 488T314 527Q264 527 226 505T167 441T146 334V84Q146 49 150 34T170 14T223 10H242V0H16Z" />
<glyph unicode="i" horiz-adv-x="280" d="M31 0V10H61Q98 10 114 14T134 33T138 84V448Q138 485 134 501T116 522T71 526H53V536H166V84Q166 49 170 34T190 14T243 10H273V0H31ZM147 658Q138 658 133 666T127 698Q127 721 132 729T147 738Q157 738 162 730T167
698Q167 674 162 666T147 658Z" />
<glyph unicode="j" horiz-adv-x="284" d="M26 -240V-230H37Q71 -230 95 -211T133 -143T146 -8V448Q146 485 142 501T124 522T79 526H61V536H174V-8Q174 -97 158 -148T111 -219T42 -240H26ZM155 658Q146 658 141 666T135 698Q135 721 140 729T155 738Q165 738 170
730T175 698Q175 674 170 666T155 658Z" />
<glyph unicode="k" horiz-adv-x="521" d="M20 0V10H41Q78 10 94 14T114 33T118 84V672Q118 709 114 725T96 746T51 750H20V760H146V374Q146 348 146 322T146 269T145 213L304 383Q348 430 369 454T396 489T403 507Q403 520 391 523T351 526V536H504V526Q482 526
467 522T433 501T379 447L258 318L384 116Q410 75 429 52T465 19T504 10H508V0H494Q470 0 454 3T424 16T394 49T355 110L240 298L146 197V84Q146 49 150 34T170 14T223 10H233V0H20Z" />
<glyph unicode="l" horiz-adv-x="256" d="M7 0V10H37Q74 10 90 14T110 33T114 84V672Q114 709 110 725T92 746T47 750H7V760H142V84Q142 49 146 34T166 14T220 10H249V0H7Z" />
<glyph unicode="m" horiz-adv-x="891" d="M38 0V10H61Q98 10 114 14T134 33T138 84V452Q138 487 134 502T116 522T71 526H54V536H166V424H168Q180 459 202 485T255 527T321 542Q389 542 422 509T465 414H467Q476 452 495 480T547 525T622 542Q702 543 739 496T776
361V84Q776 49 780 34T800 14T853 10H863V0H748V374Q748 448 719 487T622 527Q569 527 536 505T487 444T471 358V84Q471 49 475 34T495 14T548 10H563V0H443V374Q443 447 415 486T315 526Q265 526 232 501T183 434T166 343V84Q166 49 170 34T190 14T243 10H263V0H38Z"
/>
<glyph unicode="n" horiz-adv-x="617" d="M38 0V10H61Q98 10 114 14T134 33T138 84V452Q138 487 134 502T116 522T71 526H43V536H166V427H168Q180 464 204 489T261 528T333 542Q419 542 458 497T498 357V84Q498 49 502 34T522 14T575 10H590V0H470V375Q470 442
440 484T333 527Q268 527 232 500T181 431T166 344V84Q166 49 170 34T190 14T243 10H259V0H38Z" />
<glyph unicode="o" horiz-adv-x="531" d="M265 -10Q172 -10 119 58T65 267Q65 407 117 474T270 542Q365 542 415 477T466 267Q466 126 415 58T265 -10ZM265 0Q329 0 367 32T421 124T438 267Q438 360 420 418T365 504T270 532Q207 532 168 504T111 417T93 267Q93
180 111 121T167 31T265 0Z" />
<glyph unicode="p" horiz-adv-x="574" d="M24 -240V-230H55Q85 -230 99 -226T118 -206T122 -152V452Q122 487 118 502T98 522T45 526H1V536H149V392H151Q164 458 206 502T316 546Q416 546 462 481T509 278Q509 130 458 60T317 -10Q253 -10 210 33T151 152H149Q150
132 150 87T150 -13V-152Q150 -189 154 -205T173 -226T217 -230H259V-240H24ZM320 5Q372 5 407 35T462 125T481 273Q481 360 465 417T413 502T317 531Q255 531 219 499T166 410T150 279Q150 194 166 133T220 38T320 5Z" />
<glyph unicode="q" horiz-adv-x="572" d="M337 -240V-230H365Q395 -230 409 -226T428 -206T432 -152V-31Q432 2 432 39T432 108T433 154H431Q422 111 400 74T343 13T259 -10Q167 -10 116 55T65 265Q65 362 88 424T157 516T271 546Q335 546 376 507T430 402H433V536H548V526H537Q500
526 484 522T464 503T460 452V-152Q460 -189 464 -205T482 -226T527 -230H538V-240H337ZM260 5Q303 5 342 28T407 109T432 267Q432 392 398 461T273 531Q211 531 171 503T112 415T93 264Q93 174 111 117T166 32T260 5Z" />
<glyph unicode="r" horiz-adv-x="405" d="M49 0V10H71Q101 10 115 14T134 34T138 88V452Q138 487 134 502T114 522T61 526H43V536H165V397H167Q176 430 194 464T240 521T306 544Q344 544 367 525T390 476Q390 463 384 453T364 443Q364 488 349 508T301 529Q272
529 247 512T204 463T176 389T166 297V88Q166 51 170 35T189 14T233 10H268V0H49Z" />
<glyph unicode="s" horiz-adv-x="405" d="M206 -10Q150 -10 120 7T77 48T65 95Q65 109 67 118T76 132T91 137Q91 92 100 62T134 16T206 0Q265 0 295 37T325 132Q325 156 318 175T291 212T229 252Q171 284 138 308T90 359T76 422Q76 475 113 508T214 542Q259 542
286 527T326 490T338 445Q338 426 332 416T312 405Q312 481 287 506T211 532Q175 532 151 519T116 481T104 421Q104 390 119 367T162 324T231 283Q282 257 308 234T343 186T353 131Q353 68 312 29T206 -10Z" />
<glyph unicode="t" horiz-adv-x="286" d="M202 -10Q144 -10 120 24T95 141V526H17V536Q45 536 63 539T91 553Q105 566 109 591T113 657H123V536H250V526H123V132Q123 56 141 28T201 0Q218 0 230 1T259 5V-5Q243 -8 230 -9T202 -10Z" />
<glyph unicode="u" horiz-adv-x="597" d="M281 -10Q199 -10 159 37T118 184V452Q118 487 114 502T94 522T41 526H15V536H146V181Q146 129 157 89T197 27T281 5Q337 5 374 31T430 103T449 202V452Q449 487 445 502T425 522T372 526H354V536H477V84Q477 50 481 34T499
14T544 10H576V0H450V123H448Q439 95 425 71T389 29T341 1T281 -10Z" />
<glyph unicode="v" horiz-adv-x="545" d="M83 478Q75 502 68 512T49 524T8 526V536H180V526H153Q122 526 115 521T107 505Q107 492 117 466T135 417L214 199Q225 170 236 138T258 77T274 29Q279 42 287 65T309 123T340 206L404 376Q424 429 435 458T446 505Q446
516 439 521T400 526H364V536H538V526H524Q499 526 487 524T469 511T454 478L274 0H259L83 478Z" />
<glyph unicode="w" horiz-adv-x="870" d="M86 473Q80 497 74 508T58 522T27 526H7V536H177V526H147Q122 526 116 521T109 506Q109 498 115 474T126 435L192 200Q199 176 208 142T225 78T236 32H238Q243 47 253 79T276 146T297 206L411 536H431L539 223Q545 205
555 177T575 119T593 63T606 23H608Q613 40 621 67T641 129T664 205L737 438Q744 459 749 477T754 506Q754 516 748 521T716 526H676V536H837V526H818Q798 526 788 523T772 509T760 477L611 0H590L413 511L239 0H221L86 473Z" />
<glyph unicode="x" horiz-adv-x="492" d="M-3 0V10H19Q40 10 51 13T71 26T93 58L236 288L114 478Q100 500 92 510T72 523T40 526H22V536H200V526H173Q145 526 138 523T131 512Q131 505 139 491T162 454L252 313L339 454Q353 477 361 491T370 512Q370 519 364 522T328
526H275V536H451V526H441Q420 526 409 523T390 510T367 478L259 303L416 58Q429 38 437 28T457 14T490 10H497V0H307V10H357Q386 10 392 13T399 24Q399 32 391 46T368 82L243 277L121 82Q108 61 99 47T90 24Q90 17 97 14T132 10H194V0H-3Z" />
<glyph unicode="y" horiz-adv-x="547" d="M52 -230Q105 -229 138 -222T194 -192T237 -125T282 -6L87 478Q78 502 71 512T52 524T13 526H10V536H184V526H156Q125 526 118 521T110 505Q110 495 117 477T141 417L212 234Q221 210 232 182T255 125T277 71T294 29Q304
58 315 91T343 171L433 433Q441 457 447 476T453 505Q453 516 446 521T407 526H366V536H537V526H533Q507 526 494 524T475 512T460 478L300 16Q273 -62 254 -112T211 -190T151 -229T53 -240H52V-230Z" />
<glyph unicode="z" horiz-adv-x="489" d="M69 0V12L388 521H151Q125 521 112 515T95 495T88 452L86 420H76L84 536H423V524L102 15H351Q377 15 389 21T406 42T412 85L414 138H424L419 0H69Z" />
<glyph unicode="{" horiz-adv-x="410" d="M306 -132Q254 -132 225 -94T196 8V184Q196 230 187 256T153 295T76 310V320Q127 322 152 333T187 372T196 445V621Q196 688 225 724T306 760H336V750H311Q265 750 245 720T224 620V443Q224 408 213 381T180 337T129 316V314Q159
310 180 294T212 250T224 187V6Q224 -61 243 -91T306 -122H336V-132H306Z" />
<glyph unicode="|" horiz-adv-x="559" d="M269 -240V760H289V-240H269Z" />
<glyph unicode="}" horiz-adv-x="410" d="M76 -132V-122H106Q149 -122 168 -92T188 6V187Q188 223 199 250T232 293T283 314V316Q253 320 232 336T200 380T188 443V620Q188 689 168 719T101 750H76V760H106Q159 760 187 724T216 621V445Q216 399 225 372T260 334T336
320V310Q286 308 260 296T225 257T216 184V8Q216 -56 188 -94T106 -132H76Z" />
<glyph unicode="~" horiz-adv-x="559" d="M64 277Q69 300 74 327T91 379T121 420T170 436Q205 436 232 416T284 369Q310 343 334 320T389 297Q419 297 435 319T459 374T475 436H494Q491 418 485 391T468 338T437 295T387 277Q350 277 322 303T268 357Q253 374
238 387T207 408T171 416Q143 416 127 399T102 350T84 277H64Z" />
<glyph unicode="&#xa0;" horiz-adv-x="225" />
<glyph unicode="&#xa1;" horiz-adv-x="271" d="M110 -177L116 370H131L138 -177H110ZM125 464Q117 464 111 472T105 502Q105 525 111 533T125 542Q133 542 139 534T145 502Q145 480 139 472T125 464Z" />
<glyph unicode="&#xa2;" horiz-adv-x="559" d="M306 92Q252 95 210 126T143 217T118 365Q118 465 141 525T207 613T306 643V714H316V643Q364 643 396 628T446 588T463 535Q463 527 460 521T450 512T433 508Q433 542 422 570T385 615T316 633V102Q358 103 385 117T429
157T453 216Q460 214 463 207T467 190Q467 173 450 150T400 109T316 92V0H306V92ZM306 633Q257 631 221 605T166 521T146 366Q146 283 167 225T224 136T306 102V633Z" />
<glyph unicode="&#xa3;" horiz-adv-x="559" d="M422 -11Q394 -11 370 -3T322 15Q300 25 277 32T230 40Q190 40 165 34T117 14L98 4V25L118 38Q137 50 156 73T190 132T204 211Q204 240 195 279T177 346H78V356H173Q156 403 142 449T127 542Q127 628 178 675T307
723Q356 723 391 710T445 672T465 614Q465 592 457 582T440 572Q440 613 430 644T390 694T307 713Q234 713 195 668T155 542Q155 506 163 473T182 410T201 356H351V346H204Q211 330 217 306T228 256T232 211Q232 187 222 154T190 89T135 37L136 35Q174 56 196 62T238
68Q261 68 286 61T335 43Q364 31 391 19T437 7Q452 7 476 15T530 54L537 45Q513 20 494 8T457 -7T422 -11Z" />
<glyph unicode="&#xa4;" horiz-adv-x="559" d="M85 146L68 164L143 239Q122 263 110 294T98 360Q98 394 109 424T141 478L66 552L84 569L158 495Q182 517 213 530T281 543Q315 543 345 531T400 498L473 571L490 553L418 480Q440 456 452 426T464 360Q464 325 452
294T417 238L491 164L473 147L399 220Q375 200 345 189T281 177Q247 177 216 189T160 222L85 146ZM281 203Q325 203 360 224T415 281T436 360Q436 404 416 439T360 496T281 517Q238 517 203 496T147 440T126 360Q126 317 146 281T202 224T281 203Z" />
<glyph unicode="&#xa5;" horiz-adv-x="559" d="M155 0V10H178Q207 10 225 15T251 37T260 83V200H106V210H260V325H106V334H256L81 653Q65 683 48 693T10 704H5V714H176V704H136Q118 704 111 698T103 681Q103 672 107 662T118 639L212 464Q221 448 229 432T247
400T264 367T281 335Q289 350 304 379T338 444L423 608Q434 628 441 644T448 674Q448 688 433 696T381 704H372V714H539V704H536Q507 704 487 687T446 628L291 334H441V325H288V210H441V200H288V92Q288 58 296 40T322 16T371 10H392V0H155Z" />
<glyph unicode="&#xa6;" horiz-adv-x="559" d="M269 360V760H289V360H269ZM269 -240V160H289V-240H269Z" />
<glyph unicode="&#xa7;" horiz-adv-x="559" d="M263 -116Q223 -116 192 -106T139 -77T107 -35T96 17Q96 33 99 41T108 52T118 55Q118 -22 152 -64T266 -106Q308 -106 341 -88T395 -35T415 47Q415 99 390 134T326 194T242 243Q214 258 188 273T143 307T112 348T100
400Q100 428 113 455T155 511Q136 535 128 556T119 603Q119 679 165 719T284 760Q333 760 364 745T410 708T425 666Q425 654 420 645T403 636Q403 692 368 721T280 750Q236 750 207 734T162 687T147 615Q147 576 163 548T214 496T303 444Q360 416 394 393T443 342T459
272Q459 251 448 222T406 154Q419 136 431 114T443 47Q443 1 419 -36T354 -94T263 -116ZM398 162Q416 193 425 218T434 272Q434 302 425 322T388 364T301 416Q254 441 220 461T163 503Q144 487 135 463T125 404Q125 369 143 344T191 301T256 263Q281 250 306 235T355
201T398 162Z" />
<glyph unicode="&#xa8;" horiz-adv-x="577" d="M366 658Q357 658 352 666T346 698Q346 721 351 729T366 738Q376 738 381 730T386 698Q386 674 381 666T366 658ZM205 658Q196 658 191 666T185 698Q185 721 190 729T205 738Q215 738 220 730T225 698Q225 674 220
666T205 658Z" />
<glyph unicode="&#xa9;" horiz-adv-x="845" d="M422 -10Q342 -10 275 17T159 93T82 210T55 358Q55 438 82 505T158 621T274 697T422 725Q502 725 569 698T686 622T763 505T790 357Q790 277 763 210T687 94T570 17T422 -10ZM427 104Q370 104 322 131T246 215T217
362Q217 451 244 507T319 589T425 615Q472 615 507 601T563 564T583 515Q583 505 578 498T557 488Q557 521 542 547T496 589T422 605Q371 605 331 580T268 503T245 365Q245 276 270 221T338 140T429 114Q486 114 521 142T569 218Q577 215 579 208T582 196Q582 179
564 157T512 120T427 104ZM424 0Q501 0 565 26T677 101T751 215T778 358Q778 435 752 500T678 614T565 688T422 715Q345 715 280 689T168 614T94 501T67 358Q67 279 94 213T170 100T284 26T424 0Z" />
<glyph unicode="&#xaa;" horiz-adv-x="334" d="M133 380Q96 380 69 403T42 476Q42 516 78 539T188 566L238 568V614Q238 664 225 687T162 710Q116 710 103 690T89 625Q82 625 76 631T69 653Q69 666 77 681T106 708T162 720Q216 720 239 694T262 623V451Q262 417
268 407T302 396V386H239V450H238Q228 428 203 404T133 380ZM136 390Q166 390 189 406T225 447T238 497V558L190 556Q118 553 93 533T67 475Q67 435 82 413T136 390Z" />
<glyph unicode="&#xab;" horiz-adv-x="464" d="M367 92L231 266V274L367 448H385L265 270L385 92H367ZM211 92L75 266V274L211 448H229L109 270L229 92H211Z" />
<glyph unicode="&#xac;" horiz-adv-x="559" d="M467 120V355H62V375H487V120H467Z" />
<glyph unicode="&#xad;" horiz-adv-x="310" d="M25 263V283H285V263H25Z" />
<glyph unicode="&#xae;" horiz-adv-x="845" d="M422 -10Q342 -10 275 17T159 93T82 210T55 358Q55 438 82 505T158 621T274 697T422 725Q502 725 569 698T686 622T763 505T790 357Q790 277 763 210T687 94T570 17T422 -10ZM424 0Q501 0 565 26T677 101T751 215T778
358Q778 435 752 500T678 614T565 688T422 715Q345 715 280 689T168 614T94 501T67 358Q67 279 94 213T170 100T284 26T424 0ZM258 141V151H271Q291 151 305 156T320 177V528Q320 551 306 557T271 563H258V573H404Q490 573 530 543T571 454Q571 422 558 402T524
369T479 350L574 177Q583 160 593 156T624 151V141H558L448 343H348V177Q348 161 363 156T397 151H411V141H258ZM422 353Q486 353 514 378T542 453Q542 515 505 539T394 563H348V353H422Z" />
<glyph unicode="&#xaf;" horiz-adv-x="459" d="M-5 763V783H464V763H-5Z" />
<glyph unicode="&#xb0;" horiz-adv-x="400" d="M199 421Q132 421 90 463T48 572Q48 639 90 681T199 724Q266 724 308 682T351 572Q351 505 309 463T199 421ZM201 441Q260 441 295 478T331 574Q331 632 295 668T201 704Q143 704 106 668T68 574Q68 516 105 479T201 441Z" />
<glyph unicode="&#xb1;" horiz-adv-x="559" d="M65 4V24H494V4H65ZM269 143V347H65V367H269V572H289V367H494V347H289V143H269Z" />
<glyph unicode="&#xb2;" horiz-adv-x="400" d="M58 387V400L208 558Q243 595 261 619T285 664T292 712Q292 745 281 768T248 803T195 815Q158 815 138 802T111 766T103 717Q90 717 83 724T76 744Q76 757 87 776T126 810T197 825Q255 825 287 796T320 714Q320 690
314 670T289 626T234 563L89 411H269Q305 411 312 417T321 452L322 480H332L329 387H58Z" />
<glyph unicode="&#xb3;" horiz-adv-x="400" d="M195 380Q133 380 98 407T63 473Q63 491 70 499T91 508Q91 445 113 418T197 390Q252 390 285 418T318 509Q318 556 285 582T177 609H144V619H183Q243 619 272 646T301 717Q301 768 276 791T197 814Q151 814 122 786T92
700Q83 699 76 706T69 731Q69 754 86 775T133 810T199 824Q269 824 299 793T329 718Q329 673 304 651T237 617V614Q293 607 319 581T346 509Q346 472 328 443T276 397T195 380Z" />
<glyph unicode="&#xb4;" horiz-adv-x="208" d="M40 616Q54 636 71 662T105 716T135 766H168V756Q158 743 143 725T110 685T75 644T42 606H40V616Z" />
<glyph unicode="&#xb5;" horiz-adv-x="551" d="M144 -240Q129 -240 117 -231T99 -196T92 -126Q92 -100 93 -77T94 -27T96 40T97 136V536H125V168Q125 116 140 80T184 24T253 5Q303 5 339 36T394 116T414 212V536H442V109Q442 54 456 32T511 10H520V0H487Q456 0
434 28T414 134H412Q389 61 347 26T252 -10Q216 -10 190 0T148 29T121 74Q121 -13 122 -69T127 -156T137 -202T154 -220T181 -224Q179 -230 171 -235T144 -240Z" />
<glyph unicode="&#xb6;" horiz-adv-x="605" d="M173 -111V-101H201Q223 -101 237 -97T260 -80T268 -44V386H197Q139 386 106 413T58 485T44 582Q44 636 59 676T108 738T199 760H556V750H543Q521 750 502 745T472 725T461 678V-37Q461 -63 468 -77T490 -96T532
-101H556V-111H433V750H296V-111H173Z" />
<glyph unicode="&#xb7;" horiz-adv-x="194" d="M88 318Q81 318 75 326T68 358Q68 381 74 388T88 396Q96 396 102 389T108 358Q108 335 102 327T88 318Z" />
<glyph unicode="&#xb8;" horiz-adv-x="333" d="M135 -223Q121 -223 106 -221T72 -214V-203Q90 -208 103 -210T135 -213Q168 -213 189 -197T211 -136Q211 -115 202 -103T176 -83T132 -74L150 0H160L147 -55Q182 -61 208 -76T235 -133Q235 -183 207 -203T135 -223Z" />
<glyph unicode="&#xb9;" horiz-adv-x="400" d="M80 387V397H151Q167 397 177 404T188 433V790Q177 779 159 762T122 731T87 717Q80 717 73 722T66 740Q97 740 120 751T159 777T181 797L201 819H214V433Q214 412 225 405T250 397H320V387H80Z" />
<glyph unicode="&#xba;" horiz-adv-x="347" d="M172 380Q117 380 78 422T38 550Q38 636 77 678T174 720Q230 720 270 678T310 550Q310 465 270 423T172 380ZM173 390Q230 390 257 434T285 550Q285 621 257 665T172 710Q117 710 90 666T63 550Q63 478 90 434T173 390Z" />
<glyph unicode="&#xbb;" horiz-adv-x="464" d="M231 92L351 270L231 448H249L385 274V266L249 92H231ZM75 92L195 270L75 448H93L229 274V266L93 92H75Z" />
<glyph unicode="&#xbc;" horiz-adv-x="840" d="M309 538V548H380Q396 548 406 555T417 584V941Q406 930 388 913T351 882T316 868Q309 868 302 873T295 891Q326 891 349 902T388 928T410 948L430 970H443V584Q443 563 454 556T479 548H549V538H309ZM218 0L608
714H619L229 0H218ZM590 0V10H626Q647 10 661 14T675 34V145H481V155L689 432H701V160H779V145H701V34Q701 19 711 15T743 10H763V0H590ZM498 160H675V314Q675 325 675 341T676 373T678 401Q673 393 662 378T639 347L498 160Z" />
<glyph unicode="&#xbd;" horiz-adv-x="840" d="M309 538V548H380Q396 548 406 555T417 584V941Q406 930 388 913T351 882T316 868Q309 868 302 873T295 891Q326 891 349 902T388 928T410 948L430 970H443V584Q443 563 454 556T479 548H549V538H309ZM211 0L601
714H612L222 0H211ZM498 0V13L648 171Q683 208 701 232T725 277T732 325Q732 358 721 381T688 416T635 428Q598 428 578 415T551 379T543 330Q530 330 523 337T516 357Q516 370 527 389T566 423T637 438Q695 438 727 409T760 327Q760 303 754 283T729 239T674 176L529
24H709Q745 24 752 30T761 65L762 93H772L769 0H498Z" />
<glyph unicode="&#xbe;" horiz-adv-x="840" d="M441 536Q379 536 344 563T309 629Q309 647 316 655T337 664Q337 601 359 574T443 546Q498 546 531 574T564 665Q564 712 531 738T423 765H390V775H429Q489 775 518 802T547 873Q547 924 522 947T443 970Q397 970
368 942T338 856Q329 855 322 862T315 887Q315 910 332 931T379 966T445 980Q515 980 545 949T575 874Q575 829 550 807T483 773V770Q539 763 565 737T592 665Q592 628 574 599T522 553T441 536ZM241 0L631 714H642L252 0H241ZM600 0V10H636Q657 10 671 14T685
34V145H491V155L699 432H711V160H789V145H711V34Q711 19 721 15T753 10H773V0H600ZM508 160H685V314Q685 325 685 341T686 373T688 401Q683 393 672 378T649 347L508 160Z" />
<glyph unicode="&#xbf;" horiz-adv-x="436" d="M232 204Q197 195 160 172T96 104T70 -10Q70 -63 87 -100T138 -158T222 -178Q281 -178 311 -160T352 -112T362 -43Q376 -43 382 -53T388 -82Q388 -101 374 -126T323 -169T224 -188Q138 -188 92 -139T45 -7Q45 69
86 122T203 206L210 335H225L232 204ZM219 541Q226 541 232 533T239 501Q239 478 233 471T219 463Q211 463 205 470T199 501Q199 524 205 532T219 541Z" />
<glyph unicode="&#xc0;" horiz-adv-x="645" d="M-4 0V10H15Q38 10 49 13T66 26T80 58L306 714H317L544 58Q552 36 558 26T575 13T609 10H627V0H422V10H460Q498 10 506 17T515 38Q515 50 510 70T497 109T487 137L445 259H161L119 137Q116 128 110 109T97 70T91
38Q91 24 100 17T146 10H202V0H-4ZM165 269H442L361 505Q352 532 341 564T320 628T303 679Q300 668 293 646T277 599T261 551T248 515L165 269ZM341 771Q326 788 309 808T274 850T241 889T215 921V931H248Q261 909 278 882T312 828T343 781V771H341Z" />
<glyph unicode="&#xc1;" horiz-adv-x="645" d="M-4 0V10H15Q38 10 49 13T66 26T80 58L306 714H317L544 58Q552 36 558 26T575 13T609 10H627V0H422V10H460Q498 10 506 17T515 38Q515 50 510 70T497 109T487 137L445 259H161L119 137Q116 128 110 109T97 70T91
38Q91 24 100 17T146 10H202V0H-4ZM165 269H442L361 505Q352 532 341 564T320 628T303 679Q300 668 293 646T277 599T261 551T248 515L165 269ZM278 781Q292 801 309 827T343 881T373 931H406V921Q396 908 381 890T348 850T313 809T280 771H278V781Z" />
<glyph unicode="&#xc2;" horiz-adv-x="645" d="M-4 0V10H15Q38 10 49 13T66 26T80 58L306 714H317L544 58Q552 36 558 26T575 13T609 10H627V0H422V10H460Q498 10 506 17T515 38Q515 50 510 70T497 109T487 137L445 259H161L119 137Q116 128 110 109T97 70T91
38Q91 24 100 17T146 10H202V0H-4ZM165 269H442L361 505Q352 532 341 564T320 628T303 679Q300 668 293 646T277 599T261 551T248 515L165 269ZM199 782Q214 802 230 828T263 881T289 931H322Q333 909 348 882T381 828T412 782V771H410Q388 796 371 817T338 860T306
906Q290 882 275 861T242 818T201 771H199V782Z" />
<glyph unicode="&#xc3;" horiz-adv-x="645" d="M-4 0V10H15Q38 10 49 13T66 26T80 58L306 714H317L544 58Q552 36 558 26T575 13T609 10H627V0H422V10H460Q498 10 506 17T515 38Q515 50 510 70T497 109T487 137L445 259H161L119 137Q116 128 110 109T97 70T91
38Q91 24 100 17T146 10H202V0H-4ZM165 269H442L361 505Q352 532 341 564T320 628T303 679Q300 668 293 646T277 599T261 551T248 515L165 269ZM394 784Q371 784 351 792T311 811T273 830T234 839Q195 839 184 820T170 781H160Q162 799 169 818T193 851T236 865Q261
865 281 857T320 838T357 819T394 810Q431 810 442 826T456 863H466Q464 844 457 826T436 796T394 784Z" />
<glyph unicode="&#xc4;" horiz-adv-x="645" d="M-4 0V10H15Q38 10 49 13T66 26T80 58L306 714H317L544 58Q552 36 558 26T575 13T609 10H627V0H422V10H460Q498 10 506 17T515 38Q515 50 510 70T497 109T487 137L445 259H161L119 137Q116 128 110 109T97 70T91
38Q91 24 100 17T146 10H202V0H-4ZM165 269H442L361 505Q352 532 341 564T320 628T303 679Q300 668 293 646T277 599T261 551T248 515L165 269ZM390 823Q381 823 376 831T370 863Q370 886 375 894T390 903Q400 903 405 895T410 863Q410 839 405 831T390 823ZM229
823Q220 823 215 831T209 863Q209 886 214 894T229 903Q239 903 244 895T249 863Q249 839 244 831T229 823Z" />
<glyph unicode="&#xc5;" horiz-adv-x="645" d="M-4 0V10H15Q38 10 49 13T66 26T80 58L292 674Q249 679 220 706T190 782Q190 835 225 863T310 891Q360 891 395 863T430 782Q430 735 402 708T331 674L544 58Q552 36 558 26T575 13T609 10H627V0H422V10H460Q498
10 506 17T515 38Q515 50 510 70T497 109T487 137L445 259H161L119 137Q116 128 110 109T97 70T91 38Q91 24 100 17T146 10H202V0H-4ZM165 269H442L361 505Q352 532 341 563T320 624T303 673Q294 647 285 621T267 568T248 515L165 269ZM310 683Q357 683 387 708T418
782Q418 831 388 856T310 881Q264 881 233 856T202 782Q202 733 233 708T310 683Z" />
<glyph unicode="&#xc6;" horiz-adv-x="875" d="M-4 0V10H30Q39 10 47 12T64 23T81 48L406 704H311V714H780L787 551H777L771 653Q770 674 764 685T747 700T720 704H466V380H711V370H466V10H737Q764 10 778 14T798 29T805 64L811 163H821L814 0H340V10H372Q404
10 418 16T435 40T439 98V272H204L115 93Q105 71 98 58T91 33Q91 19 104 15T145 10H201V0H-4ZM209 282H439V704H417L209 282Z" />
<glyph unicode="&#xc7;" horiz-adv-x="550" d="M323 -10Q233 -10 174 34T86 161T57 358Q57 473 87 555T177 680T323 724Q395 724 437 707T497 664T516 610Q516 589 511 579T493 568Q492 617 478 649T427 697T323 714Q245 714 192 672T112 550T85 358Q85 245 111
165T189 43T323 0Q397 0 437 30T492 111Q501 110 505 105T510 93Q510 79 498 62T463 28T404 1T323 -10ZM308 -223Q294 -223 279 -221T245 -214V-203Q263 -208 276 -210T308 -213Q341 -213 362 -197T384 -136Q384 -115 375 -103T349 -83T305 -74L323 0H335L320 -55Q355
-61 381 -76T408 -133Q408 -183 380 -203T308 -223Z" />
<glyph unicode="&#xc8;" horiz-adv-x="585" d="M50 0V10H93Q118 10 130 16T145 40T149 98V616Q149 655 146 673T130 698T93 704H50V714H490L497 551H487L483 635Q482 663 478 677T461 698T422 704H177V380H421V370H177V10H456Q482 10 494 16T511 37T517 79L521
163H531L524 0H50ZM333 771Q318 788 301 808T266 850T233 889T207 921V931H240Q253 909 270 882T304 828T335 781V771H333Z" />
<glyph unicode="&#xc9;" horiz-adv-x="585" d="M50 0V10H93Q118 10 130 16T145 40T149 98V616Q149 655 146 673T130 698T93 704H50V714H490L497 551H487L483 635Q482 663 478 677T461 698T422 704H177V380H421V370H177V10H456Q482 10 494 16T511 37T517 79L521
163H531L524 0H50ZM270 781Q284 801 301 827T335 881T365 931H398V921Q388 908 373 890T340 850T305 809T272 771H270V781Z" />
<glyph unicode="&#xca;" horiz-adv-x="585" d="M50 0V10H93Q118 10 130 16T145 40T149 98V616Q149 655 146 673T130 698T93 704H50V714H490L497 551H487L483 635Q482 663 478 677T461 698T422 704H177V380H421V370H177V10H456Q482 10 494 16T511 37T517 79L521
163H531L524 0H50ZM209 782Q224 802 240 828T273 881T299 931H332Q343 909 358 882T391 828T422 782V771H420Q398 796 381 817T348 860T316 906Q300 882 285 861T252 818T211 771H209V782Z" />
<glyph unicode="&#xcb;" horiz-adv-x="585" d="M50 0V10H93Q118 10 130 16T145 40T149 98V616Q149 655 146 673T130 698T93 704H50V714H490L497 551H487L483 635Q482 663 478 677T461 698T422 704H177V380H421V370H177V10H456Q482 10 494 16T511 37T517 79L521
163H531L524 0H50ZM394 823Q385 823 380 831T374 863Q374 886 379 894T394 903Q404 903 409 895T414 863Q414 839 409 831T394 823ZM233 823Q224 823 219 831T213 863Q213 886 218 894T233 903Q243 903 248 895T253 863Q253 839 248 831T233 823Z" />
<glyph unicode="&#xcc;" horiz-adv-x="325" d="M50 0V10H93Q118 10 130 16T145 40T149 98V616Q149 655 146 673T130 698T93 704H50V714H273V704H233Q208 704 196 698T181 674T177 616V98Q177 59 180 41T196 16T233 10H273V0H50ZM195 771Q180 788 163 808T128 850T95
889T69 921V931H102Q115 909 132 882T166 828T197 781V771H195Z" />
<glyph unicode="&#xcd;" horiz-adv-x="325" d="M50 0V10H93Q118 10 130 16T145 40T149 98V616Q149 655 146 673T130 698T93 704H50V714H273V704H233Q208 704 196 698T181 674T177 616V98Q177 59 180 41T196 16T233 10H273V0H50ZM124 781Q138 801 155 827T189 881T219
931H252V921Q242 908 227 890T194 850T159 809T126 771H124V781Z" />
<glyph unicode="&#xce;" horiz-adv-x="325" d="M50 0V10H93Q118 10 130 16T145 40T149 98V616Q149 655 146 673T130 698T93 704H50V714H273V704H233Q208 704 196 698T181 674T177 616V98Q177 59 180 41T196 16T233 10H273V0H50ZM53 782Q68 802 84 828T117 881T143
931H176Q187 909 202 882T235 828T266 782V771H264Q242 796 225 817T192 860T160 906Q144 882 129 861T96 818T55 771H53V782Z" />
<glyph unicode="&#xcf;" horiz-adv-x="325" d="M50 0V10H93Q118 10 130 16T145 40T149 98V616Q149 655 146 673T130 698T93 704H50V714H273V704H233Q208 704 196 698T181 674T177 616V98Q177 59 180 41T196 16T233 10H273V0H50ZM243 823Q234 823 229 831T223 863Q223
886 228 894T243 903Q253 903 258 895T263 863Q263 839 258 831T243 823ZM82 823Q73 823 68 831T62 863Q62 886 67 894T82 903Q92 903 97 895T102 863Q102 839 97 831T82 823Z" />
<glyph unicode="&#xd0;" horiz-adv-x="677" d="M50 0V10H95Q119 10 130 16T145 40T149 98V368H38V378H149V615Q149 654 146 673T131 698T98 704H50V714H315Q415 714 481 669T582 540T616 342Q616 233 585 157T487 40T319 0H50ZM305 10Q405 10 467 46T559 156T588
342Q588 455 559 536T467 660T306 704H177V378H404V368H177V10H305Z" />
<glyph unicode="&#xd1;" horiz-adv-x="731" d="M50 0V10H93Q118 10 130 16T145 40T149 98V616Q149 655 146 673T130 698T93 704H50V714H155L582 55V616Q582 655 579 673T563 698T526 704H485V714H689V704H648Q623 704 611 698T596 674T592 616V0H582L159 653V98Q159
59 162 41T178 16T215 10H256V0H50ZM456 784Q433 784 413 792T373 811T335 830T296 839Q257 839 246 820T232 781H222Q224 799 231 818T255 851T298 865Q323 865 343 857T382 838T419 819T456 810Q493 810 504 826T518 863H528Q526 844 519 826T498 796T456 784Z"
/>
<glyph unicode="&#xd2;" horiz-adv-x="686" d="M343 -10Q248 -10 185 33T90 159T58 359Q58 476 90 557T187 682T344 725Q446 725 508 682T598 556T627 358Q627 247 598 164T507 36T343 -10ZM343 0Q411 0 459 24T539 93T584 206T599 358Q599 444 585 510T541 622T463
691T344 715Q280 715 232 692T151 623T102 511T86 358Q86 272 102 205T150 93T231 24T343 0ZM379 771Q364 788 347 808T312 850T279 889T253 921V931H286Q299 909 316 882T350 828T381 781V771H379Z" />
<glyph unicode="&#xd3;" horiz-adv-x="686" d="M343 -10Q248 -10 185 33T90 159T58 359Q58 476 90 557T187 682T344 725Q446 725 508 682T598 556T627 358Q627 247 598 164T507 36T343 -10ZM343 0Q411 0 459 24T539 93T584 206T599 358Q599 444 585 510T541 622T463
691T344 715Q280 715 232 692T151 623T102 511T86 358Q86 272 102 205T150 93T231 24T343 0ZM287 781Q301 801 318 827T352 881T382 931H415V921Q405 908 390 890T357 850T322 809T289 771H287V781Z" />
<glyph unicode="&#xd4;" horiz-adv-x="686" d="M343 -10Q248 -10 185 33T90 159T58 359Q58 476 90 557T187 682T344 725Q446 725 508 682T598 556T627 358Q627 247 598 164T507 36T343 -10ZM343 0Q411 0 459 24T539 93T584 206T599 358Q599 444 585 510T541 622T463
691T344 715Q280 715 232 692T151 623T102 511T86 358Q86 272 102 205T150 93T231 24T343 0ZM234 782Q249 802 265 828T298 881T324 931H357Q368 909 383 882T416 828T447 782V771H445Q423 796 406 817T373 860T341 906Q325 882 310 861T277 818T236 771H234V782Z"
/>
<glyph unicode="&#xd5;" horiz-adv-x="686" d="M343 -10Q248 -10 185 33T90 159T58 359Q58 476 90 557T187 682T344 725Q446 725 508 682T598 556T627 358Q627 247 598 164T507 36T343 -10ZM343 0Q411 0 459 24T539 93T584 206T599 358Q599 444 585 510T541 622T463
691T344 715Q280 715 232 692T151 623T102 511T86 358Q86 272 102 205T150 93T231 24T343 0ZM410 784Q387 784 367 792T327 811T289 830T250 839Q211 839 200 820T186 781H176Q178 799 185 818T209 851T252 865Q277 865 297 857T336 838T373 819T410 810Q447 810
458 826T472 863H482Q480 844 473 826T452 796T410 784Z" />
<glyph unicode="&#xd6;" horiz-adv-x="686" d="M343 -10Q248 -10 185 33T90 159T58 359Q58 476 90 557T187 682T344 725Q446 725 508 682T598 556T627 358Q627 247 598 164T507 36T343 -10ZM343 0Q411 0 459 24T539 93T584 206T599 358Q599 444 585 510T541 622T463
691T344 715Q280 715 232 692T151 623T102 511T86 358Q86 272 102 205T150 93T231 24T343 0ZM423 823Q414 823 409 831T403 863Q403 886 408 894T423 903Q433 903 438 895T443 863Q443 839 438 831T423 823ZM262 823Q253 823 248 831T242 863Q242 886 247 894T262
903Q272 903 277 895T282 863Q282 839 277 831T262 823Z" />
<glyph unicode="&#xd7;" horiz-adv-x="559" d="M82 145L68 159L266 357L68 555L82 569L280 371L477 569L491 555L293 357L491 159L477 145L280 343L82 145Z" />
<glyph unicode="&#xd8;" horiz-adv-x="686" d="M156 57Q107 104 83 180T58 359Q58 476 90 557T187 682T344 725Q396 725 437 714T511 679L554 755H565L519 673Q576 629 601 549T627 358Q627 247 598 164T507 36T343 -10Q288 -10 243 5T163 50L112 -40H101L156
57ZM503 666Q474 690 435 702T344 715Q280 715 232 692T151 623T102 511T86 358Q86 262 106 191T166 73L503 666ZM343 0Q411 0 459 24T539 93T584 206T599 358Q599 464 578 540T510 659L172 66Q204 34 246 17T343 0Z" />
<glyph unicode="&#xd9;" horiz-adv-x="679" d="M339 -10Q271 -10 219 12T139 83T110 214V616Q110 655 107 673T91 698T54 704H13V714H236V704H194Q169 704 157 698T142 674T138 616V210Q138 138 162 93T231 27T339 5Q403 5 450 27T523 92T550 199V616Q550 655
547 673T531 698T494 704H453V714H655V704H616Q591 704 579 698T564 674T560 616V198Q560 133 533 86T456 15T339 -10ZM369 771Q354 788 337 808T302 850T269 889T243 921V931H276Q289 909 306 882T340 828T371 781V771H369Z" />
<glyph unicode="&#xda;" horiz-adv-x="679" d="M339 -10Q271 -10 219 12T139 83T110 214V616Q110 655 107 673T91 698T54 704H13V714H236V704H194Q169 704 157 698T142 674T138 616V210Q138 138 162 93T231 27T339 5Q403 5 450 27T523 92T550 199V616Q550 655
547 673T531 698T494 704H453V714H655V704H616Q591 704 579 698T564 674T560 616V198Q560 133 533 86T456 15T339 -10ZM301 781Q315 801 332 827T366 881T396 931H429V921Q419 908 404 890T371 850T336 809T303 771H301V781Z" />
<glyph unicode="&#xdb;" horiz-adv-x="679" d="M339 -10Q271 -10 219 12T139 83T110 214V616Q110 655 107 673T91 698T54 704H13V714H236V704H194Q169 704 157 698T142 674T138 616V210Q138 138 162 93T231 27T339 5Q403 5 450 27T523 92T550 199V616Q550 655
547 673T531 698T494 704H453V714H655V704H616Q591 704 579 698T564 674T560 616V198Q560 133 533 86T456 15T339 -10ZM240 782Q255 802 271 828T304 881T330 931H363Q374 909 389 882T422 828T453 782V771H451Q429 796 412 817T379 860T347 906Q331 882 316 861T283
818T242 771H240V782Z" />
<glyph unicode="&#xdc;" horiz-adv-x="679" d="M339 -10Q271 -10 219 12T139 83T110 214V616Q110 655 107 673T91 698T54 704H13V714H236V704H194Q169 704 157 698T142 674T138 616V210Q138 138 162 93T231 27T339 5Q403 5 450 27T523 92T550 199V616Q550 655
547 673T531 698T494 704H453V714H655V704H616Q591 704 579 698T564 674T560 616V198Q560 133 533 86T456 15T339 -10ZM418 823Q409 823 404 831T398 863Q398 886 403 894T418 903Q428 903 433 895T438 863Q438 839 433 831T418 823ZM257 823Q248 823 243 831T237
863Q237 886 242 894T257 903Q267 903 272 895T277 863Q277 839 272 831T257 823Z" />
<glyph unicode="&#xdd;" horiz-adv-x="539" d="M159 0V10H208Q233 10 245 16T260 40T264 98V354L71 661Q59 681 51 690T31 701T-2 704H-11V714H166V704H133Q108 704 102 700T95 687Q95 678 101 667T118 639L203 503Q213 487 223 470T244 436T265 401T285 367Q295
387 302 401T325 447L422 638Q430 655 436 667T443 689Q443 695 437 699T405 704H366V714H545V704H518Q497 704 485 702T464 691T446 662L292 358V98Q292 59 295 41T311 16T348 10H396V0H159ZM239 781Q253 801 270 827T304 881T334 931H367V921Q357 908 342 890T309
850T274 809T241 771H239V781Z" />
<glyph unicode="&#xde;" horiz-adv-x="562" d="M50 0V10H95Q119 10 130 16T145 40T149 98V615Q149 654 146 673T131 698T95 704H50V714H273V704H235Q209 704 197 698T181 673T177 615V544H299Q412 544 461 499T511 370Q511 316 489 273T416 204T277 178H177V98Q177
59 180 41T196 16T234 10H293V0H50ZM276 188Q357 188 402 211T465 276T483 369Q483 425 465 461T406 516T299 534H177V188H276Z" />
<glyph unicode="&#xdf;" horiz-adv-x="578" d="M383 -10Q344 -10 312 4T260 45T240 103Q240 116 244 126T255 142T271 149Q271 90 285 58T325 13T384 0Q421 0 446 15T484 59T498 131Q498 161 488 184T456 227T401 264Q368 282 338 300T289 344T269 406Q269 443
286 470T342 512T446 528Q446 594 435 642T392 718T301 745Q228 745 196 705T163 596V0H36V10H64Q97 10 112 14T131 33T135 84V526H40V536H135V592Q135 653 159 688T221 739T301 755Q376 755 413 724T462 640T475 518H441Q376 518 346 502T306 461T297 406Q297
388 305 371T337 334T403 292Q446 269 473 246T513 194T526 130Q526 64 485 27T383 -10Z" />
<glyph unicode="&#xe0;" horiz-adv-x="517" d="M198 -10Q129 -10 93 27T56 138Q56 218 114 253T290 293L373 296V371Q373 421 364 457T327 512T242 532Q168 532 144 498T119 395Q109 395 104 404T98 428Q98 455 110 481T153 525T242 542Q330 542 365 500T401 386V100Q401
63 404 44T420 17T459 10H466V0H374V115H372Q361 89 339 60T282 11T198 -10ZM204 5Q251 5 289 30T350 94T373 170V286L288 283Q175 279 130 240T84 135Q84 99 97 70T136 23T204 5ZM294 606Q279 623 262 643T227 685T194 724T168 756V766H201Q214 744 231 717T265
663T296 616V606H294Z" />
<glyph unicode="&#xe1;" horiz-adv-x="517" d="M198 -10Q129 -10 93 27T56 138Q56 218 114 253T290 293L373 296V371Q373 421 364 457T327 512T242 532Q168 532 144 498T119 395Q109 395 104 404T98 428Q98 455 110 481T153 525T242 542Q330 542 365 500T401 386V100Q401
63 404 44T420 17T459 10H466V0H374V115H372Q361 89 339 60T282 11T198 -10ZM204 5Q251 5 289 30T350 94T373 170V286L288 283Q175 279 130 240T84 135Q84 99 97 70T136 23T204 5ZM202 616Q216 636 233 662T267 716T297 766H330V756Q320 743 305 725T272 685T237
644T204 606H202V616Z" />
<glyph unicode="&#xe2;" horiz-adv-x="517" d="M198 -10Q129 -10 93 27T56 138Q56 218 114 253T290 293L373 296V371Q373 421 364 457T327 512T242 532Q168 532 144 498T119 395Q109 395 104 404T98 428Q98 455 110 481T153 525T242 542Q330 542 365 500T401 386V100Q401
63 404 44T420 17T459 10H466V0H374V115H372Q361 89 339 60T282 11T198 -10ZM204 5Q251 5 289 30T350 94T373 170V286L288 283Q175 279 130 240T84 135Q84 99 97 70T136 23T204 5ZM139 617Q154 637 170 663T203 716T229 766H262Q273 744 288 717T321 663T352 617V606H350Q328
631 311 652T278 695T246 741Q230 717 215 696T182 653T141 606H139V617Z" />
<glyph unicode="&#xe3;" horiz-adv-x="517" d="M198 -10Q129 -10 93 27T56 138Q56 218 114 253T290 293L373 296V371Q373 421 364 457T327 512T242 532Q168 532 144 498T119 395Q109 395 104 404T98 428Q98 455 110 481T153 525T242 542Q330 542 365 500T401 386V100Q401
63 404 44T420 17T459 10H466V0H374V115H372Q361 89 339 60T282 11T198 -10ZM204 5Q251 5 289 30T350 94T373 170V286L288 283Q175 279 130 240T84 135Q84 99 97 70T136 23T204 5ZM332 619Q309 619 289 627T249 646T211 665T172 674Q133 674 122 655T108 616H98Q100
634 107 653T131 686T174 700Q199 700 219 692T258 673T295 654T332 645Q369 645 380 661T394 698H404Q402 679 395 661T374 631T332 619Z" />
<glyph unicode="&#xe4;" horiz-adv-x="517" d="M198 -10Q129 -10 93 27T56 138Q56 218 114 253T290 293L373 296V371Q373 421 364 457T327 512T242 532Q168 532 144 498T119 395Q109 395 104 404T98 428Q98 455 110 481T153 525T242 542Q330 542 365 500T401 386V100Q401
63 404 44T420 17T459 10H466V0H374V115H372Q361 89 339 60T282 11T198 -10ZM204 5Q251 5 289 30T350 94T373 170V286L288 283Q175 279 130 240T84 135Q84 99 97 70T136 23T204 5ZM588 658Q579 658 574 666T568 698Q568 721 573 729T588 738Q598 738 603 730T608
698Q608 674 603 666T588 658ZM427 658Q418 658 413 666T407 698Q407 721 412 729T427 738Q437 738 442 730T447 698Q447 674 442 666T427 658Z" />
<glyph unicode="&#xe5;" horiz-adv-x="517" d="M198 -10Q129 -10 93 27T56 138Q56 218 114 253T290 293L373 296V371Q373 421 364 457T327 512T242 532Q168 532 144 498T119 395Q109 395 104 404T98 428Q98 455 110 481T153 525T242 542Q330 542 365 500T401 386V100Q401
63 404 44T420 17T459 10H466V0H374V115H372Q361 89 339 60T282 11T198 -10ZM204 5Q251 5 289 30T350 94T373 170V286L288 283Q175 279 130 240T84 135Q84 99 97 70T136 23T204 5ZM252 596Q202 596 167 624T132 705Q132 758 167 786T252 814Q302 814 337 786T372
705Q372 652 337 624T252 596ZM252 606Q300 606 330 631T360 705Q360 755 330 779T252 804Q204 804 174 780T144 705Q144 656 174 631T252 606Z" />
<glyph unicode="&#xe6;" horiz-adv-x="783" d="M197 -10Q158 -10 126 6T75 58T56 146Q56 225 112 260T290 295H359V371Q359 421 354 457T324 512T242 532Q168 532 144 498T119 395Q109 395 104 406T98 441Q98 462 110 485T153 525T242 542Q301 542 329 525T368
480T384 420Q406 471 443 506T551 542Q634 542 681 476T729 290V285H386Q385 187 407 124T469 30T561 0Q599 0 627 12T673 48T700 104Q708 102 711 97T714 85Q714 68 697 46T645 7T560 -10Q488 -10 441 31T377 151Q371 101 347 65T284 10T197 -10ZM201 0Q250 0
285 26T339 93T359 181V285H287Q209 285 165 267T103 217T84 145Q84 83 111 42T201 0ZM701 295Q701 370 684 423T633 504T550 532Q494 532 460 505T409 424T388 295H701Z" />
<glyph unicode="&#xe7;" horiz-adv-x="448" d="M259 -10Q205 -10 161 19T91 110T64 263Q64 369 89 430T160 516T262 542Q308 542 341 527T391 487T409 433Q409 425 406 419T398 410T384 406Q384 442 370 470T329 515T258 532Q209 532 172 508T113 425T92 264Q92
176 115 117T176 29T259 0Q303 1 332 17T378 60T402 114Q408 110 410 104T413 88Q413 71 395 48T343 7T259 -10ZM240 -223Q226 -223 211 -221T177 -214V-203Q195 -208 208 -210T240 -213Q273 -213 294 -197T316 -136Q316 -115 307 -103T281 -83T237 -74L255 0H265L252
-55Q287 -61 313 -76T340 -133Q340 -183 312 -203T240 -223Z" />
<glyph unicode="&#xe8;" horiz-adv-x="489" d="M266 -10Q173 -10 119 60T64 262Q64 404 114 473T257 542Q340 542 387 476T435 290V276H93Q92 182 114 121T175 30T267 0Q305 0 333 12T380 48T411 103Q416 100 418 96T420 85Q420 68 403 46T351 7T266 -10ZM407
286Q407 358 390 413T339 500T256 532Q200 532 166 501T115 415T94 286H407ZM293 606Q278 623 261 643T226 685T193 724T167 756V766H200Q213 744 230 717T264 663T295 616V606H293Z" />
<glyph unicode="&#xe9;" horiz-adv-x="489" d="M266 -10Q173 -10 119 60T64 262Q64 404 114 473T257 542Q340 542 387 476T435 290V276H93Q92 182 114 121T175 30T267 0Q305 0 333 12T380 48T411 103Q416 100 418 96T420 85Q420 68 403 46T351 7T266 -10ZM407
286Q407 358 390 413T339 500T256 532Q200 532 166 501T115 415T94 286H407ZM210 616Q224 636 241 662T275 716T305 766H338V756Q328 743 313 725T280 685T245 644T212 606H210V616Z" />
<glyph unicode="&#xea;" horiz-adv-x="489" d="M266 -10Q173 -10 119 60T64 262Q64 404 114 473T257 542Q340 542 387 476T435 290V276H93Q92 182 114 121T175 30T267 0Q305 0 333 12T380 48T411 103Q416 100 418 96T420 85Q420 68 403 46T351 7T266 -10ZM407
286Q407 358 390 413T339 500T256 532Q200 532 166 501T115 415T94 286H407ZM148 617Q163 637 179 663T212 716T238 766H271Q282 744 297 717T330 663T361 617V606H359Q337 631 320 652T287 695T255 741Q239 717 224 696T191 653T150 606H148V617Z" />
<glyph unicode="&#xeb;" horiz-adv-x="489" d="M266 -10Q173 -10 119 60T64 262Q64 404 114 473T257 542Q340 542 387 476T435 290V276H93Q92 182 114 121T175 30T267 0Q305 0 333 12T380 48T411 103Q416 100 418 96T420 85Q420 68 403 46T351 7T266 -10ZM407
286Q407 358 390 413T339 500T256 532Q200 532 166 501T115 415T94 286H407ZM597 658Q588 658 583 666T577 698Q577 721 582 729T597 738Q607 738 612 730T617 698Q617 674 612 666T597 658ZM436 658Q427 658 422 666T416 698Q416 721 421 729T436 738Q446 738
451 730T456 698Q456 674 451 666T436 658Z" />
<glyph unicode="&#xec;" horiz-adv-x="280" d="M31 0V10H61Q97 10 113 14T134 33T138 84V452Q138 487 134 502T115 522T71 526H53V536H166V84Q166 49 170 34T191 14T245 10H273V0H31ZM181 606Q166 623 149 643T114 685T81 724T55 756V766H88Q101 744 118 717T152
663T183 616V606H181Z" />
<glyph unicode="&#xed;" horiz-adv-x="280" d="M31 0V10H61Q97 10 113 14T134 33T138 84V452Q138 487 134 502T115 522T71 526H53V536H166V84Q166 49 170 34T191 14T245 10H273V0H31ZM71 616Q85 636 102 662T136 716T166 766H199V756Q189 743 174 725T141 685T106
644T73 606H71V616Z" />
<glyph unicode="&#xee;" horiz-adv-x="280" d="M31 0V10H61Q97 10 113 14T134 33T138 84V452Q138 487 134 502T115 522T71 526H53V536H166V84Q166 49 170 34T191 14T245 10H273V0H31ZM272 617Q287 637 303 663T336 716T362 766H395Q406 744 421 717T454 663T485
617V606H483Q461 631 444 652T411 695T379 741Q363 717 348 696T315 653T274 606H272V617Z" />
<glyph unicode="&#xef;" horiz-adv-x="280" d="M284 0V10H314Q350 10 366 14T387 33T391 84V452Q391 487 387 502T368 522T324 526H306V536H419V84Q419 49 423 34T444 14T498 10H526V0H284ZM205 658Q196 658 191 666T185 698Q185 721 190 729T205 738Q215 738
220 730T225 698Q225 674 220 666T205 658ZM44 658Q35 658 30 666T24 698Q24 721 29 729T44 738Q54 738 59 730T64 698Q64 674 59 666T44 658Z" />
<glyph unicode="&#xf0;" horiz-adv-x="531" d="M265 -10Q191 -10 147 27T84 126T65 255Q65 333 88 385T158 463T272 490Q299 490 329 480T385 451T428 400Q406 480 377 541T302 650L179 565V577L295 657Q267 683 234 706T160 749V761Q203 743 240 719T307 666L426
748V736L316 660Q391 585 428 483T466 257Q466 175 445 115T379 23T265 -10ZM265 0Q322 0 360 28T418 113T438 254Q438 315 422 366T367 448T264 480Q199 480 162 452T109 374T93 254Q93 173 112 116T169 30T265 0Z" />
<glyph unicode="&#xf1;" horiz-adv-x="617" d="M38 0V10H61Q98 10 114 14T134 33T138 84V452Q138 487 134 502T116 522T71 526H43V536H166V427H168Q180 464 204 489T261 528T333 542Q419 542 458 497T498 357V84Q498 49 502 34T522 14T575 10H590V0H470V375Q470
442 440 484T333 527Q268 527 232 500T181 431T166 344V84Q166 49 170 34T190 14T243 10H259V0H38ZM399 619Q376 619 356 627T316 646T278 665T239 674Q200 674 189 655T175 616H165Q167 634 174 653T198 686T241 700Q266 700 286 692T325 673T362 654T399 645Q436
645 447 661T461 698H471Q469 679 462 661T441 631T399 619Z" />
<glyph unicode="&#xf2;" horiz-adv-x="531" d="M265 -10Q172 -10 119 58T65 267Q65 407 117 474T270 542Q365 542 415 477T466 267Q466 126 415 58T265 -10ZM265 0Q329 0 367 32T421 124T438 267Q438 360 420 418T365 504T270 532Q207 532 168 504T111 417T93
267Q93 180 111 121T167 31T265 0ZM316 606Q301 623 284 643T249 685T216 724T190 756V766H223Q236 744 253 717T287 663T318 616V606H316Z" />
<glyph unicode="&#xf3;" horiz-adv-x="531" d="M265 -10Q172 -10 119 58T65 267Q65 407 117 474T270 542Q365 542 415 477T466 267Q466 126 415 58T265 -10ZM265 0Q329 0 367 32T421 124T438 267Q438 360 420 418T365 504T270 532Q207 532 168 504T111 417T93
267Q93 180 111 121T167 31T265 0ZM236 616Q250 636 267 662T301 716T331 766H364V756Q354 743 339 725T306 685T271 644T238 606H236V616Z" />
<glyph unicode="&#xf4;" horiz-adv-x="531" d="M265 -10Q172 -10 119 58T65 267Q65 407 117 474T270 542Q365 542 415 477T466 267Q466 126 415 58T265 -10ZM265 0Q329 0 367 32T421 124T438 267Q438 360 420 418T365 504T270 532Q207 532 168 504T111 417T93
267Q93 180 111 121T167 31T265 0ZM156 617Q171 637 187 663T220 716T246 766H279Q290 744 305 717T338 663T369 617V606H367Q345 631 328 652T295 695T263 741Q247 717 232 696T199 653T158 606H156V617Z" />
<glyph unicode="&#xf5;" horiz-adv-x="531" d="M265 -10Q172 -10 119 58T65 267Q65 407 117 474T270 542Q365 542 415 477T466 267Q466 126 415 58T265 -10ZM265 0Q329 0 367 32T421 124T438 267Q438 360 420 418T365 504T270 532Q207 532 168 504T111 417T93
267Q93 180 111 121T167 31T265 0ZM346 619Q323 619 303 627T263 646T225 665T186 674Q147 674 136 655T122 616H112Q114 634 121 653T145 686T188 700Q213 700 233 692T272 673T309 654T346 645Q383 645 394 661T408 698H418Q416 679 409 661T388 631T346 619Z"
/>
<glyph unicode="&#xf6;" horiz-adv-x="531" d="M265 -10Q172 -10 119 58T65 267Q65 407 117 474T270 542Q365 542 415 477T466 267Q466 126 415 58T265 -10ZM265 0Q329 0 367 32T421 124T438 267Q438 360 420 418T365 504T270 532Q207 532 168 504T111 417T93
267Q93 180 111 121T167 31T265 0ZM602 658Q593 658 588 666T582 698Q582 721 587 729T602 738Q612 738 617 730T622 698Q622 674 617 666T602 658ZM441 658Q432 658 427 666T421 698Q421 721 426 729T441 738Q451 738 456 730T461 698Q461 674 456 666T441 658Z"
/>
<glyph unicode="&#xf7;" horiz-adv-x="559" d="M65 347V367H494V347H65ZM280 144Q263 144 251 153T239 186Q239 211 251 220T280 229Q297 229 309 220T321 186Q321 163 309 154T280 144ZM280 486Q263 486 251 495T239 529Q239 553 251 562T280 571Q297 571 309
562T321 529Q321 505 309 496T280 486Z" />
<glyph unicode="&#xf8;" horiz-adv-x="531" d="M126 48Q97 83 81 137T65 267Q65 407 117 474T270 542Q311 542 343 531T400 494L450 576H461L407 487Q436 454 451 400T466 267Q466 126 415 58T265 -10Q183 -10 133 41L83 -40H72L126 48ZM265 0Q329 0 367 32T421
124T438 267Q438 338 428 388T396 471L142 57Q163 29 194 15T265 0ZM391 479Q370 506 340 519T270 532Q207 532 168 504T111 417T93 267Q93 132 136 65L391 479Z" />
<glyph unicode="&#xf9;" horiz-adv-x="597" d="M281 -10Q199 -10 159 37T118 184V452Q118 487 114 502T94 522T41 526H15V536H146V181Q146 129 157 89T197 27T281 5Q337 5 374 31T430 103T449 202V452Q449 487 445 502T425 522T372 526H354V536H477V84Q477 50
481 34T499 14T544 10H576V0H450V123H448Q439 95 425 71T389 29T341 1T281 -10ZM304 606Q289 623 272 643T237 685T204 724T178 756V766H211Q224 744 241 717T275 663T306 616V606H304Z" />
<glyph unicode="&#xfa;" horiz-adv-x="597" d="M281 -10Q199 -10 159 37T118 184V452Q118 487 114 502T94 522T41 526H15V536H146V181Q146 129 157 89T197 27T281 5Q337 5 374 31T430 103T449 202V452Q449 487 445 502T425 522T372 526H354V536H477V84Q477 50
481 34T499 14T544 10H576V0H450V123H448Q439 95 425 71T389 29T341 1T281 -10ZM232 616Q246 636 263 662T297 716T327 766H360V756Q350 743 335 725T302 685T267 644T234 606H232V616Z" />
<glyph unicode="&#xfb;" horiz-adv-x="597" d="M281 -10Q199 -10 159 37T118 184V452Q118 487 114 502T94 522T41 526H15V536H146V181Q146 129 157 89T197 27T281 5Q337 5 374 31T430 103T449 202V452Q449 487 445 502T425 522T372 526H354V536H477V84Q477 50
481 34T499 14T544 10H576V0H450V123H448Q439 95 425 71T389 29T341 1T281 -10ZM157 617Q172 637 188 663T221 716T247 766H280Q291 744 306 717T339 663T370 617V606H368Q346 631 329 652T296 695T264 741Q248 717 233 696T200 653T159 606H157V617Z" />
<glyph unicode="&#xfc;" horiz-adv-x="597" d="M281 -10Q199 -10 159 37T118 184V452Q118 487 114 502T94 522T41 526H15V536H146V181Q146 129 157 89T197 27T281 5Q337 5 374 31T430 103T449 202V452Q449 487 445 502T425 522T372 526H354V536H477V84Q477 50
481 34T499 14T544 10H576V0H450V123H448Q439 95 425 71T389 29T341 1T281 -10ZM615 658Q606 658 601 666T595 698Q595 721 600 729T615 738Q625 738 630 730T635 698Q635 674 630 666T615 658ZM454 658Q445 658 440 666T434 698Q434 721 439 729T454 738Q464 738
469 730T474 698Q474 674 469 666T454 658Z" />
<glyph unicode="&#xfd;" horiz-adv-x="547" d="M52 -230Q105 -229 138 -222T194 -192T237 -125T282 -6L87 478Q78 502 71 512T52 524T13 526H10V536H184V526H156Q125 526 118 521T110 505Q110 495 117 477T141 417L212 234Q221 210 232 182T255 125T277 71T294
29Q304 58 315 91T343 171L433 433Q441 457 447 476T453 505Q453 516 446 521T407 526H366V536H537V526H533Q507 526 494 524T475 512T460 478L300 16Q273 -62 254 -112T211 -190T151 -229T53 -240H52V-230ZM252 616Q266 636 283 662T317 716T347 766H380V756Q370
743 355 725T322 685T287 644T254 606H252V616Z" />
<glyph unicode="&#xfe;" horiz-adv-x="574" d="M24 -240V-230H56Q85 -230 99 -226T117 -206T122 -152V673Q122 710 118 726T100 746T57 750H15V760H150V557Q150 537 150 507T150 447T150 397H152Q166 459 207 502T316 546Q416 546 462 481T509 278Q509 130 458
60T317 -10Q253 -10 210 33T151 153H149Q150 130 150 106T150 53T150 -13V-152Q150 -189 154 -205T173 -226T220 -230H259V-240H24ZM320 5Q372 5 407 35T462 125T481 273Q481 360 465 417T413 502T317 531Q255 531 219 499T166 410T150 279Q150 194 166 133T220
38T320 5Z" />
<glyph unicode="&#xff;" horiz-adv-x="547" d="M52 -230Q105 -229 138 -222T194 -192T237 -125T282 -6L87 478Q78 502 71 512T52 524T13 526H10V536H184V526H156Q125 526 118 521T110 505Q110 495 117 477T141 417L212 234Q221 210 232 182T255 125T277 71T294
29Q304 58 315 91T343 171L433 433Q441 457 447 476T453 505Q453 516 446 521T407 526H366V536H537V526H533Q507 526 494 524T475 512T460 478L300 16Q273 -62 254 -112T211 -190T151 -229T53 -240H52V-230ZM611 658Q602 658 597 666T591 698Q591 721 596 729T611
738Q621 738 626 730T631 698Q631 674 626 666T611 658ZM450 658Q441 658 436 666T430 698Q430 721 435 729T450 738Q460 738 465 730T470 698Q470 674 465 666T450 658Z" />
<glyph unicode="&#x2013;" horiz-adv-x="500" d="M-5 263V283H505V263H-5Z" />
<glyph unicode="&#x2014;" horiz-adv-x="1000" d="M-5 263V283H1005V263H-5Z" />
<glyph unicode="&#x2018;" horiz-adv-x="212" d="M98 487Q78 487 67 506T55 560Q55 610 80 652T163 714V703Q136 695 117 676T87 634T76 590Q76 579 81 571T93 557T108 545T120 533T125 518Q125 504 118 496T98 487Z" />
<glyph unicode="&#x2019;" horiz-adv-x="212" d="M40 498Q68 507 87 525T116 567T127 611Q127 622 122 630T110 644T96 656T83 668T78 683Q78 697 85 705T105 714Q125 714 136 695T148 641Q148 591 123 549T40 487V498Z" />
<glyph unicode="&#x201a;" horiz-adv-x="212" d="M40 -117Q68 -108 87 -90T116 -48T127 -4Q127 7 122 15T110 29T96 41T83 53T78 68Q78 82 85 90T105 99Q125 99 136 80T148 26Q148 -24 123 -66T40 -128V-117Z" />
<glyph unicode="&#x201c;" horiz-adv-x="337" d="M222 487Q202 487 191 506T179 560Q179 610 204 652T287 714V703Q260 695 241 676T211 634T200 590Q200 579 205 571T217 557T232 545T244 533T249 518Q249 504 242 496T222 487ZM97 487Q77 487 66 506T54 560Q54
610 79 652T162 714V703Q135 695 116 676T86 634T75 590Q75 579 80 571T92 557T107 545T119 533T124 518Q124 504 117 496T97 487Z" />
<glyph unicode="&#x201d;" horiz-adv-x="337" d="M40 498Q68 507 87 525T116 567T127 611Q127 622 122 630T110 644T96 656T83 668T78 683Q78 697 85 705T105 714Q125 714 136 695T148 641Q148 591 123 549T40 487V498ZM165 498Q193 507 212 525T241 567T252 611Q252
622 247 630T235 644T221 656T208 668T203 683Q203 697 210 705T230 714Q250 714 261 695T273 641Q273 591 248 549T165 487V498Z" />
<glyph unicode="&#x201e;" horiz-adv-x="367" d="M40 -117Q68 -108 87 -90T116 -48T127 -4Q127 7 122 15T110 29T96 41T83 53T78 68Q78 82 85 90T105 99Q125 99 136 80T148 26Q148 -24 123 -66T40 -128V-117ZM195 -117Q223 -108 242 -90T271 -48T282 -4Q282 7
277 15T265 29T251 41T238 53T233 68Q233 82 240 90T260 99Q280 99 291 80T303 26Q303 -24 278 -66T195 -128V-117Z" />
<glyph unicode="&#x2022;" horiz-adv-x="314" d="M147 227Q119 227 95 239T56 279T41 356Q41 405 56 433T95 473T147 485Q176 485 200 473T240 433T255 356Q255 308 240 280T201 239T147 227Z" />
<glyph unicode="&#x2039;" horiz-adv-x="307" d="M211 92L75 266V274L211 448H229L109 270L229 92H211Z" />
<glyph unicode="&#x203a;" horiz-adv-x="307" d="M75 92L195 270L75 448H93L229 274V266L93 92H75Z" />
</font>
</defs>
</svg>
