<?xml version="1.0" standalone="no"?>
<!DOCTYPE svg PUBLIC "-//W3C//DTD SVG 1.1//EN" "http://www.w3.org/Graphics/SVG/1.1/DTD/svg11.dtd">
<svg xmlns="http://www.w3.org/2000/svg">
<defs >
<font id="NotoSerifDisplay" horiz-adv-x="594" ><font-face
    font-family="Noto Serif Display ExtraBold"
    units-per-em="1000"
    panose-1="2 2 5 2 8 5 5 2 2 4"
    ascent="1069"
    descent="-293"
    alphabetic="0" />
<glyph unicode=" " horiz-adv-x="225" />
<glyph unicode="!" horiz-adv-x="402" d="M194 233L102 714H300L209 233H194ZM202 -9Q170 -9 148 10T125 76Q125 125 147 143T202 161Q234 161 257 143T280 76Q280 29 257 10T202 -9Z" />
<glyph unicode="&quot;" horiz-adv-x="410" d="M103 479L30 714H193L119 479H103ZM290 479L217 714H380L306 479H290Z" />
<glyph unicode="#" horiz-adv-x="559" d="M100 0L143 233H25V243H145L190 488H57V498H192L232 714H242L202 498H393L433 714H443L403 498H534V488H401L356 243H502V233H354L311 0H301L344 233H153L110 0H100ZM155 243H346L391 488H200L155 243Z" />
<glyph unicode="$" horiz-adv-x="559" d="M282 42Q216 42 172 55T99 89T59 135T46 186Q46 219 62 237T101 263T149 271Q149 192 162 145T205 76T282 53V295Q246 311 208 328T138 368T86 424T66 507Q66 583 123 632T282 684V760H292V684Q359 684 402 672T466 638T488
589Q488 558 463 536T373 513Q373 568 365 602T339 653T292 673V451Q329 433 368 416T441 377T496 322T517 240Q517 157 458 102T292 42V-79H282V42ZM292 53Q342 55 371 84T400 160Q400 212 369 240T292 290V53ZM282 674Q234 674 208 650T181 578Q181 548 194 526T231
487T282 456V674Z" />
<glyph unicode="%" horiz-adv-x="910" d="M275 0L620 714H631L286 0H275ZM216 280Q117 280 74 341T30 503Q30 604 73 664T217 724Q310 724 356 664T403 503Q403 436 383 386T321 308T216 280ZM216 290Q240 290 254 309T273 375T279 503Q279 583 274 629T255 694T217
714Q192 714 178 695T158 629T152 503Q152 422 157 376T177 310T216 290ZM694 -10Q595 -10 552 51T508 213Q508 314 551 374T695 434Q788 434 834 374T881 213Q881 146 861 96T799 18T694 -10ZM694 0Q718 0 732 19T751 85T757 213Q757 293 752 339T733 404T695
424Q670 424 656 405T636 339T630 213Q630 132 635 86T655 20T694 0Z" />
<glyph unicode="&amp;" horiz-adv-x="825" d="M314 -10Q236 -10 176 12T81 79T47 190Q47 240 68 278T132 342T240 381Q209 417 189 447T160 505T151 564Q151 615 174 650T243 705T356 724Q424 724 467 706T532 655T554 580Q554 549 540 519T492 463T399 419L549
259Q552 287 553 318T555 382V428H784V418H765Q731 418 711 409T678 378T657 317Q650 280 640 247T618 185L712 86Q739 57 756 41T786 17T808 10H810V0H588L532 61Q505 36 471 21T399 -2T314 -10ZM354 3Q407 3 444 26T505 91L252 368Q236 353 227 329T213 275T208
209Q208 140 222 100T258 38T305 10T354 3ZM390 429Q410 451 423 490T436 586Q436 634 427 662T402 702T363 714Q330 714 311 688T292 609Q292 579 300 553T330 499T390 429Z" />
<glyph unicode="&apos;" horiz-adv-x="223" d="M103 479L30 714H193L119 479H103Z" />
<glyph unicode="(" horiz-adv-x="422" d="M390 -143Q271 -95 198 -27T91 128T57 319Q57 421 90 507T197 662T390 777V767Q346 736 317 693T271 594T248 469T241 319Q241 236 247 167T271 41T317 -59T390 -133V-143Z" />
<glyph unicode=")" horiz-adv-x="422" d="M32 -133Q77 -103 105 -60T151 40T174 166T181 319Q181 400 175 469T151 593T106 692T32 767V777Q152 730 225 662T331 508T365 319Q365 215 332 129T225 -26T32 -143V-133Z" />
<glyph unicode="*" horiz-adv-x="503" d="M193 363L245 546L82 417L33 525L237 562L33 598L82 708L245 579L193 760H315L260 579L424 706L473 597L270 562L473 526L424 418L260 546L314 363H193Z" />
<glyph unicode="+" horiz-adv-x="559" d="M269 143V347H65V367H269V572H289V367H494V347H289V143H269Z" />
<glyph unicode="," horiz-adv-x="312" d="M51 -144Q79 -134 103 -123T143 -93T159 -46Q159 -23 149 -12T125 7T97 22T73 44T63 85Q63 123 85 142T141 161Q186 161 211 129T236 44Q236 -21 194 -74T51 -154V-144Z" />
<glyph unicode="-" horiz-adv-x="310" d="M25 263V283H285V263H25Z" />
<glyph unicode="." horiz-adv-x="312" d="M156 -9Q123 -9 101 10T78 76Q78 125 100 143T156 161Q187 161 210 143T233 76Q233 29 210 10T156 -9Z" />
<glyph unicode="/" horiz-adv-x="250" d="M14 -121L227 760H237L24 -121H14Z" />
<glyph unicode="0" horiz-adv-x="564" d="M283 -10Q188 -10 133 36T55 165T32 359Q32 470 55 552T133 679T284 724Q374 724 428 679T507 552T532 358Q532 247 508 165T429 36T283 -10ZM283 0Q304 0 318 16T340 71T352 180T356 358Q356 466 353 535T341 643T319
698T284 714Q262 714 248 698T224 644T212 536T208 358Q208 250 211 180T224 71T247 16T283 0Z" />
<glyph unicode="1" horiz-adv-x="564" d="M89 0V10H177Q193 10 204 16T220 36T225 72V630Q195 585 173 558T133 519T94 507Q68 507 52 526T35 583Q90 583 128 592T199 625T269 687L298 718H393V72Q393 56 397 42T412 19T443 10H520V0H89Z" />
<glyph unicode="2" horiz-adv-x="564" d="M33 0V105L173 228Q221 269 252 304T302 376T328 455T336 555Q336 612 328 646T303 697T257 714Q226 714 208 693T183 621T176 481Q137 481 105 490T54 520T35 578Q35 616 59 649T133 703T263 724Q339 724 392 704T473
645T502 547Q502 513 490 482T446 415T358 334T214 226L68 122H419Q467 122 488 138T514 200L517 225H527L519 0H33Z" />
<glyph unicode="3" horiz-adv-x="564" d="M243 -10Q165 -10 117 7T46 54T24 120Q24 161 52 182T118 203Q118 128 131 84T170 20T238 0Q278 0 303 21T340 84T352 189Q352 256 338 294T291 348T205 364H139V374H209Q254 374 280 391T317 446T328 546Q328 638 310
676T251 714Q220 714 203 692T179 623T172 501Q109 501 72 522T35 592Q35 627 60 657T135 705T261 724Q373 724 437 680T501 555Q501 507 478 469T406 405T275 371Q337 370 383 358T462 323T510 267T526 189Q526 138 506 101T447 39T357 2T243 -10Z" />
<glyph unicode="4" horiz-adv-x="564" d="M169 0V10H197Q220 10 238 15T268 35T279 82V182H14V245L288 714H445V252H544V182H445V82Q445 51 456 36T486 15T527 10H540V0H169ZM30 252H279V489Q279 514 279 538T279 588T279 637T281 685Q275 673 266 658T247 625T228
592T212 564L30 252Z" />
<glyph unicode="5" horiz-adv-x="564" d="M248 -10Q181 -10 134 7T62 53T37 119Q37 156 61 174T124 192Q124 132 133 89T165 24T229 1Q264 1 289 19T329 84T344 214Q344 285 330 330T287 397T214 419Q192 419 170 411T128 389T92 353L82 357L115 715H474L481 520H471L469
539Q468 559 462 571T443 588T405 593H113L93 370Q119 403 162 419T263 436Q342 436 399 410T486 336T517 221Q517 162 497 119T441 47T356 4T248 -10Z" />
<glyph unicode="6" horiz-adv-x="564" d="M296 -10Q219 -10 162 26T73 138T41 329Q41 417 58 489T111 613T200 695T329 724Q394 724 435 708T495 667T515 613Q515 578 486 553T386 527Q386 597 379 637T356 696T312 714Q278 714 254 683T217 583T202 398Q219 412
238 421T280 435T333 440Q424 440 478 385T533 232Q533 160 507 106T428 21T296 -10ZM297 0Q325 0 341 20T364 89T371 222Q371 297 363 341T338 405T290 425Q275 425 259 419T229 404T202 383Q202 272 206 198T222 81T251 19T297 0Z" />
<glyph unicode="7" horiz-adv-x="564" d="M155 0L489 594H143Q98 594 80 578T58 519L55 493H45L53 715H526V657L254 0H155Z" />
<glyph unicode="8" horiz-adv-x="564" d="M278 -10Q191 -10 136 15T53 82T26 177Q26 244 70 287T199 346Q149 374 116 401T66 461T49 536Q49 588 73 630T148 698T284 724Q363 724 412 702T486 642T511 558Q511 498 470 459T352 402Q413 373 454 345T517 282T538
193Q538 98 471 44T278 -10ZM284 0Q338 0 367 32T396 132Q396 165 387 191T357 239T302 285T217 336Q192 307 179 268T166 170Q166 86 193 43T284 0ZM334 411Q349 426 358 445T372 493T377 556Q377 610 367 645T337 697T284 714Q237 714 213 681T189 587Q189 538
205 508T253 457T334 411Z" />
<glyph unicode="9" horiz-adv-x="564" d="M232 -10Q176 -10 137 5T78 48T58 107Q58 141 76 160T121 180Q121 88 149 44T232 0Q280 0 307 33T348 140T362 339Q346 318 327 304T284 282T231 275Q170 275 125 299T56 370T31 484Q31 554 58 608T137 693T266 724Q345
724 402 688T491 578T523 385Q523 298 506 226T453 101T362 19T232 -10ZM274 298Q292 298 307 304T336 324T362 358Q362 461 358 529T344 638T317 696T272 714Q243 714 226 694T201 625T194 495Q194 420 202 377T228 316T274 298Z" />
<glyph unicode=":" horiz-adv-x="311" d="M155 377Q123 377 101 395T78 462Q78 510 100 528T155 547Q186 547 209 529T233 462Q233 414 210 396T155 377ZM155 -9Q123 -9 101 10T78 76Q78 125 100 143T155 161Q186 161 209 143T233 76Q233 29 210 10T155 -9Z" />
<glyph unicode=";" horiz-adv-x="311" d="M57 -144Q85 -134 109 -123T149 -93T165 -46Q165 -23 155 -12T131 7T103 22T79 44T69 85Q69 123 91 142T147 161Q192 161 217 129T242 44Q242 -21 200 -74T57 -154V-144ZM155 377Q123 377 101 395T78 462Q78 510 100 528T155
547Q186 547 209 529T233 462Q233 414 210 396T155 377Z" />
<glyph unicode="&lt;" horiz-adv-x="559" d="M494 119L65 347V367L494 595V572L87 357L494 142V119Z" />
<glyph unicode="=" horiz-adv-x="559" d="M68 455V475H491V455H68ZM68 239V259H491V239H68Z" />
<glyph unicode="&gt;" horiz-adv-x="559" d="M65 119V142L472 357L65 572V595L494 367V347L65 119Z" />
<glyph unicode="?" horiz-adv-x="570" d="M196 351Q246 354 276 370T320 426T334 534Q334 597 327 637T304 695T261 714Q236 714 221 696T198 636T190 526Q119 526 77 543T35 605Q35 635 58 662T131 706T255 724Q373 724 443 676T514 537Q514 460 465 416T313
350L262 233H247L196 351ZM252 -9Q219 -9 197 10T175 76Q175 125 197 143T252 161Q283 161 306 143T330 76Q330 29 307 10T252 -9Z" />
<glyph unicode="@" horiz-adv-x="921" d="M425 -142Q317 -142 233 -102T100 18T51 223Q51 327 86 416T186 572T339 676T535 714Q650 714 727 672T843 555T882 385Q882 317 864 261T814 163T743 100T661 77Q640 77 618 82T576 103T545 146T532 218H530Q516 167
495 136T445 91T385 77Q327 77 288 117T248 234Q248 279 263 330T308 426T385 500T496 529Q537 529 555 517T586 484L689 520H701L650 266Q644 241 639 209T633 147Q633 118 642 103T671 87Q700 87 724 113T765 184T791 285T801 403Q801 508 773 574T688 672T551
704Q461 704 388 667T261 563T180 405T151 203Q151 119 168 57T221 -47T310 -110T434 -131Q508 -131 578 -108T721 -34L728 -43Q681 -77 632 -99T532 -131T425 -142ZM428 100Q445 100 464 118T501 170T527 251L571 479Q569 491 553 504T513 518Q488 518 467 497T430
440T403 364T387 280T381 204Q381 152 394 126T428 100Z" />
<glyph unicode="A" horiz-adv-x="772" d="M6 0V10H45Q63 10 77 16T103 37T125 81L340 714H467L690 79Q700 54 711 39T737 17T770 10H772V0H425V10H472Q495 10 505 18T515 42Q515 49 514 56T510 72T504 91L449 262H197L144 107Q140 94 137 83T131 62T129 43Q129
26 139 18T173 10H244V0H6ZM200 272H446L380 477Q373 498 364 529T345 593T328 652Q323 634 316 612T301 568T286 523T271 481L200 272Z" />
<glyph unicode="B" horiz-adv-x="698" d="M24 0V10H71Q86 10 96 16T111 35T117 70V645Q117 669 110 681T92 699T70 704H24V714H336Q488 714 562 671T636 540Q636 488 610 454T532 402T401 380V378Q531 376 598 331T666 193Q666 98 592 49T366 0H24ZM355 10Q417
10 445 53T473 191Q473 253 461 292T424 350T357 369H297V10H355ZM330 379Q371 379 396 396T434 449T446 541Q446 627 418 665T328 704H297V379H330Z" />
<glyph unicode="C" horiz-adv-x="690" d="M408 -10Q287 -10 209 36T92 164T54 358Q54 466 94 548T213 677T411 724Q489 724 541 708T621 666T648 606Q648 567 613 540T507 513Q507 579 496 624T461 691T395 714Q340 714 308 677T260 562T245 358Q245 233 264 154T324
38T432 1Q509 1 556 46T616 180Q632 174 640 162T648 129Q648 108 636 84T597 39T523 4T408 -10Z" />
<glyph unicode="D" horiz-adv-x="783" d="M24 0V10H72Q86 10 95 16T111 35T117 69V647Q117 669 111 681T93 699T68 704H24V714H364Q478 714 559 677T685 564T729 375Q729 266 688 181T565 48T364 0H24ZM340 10Q411 10 454 46T517 163T536 375Q536 493 517 565T455
671T341 704H297V10H340Z" />
<glyph unicode="E" horiz-adv-x="665" d="M24 0V10H71Q85 10 95 15T111 33T117 64V645Q117 671 111 683T94 700T70 704H24V714H597L603 526H593L590 559Q586 613 569 645T518 690T430 704H298V378H534V368H298V10H464Q519 10 552 24T603 70T624 156L627 188H637L630
0H24Z" />
<glyph unicode="F" horiz-adv-x="634" d="M24 0V10H62Q80 10 92 14T110 30T117 63V647Q117 670 111 682T95 699T71 704H24V714H597L603 526H593L590 559Q586 613 569 645T519 690T430 704H298V366H533V356H298V66Q298 45 303 33T321 16T350 10H411V0H24Z" />
<glyph unicode="G" horiz-adv-x="791" d="M432 -10Q305 -10 222 36T96 164T54 358Q54 466 97 548T226 677T437 724Q524 724 582 708T669 666T698 606Q698 570 663 543T555 515Q555 589 542 632T502 695T432 714Q366 714 325 677T264 562T245 358Q245 232 265 153T330
37T447 0Q461 0 476 1T507 6V256Q507 282 501 298T480 321T441 328H424V338H754V328H743Q723 328 711 321T693 297T688 252V47Q627 19 565 5T432 -10Z" />
<glyph unicode="H" horiz-adv-x="829" d="M24 0V10H72Q86 10 95 16T111 34T117 67V646Q117 669 111 681T93 699T67 704H24V714H380V704H341Q328 704 318 699T303 682T298 648V378H532V647Q532 669 527 681T511 699T486 704H450V714H806V704H758Q745 704 735 699T719
682T713 647V68Q713 47 719 35T735 16T758 10H806V0H450V10H486Q501 10 511 16T526 35T532 70V368H298V67Q298 47 303 35T318 16T341 10H380V0H24Z" />
<glyph unicode="I" horiz-adv-x="415" d="M24 0V10H67Q84 10 95 14T111 31T117 65V646Q117 670 112 682T95 699T67 704H24V714H391V704H347Q331 704 320 699T304 682T298 645V66Q298 44 303 32T320 15T347 10H391V0H24Z" />
<glyph unicode="J" horiz-adv-x="412" d="M-24 -240V-230H-3Q25 -230 53 -213T101 -158T120 -53V648Q120 670 114 682T97 699T76 704H27V714H394V704H346Q335 704 325 699T308 682T301 646V0Q301 -68 277 -114T213 -187T122 -227T19 -240H-24Z" />
<glyph unicode="K" horiz-adv-x="760" d="M24 0V10H67Q81 10 92 15T110 31T117 65V651Q117 671 111 682T94 699T70 704H24V714H380V704H342Q330 704 320 699T304 682T298 648V325L518 567Q536 587 549 604T569 635T576 661Q576 676 565 685T527 699T457 704V714H735V704Q704
704 680 696T631 669T578 618L437 463L656 114Q676 83 690 63T715 32T736 15T758 10H760V0H675Q620 0 584 6T523 25T481 60T445 113L320 334L298 310V66Q298 45 304 33T323 15T348 10H380V0H24Z" />
<glyph unicode="L" horiz-adv-x="667" d="M24 0V10H72Q84 10 94 15T110 32T117 66V647Q117 669 111 681T93 699T68 704H24V714H391V704H345Q329 704 319 699T304 683T299 650V10H434Q500 10 540 27T600 82T625 186L627 226H637L629 0H24Z" />
<glyph unicode="M" horiz-adv-x="957" d="M24 0V10H92Q108 10 120 15T140 32T147 67V646Q147 669 141 681T124 699T100 704H24V714H329L508 206L664 714H934V704H886Q875 704 865 699T848 682T842 648V65Q842 44 847 32T864 15T891 10H934V0H592V10H605Q626 10
639 15T658 33T664 69V679L455 0H390L157 665V72Q157 45 166 32T191 14T232 10H279V0H24Z" />
<glyph unicode="N" horiz-adv-x="798" d="M24 0V10H87Q103 10 115 14T135 31T142 72V646Q142 672 135 684T117 700T92 704H24V714H305L652 191V646Q652 669 646 681T628 699T603 704H526V714H786V704H712Q698 704 687 699T669 680T662 642V0H593L152 663V72Q152
45 157 32T174 14T201 10H284V0H24Z" />
<glyph unicode="O" horiz-adv-x="805" d="M403 -10Q286 -10 209 36T93 165T54 359Q54 470 93 552T209 679T404 725Q516 725 593 680T710 552T751 358Q751 247 711 165T593 36T403 -10ZM404 0Q446 0 475 19T523 81T551 192T560 358Q560 455 551 523T524 633T476
695T404 715Q361 715 331 696T282 634T254 523T245 358Q245 261 254 193T282 82T331 20T404 0Z" />
<glyph unicode="P" horiz-adv-x="652" d="M24 0V10H65Q80 10 91 14T110 31T117 72V646Q117 672 110 684T92 700T68 704H24V714H347Q495 714 565 659T636 501Q636 453 620 412T566 338T470 289T325 271H297V67Q297 42 304 30T322 14T347 10H411V0H24ZM316 281Q351
281 376 292T417 329T440 395T447 495Q447 572 436 617T399 683T330 704H297V281H316Z" />
<glyph unicode="Q" horiz-adv-x="805" d="M584 -240Q537 -240 492 -227T410 -185T349 -111T319 -3Q230 13 172 62T84 187T54 359Q54 470 93 552T209 679T404 725Q516 725 593 680T710 552T751 358Q751 221 689 127T509 3Q512 -68 524 -113T555 -184T598 -220T652
-230H668V-240H584ZM404 0Q446 0 475 19T523 81T551 192T560 358Q560 455 551 523T524 633T476 695T404 715Q361 715 331 696T282 634T254 523T245 358Q245 261 254 193T282 82T331 20T404 0Z" />
<glyph unicode="R" horiz-adv-x="732" d="M24 0V10H64Q77 10 89 13T109 29T117 67V646Q117 672 109 684T88 700T64 704H24V714H368Q472 714 535 692T627 627T656 527Q656 472 636 435T584 376T512 341L635 121Q657 83 671 61T696 28T715 14T732 10H734V0H688Q644
0 608 3T544 16T495 45T458 94L340 334H298V67Q298 42 304 30T322 14T348 10H380V0H24ZM348 344Q390 344 415 362T452 418T464 518Q464 585 452 626T414 685T346 704H298V344H348Z" />
<glyph unicode="S" horiz-adv-x="596" d="M271 -10Q198 -10 151 3T77 38T38 84T27 131Q27 170 45 192T91 223T151 233Q151 146 168 96T217 23T296 1Q356 1 391 32T426 121Q426 170 404 199T340 250T239 298Q195 317 160 337T99 384T61 443T48 520Q48 583 81 628T174
699T312 724Q385 724 433 707T505 662T529 603Q529 566 498 541T394 516Q394 619 368 666T283 713Q255 713 230 702T190 666T175 601Q175 562 193 535T253 484T364 430Q424 404 468 376T534 309T557 211Q557 146 523 97T425 19T271 -10Z" />
<glyph unicode="T" horiz-adv-x="669" d="M150 0V10H187Q204 10 217 14T237 32T244 74V704H180Q125 704 91 691T40 645T19 559L16 512H6L13 714H656L663 512H653L650 559Q646 613 629 645T579 690T490 704H426V72Q426 45 433 32T454 14T483 10H520V0H150Z" />
<glyph unicode="U" horiz-adv-x="759" d="M392 -10Q307 -10 244 13T145 86T110 219V646Q110 672 102 684T81 700T52 704H17V714H383V704H349Q333 704 320 700T299 683T291 642V155Q291 102 308 70T356 22T433 7Q494 7 536 31T601 100T624 210V646Q624 672 616
684T596 700T567 704H503V714H743V704H692Q675 704 662 700T642 683T634 642V212Q634 144 610 94T532 17T392 -10Z" />
<glyph unicode="V" horiz-adv-x="707" d="M79 658Q73 677 63 687T41 700T20 704H0V714H347V704H293Q278 704 269 698T260 676Q260 669 261 661T265 645T270 629L385 281Q394 255 401 232T414 190T426 153T435 122Q441 142 446 163T458 206T471 247L580 620Q582
628 584 635T587 650T588 662Q588 684 576 694T536 704H458V714H707V704H665Q647 704 635 698T613 677T594 633L408 0H308L79 658Z" />
<glyph unicode="W" horiz-adv-x="1075" d="M75 651Q69 672 60 683T38 699T5 704H-3V714H354V704H324Q294 704 279 693T264 656Q264 651 266 640T270 617T275 595L351 319Q361 282 370 248T389 177T407 98Q412 123 418 149T430 196L554 707H642L779 268Q788 241
797 209T815 145T829 90Q835 116 841 145T854 201T866 247L951 591Q956 611 958 626T961 654Q961 681 947 692T900 704H854V714H1079V704H1046Q1026 704 1012 698T988 675T970 626L816 0H698L527 551L393 0H269L75 651Z" />
<glyph unicode="X" horiz-adv-x="761" d="M11 0V10H41Q61 10 77 16T109 39T144 82L316 325L122 651Q111 671 100 682T75 699T43 704H35V714H390V704H377Q343 704 328 696T312 672Q312 662 318 648T335 616L444 432L573 615Q588 636 595 650T602 676Q602 692 588
698T540 704H498V714H728V704H701Q682 704 666 698T633 676T598 632L450 423L649 87Q668 56 681 40T709 17T742 10H750V0H396V10H409Q440 10 455 18T470 45Q470 56 464 71T441 113L322 315L169 99Q160 85 154 74T144 55T141 38Q141 22 155 16T203 10H247V0H11Z"
/>
<glyph unicode="Y" horiz-adv-x="720" d="M166 0V10H207Q226 10 240 14T263 32T271 74V250L69 651Q60 671 51 682T31 699T9 704H2V714H356V704H335Q297 704 279 696T261 665Q261 653 267 637T284 597L378 408Q389 389 396 374T410 344T427 311T448 268Q458 293
468 317T490 364L589 593Q599 616 604 632T610 662Q610 685 592 694T536 704H482V714H719V704H700Q682 704 669 698T642 674T615 626L454 259V74Q454 46 461 33T482 15T510 10H559V0H166Z" />
<glyph unicode="Z" horiz-adv-x="696" d="M44 0V10L432 704H253Q192 704 155 689T99 638T77 542L74 495H63L71 714H626V704L238 10H461Q522 10 558 25T613 76T637 172L641 219H651L643 0H44Z" />
<glyph unicode="[" horiz-adv-x="436" d="M100 -128V760H399V750H356Q334 750 315 745T285 725T274 678V-46Q274 -77 285 -92T315 -113T356 -118H399V-128H100Z" />
<glyph unicode="\" horiz-adv-x="221" d="M211 -121L0 760H10L221 -121H211Z" />
<glyph unicode="]" horiz-adv-x="436" d="M37 -128V-118H80Q103 -118 121 -113T151 -93T162 -46V678Q162 710 151 725T122 745T80 750H37V760H336V-128H37Z" />
<glyph unicode="^" horiz-adv-x="504" d="M55 261L239 714H263L449 261H427L251 694L77 261H55Z" />
<glyph unicode="_" horiz-adv-x="459" d="M-5 -123V-103H464V-123H-5Z" />
<glyph unicode="`" horiz-adv-x="312" d="M262 605Q236 620 204 640T139 681T80 723T40 756V766H179Q191 744 207 717T240 663T272 615V605H262Z" />
<glyph unicode="a" horiz-adv-x="614" d="M208 -10Q133 -10 88 30T43 143Q43 219 98 255T265 295L347 298V430Q347 472 342 496T324 530T292 540Q257 540 244 505T231 377Q158 377 122 393T85 446Q85 483 114 506T193 540T301 550Q412 550 467 513T522 381V80Q522
53 527 38T546 16T582 10H586V0H348V90H346Q334 50 313 29T265 -1T208 -10ZM271 25Q294 25 311 44T338 96T347 166V288L309 286Q259 283 240 253T221 151Q221 106 226 79T243 38T271 25Z" />
<glyph unicode="b" horiz-adv-x="663" d="M419 -10Q357 -10 322 24T273 134H271V0H16V10H25Q41 10 57 15T85 34T97 77V686Q97 714 86 727T59 745T24 750H16V760H272V594Q272 566 272 515T271 405H273Q286 479 325 514T426 549Q519 549 569 480T619 271Q619 176
597 114T530 21T419 -10ZM363 19Q390 19 407 48T434 136T443 278Q443 354 434 406T408 486T364 513Q320 513 296 452T272 277Q272 152 297 86T363 19Z" />
<glyph unicode="c" horiz-adv-x="541" d="M300 -10Q224 -10 166 15T76 101T44 267Q44 375 77 436T169 524T300 550Q372 550 417 535T484 495T505 440Q505 421 495 401T453 365T360 350Q360 423 354 464T335 522T297 540Q268 540 252 515T228 431T221 268Q221 169
231 111T267 27T334 2Q368 2 396 17T443 67T469 159Q486 154 495 140T505 105Q505 80 484 53T418 8T300 -10Z" />
<glyph unicode="d" horiz-adv-x="663" d="M242 -10Q177 -10 133 20T65 113T42 271Q42 365 65 426T131 518T236 549Q297 549 336 514T388 405H390Q390 444 390 480T389 546T389 594V686Q389 714 379 727T352 745T317 750H304V760H565V77Q565 48 576 34T604 15T637
10H645V0H390V134H388Q376 59 341 25T242 -10ZM298 19Q341 19 365 85T389 277Q389 352 379 405T348 485T298 513Q272 513 254 486T228 407T219 278Q219 194 227 136T254 49T298 19Z" />
<glyph unicode="e" horiz-adv-x="586" d="M318 -10Q182 -10 113 62T44 266Q44 407 111 478T302 550Q416 550 481 489T547 309V285H220Q221 184 234 122T278 31T356 3Q393 3 419 19T461 70T480 162Q503 158 515 145T527 109Q527 77 503 50T432 6T318 -10ZM373 295Q373
387 367 440T346 517T302 540Q274 540 256 517T230 441T220 295H373Z" />
<glyph unicode="f" horiz-adv-x="422" d="M16 0V10H42Q53 10 69 14T96 31T108 72V526H20V536H108V568Q108 662 158 715T330 768Q395 768 431 757T480 730T494 693Q494 673 483 657T444 632T368 622Q368 700 359 729T325 758Q302 758 293 733T283 641V536H420V526H283V72Q283
45 294 32T321 14T350 10H401V0H16Z" />
<glyph unicode="g" horiz-adv-x="569" d="M238 -236Q117 -236 56 -206T-6 -122Q-6 -92 13 -71T74 -38T180 -23Q117 -15 85 16T52 88Q52 127 81 156T165 201Q105 218 72 261T38 369Q38 454 92 502T261 550Q303 550 338 540T400 512Q420 546 444 563T500 581Q532
581 550 564T568 520Q568 494 550 477T493 459Q493 488 481 505T447 522Q437 522 428 518T409 505Q443 480 461 444T479 363Q479 287 427 238T261 188Q238 188 217 190T177 198Q163 190 157 180T151 158Q151 139 166 127T223 114H335Q439 114 488 75T538 -40Q538
-132 465 -184T238 -236ZM256 -226Q327 -226 368 -198T410 -111Q410 -71 388 -51T320 -30H214Q185 -30 166 -41T137 -73T127 -123Q127 -157 141 -180T185 -214T256 -226ZM259 198Q283 198 297 214T318 266T324 363Q324 429 318 467T298 523T258 540Q234 540 219
523T198 467T191 362Q191 301 197 265T219 214T259 198Z" />
<glyph unicode="h" horiz-adv-x="680" d="M19 0V10H27Q46 10 62 14T87 33T97 76V688Q97 715 88 728T63 745T30 750H16V760H272V566Q272 544 272 524T272 484T271 441H273Q283 482 303 506T354 540T421 550Q505 550 547 505T589 358V80Q589 50 595 35T615 15T651
10H655V0H414V383Q414 447 400 478T350 510Q320 510 303 486T279 423T272 336V74Q272 47 281 34T305 15T339 10H346V0H19Z" />
<glyph unicode="i" horiz-adv-x="365" d="M14 0V10H26Q43 10 58 16T83 37T93 80V462Q93 488 83 501T58 520T26 526H10V536H268V78Q268 51 277 36T302 16T334 10H346V0H14ZM175 622Q141 622 118 641T94 698Q94 738 117 756T175 774Q209 774 233 756T258 698Q258
660 234 641T175 622Z" />
<glyph unicode="j" horiz-adv-x="363" d="M-23 -240V-230H-16Q21 -230 46 -214T84 -160T97 -54V461Q97 489 86 503T58 521T18 526H15V536H272V-8Q272 -97 237 -148T140 -219T-1 -240H-23ZM181 622Q145 622 122 641T98 698Q98 738 121 756T181 774Q215 774 240
756T265 698Q265 660 240 641T181 622Z" />
<glyph unicode="k" horiz-adv-x="657" d="M16 0V10H30Q42 10 57 14T85 31T97 72V692Q97 718 85 730T57 746T30 750H16V760H272V335Q272 320 272 304T272 273T271 241L469 449Q479 459 484 467T493 482T496 495Q496 511 471 518T393 526V536H631V526Q602 526 580
520T534 496T479 444L409 371L585 81Q603 52 614 37T635 16T654 10H656V0H620Q560 0 522 4T458 17T417 45T383 93L294 250L272 226V74Q272 46 284 33T312 15T338 10H354V0H16Z" />
<glyph unicode="l" horiz-adv-x="369" d="M19 0V10H30Q47 10 62 15T87 36T97 78V692Q97 718 85 730T57 746T30 750H19V760H272V78Q272 51 281 36T307 16T339 10H350V0H19Z" />
<glyph unicode="m" horiz-adv-x="1002" d="M15 0V10H23Q42 10 58 14T83 33T93 76V464Q93 491 83 504T58 521T24 526H16V536H266V436H268Q279 480 299 504T350 539T419 550Q485 550 527 523T584 428H586Q595 469 613 496T662 536T738 550Q823 550 867 505T911 358V80Q911
50 917 35T938 15T974 10H978V0H736V378Q736 442 721 476T670 510Q639 510 621 488T596 428T589 347V80Q589 50 595 35T615 15T651 10H655V0H414V378Q414 442 399 476T348 510Q318 510 300 486T275 423T268 336V74Q268 47 277 34T301 15T335 10H343V0H15Z" />
<glyph unicode="n" horiz-adv-x="676" d="M15 0V10H23Q42 10 58 14T83 33T93 76V464Q93 491 84 504T59 521T26 526H18V536H267V442H269Q280 482 300 506T350 540T417 550Q501 550 543 505T585 358V80Q585 50 591 35T611 15T647 10H651V0H410V383Q410 447 396 478T346
510Q317 510 300 486T275 423T268 336V74Q268 47 277 34T301 15T335 10H343V0H15Z" />
<glyph unicode="o" horiz-adv-x="628" d="M312 -10Q187 -10 116 60T44 271Q44 412 112 481T315 550Q440 550 512 481T584 271Q584 130 515 60T312 -10ZM314 0Q349 0 368 25T397 109T406 271Q406 372 397 430T368 514T313 540Q279 540 260 515T231 431T222 271Q222
169 231 110T259 25T314 0Z" />
<glyph unicode="p" horiz-adv-x="658" d="M19 -230V-220H27Q43 -220 59 -215T87 -196T99 -152V462Q99 488 91 502T68 521T35 526H33V536H273V405H275Q288 479 327 514T428 549Q521 549 571 480T621 271Q621 129 571 60T421 -10Q359 -10 324 24T275 134H273Q274
103 274 70T274 3V-152Q274 -182 285 -196T314 -215T346 -220H370V-230H19ZM365 19Q392 19 409 48T436 136T445 278Q445 354 436 406T410 486T366 513Q337 513 317 486T285 405T274 277Q274 193 285 136T316 49T365 19Z" />
<glyph unicode="q" horiz-adv-x="662" d="M287 -230V-220H318Q334 -220 350 -215T378 -196T389 -152V-28Q389 1 389 27T389 80T390 134H388Q380 85 362 53T314 5T242 -10Q144 -10 93 59T42 271Q42 365 65 426T131 518T236 549Q297 549 336 514T388 405H390V536H650V526H638Q620
526 604 522T576 504T565 462V-152Q565 -182 576 -196T604 -215T637 -220H656V-230H287ZM298 19Q326 19 347 48T378 135T389 277Q389 390 365 451T298 513Q272 513 254 486T228 407T219 278Q219 194 227 136T254 49T298 19Z" />
<glyph unicode="r" horiz-adv-x="544" d="M15 0V10H21Q41 10 57 15T82 34T92 79V461Q92 490 83 503T59 521T26 526H22V536H267V442H269Q280 478 299 501T347 536T413 549Q470 549 499 524T529 456Q529 408 492 383T390 357Q390 436 378 467T337 498Q320 498 308
488T286 458T273 406T268 329V76Q268 48 277 34T301 15T333 10H367V0H15Z" />
<glyph unicode="s" horiz-adv-x="496" d="M228 -10Q158 -10 114 6T48 49T27 108Q27 139 42 156T80 179T127 186Q127 118 138 77T175 18T240 0Q289 0 318 24T347 94Q347 127 331 146T285 179T210 206Q157 224 118 245T57 299T35 383Q35 468 97 508T261 549Q328
549 368 536T426 499T444 450Q444 420 419 402T338 383Q338 470 317 504T246 539Q220 539 200 530T167 502T154 452Q154 421 169 403T215 370T297 340Q347 323 385 303T443 250T464 166Q464 87 407 39T228 -10Z" />
<glyph unicode="t" horiz-adv-x="426" d="M254 -10Q182 -10 139 25T96 149V526H22V536Q69 536 107 544T174 570Q205 588 226 615T262 679H272V536H398V526H272V101Q272 57 290 36T340 14Q355 14 371 17T407 29V19Q390 11 351 1T254 -10Z" />
<glyph unicode="u" horiz-adv-x="680" d="M259 -10Q175 -10 133 35T91 182V456Q91 487 85 501T65 521T30 526H27V536H267V157Q267 114 272 86T292 44T330 30Q360 30 377 54T400 117T407 204V462Q407 489 399 503T375 521T341 526H337V536H583V72Q583 46 592 33T616
15T650 10H654V0H408V98H406Q399 68 386 47T354 14T311 -4T259 -10Z" />
<glyph unicode="v" horiz-adv-x="617" d="M63 480Q57 498 49 508T30 522T4 526V536H323V526H286Q263 526 252 519T240 495Q240 488 242 478T249 454L332 218Q340 195 350 168T369 113T386 61Q391 77 397 96T409 135T420 167L510 445Q515 459 517 470T520 491Q520
509 507 517T462 526H421V536H618V526H596Q578 526 566 521T544 500T525 455L376 0H241L63 480Z" />
<glyph unicode="w" horiz-adv-x="854" d="M54 477Q48 497 41 507T23 521T-2 526H-5V536H309V526H268Q244 526 232 519T219 492Q219 484 222 473T228 450L284 240Q291 220 298 193T312 137T325 86H327Q329 96 331 104T336 121T341 138L453 530H508L613 226Q618
209 623 194T634 163T644 132T654 99H657Q661 117 666 136T676 175T687 209L750 438Q755 453 757 466T759 487Q759 508 747 517T707 526H661V536H855V526H829Q814 526 803 520T782 498T765 452L638 0H537L414 357L312 0H197L54 477Z" />
<glyph unicode="x" horiz-adv-x="673" d="M13 0V10H33Q56 10 72 16T106 37T146 81L279 246L121 473Q108 491 95 503T66 520T36 526H28V536H367V526H344Q315 526 304 519T292 499Q292 489 297 477T313 451L399 326L497 445Q508 459 514 472T521 496Q521 512 506
519T464 526H419V536H641V526H629Q607 526 591 521T560 501T524 462L406 317L582 63Q596 43 609 32T635 15T660 10H668V0H323V10H348Q378 10 392 17T407 40Q407 52 400 68T372 113L285 237L167 91Q156 77 150 64T144 40Q144 24 159 17T200 10H254V0H13Z" />
<glyph unicode="y" horiz-adv-x="584" d="M24 -220Q91 -220 134 -211T205 -181T254 -127T298 -44L53 480Q46 498 39 508T23 522T2 526H-2V536H305L306 526H290Q260 526 246 519T232 495Q232 486 235 475T244 450L335 244Q341 230 346 217T356 194T365 174T375
152Q383 174 390 193T404 231L483 435Q490 452 493 465T496 488Q496 509 481 517T432 526H390V536H592V526H590Q568 526 552 519T524 495T499 448L325 -4Q298 -73 274 -117T218 -186T144 -220T37 -230H24V-220Z" />
<glyph unicode="z" horiz-adv-x="536" d="M8 0V10L334 526H202Q152 526 122 513T75 471T52 391L49 366H39L52 536H503V526L178 10H348Q402 10 434 23T483 67T504 151L507 189H517L510 0H8Z" />
<glyph unicode="{" horiz-adv-x="447" d="M319 -124Q229 -124 183 -84T137 26V207Q137 249 125 271T87 303T22 314V324Q61 324 86 333T124 365T137 430V613Q137 683 183 721T319 760H426V750H383Q341 750 329 726T316 656V464Q316 419 299 389T242 342T137 321V319Q203
315 242 298T298 251T316 174V-19Q316 -65 328 -89T383 -114H426V-124H319Z" />
<glyph unicode="|" horiz-adv-x="559" d="M241 -240V760H317V-240H241Z" />
<glyph unicode="}" horiz-adv-x="447" d="M22 -124V-114H65Q107 -114 119 -90T131 -19V174Q131 220 148 250T205 298T311 319V321Q245 325 206 341T149 388T131 464V656Q131 702 119 726T65 750H22V760H129Q218 760 264 722T310 613V430Q310 389 323 366T362 333T426
324V314Q388 313 362 304T323 272T310 207V26Q310 -43 264 -83T129 -124H22Z" />
<glyph unicode="~" horiz-adv-x="559" d="M64 277Q69 300 74 327T91 379T121 420T170 436Q205 436 232 416T284 369Q310 343 334 320T389 297Q419 297 435 319T459 374T475 436H494Q491 418 485 391T468 338T437 295T387 277Q350 277 322 303T268 357Q253 374
238 387T207 408T171 416Q143 416 127 399T102 350T84 277H64Z" />
<glyph unicode="&#xa0;" horiz-adv-x="225" />
<glyph unicode="&#xa1;" horiz-adv-x="402" d="M102 -181L193 295H208L300 -181H102ZM200 372Q169 372 146 390T122 457Q122 505 145 523T200 542Q233 542 255 524T277 457Q277 408 255 390T200 372Z" />
<glyph unicode="&#xa2;" horiz-adv-x="559" d="M308 80Q219 81 161 110T74 201T46 357Q46 460 78 521T170 611T308 640V714H318V640Q392 640 438 625T507 585T529 529Q529 511 519 491T478 456T390 441Q390 509 384 550T363 609T318 630V93Q369 93 402 110T455
163T483 250Q501 245 511 231T521 199Q521 173 499 146T432 101T318 80V0H308V80ZM308 630Q274 630 256 605T229 520T221 358Q221 268 229 212T256 127T308 94V630Z" />
<glyph unicode="&#xa3;" horiz-adv-x="559" d="M401 -13Q375 -13 345 -6T274 17Q245 28 220 36T167 44Q143 44 124 38T80 14L33 -19L28 -11L58 14Q95 44 115 81T143 157T152 234Q152 273 143 306T121 372H14V382H118Q103 420 91 459T78 545Q78 627 138 675T311
724Q384 724 428 707T493 663T514 606Q514 561 478 540T373 519Q373 590 366 632T341 694T295 714Q255 714 235 686T215 602Q215 560 225 523T248 451T273 382H439V372H276Q281 358 284 344T289 314T291 283Q291 232 267 195T208 128T134 66L135 64Q185 98 222
117T297 137Q325 137 350 129T399 112Q420 105 438 99T474 92Q491 92 508 101T536 133L544 128Q522 77 502 46T458 1T401 -13Z" />
<glyph unicode="&#xa4;" horiz-adv-x="559" d="M121 147L67 202L122 257Q108 278 101 302T94 355Q94 383 102 409T125 458L68 516L121 569L179 511Q201 525 225 532T277 539Q304 539 329 532T376 510L436 570L489 516L431 455Q445 434 453 409T461 355Q461 327
454 303T433 257L489 200L436 147L380 203Q358 189 332 181T277 172Q249 172 224 180T176 202L121 147ZM277 244Q309 244 334 259T373 299T388 355Q388 387 374 412T334 453T277 468Q247 468 222 453T182 413T167 355Q167 325 182 300T222 259T277 244Z" />
<glyph unicode="&#xa5;" horiz-adv-x="559" d="M116 0V10H145Q163 10 175 16T193 36T200 73V184H60V194H200V295H60V305H199L64 651Q53 681 42 692T10 704H2V714H302V704H287Q265 704 252 697T239 670Q239 659 243 642T256 605L322 424Q327 410 332 396T342 369T352
340T363 310Q372 341 381 367T399 422L457 595Q464 617 468 633T472 661Q472 684 458 694T412 704H381V714H551V704H541Q521 704 507 687T478 626L371 305H510V295H370V194H510V184H370V74Q370 49 376 35T394 16T424 10H453V0H116Z" />
<glyph unicode="&#xa6;" horiz-adv-x="559" d="M269 360V760H289V360H269ZM269 -240V160H289V-240H269Z" />
<glyph unicode="&#xa7;" horiz-adv-x="544" d="M274 -112Q213 -112 174 -100T114 -68T83 -26T74 16Q74 43 85 62T119 92T174 103Q174 -3 204 -52T293 -102Q321 -102 345 -91T383 -55T398 9Q398 48 380 76T325 127T231 178Q191 198 160 216T106 255T72 300T60 353Q60
397 82 424T142 467Q114 492 98 523T82 596Q82 675 139 717T290 760Q347 760 387 745T448 705T469 649Q469 615 443 592T365 569Q365 664 344 707T269 750Q246 750 226 739T194 705T181 645Q181 604 198 576T250 527T331 484Q397 454 436 427T493 372T511 308Q511
268 489 240T430 190Q455 165 468 135T482 66Q482 15 459 -25T390 -89T274 -112ZM415 203Q421 214 424 226T427 251Q427 277 412 298T368 338T293 379Q253 398 217 417T152 459Q145 448 142 436T138 412Q138 385 155 363T205 321T289 276Q313 265 335 253T378 229T415
203Z" />
<glyph unicode="&#xa8;" horiz-adv-x="577" d="M394 619Q372 619 355 635T337 688Q337 726 354 741T394 757Q415 757 432 742T450 688Q450 651 433 635T394 619ZM182 619Q160 619 143 635T126 688Q126 726 143 741T182 757Q204 757 221 742T239 688Q239 651 222
635T182 619Z" />
<glyph unicode="&#xa9;" horiz-adv-x="845" d="M422 -10Q342 -10 275 17T159 93T82 210T55 358Q55 438 82 505T158 621T274 697T422 725Q502 725 569 698T686 622T763 505T790 357Q790 277 763 210T687 94T570 17T422 -10ZM430 124Q359 124 312 153T242 235T218
358Q218 430 243 482T319 562T441 590Q482 590 514 581T564 556T583 517Q583 493 563 480T512 466Q512 505 503 530T473 567T422 579Q380 579 354 556T315 484T303 358Q303 281 318 231T364 158T438 134Q488 134 522 163T566 245Q575 241 580 233T586 212Q586 192
568 172T514 138T430 124ZM424 0Q501 0 565 26T677 101T751 215T778 358Q778 435 752 500T678 614T565 688T422 715Q345 715 280 689T168 614T94 501T67 358Q67 279 94 213T170 100T284 26T424 0Z" />
<glyph unicode="&#xaa;" horiz-adv-x="435" d="M141 380Q87 380 57 404T27 470Q27 518 69 541T200 569L245 571V645Q245 680 236 694T207 709Q184 709 176 687T167 611Q111 611 83 621T54 658Q54 680 74 693T128 712T206 719Q291 719 330 696T370 615V434Q370
412 379 404T413 396V386H254V455H252Q243 418 214 399T141 380ZM198 413Q215 413 225 424T240 451T245 485V561L223 560Q186 559 170 542T153 484Q153 448 166 431T198 413Z" />
<glyph unicode="&#xab;" horiz-adv-x="570" d="M490 66L263 265V275L490 474H505L404 270L505 66H490ZM281 66L54 265V275L281 474H296L195 270L296 66H281Z" />
<glyph unicode="&#xac;" horiz-adv-x="559" d="M467 120V355H62V375H487V120H467Z" />
<glyph unicode="&#xad;" horiz-adv-x="310" d="M25 263V283H285V263H25Z" />
<glyph unicode="&#xae;" horiz-adv-x="845" d="M422 -10Q342 -10 275 17T159 93T82 210T55 358Q55 438 82 505T158 621T274 697T422 725Q502 725 569 698T686 622T763 505T790 357Q790 277 763 210T687 94T570 17T422 -10ZM424 0Q501 0 565 26T677 101T751 215T778
358Q778 435 752 500T678 614T565 688T422 715Q345 715 280 689T168 614T94 501T67 358Q67 279 94 213T170 100T284 26T424 0ZM232 141V151H245Q265 151 279 157T294 187V533Q294 557 280 563T245 569H232V579H415Q504 579 547 548T591 458Q591 425 578 403T543
367T491 347L592 189Q606 167 616 159T636 151V141H532L410 342H372V187Q372 163 387 157T421 151H435V141H232ZM414 352Q465 352 486 377T508 459Q508 520 486 544T411 569H372V352H414Z" />
<glyph unicode="&#xaf;" horiz-adv-x="459" d="M-5 780V800H464V780H-5Z" />
<glyph unicode="&#xb0;" horiz-adv-x="400" d="M199 423Q132 423 90 465T48 574Q48 641 90 683T199 726Q267 726 309 684T351 574Q351 507 309 465T199 423ZM200 443Q257 443 293 479T329 574Q329 634 293 670T200 706Q144 706 107 670T70 574Q70 515 106 479T200 443Z" />
<glyph unicode="&#xb1;" horiz-adv-x="559" d="M65 27V47H494V27H65ZM269 143V347H65V367H269V572H289V367H494V347H289V143H269Z" />
<glyph unicode="&#xb2;" horiz-adv-x="405" d="M33 387V473L153 555Q193 582 212 608T238 659T245 709Q245 750 239 773T220 805T191 815Q168 815 156 801T140 756T136 679Q89 679 64 692T38 738Q38 762 55 781T108 813T198 825Q277 825 318 795T360 711Q360 682
345 657T292 605T189 544L57 478H307Q335 478 346 487T360 522L361 538H371L366 387H33Z" />
<glyph unicode="&#xb3;" horiz-adv-x="405" d="M174 380Q98 380 61 405T24 465Q24 489 42 503T95 518Q95 452 113 421T172 390Q210 390 227 415T245 496Q245 556 224 580T154 604H119V614H154Q195 614 212 637T230 714Q230 773 218 793T181 814Q151 814 142 785T133
690Q89 690 65 700T40 739Q40 762 56 781T106 812T194 824Q271 824 313 797T355 716Q355 670 321 644T210 612V610Q289 608 330 581T372 503Q372 464 349 437T282 395T174 380Z" />
<glyph unicode="&#xb4;" horiz-adv-x="312" d="M40 615Q55 636 72 662T105 716T133 766H272V756Q259 743 232 723T173 682T108 640T50 605H40V615Z" />
<glyph unicode="&#xb5;" horiz-adv-x="685" d="M185 -240Q153 -240 129 -226T92 -181T79 -104Q79 -74 81 -42T85 28T89 114T91 226V536H266V146Q266 113 272 86T293 43T333 26Q359 26 376 45T402 98T411 178V536H587V94Q587 48 602 29T657 10H665V0H560Q502 0
465 25T418 106H416Q403 49 366 20T272 -10Q229 -10 193 6T132 56T99 140Q99 71 105 21T124 -62T158 -115T209 -143T279 -153Q279 -192 254 -216T185 -240Z" />
<glyph unicode="&#xb6;" horiz-adv-x="631" d="M169 -111V-101H182Q205 -101 223 -97T253 -77T264 -30V386H193Q135 386 102 413T54 485T40 582Q40 636 55 676T104 738T195 760H591V750H578Q556 750 537 745T507 725T496 678V-30Q496 -62 507 -77T537 -96T578
-101H591V-111H420V750H340V-111H169Z" />
<glyph unicode="&#xb7;" horiz-adv-x="312" d="M156 270Q123 270 101 288T78 354Q78 403 100 421T156 439Q187 439 210 421T233 354Q233 307 210 289T156 270Z" />
<glyph unicode="&#xb8;" horiz-adv-x="333" d="M137 -240Q121 -240 93 -237T46 -229V-219Q60 -222 72 -224T96 -226Q137 -226 158 -200T180 -132Q180 -107 172 -93T150 -71T119 -62L135 9H145L131 -54Q205 -54 244 -76T283 -142Q283 -188 245 -214T137 -240Z" />
<glyph unicode="&#xb9;" horiz-adv-x="405" d="M56 387V397H105Q124 397 139 406T155 440V763Q138 733 125 715T99 689T74 681Q58 681 46 693T34 730Q62 730 82 734T122 750T160 781L195 819H271V440Q271 415 285 406T319 397H361V387H56Z" />
<glyph unicode="&#xba;" horiz-adv-x="453" d="M226 380Q135 380 85 422T35 550Q35 636 84 677T228 719Q316 719 367 678T418 550Q418 465 369 423T226 380ZM227 390Q263 390 276 425T290 551Q290 641 277 675T226 709Q191 709 178 675T164 551Q164 460 177 425T227 390Z" />
<glyph unicode="&#xbb;" horiz-adv-x="570" d="M274 66L375 270L274 474H289L516 275V265L289 66H274ZM65 66L166 270L65 474H80L307 275V265L80 66H65Z" />
<glyph unicode="&#xbc;" horiz-adv-x="866" d="M294 543V553H343Q362 553 377 562T393 596V919Q376 889 363 871T337 845T312 837Q296 837 284 849T272 886Q300 886 320 890T360 906T398 937L433 975H509V596Q509 571 523 562T557 553H599V543H294ZM264 0L621
714H632L275 0H264ZM591 0V10H624Q641 10 653 16T665 46V117H478V164L671 432H779V177H853V117H779V46Q779 22 792 16T821 10H844V0H591ZM500 177H665V311Q665 323 665 342T665 380T666 411Q661 403 656 395T644 378L500 177Z" />
<glyph unicode="&#xbd;" horiz-adv-x="874" d="M294 543V553H343Q362 553 377 562T393 596V919Q376 889 363 871T337 845T312 837Q296 837 284 849T272 886Q300 886 320 890T360 906T398 937L433 975H509V596Q509 571 523 562T557 553H599V543H294ZM244 0L601
714H612L255 0H244ZM515 0V86L635 168Q675 195 694 221T720 272T727 322Q727 363 721 386T702 418T673 428Q650 428 638 414T622 369T618 292Q571 292 546 305T520 351Q520 375 537 394T590 426T680 438Q759 438 800 408T842 324Q842 295 827 270T774 218T671 157L539
91H789Q817 91 828 100T842 135L843 151H853L848 0H515Z" />
<glyph unicode="&#xbe;" horiz-adv-x="839" d="M175 536Q99 536 62 561T25 621Q25 645 43 659T96 674Q96 608 114 577T173 546Q211 546 228 571T246 652Q246 712 225 736T155 760H120V770H155Q196 770 213 793T231 870Q231 929 219 949T182 970Q152 970 143 941T134
846Q90 846 66 856T41 895Q41 918 57 937T107 968T195 980Q272 980 314 953T356 872Q356 826 322 800T211 768V766Q290 764 331 737T373 659Q373 620 350 593T283 551T175 536ZM257 0L614 714H625L268 0H257ZM564 0V10H597Q614 10 626 16T638 46V117H451V164L644
432H752V177H826V117H752V46Q752 22 765 16T794 10H817V0H564ZM473 177H638V311Q638 323 638 342T638 380T639 411Q634 403 629 395T617 378L473 177Z" />
<glyph unicode="&#xbf;" horiz-adv-x="570" d="M374 181Q324 178 294 162T250 106T236 -2Q236 -65 243 -105T266 -163T309 -182Q334 -182 349 -164T372 -104T380 6Q451 6 493 -11T535 -73Q535 -103 512 -130T439 -174T315 -192Q197 -192 127 -144T56 -5Q56 72
105 116T257 182L308 299H323L374 181ZM318 541Q351 541 373 522T395 456Q395 407 373 389T318 371Q287 371 264 389T240 456Q240 503 263 522T318 541Z" />
<glyph unicode="&#xc0;" horiz-adv-x="772" d="M6 0V10H45Q63 10 77 16T103 37T125 81L340 714H467L690 79Q700 54 711 39T737 17T770 10H772V0H425V10H472Q495 10 505 18T515 42Q515 49 514 56T510 72T504 91L449 262H197L144 107Q140 94 137 83T131 62T129 43Q129
26 139 18T173 10H244V0H6ZM200 272H446L380 477Q373 498 364 529T345 593T328 652Q323 634 316 612T301 568T286 523T271 481L200 272ZM421 770Q395 785 363 805T298 846T239 888T199 921V931H338Q350 909 366 882T399 828T431 780V770H421Z" />
<glyph unicode="&#xc1;" horiz-adv-x="772" d="M6 0V10H45Q63 10 77 16T103 37T125 81L340 714H467L690 79Q700 54 711 39T737 17T770 10H772V0H425V10H472Q495 10 505 18T515 42Q515 49 514 56T510 72T504 91L449 262H197L144 107Q140 94 137 83T131 62T129 43Q129
26 139 18T173 10H244V0H6ZM200 272H446L380 477Q373 498 364 529T345 593T328 652Q323 634 316 612T301 568T286 523T271 481L200 272ZM342 780Q357 801 374 827T407 881T435 931H574V921Q561 908 534 888T475 847T410 805T352 770H342V780Z" />
<glyph unicode="&#xc2;" horiz-adv-x="772" d="M6 0V10H45Q63 10 77 16T103 37T125 81L340 714H467L690 79Q700 54 711 39T737 17T770 10H772V0H425V10H472Q495 10 505 18T515 42Q515 49 514 56T510 72T504 91L449 262H197L144 107Q140 94 137 83T131 62T129 43Q129
26 139 18T173 10H244V0H6ZM200 272H446L380 477Q373 498 364 529T345 593T328 652Q323 634 316 612T301 568T286 523T271 481L200 272ZM203 781Q225 800 249 826T295 881T334 931H448Q464 909 486 881T533 827T579 781V771H569Q544 784 511 801T446 836T391 869Q368
855 337 837T272 801T213 771H203V781Z" />
<glyph unicode="&#xc3;" horiz-adv-x="772" d="M6 0V10H45Q63 10 77 16T103 37T125 81L340 714H467L690 79Q700 54 711 39T737 17T770 10H772V0H425V10H472Q495 10 505 18T515 42Q515 49 514 56T510 72T504 91L449 262H197L144 107Q140 94 137 83T131 62T129 43Q129
26 139 18T173 10H244V0H6ZM200 272H446L380 477Q373 498 364 529T345 593T328 652Q323 634 316 612T301 568T286 523T271 481L200 272ZM466 771Q438 771 412 782T362 807T314 833T262 844Q224 844 208 823T189 781H179Q182 826 197 862T239 919T304 941Q333 941
358 930T409 905T458 879T508 868Q545 868 561 889T581 931H591Q589 887 574 850T532 792T466 771Z" />
<glyph unicode="&#xc4;" horiz-adv-x="772" d="M6 0V10H45Q63 10 77 16T103 37T125 81L340 714H467L690 79Q700 54 711 39T737 17T770 10H772V0H425V10H472Q495 10 505 18T515 42Q515 49 514 56T510 72T504 91L449 262H197L144 107Q140 94 137 83T131 62T129 43Q129
26 139 18T173 10H244V0H6ZM200 272H446L380 477Q373 498 364 529T345 593T328 652Q323 634 316 612T301 568T286 523T271 481L200 272ZM490 784Q468 784 451 800T433 853Q433 891 450 906T490 922Q511 922 528 907T546 853Q546 816 529 800T490 784ZM278 784Q256
784 239 800T222 853Q222 891 239 906T278 922Q300 922 317 907T335 853Q335 816 318 800T278 784Z" />
<glyph unicode="&#xc5;" horiz-adv-x="772" d="M6 0V10H45Q63 10 77 16T103 37T125 81L326 672Q301 685 288 709T275 765Q275 816 307 845T396 875Q452 875 483 846T515 765Q515 738 506 717T479 681L690 79Q700 54 711 39T736 17T770 10H772V0H425V10H472Q495
10 505 18T515 42Q515 49 514 56T510 72T504 91L449 262H197L144 107Q140 94 137 83T131 62T129 43Q129 26 139 18T173 10H244V0H6ZM200 272H446L380 477Q373 498 364 529T345 593T328 652Q321 628 311 598T291 538T271 481L200 272ZM396 665Q446 665 475 692T504
765Q504 812 475 838T396 865Q345 865 316 839T287 765Q287 719 316 692T396 665Z" />
<glyph unicode="&#xc6;" horiz-adv-x="1015" d="M6 0V10H37Q56 10 70 18T98 43T126 89L453 704H322V714H947L953 526H943L940 559Q936 613 919 645T868 690T780 704H648V378H884V368H648V10H814Q869 10 902 24T953 70T974 156L977 188H987L980 0H374V10H412Q430
10 442 15T460 34T467 73V252H225L145 102Q136 84 132 70T127 45Q127 27 142 19T188 10H234V0H6ZM230 262H467V704H465L230 262Z" />
<glyph unicode="&#xc7;" horiz-adv-x="690" d="M408 -10Q287 -10 209 36T92 164T54 358Q54 466 94 548T213 677T411 724Q489 724 541 708T621 666T648 606Q648 567 613 540T507 513Q507 579 496 624T461 691T395 714Q340 714 308 677T260 562T245 358Q245 233
264 154T324 38T432 1Q509 1 556 46T616 180Q632 174 640 162T648 129Q648 108 636 84T597 39T523 4T408 -10ZM376 -242Q360 -242 332 -239T286 -231V-221Q300 -224 312 -226T335 -228Q377 -228 398 -202T419 -134Q419 -109 411 -95T389 -73T358 -64L374 7H384L370
-56Q445 -56 484 -78T523 -144Q523 -190 485 -216T376 -242Z" />
<glyph unicode="&#xc8;" horiz-adv-x="665" d="M24 0V10H71Q85 10 95 15T111 33T117 64V645Q117 671 111 683T94 700T70 704H24V714H597L603 526H593L590 559Q586 613 569 645T518 690T430 704H298V378H534V368H298V10H464Q519 10 552 24T603 70T624 156L627 188H637L630
0H24ZM385 770Q359 785 327 805T262 846T203 888T163 921V931H302Q314 909 330 882T363 828T395 780V770H385Z" />
<glyph unicode="&#xc9;" horiz-adv-x="665" d="M24 0V10H71Q85 10 95 15T111 33T117 64V645Q117 671 111 683T94 700T70 704H24V714H597L603 526H593L590 559Q586 613 569 645T518 690T430 704H298V378H534V368H298V10H464Q519 10 552 24T603 70T624 156L627 188H637L630
0H24ZM278 780Q293 801 310 827T343 881T371 931H510V921Q497 908 470 888T411 847T346 805T288 770H278V780Z" />
<glyph unicode="&#xca;" horiz-adv-x="665" d="M24 0V10H71Q85 10 95 15T111 33T117 64V645Q117 671 111 683T94 700T70 704H24V714H597L603 526H593L590 559Q586 613 569 645T518 690T430 704H298V378H534V368H298V10H464Q519 10 552 24T603 70T624 156L627 188H637L630
0H24ZM130 781Q152 800 176 826T222 881T261 931H375Q391 909 413 881T460 827T506 781V771H496Q471 784 438 801T373 836T318 869Q295 855 264 837T199 801T140 771H130V781Z" />
<glyph unicode="&#xcb;" horiz-adv-x="665" d="M24 0V10H71Q85 10 95 15T111 33T117 64V645Q117 671 111 683T94 700T70 704H24V714H597L603 526H593L590 559Q586 613 569 645T518 690T430 704H298V378H534V368H298V10H464Q519 10 552 24T603 70T624 156L627 188H637L630
0H24ZM451 784Q429 784 412 800T394 853Q394 891 411 906T451 922Q472 922 489 907T507 853Q507 816 490 800T451 784ZM239 784Q217 784 200 800T183 853Q183 891 200 906T239 922Q261 922 278 907T296 853Q296 816 279 800T239 784Z" />
<glyph unicode="&#xcc;" horiz-adv-x="415" d="M24 0V10H67Q84 10 95 14T111 31T117 65V646Q117 670 112 682T95 699T67 704H24V714H391V704H347Q331 704 320 699T304 682T298 645V66Q298 44 303 32T320 15T347 10H391V0H24ZM261 770Q235 785 203 805T138 846T79
888T39 921V931H178Q190 909 206 882T239 828T271 780V770H261Z" />
<glyph unicode="&#xcd;" horiz-adv-x="415" d="M24 0V10H67Q84 10 95 14T111 31T117 65V646Q117 670 112 682T95 699T67 704H24V714H391V704H347Q331 704 320 699T304 682T298 645V66Q298 44 303 32T320 15T347 10H391V0H24ZM147 780Q162 801 179 827T212 881T240
931H379V921Q366 908 339 888T280 847T215 805T157 770H147V780Z" />
<glyph unicode="&#xce;" horiz-adv-x="415" d="M24 0V10H67Q84 10 95 14T111 31T117 65V646Q117 670 112 682T95 699T67 704H24V714H391V704H347Q331 704 320 699T304 682T298 645V66Q298 44 303 32T320 15T347 10H391V0H24ZM19 781Q41 800 65 826T111 881T150
931H264Q280 909 302 881T349 827T395 781V771H385Q360 784 327 801T262 836T207 869Q184 855 153 837T88 801T29 771H19V781Z" />
<glyph unicode="&#xcf;" horiz-adv-x="415" d="M24 0V10H67Q84 10 95 14T111 31T117 65V646Q117 670 112 682T95 699T67 704H24V714H391V704H347Q331 704 320 699T304 682T298 645V66Q298 44 303 32T320 15T347 10H391V0H24ZM314 784Q292 784 275 800T257 853Q257
891 274 906T314 922Q335 922 352 907T370 853Q370 816 353 800T314 784ZM102 784Q80 784 63 800T46 853Q46 891 63 906T102 922Q124 922 141 907T159 853Q159 816 142 800T102 784Z" />
<glyph unicode="&#xd0;" horiz-adv-x="783" d="M24 0V10H72Q86 10 95 16T111 35T117 69V369H38V379H117V647Q117 669 111 681T93 699T68 704H24V714H364Q478 714 559 677T685 564T729 375Q729 266 688 181T565 48T364 0H24ZM340 10Q411 10 454 46T517 163T536
375Q536 493 517 565T455 671T341 704H297V379H404V369H297V10H340Z" />
<glyph unicode="&#xd1;" horiz-adv-x="798" d="M24 0V10H87Q103 10 115 14T135 31T142 72V646Q142 672 135 684T117 700T92 704H24V714H305L652 191V646Q652 669 646 681T628 699T603 704H526V714H786V704H712Q698 704 687 699T669 680T662 642V0H593L152 663V72Q152
45 157 32T174 14T201 10H284V0H24ZM488 771Q460 771 434 782T384 807T336 833T284 844Q246 844 230 823T211 781H201Q204 826 219 862T261 919T326 941Q355 941 380 930T431 905T480 879T530 868Q567 868 583 889T603 931H613Q611 887 596 850T554 792T488 771Z"
/>
<glyph unicode="&#xd2;" horiz-adv-x="805" d="M403 -10Q286 -10 209 36T93 165T54 359Q54 470 93 552T209 679T404 725Q516 725 593 680T710 552T751 358Q751 247 711 165T593 36T403 -10ZM404 0Q446 0 475 19T523 81T551 192T560 358Q560 455 551 523T524 633T476
695T404 715Q361 715 331 696T282 634T254 523T245 358Q245 261 254 193T282 82T331 20T404 0ZM448 770Q422 785 390 805T325 846T266 888T226 921V931H365Q377 909 393 882T426 828T458 780V770H448Z" />
<glyph unicode="&#xd3;" horiz-adv-x="805" d="M403 -10Q286 -10 209 36T93 165T54 359Q54 470 93 552T209 679T404 725Q516 725 593 680T710 552T751 358Q751 247 711 165T593 36T403 -10ZM404 0Q446 0 475 19T523 81T551 192T560 358Q560 455 551 523T524 633T476
695T404 715Q361 715 331 696T282 634T254 523T245 358Q245 261 254 193T282 82T331 20T404 0ZM356 780Q371 801 388 827T421 881T449 931H588V921Q575 908 548 888T489 847T424 805T366 770H356V780Z" />
<glyph unicode="&#xd4;" horiz-adv-x="805" d="M403 -10Q286 -10 209 36T93 165T54 359Q54 470 93 552T209 679T404 725Q516 725 593 680T710 552T751 358Q751 247 711 165T593 36T403 -10ZM404 0Q446 0 475 19T523 81T551 192T560 358Q560 455 551 523T524 633T476
695T404 715Q361 715 331 696T282 634T254 523T245 358Q245 261 254 193T282 82T331 20T404 0ZM212 781Q234 800 258 826T304 881T343 931H457Q473 909 495 881T542 827T588 781V771H578Q553 784 520 801T455 836T400 869Q377 855 346 837T281 801T222 771H212V781Z"
/>
<glyph unicode="&#xd5;" horiz-adv-x="805" d="M403 -10Q286 -10 209 36T93 165T54 359Q54 470 93 552T209 679T404 725Q516 725 593 680T710 552T751 358Q751 247 711 165T593 36T403 -10ZM404 0Q446 0 475 19T523 81T551 192T560 358Q560 455 551 523T524 633T476
695T404 715Q361 715 331 696T282 634T254 523T245 358Q245 261 254 193T282 82T331 20T404 0ZM484 771Q456 771 430 782T380 807T332 833T280 844Q242 844 226 823T207 781H197Q200 826 215 862T257 919T322 941Q351 941 376 930T427 905T476 879T526 868Q563
868 579 889T599 931H609Q607 887 592 850T550 792T484 771Z" />
<glyph unicode="&#xd6;" horiz-adv-x="805" d="M403 -10Q286 -10 209 36T93 165T54 359Q54 470 93 552T209 679T404 725Q516 725 593 680T710 552T751 358Q751 247 711 165T593 36T403 -10ZM404 0Q446 0 475 19T523 81T551 192T560 358Q560 455 551 523T524 633T476
695T404 715Q361 715 331 696T282 634T254 523T245 358Q245 261 254 193T282 82T331 20T404 0ZM502 784Q480 784 463 800T445 853Q445 891 462 906T502 922Q523 922 540 907T558 853Q558 816 541 800T502 784ZM290 784Q268 784 251 800T234 853Q234 891 251 906T290
922Q312 922 329 907T347 853Q347 816 330 800T290 784Z" />
<glyph unicode="&#xd7;" horiz-adv-x="559" d="M82 145L68 159L266 357L68 555L82 569L280 371L477 569L491 555L293 357L491 159L477 145L280 343L82 145Z" />
<glyph unicode="&#xd8;" horiz-adv-x="805" d="M223 28Q139 71 97 157T54 359Q54 470 93 552T209 679T404 725Q454 725 496 716T574 689L610 755H621L583 684Q665 641 708 557T751 358Q751 247 711 165T593 36T403 -10Q353 -10 311 -2T232 24L199 -40H187L223
28ZM532 610Q514 665 483 690T404 715Q361 715 331 696T282 634T254 523T245 358Q245 279 251 219T270 116L532 610ZM403 0Q446 0 475 19T523 81T551 192T560 358Q560 436 554 495T537 596L274 102Q293 48 324 24T403 0Z" />
<glyph unicode="&#xd9;" horiz-adv-x="759" d="M392 -10Q307 -10 244 13T145 86T110 219V646Q110 672 102 684T81 700T52 704H17V714H383V704H349Q333 704 320 700T299 683T291 642V155Q291 102 308 70T356 22T433 7Q494 7 536 31T601 100T624 210V646Q624 672
616 684T596 700T567 704H503V714H743V704H692Q675 704 662 700T642 683T634 642V212Q634 144 610 94T532 17T392 -10ZM449 770Q423 785 391 805T326 846T267 888T227 921V931H366Q378 909 394 882T427 828T459 780V770H449Z" />
<glyph unicode="&#xda;" horiz-adv-x="759" d="M392 -10Q307 -10 244 13T145 86T110 219V646Q110 672 102 684T81 700T52 704H17V714H383V704H349Q333 704 320 700T299 683T291 642V155Q291 102 308 70T356 22T433 7Q494 7 536 31T601 100T624 210V646Q624 672
616 684T596 700T567 704H503V714H743V704H692Q675 704 662 700T642 683T634 642V212Q634 144 610 94T532 17T392 -10ZM340 780Q355 801 372 827T405 881T433 931H572V921Q559 908 532 888T473 847T408 805T350 770H340V780Z" />
<glyph unicode="&#xdb;" horiz-adv-x="759" d="M392 -10Q307 -10 244 13T145 86T110 219V646Q110 672 102 684T81 700T52 704H17V714H383V704H349Q333 704 320 700T299 683T291 642V155Q291 102 308 70T356 22T433 7Q494 7 536 31T601 100T624 210V646Q624 672
616 684T596 700T567 704H503V714H743V704H692Q675 704 662 700T642 683T634 642V212Q634 144 610 94T532 17T392 -10ZM220 781Q242 800 266 826T312 881T351 931H465Q481 909 503 881T550 827T596 781V771H586Q561 784 528 801T463 836T408 869Q385 855 354 837T289
801T230 771H220V781Z" />
<glyph unicode="&#xdc;" horiz-adv-x="759" d="M392 -10Q307 -10 244 13T145 86T110 219V646Q110 672 102 684T81 700T52 704H17V714H383V704H349Q333 704 320 700T299 683T291 642V155Q291 102 308 70T356 22T433 7Q494 7 536 31T601 100T624 210V646Q624 672
616 684T596 700T567 704H503V714H743V704H692Q675 704 662 700T642 683T634 642V212Q634 144 610 94T532 17T392 -10ZM519 784Q497 784 480 800T462 853Q462 891 479 906T519 922Q540 922 557 907T575 853Q575 816 558 800T519 784ZM307 784Q285 784 268 800T251
853Q251 891 268 906T307 922Q329 922 346 907T364 853Q364 816 347 800T307 784Z" />
<glyph unicode="&#xdd;" horiz-adv-x="720" d="M166 0V10H207Q226 10 240 14T263 32T271 74V250L69 651Q60 671 51 682T31 699T9 704H2V714H356V704H335Q297 704 279 696T261 665Q261 653 267 637T284 597L378 408Q389 389 396 374T410 344T427 311T448 268Q458
293 468 317T490 364L589 593Q599 616 604 632T610 662Q610 685 592 694T536 704H482V714H719V704H700Q682 704 669 698T642 674T615 626L454 259V74Q454 46 461 33T482 15T510 10H559V0H166ZM329 780Q344 801 361 827T394 881T422 931H561V921Q548 908 521 888T462
847T397 805T339 770H329V780Z" />
<glyph unicode="&#xde;" horiz-adv-x="652" d="M24 0V10H72Q84 10 94 15T110 32T117 65V646Q117 669 111 681T94 699T72 704H24V714H391V704H342Q329 704 319 699T304 683T298 650V588H341Q485 588 555 529T626 371Q626 311 596 258T499 171T320 137H298V64Q298
45 304 33T320 15T342 10H391V0H24ZM316 147Q359 147 384 168T421 238T433 368Q433 446 422 492T388 558T325 578H298V147H316Z" />
<glyph unicode="&#xdf;" horiz-adv-x="730" d="M482 -10Q420 -10 379 5T319 47T299 106Q299 133 310 148T341 171T384 179Q386 113 397 74T429 18T485 0Q506 0 525 9T557 38T569 90Q569 128 553 151T509 192T445 226Q407 246 379 267T335 318T319 391Q319 442
341 473T399 520T480 537Q479 623 468 672T433 742T373 763Q320 763 294 730T267 621V0H-1V10H54Q65 10 74 14T88 31T93 72V526H13V536H93V538Q93 626 129 677T229 751T371 773Q460 773 519 746T608 663T641 526H567Q540 526 514 519T469 494T451 440Q451 408 464
390T500 359T551 331Q585 314 617 293T671 240T692 158Q692 77 638 34T482 -10Z" />
<glyph unicode="&#xe0;" horiz-adv-x="614" d="M208 -10Q133 -10 88 30T43 143Q43 219 98 255T265 295L347 298V430Q347 472 342 496T324 530T292 540Q257 540 244 505T231 377Q158 377 122 393T85 446Q85 483 114 506T193 540T301 550Q412 550 467 513T522 381V80Q522
53 527 38T546 16T582 10H586V0H348V90H346Q334 50 313 29T265 -1T208 -10ZM271 25Q294 25 311 44T338 96T347 166V288L309 286Q259 283 240 253T221 151Q221 106 226 79T243 38T271 25ZM351 605Q325 620 293 640T228 681T169 723T129 756V766H268Q280 744 296
717T329 663T361 615V605H351Z" />
<glyph unicode="&#xe1;" horiz-adv-x="614" d="M208 -10Q133 -10 88 30T43 143Q43 219 98 255T265 295L347 298V430Q347 472 342 496T324 530T292 540Q257 540 244 505T231 377Q158 377 122 393T85 446Q85 483 114 506T193 540T301 550Q412 550 467 513T522 381V80Q522
53 527 38T546 16T582 10H586V0H348V90H346Q334 50 313 29T265 -1T208 -10ZM271 25Q294 25 311 44T338 96T347 166V288L309 286Q259 283 240 253T221 151Q221 106 226 79T243 38T271 25ZM255 615Q270 636 287 662T320 716T348 766H487V756Q474 743 447 723T388
682T323 640T265 605H255V615Z" />
<glyph unicode="&#xe2;" horiz-adv-x="614" d="M208 -10Q133 -10 88 30T43 143Q43 219 98 255T265 295L347 298V430Q347 472 342 496T324 530T292 540Q257 540 244 505T231 377Q158 377 122 393T85 446Q85 483 114 506T193 540T301 550Q412 550 467 513T522 381V80Q522
53 527 38T546 16T582 10H586V0H348V90H346Q334 50 313 29T265 -1T208 -10ZM271 25Q294 25 311 44T338 96T347 166V288L309 286Q259 283 240 253T221 151Q221 106 226 79T243 38T271 25ZM126 616Q148 635 172 661T218 716T257 766H371Q387 744 409 716T456 662T502
616V606H492Q467 619 434 636T369 671T314 704Q291 690 260 672T195 636T136 606H126V616Z" />
<glyph unicode="&#xe3;" horiz-adv-x="614" d="M208 -10Q133 -10 88 30T43 143Q43 219 98 255T265 295L347 298V430Q347 472 342 496T324 530T292 540Q257 540 244 505T231 377Q158 377 122 393T85 446Q85 483 114 506T193 540T301 550Q412 550 467 513T522 381V80Q522
53 527 38T546 16T582 10H586V0H348V90H346Q334 50 313 29T265 -1T208 -10ZM271 25Q294 25 311 44T338 96T347 166V288L309 286Q259 283 240 253T221 151Q221 106 226 79T243 38T271 25ZM391 606Q363 606 337 617T287 642T239 668T187 679Q149 679 133 658T114
616H104Q107 661 122 697T164 754T229 776Q258 776 283 765T334 740T383 714T433 703Q470 703 486 724T506 766H516Q514 722 499 685T457 627T391 606Z" />
<glyph unicode="&#xe4;" horiz-adv-x="614" d="M208 -10Q133 -10 88 30T43 143Q43 219 98 255T265 295L347 298V430Q347 472 342 496T324 530T292 540Q257 540 244 505T231 377Q158 377 122 393T85 446Q85 483 114 506T193 540T301 550Q412 550 467 513T522 381V80Q522
53 527 38T546 16T582 10H586V0H348V90H346Q334 50 313 29T265 -1T208 -10ZM271 25Q294 25 311 44T338 96T347 166V288L309 286Q259 283 240 253T221 151Q221 106 226 79T243 38T271 25ZM415 619Q393 619 376 635T358 688Q358 726 375 741T415 757Q436 757 453
742T471 688Q471 651 454 635T415 619ZM203 619Q181 619 164 635T147 688Q147 726 164 741T203 757Q225 757 242 742T260 688Q260 651 243 635T203 619Z" />
<glyph unicode="&#xe5;" horiz-adv-x="614" d="M208 -10Q133 -10 88 30T43 143Q43 219 98 255T265 295L347 298V430Q347 472 342 496T324 530T292 540Q257 540 244 505T231 377Q158 377 122 393T85 446Q85 483 114 506T193 540T301 550Q412 550 467 513T522 381V80Q522
53 527 38T546 16T582 10H586V0H348V90H346Q334 50 313 29T265 -1T208 -10ZM271 25Q294 25 311 44T338 96T347 166V288L309 286Q259 283 240 253T221 151Q221 106 226 79T243 38T271 25ZM311 596Q261 596 226 624T191 705Q191 758 226 786T311 814Q361 814 396
786T431 705Q431 652 396 624T311 596ZM311 606Q359 606 389 631T419 705Q419 755 389 779T311 804Q263 804 233 780T203 705Q203 656 233 631T311 606Z" />
<glyph unicode="&#xe6;" horiz-adv-x="889" d="M214 -10Q160 -10 122 8T64 60T43 143Q43 219 98 255T265 295L347 298V430Q347 472 342 496T324 530T292 540Q257 540 244 505T231 377Q158 377 122 393T85 446Q85 483 114 506T193 540T301 550Q337 550 365 545T415
530T453 503Q482 526 520 538T606 550Q719 550 784 489T850 309V285H524Q524 184 538 122T582 31T660 3Q697 3 723 19T764 70T784 162Q806 158 818 145T830 109Q830 77 806 50T736 6T622 -10Q535 -10 477 24T390 121Q374 72 350 44T293 3T214 -10ZM277 13Q300 13
315 26T339 66T347 136V288L309 286Q276 284 257 270T230 227T221 151Q221 73 233 43T277 13ZM677 295Q677 387 671 440T649 517T605 540Q577 540 559 517T533 441T524 295H677Z" />
<glyph unicode="&#xe7;" horiz-adv-x="541" d="M300 -10Q224 -10 166 15T76 101T44 267Q44 375 77 436T169 524T300 550Q372 550 417 535T484 495T505 440Q505 421 495 401T453 365T360 350Q360 423 354 464T335 522T297 540Q268 540 252 515T228 431T221 268Q221
169 231 111T267 27T334 2Q368 2 396 17T443 67T469 159Q486 154 495 140T505 105Q505 80 484 53T418 8T300 -10ZM270 -240Q254 -240 226 -237T179 -229V-219Q193 -222 205 -224T229 -226Q270 -226 291 -200T313 -132Q313 -107 305 -93T283 -71T252 -62L268 9H278L264
-54Q338 -54 377 -76T416 -142Q416 -188 378 -214T270 -240Z" />
<glyph unicode="&#xe8;" horiz-adv-x="586" d="M318 -10Q182 -10 113 62T44 266Q44 407 111 478T302 550Q416 550 481 489T547 309V285H220Q221 184 234 122T278 31T356 3Q393 3 419 19T461 70T480 162Q503 158 515 145T527 109Q527 77 503 50T432 6T318 -10ZM373
295Q373 387 367 440T346 517T302 540Q274 540 256 517T230 441T220 295H373ZM365 605Q339 620 307 640T242 681T183 723T143 756V766H282Q294 744 310 717T343 663T375 615V605H365Z" />
<glyph unicode="&#xe9;" horiz-adv-x="586" d="M318 -10Q182 -10 113 62T44 266Q44 407 111 478T302 550Q416 550 481 489T547 309V285H220Q221 184 234 122T278 31T356 3Q393 3 419 19T461 70T480 162Q503 158 515 145T527 109Q527 77 503 50T432 6T318 -10ZM373
295Q373 387 367 440T346 517T302 540Q274 540 256 517T230 441T220 295H373ZM259 615Q274 636 291 662T324 716T352 766H491V756Q478 743 451 723T392 682T327 640T269 605H259V615Z" />
<glyph unicode="&#xea;" horiz-adv-x="586" d="M318 -10Q182 -10 113 62T44 266Q44 407 111 478T302 550Q416 550 481 489T547 309V285H220Q221 184 234 122T278 31T356 3Q393 3 419 19T461 70T480 162Q503 158 515 145T527 109Q527 77 503 50T432 6T318 -10ZM373
295Q373 387 367 440T346 517T302 540Q274 540 256 517T230 441T220 295H373ZM125 616Q147 635 171 661T217 716T256 766H370Q386 744 408 716T455 662T501 616V606H491Q466 619 433 636T368 671T313 704Q290 690 259 672T194 636T135 606H125V616Z" />
<glyph unicode="&#xeb;" horiz-adv-x="586" d="M318 -10Q182 -10 113 62T44 266Q44 407 111 478T302 550Q416 550 481 489T547 309V285H220Q221 184 234 122T278 31T356 3Q393 3 419 19T461 70T480 162Q503 158 515 145T527 109Q527 77 503 50T432 6T318 -10ZM373
295Q373 387 367 440T346 517T302 540Q274 540 256 517T230 441T220 295H373ZM417 619Q395 619 378 635T360 688Q360 726 377 741T417 757Q438 757 455 742T473 688Q473 651 456 635T417 619ZM205 619Q183 619 166 635T149 688Q149 726 166 741T205 757Q227 757
244 742T262 688Q262 651 245 635T205 619Z" />
<glyph unicode="&#xec;" horiz-adv-x="365" d="M14 0V10H26Q43 10 58 16T83 37T93 80V462Q93 488 83 501T58 520T26 526H10V536H268V78Q268 51 277 36T302 16T334 10H346V0H14ZM483 605Q457 620 425 640T360 681T301 723T261 756V766H400Q412 744 428 717T461
663T493 615V605H483Z" />
<glyph unicode="&#xed;" horiz-adv-x="365" d="M14 0V10H26Q43 10 58 16T83 37T93 80V462Q93 488 83 501T58 520T26 526H10V536H268V78Q268 51 277 36T302 16T334 10H346V0H14ZM118 615Q133 636 150 662T183 716T211 766H350V756Q337 743 310 723T251 682T186
640T128 605H118V615Z" />
<glyph unicode="&#xee;" horiz-adv-x="365" d="M14 0V10H26Q43 10 58 16T83 37T93 80V462Q93 488 83 501T58 520T26 526H10V536H268V78Q268 51 277 36T302 16T334 10H346V0H14ZM232 616Q254 635 278 661T324 716T363 766H477Q493 744 515 716T562 662T608 616V606H598Q573
619 540 636T475 671T420 704Q397 690 366 672T301 636T242 606H232V616Z" />
<glyph unicode="&#xef;" horiz-adv-x="365" d="M14 0V10H26Q43 10 58 16T83 37T93 80V462Q93 488 83 501T58 520T26 526H10V536H268V78Q268 51 277 36T302 16T334 10H346V0H14ZM526 619Q504 619 487 635T469 688Q469 726 486 741T526 757Q547 757 564 742T582
688Q582 651 565 635T526 619ZM314 619Q292 619 275 635T258 688Q258 726 275 741T314 757Q336 757 353 742T371 688Q371 651 354 635T314 619Z" />
<glyph unicode="&#xf0;" horiz-adv-x="628" d="M311 -10Q228 -10 168 19T76 108T44 257Q44 347 72 406T155 494T287 524Q312 524 333 520T370 507T399 480Q389 534 371 577T326 653L168 576V586L320 661Q288 701 243 723T139 751V761Q206 756 265 737T375 687L469
733V723L384 681Q478 620 531 520T584 291Q584 190 553 123T461 23T311 -10ZM314 0Q350 0 370 23T398 103T407 256Q407 351 398 407T369 488T314 513Q279 513 259 489T231 409T222 256Q222 159 230 103T259 24T314 0Z" />
<glyph unicode="&#xf1;" horiz-adv-x="676" d="M15 0V10H23Q42 10 58 14T83 33T93 76V464Q93 491 84 504T59 521T26 526H18V536H267V442H269Q280 482 300 506T350 540T417 550Q501 550 543 505T585 358V80Q585 50 591 35T611 15T647 10H651V0H410V383Q410 447
396 478T346 510Q317 510 300 486T275 423T268 336V74Q268 47 277 34T301 15T335 10H343V0H15ZM408 606Q380 606 354 617T304 642T256 668T204 679Q166 679 150 658T131 616H121Q124 661 139 697T181 754T246 776Q275 776 300 765T351 740T400 714T450 703Q487
703 503 724T523 766H533Q531 722 516 685T474 627T408 606Z" />
<glyph unicode="&#xf2;" horiz-adv-x="628" d="M312 -10Q187 -10 116 60T44 271Q44 412 112 481T315 550Q440 550 512 481T584 271Q584 130 515 60T312 -10ZM314 0Q349 0 368 25T397 109T406 271Q406 372 397 430T368 514T313 540Q279 540 260 515T231 431T222
271Q222 169 231 110T259 25T314 0ZM346 605Q320 620 288 640T223 681T164 723T124 756V766H263Q275 744 291 717T324 663T356 615V605H346Z" />
<glyph unicode="&#xf3;" horiz-adv-x="628" d="M312 -10Q187 -10 116 60T44 271Q44 412 112 481T315 550Q440 550 512 481T584 271Q584 130 515 60T312 -10ZM314 0Q349 0 368 25T397 109T406 271Q406 372 397 430T368 514T313 540Q279 540 260 515T231 431T222
271Q222 169 231 110T259 25T314 0ZM272 615Q287 636 304 662T337 716T365 766H504V756Q491 743 464 723T405 682T340 640T282 605H272V615Z" />
<glyph unicode="&#xf4;" horiz-adv-x="628" d="M312 -10Q187 -10 116 60T44 271Q44 412 112 481T315 550Q440 550 512 481T584 271Q584 130 515 60T312 -10ZM314 0Q349 0 368 25T397 109T406 271Q406 372 397 430T368 514T313 540Q279 540 260 515T231 431T222
271Q222 169 231 110T259 25T314 0ZM125 616Q147 635 171 661T217 716T256 766H370Q386 744 408 716T455 662T501 616V606H491Q466 619 433 636T368 671T313 704Q290 690 259 672T194 636T135 606H125V616Z" />
<glyph unicode="&#xf5;" horiz-adv-x="628" d="M312 -10Q187 -10 116 60T44 271Q44 412 112 481T315 550Q440 550 512 481T584 271Q584 130 515 60T312 -10ZM314 0Q349 0 368 25T397 109T406 271Q406 372 397 430T368 514T313 540Q279 540 260 515T231 431T222
271Q222 169 231 110T259 25T314 0ZM392 606Q364 606 338 617T288 642T240 668T188 679Q150 679 134 658T115 616H105Q108 661 123 697T165 754T230 776Q259 776 284 765T335 740T384 714T434 703Q471 703 487 724T507 766H517Q515 722 500 685T458 627T392 606Z"
/>
<glyph unicode="&#xf6;" horiz-adv-x="628" d="M312 -10Q187 -10 116 60T44 271Q44 412 112 481T315 550Q440 550 512 481T584 271Q584 130 515 60T312 -10ZM314 0Q349 0 368 25T397 109T406 271Q406 372 397 430T368 514T313 540Q279 540 260 515T231 431T222
271Q222 169 231 110T259 25T314 0ZM419 619Q397 619 380 635T362 688Q362 726 379 741T419 757Q440 757 457 742T475 688Q475 651 458 635T419 619ZM207 619Q185 619 168 635T151 688Q151 726 168 741T207 757Q229 757 246 742T264 688Q264 651 247 635T207 619Z"
/>
<glyph unicode="&#xf7;" horiz-adv-x="559" d="M65 347V367H494V347H65ZM280 144Q263 144 251 153T239 186Q239 211 251 220T280 229Q297 229 309 220T321 186Q321 163 309 154T280 144ZM280 486Q263 486 251 495T239 529Q239 553 251 562T280 571Q297 571 309
562T321 529Q321 505 309 496T280 486Z" />
<glyph unicode="&#xf8;" horiz-adv-x="628" d="M160 25Q105 58 75 119T44 271Q44 412 112 481T315 550Q359 550 395 542T463 517L499 576H511L472 512Q526 480 555 420T584 271Q584 130 515 60T312 -10Q228 -10 169 21L131 -40H119L160 25ZM314 0Q349 0 368 25T397
109T406 271Q406 308 405 339T401 396L230 120Q239 54 259 27T314 0ZM399 413Q390 483 370 511T313 540Q279 540 260 515T231 431T222 271Q222 190 228 136L399 413Z" />
<glyph unicode="&#xf9;" horiz-adv-x="680" d="M259 -10Q175 -10 133 35T91 182V456Q91 487 85 501T65 521T30 526H27V536H267V157Q267 114 272 86T292 44T330 30Q360 30 377 54T400 117T407 204V462Q407 489 399 503T375 521T341 526H337V536H583V72Q583 46 592
33T616 15T650 10H654V0H408V98H406Q399 68 386 47T354 14T311 -4T259 -10ZM354 605Q328 620 296 640T231 681T172 723T132 756V766H271Q283 744 299 717T332 663T364 615V605H354Z" />
<glyph unicode="&#xfa;" horiz-adv-x="680" d="M259 -10Q175 -10 133 35T91 182V456Q91 487 85 501T65 521T30 526H27V536H267V157Q267 114 272 86T292 44T330 30Q360 30 377 54T400 117T407 204V462Q407 489 399 503T375 521T341 526H337V536H583V72Q583 46 592
33T616 15T650 10H654V0H408V98H406Q399 68 386 47T354 14T311 -4T259 -10ZM282 615Q297 636 314 662T347 716T375 766H514V756Q501 743 474 723T415 682T350 640T292 605H282V615Z" />
<glyph unicode="&#xfb;" horiz-adv-x="680" d="M259 -10Q175 -10 133 35T91 182V456Q91 487 85 501T65 521T30 526H27V536H267V157Q267 114 272 86T292 44T330 30Q360 30 377 54T400 117T407 204V462Q407 489 399 503T375 521T341 526H337V536H583V72Q583 46 592
33T616 15T650 10H654V0H408V98H406Q399 68 386 47T354 14T311 -4T259 -10ZM136 616Q158 635 182 661T228 716T267 766H381Q397 744 419 716T466 662T512 616V606H502Q477 619 444 636T379 671T324 704Q301 690 270 672T205 636T146 606H136V616Z" />
<glyph unicode="&#xfc;" horiz-adv-x="680" d="M259 -10Q175 -10 133 35T91 182V456Q91 487 85 501T65 521T30 526H27V536H267V157Q267 114 272 86T292 44T330 30Q360 30 377 54T400 117T407 204V462Q407 489 399 503T375 521T341 526H337V536H583V72Q583 46 592
33T616 15T650 10H654V0H408V98H406Q399 68 386 47T354 14T311 -4T259 -10ZM433 619Q411 619 394 635T376 688Q376 726 393 741T433 757Q454 757 471 742T489 688Q489 651 472 635T433 619ZM221 619Q199 619 182 635T165 688Q165 726 182 741T221 757Q243 757 260
742T278 688Q278 651 261 635T221 619Z" />
<glyph unicode="&#xfd;" horiz-adv-x="584" d="M24 -220Q91 -220 134 -211T205 -181T254 -127T298 -44L53 480Q46 498 39 508T23 522T2 526H-2V536H305L306 526H290Q260 526 246 519T232 495Q232 486 235 475T244 450L335 244Q341 230 346 217T356 194T365 174T375
152Q383 174 390 193T404 231L483 435Q490 452 493 465T496 488Q496 509 481 517T432 526H390V536H592V526H590Q568 526 552 519T524 495T499 448L325 -4Q298 -73 274 -117T218 -186T144 -220T37 -230H24V-220ZM245 615Q260 636 277 662T310 716T338 766H477V756Q464
743 437 723T378 682T313 640T255 605H245V615Z" />
<glyph unicode="&#xfe;" horiz-adv-x="658" d="M11 -230V-220H20Q36 -220 52 -215T80 -196T91 -152V686Q91 712 83 726T60 745T28 750H25V760H267V515Q267 497 267 479T267 443T266 405H268Q280 479 319 514T420 549Q514 549 563 480T613 271Q613 129 563 60T414
-10Q352 -10 317 24T268 134H266Q267 114 267 92T267 48T267 3V-152Q267 -182 278 -196T306 -215T338 -220H362V-230H11ZM358 19Q385 19 402 48T428 136T437 278Q437 354 428 406T402 486T358 513Q329 513 309 486T278 405T267 277Q267 193 278 136T309 49T358
19Z" />
<glyph unicode="&#xff;" horiz-adv-x="584" d="M24 -220Q91 -220 134 -211T205 -181T254 -127T298 -44L53 480Q46 498 39 508T23 522T2 526H-2V536H305L306 526H290Q260 526 246 519T232 495Q232 486 235 475T244 450L335 244Q341 230 346 217T356 194T365 174T375
152Q383 174 390 193T404 231L483 435Q490 452 493 465T496 488Q496 509 481 517T432 526H390V536H592V526H590Q568 526 552 519T524 495T499 448L325 -4Q298 -73 274 -117T218 -186T144 -220T37 -230H24V-220ZM414 619Q392 619 375 635T357 688Q357 726 374 741T414
757Q435 757 452 742T470 688Q470 651 453 635T414 619ZM202 619Q180 619 163 635T146 688Q146 726 163 741T202 757Q224 757 241 742T259 688Q259 651 242 635T202 619Z" />
<glyph unicode="&#x2013;" horiz-adv-x="500" d="M-5 259V279H505V259H-5Z" />
<glyph unicode="&#x2014;" horiz-adv-x="1000" d="M-5 259V279H1005V259H-5Z" />
<glyph unicode="&#x2018;" horiz-adv-x="292" d="M150 398Q105 398 81 430T56 516Q56 581 98 634T241 713V703Q214 695 189 683T149 653T133 606Q133 582 143 571T167 553T195 539T219 517T229 477Q229 437 207 418T150 398Z" />
<glyph unicode="&#x2019;" horiz-adv-x="292" d="M51 409Q79 419 103 430T143 459T159 506Q159 530 149 541T125 559T97 573T73 595T63 635Q63 676 86 695T142 714Q187 714 211 682T236 596Q236 531 194 478T51 399V409Z" />
<glyph unicode="&#x201a;" horiz-adv-x="312" d="M51 -144Q79 -134 103 -123T143 -93T159 -46Q159 -23 149 -12T125 6T97 20T73 42T63 83Q63 123 86 142T142 161Q187 161 211 129T236 44Q236 -21 194 -74T51 -154V-144Z" />
<glyph unicode="&#x201c;" horiz-adv-x="505" d="M363 398Q318 398 294 430T269 516Q269 581 311 634T454 713V703Q426 695 402 683T362 653T346 606Q346 582 355 571T379 553T408 539T432 517T442 477Q442 437 420 418T363 398ZM150 398Q105 398 81 430T56 516Q56
581 98 634T241 713V703Q214 695 189 683T149 653T133 606Q133 582 143 571T167 553T195 539T219 517T229 477Q229 437 207 418T150 398Z" />
<glyph unicode="&#x201d;" horiz-adv-x="505" d="M51 409Q79 419 103 430T143 459T159 506Q159 530 149 541T125 559T97 573T73 595T63 635Q63 676 86 695T142 714Q187 714 211 682T236 596Q236 531 194 478T51 399V409ZM264 409Q292 419 316 430T356 459T372
506Q372 530 362 541T338 559T310 573T286 595T276 635Q276 676 299 695T355 714Q400 714 424 682T449 596Q449 531 407 478T264 399V409Z" />
<glyph unicode="&#x201e;" horiz-adv-x="505" d="M51 -144Q79 -134 103 -123T143 -93T159 -46Q159 -23 149 -12T125 6T97 20T73 42T63 83Q63 123 86 142T142 161Q187 161 211 129T236 44Q236 -21 194 -74T51 -154V-144ZM264 -144Q292 -134 316 -123T356 -93T372
-46Q372 -23 362 -12T338 6T310 20T286 42T276 83Q276 123 299 142T355 161Q400 161 424 129T449 44Q449 -21 407 -74T264 -154V-144Z" />
<glyph unicode="&#x2022;" horiz-adv-x="415" d="M208 193Q171 193 142 208T96 259T79 356Q79 418 95 453T141 504T208 519Q243 519 272 504T318 454T336 356Q336 295 319 259T272 208T208 193Z" />
<glyph unicode="&#x2039;" horiz-adv-x="361" d="M281 66L54 265V275L281 474H296L195 270L296 66H281Z" />
<glyph unicode="&#x203a;" horiz-adv-x="361" d="M64 66L165 270L64 474H79L307 275V265L79 66H64Z" />
</font>
</defs>
</svg>
