<?xml version="1.0" standalone="no"?>
<!DOCTYPE svg PUBLIC "-//W3C//DTD SVG 1.1//EN" "http://www.w3.org/Graphics/SVG/1.1/DTD/svg11.dtd">
<svg xmlns="http://www.w3.org/2000/svg">
<defs >
<font id="NotoSerifDisplay" horiz-adv-x="592" ><font-face
    font-family="Noto Serif Display ExtraBold"
    units-per-em="1000"
    panose-1="2 2 5 2 8 5 5 9 2 4"
    ascent="1069"
    descent="-293"
    alphabetic="0" />
<glyph unicode=" " horiz-adv-x="250" />
<glyph unicode="!" horiz-adv-x="421" d="M191 239L214 714H411L206 239H191ZM167 -8Q134 -8 114 9T94 61Q94 107 119 135T186 164Q218 164 238 147T259 94Q259 60 246 37T213 3T167 -8Z" />
<glyph unicode="&quot;" horiz-adv-x="416" d="M148 479L125 714H288L164 479H148ZM341 479L318 714H481L357 479H341Z" />
<glyph unicode="#" horiz-adv-x="559" d="M69 0L138 234H22V244H140L216 498H99V508H218L278 714H288L228 508H439L499 714H509L449 508H580V498H447L371 244H503V234H369L300 0H290L359 234H148L79 0H69ZM150 244H361L437 498H226L150 244Z" />
<glyph unicode="$" horiz-adv-x="559" d="M234 38Q173 39 125 54T48 98T20 172Q20 200 33 221T73 253T145 265Q145 193 154 146T183 74T236 48L284 294L236 321Q194 346 165 370T121 425T106 499Q106 559 137 601T225 665T362 688L377 760H387L372 688Q425 687
468 673T536 635T561 575Q561 537 535 514T435 490Q435 549 430 588T411 650T370 678L325 447L358 429Q417 397 450 368T495 306T508 230Q508 171 477 128T387 61T244 38L221 -79H211L234 38ZM246 48Q287 49 316 61T361 102T377 175Q377 194 370 212T345 250T294
289L246 48ZM360 678Q334 678 307 666T262 626T244 549Q244 528 252 511T276 479T316 452L360 678Z" />
<glyph unicode="%" horiz-adv-x="928" d="M229 0L723 714H734L241 0H229ZM226 279Q156 279 115 320T74 447Q74 487 86 534T124 625T196 697T311 725Q390 725 426 680T462 561Q462 531 455 494T430 419T386 349T319 298T226 279ZM234 289Q254 289 271 306T303 354T327
425T342 511T347 605Q347 665 338 690T309 715Q287 715 269 695T236 641T211 565T196 479T191 394Q191 344 201 317T234 289ZM657 -9Q587 -9 546 32T505 158Q505 198 516 246T555 337T628 408T742 436Q821 436 857 392T893 272Q893 242 886 205T862 130T818 61T751
10T657 -9ZM666 1Q686 1 703 18T734 66T758 137T773 223T778 317Q778 376 769 401T740 427Q718 427 700 407T667 353T643 277T628 191T623 106Q623 57 632 29T666 1Z" />
<glyph unicode="&amp;" horiz-adv-x="821" d="M286 -10Q197 -10 142 13T60 77T33 174Q33 236 64 277T148 344T269 383Q242 426 225 463T208 549Q208 608 237 647T318 705T434 724Q496 724 536 707T597 661T618 594Q618 554 597 525T532 472T415 428L552 248Q565
282 575 319T592 390L600 428H812L811 418H791Q767 418 753 414T729 399T706 364Q671 303 647 260T601 184L695 62Q721 29 732 20T756 10H761L759 0H545L499 64Q465 36 413 13T286 -10ZM304 0Q359 0 400 31T467 109L274 373Q250 356 234 330T209 268T201 181Q201
113 212 73T246 17T304 0ZM410 436Q445 457 463 483T488 540T495 602Q495 663 481 688T433 714Q397 714 376 686T355 592Q355 552 363 525T383 477T410 436Z" />
<glyph unicode="&apos;" horiz-adv-x="223" d="M148 479L125 714H288L164 479H148Z" />
<glyph unicode="(" horiz-adv-x="422" d="M295 -143Q207 -115 152 -62T72 64T46 227Q46 321 71 409T151 573T288 701T486 777L485 768Q423 733 379 676T304 550T256 410T230 278T222 175Q222 86 231 26T257 -72T296 -134L295 -143Z" />
<glyph unicode=")" horiz-adv-x="422" d="M-42 -132Q19 -98 64 -41T139 86T187 226T213 358T221 461Q221 551 212 610T187 708T147 770L148 779Q236 751 291 698T371 572T397 409Q397 315 372 227T292 63T155 -65T-43 -141L-42 -132Z" />
<glyph unicode="*" horiz-adv-x="604" d="M383 353L265 377L352 547L167 453L140 568L344 564L155 639L225 738L357 577L345 766L464 742L375 574L559 667L586 551L381 557L572 481L502 385L369 543L383 353Z" />
<glyph unicode="+" horiz-adv-x="559" d="M288 143V347H84V367H288V572H308V367H513V347H308V143H288Z" />
<glyph unicode="," horiz-adv-x="308" d="M-16 -143Q21 -134 51 -121T100 -88T119 -36Q119 -12 109 1T85 25T61 49T51 90Q51 124 71 143T126 163Q165 163 188 139T211 69Q211 15 186 -29T110 -105T-19 -153L-16 -143Z" />
<glyph unicode="-" horiz-adv-x="310" d="M24 267L29 287H289L284 267H24Z" />
<glyph unicode="." horiz-adv-x="308" d="M110 -8Q78 -8 58 9T37 61Q37 107 62 135T129 164Q161 164 181 147T202 94Q202 60 190 37T156 3T110 -8Z" />
<glyph unicode="/" horiz-adv-x="264" d="M-78 -121L354 760H364L-68 -121H-78Z" />
<glyph unicode="0" horiz-adv-x="564" d="M249 -11Q151 -11 95 56T39 262Q39 317 49 380T83 504T144 615T235 696T361 726Q418 726 464 701T538 620T566 474Q566 417 556 351T522 221T463 105T373 21T249 -11ZM244 -1Q271 -1 295 21T338 85T374 180T401 297T417
428T423 563Q423 625 417 657T398 702T363 715Q333 715 305 681T254 589T214 458T188 305T178 148Q178 88 186 56T209 11T244 -1Z" />
<glyph unicode="1" horiz-adv-x="564" d="M42 0L44 10H106Q129 10 145 15T173 34T189 72L271 465Q276 487 283 518T299 580T313 633H310Q280 586 255 558T206 519T160 507Q137 507 123 528T109 589Q162 589 199 597T266 621T332 662L412 718H493L357 78Q356 72
353 60T350 40Q350 20 368 15T426 10H474L472 0H42Z" />
<glyph unicode="2" horiz-adv-x="564" d="M-21 0L-1 105L168 237Q237 290 283 338T355 432T392 527T404 630Q404 674 391 694T346 714Q325 714 308 704T278 669T256 598T243 481Q186 481 149 504T112 576Q112 617 139 650T219 704T352 724Q462 724 518 682T575
577Q575 532 555 495T493 421T386 342L39 122H416Q440 122 455 127T481 144T497 178L512 226H522L468 0H-21Z" />
<glyph unicode="3" horiz-adv-x="564" d="M214 -10Q133 -10 86 9T17 58T-4 118Q-4 158 28 182T122 207Q123 128 132 83T163 19T221 0Q245 0 268 11T309 49T339 120T351 231Q351 298 324 332T240 366H166L168 376H222Q264 376 297 390T354 434T391 510T404 621Q404
668 391 691T347 714Q316 714 294 696T258 632T233 510Q176 510 140 526T104 579Q104 622 136 654T226 705T360 724Q460 724 516 685T573 578Q573 523 550 486T485 426T390 390T279 372Q365 368 419 348T497 295T522 213Q522 160 501 119T439 49T341 5T214 -10Z"
/>
<glyph unicode="4" horiz-adv-x="564" d="M133 0L135 10H166Q190 10 207 16T235 38T253 82L352 527Q361 567 370 608T394 700Q377 677 360 655T324 610T289 566L33 245L32 252H552L538 182H10L26 252L393 714H555L421 84Q420 78 419 67T417 50Q417 25 434 18T480
10H497L494 0H133Z" />
<glyph unicode="5" horiz-adv-x="564" d="M195 -10Q124 -10 81 7T17 52T-4 114Q-4 149 20 175T96 201Q96 144 103 99T133 27T199 0Q232 0 258 18T302 71T329 152T338 256Q338 315 326 350T291 402T233 418Q205 418 171 404T102 354L94 358L200 714H568L539 519H530Q531
532 532 547T533 568Q533 580 528 587T504 594H175L110 374Q133 398 161 411T220 431T280 437Q347 437 398 415T477 352T506 249Q506 194 486 147T425 65T327 10T195 -10Z" />
<glyph unicode="6" horiz-adv-x="564" d="M272 -10Q209 -10 157 16T75 100T45 249Q45 310 57 376T95 505T164 616T268 695T413 724Q502 724 552 692T603 616Q603 574 567 551T463 527Q463 593 461 634T447 695T410 714Q384 714 361 701T317 652T273 554T228 390Q251
408 286 424T373 441Q431 441 468 420T525 360T544 268Q544 222 530 173T484 83T400 16T272 -10ZM279 0Q301 0 320 19T353 76T375 172T383 303Q383 343 376 369T355 407T315 419Q292 419 268 407T226 378Q220 349 215 313T208 241T205 171Q205 106 213 69T238 16T279
0Z" />
<glyph unicode="7" horiz-adv-x="564" d="M98 0L561 594H180Q153 594 136 584T111 543L97 493H87L134 714H618L605 643L190 0H98Z" />
<glyph unicode="8" horiz-adv-x="564" d="M254 -10Q138 -10 74 38T10 162Q10 214 33 250T104 311T224 348Q193 370 167 395T125 454T109 532Q109 584 135 627T218 697T370 724Q470 724 526 683T582 576Q582 527 560 493T492 437T381 402Q422 380 458 354T516 291T538
204Q538 139 504 91T407 17T254 -10ZM261 0Q294 0 321 17T366 68T383 154Q383 200 361 233T305 293T233 341Q206 319 189 291T164 229T156 149Q156 96 170 64T209 16T261 0ZM371 409Q400 431 420 479T441 596Q441 641 431 666T403 703T360 714Q326 714 305 696T272
647T261 576Q261 527 277 497T318 447T371 409Z" />
<glyph unicode="9" horiz-adv-x="564" d="M178 -10Q119 -10 82 4T27 43T9 98Q9 133 32 152T95 172Q96 110 103 72T129 17T181 0Q218 0 247 24T300 92T343 200T381 342Q360 316 325 296T237 275Q156 275 111 323T65 454Q65 499 79 546T126 634T210 699T336 724Q405
724 455 699T533 619T561 477Q561 422 550 357T514 227T444 108T334 22T178 -10ZM292 301Q322 301 345 320T385 363Q391 390 394 423T400 491T402 560Q402 618 396 651T376 699T338 714Q307 714 285 686T250 612T230 513T223 408Q223 368 231 344T255 311T292 301Z"
/>
<glyph unicode=":" horiz-adv-x="387" d="M135 -8Q103 -8 83 9T62 61Q62 107 87 135T154 164Q186 164 206 147T227 94Q227 60 215 37T181 3T135 -8ZM214 369Q182 369 162 386T141 439Q141 484 167 512T233 541Q265 541 286 525T307 471Q307 437 294 414T260 380T214 369Z" />
<glyph unicode=";" horiz-adv-x="387" d="M-11 -143Q24 -134 55 -121T106 -87T125 -41Q125 -17 114 -5T89 18T63 44T52 89Q52 123 74 143T131 163Q169 163 194 139T219 69Q219 17 193 -27T115 -105T-14 -153L-11 -143ZM218 369Q186 369 166 386T145 439Q145 484
170 512T237 541Q269 541 289 525T310 471Q310 437 298 414T264 380T218 369Z" />
<glyph unicode="&lt;" horiz-adv-x="559" d="M488 119L59 347V367L488 595V572L81 357L488 142V119Z" />
<glyph unicode="=" horiz-adv-x="559" d="M87 455V475H510V455H87ZM87 239V259H510V239H87Z" />
<glyph unicode="&gt;" horiz-adv-x="559" d="M108 119V142L515 357L108 572V595L537 367V347L108 119Z" />
<glyph unicode="?" horiz-adv-x="549" d="M195 349Q249 358 285 379T344 434T376 513T386 613Q386 647 379 669T360 703T330 714Q303 714 284 696T255 635T240 511Q167 511 132 532T96 595Q96 633 125 662T209 707T338 724Q447 724 506 683T565 566Q565 506 532
463T441 393T305 352L239 239H228L195 349ZM211 -8Q179 -8 159 9T138 61Q138 107 164 135T230 164Q262 164 283 147T304 94Q304 60 291 37T257 3T211 -8Z" />
<glyph unicode="@" horiz-adv-x="921" d="M425 -142Q317 -142 233 -102T100 18T51 223Q51 327 86 416T186 572T339 676T535 714Q650 714 727 672T843 555T882 385Q882 317 864 261T814 163T743 100T661 77Q640 77 618 82T576 103T545 146T532 218H530Q516 167
495 136T445 91T385 77Q327 77 288 117T248 234Q248 279 263 330T308 426T385 500T496 529Q537 529 555 517T586 484L689 520H701L650 266Q644 241 639 209T633 147Q633 118 642 103T671 87Q700 87 724 113T765 184T791 285T801 403Q801 508 773 574T688 672T551
704Q461 704 388 667T261 563T180 405T151 203Q151 119 168 57T221 -47T310 -110T434 -131Q508 -131 578 -108T721 -34L728 -43Q681 -77 632 -99T532 -131T425 -142ZM428 100Q445 100 464 118T501 170T527 251L571 479Q569 491 553 504T513 518Q488 518 467 497T430
440T403 364T387 280T381 204Q381 152 394 126T428 100Z" />
<glyph unicode="A" horiz-adv-x="765" d="M-57 0L-55 10H-13Q5 10 21 16T53 39T87 88L426 714H552L637 91Q642 57 648 40T666 16T699 10H705L703 0H349L351 10H387Q420 10 438 19T457 48Q457 56 457 64T455 80L412 505Q409 535 407 559T403 604T400 648Q393 633
386 619T370 589T351 555T329 514L106 102Q91 74 86 60T80 35Q80 21 94 16T141 10H190L188 0H-57ZM189 263L190 273H539V263H189Z" />
<glyph unicode="B" horiz-adv-x="694" d="M-31 0L-28 10H-15Q16 10 41 19T75 65L194 638Q196 649 198 659T201 672Q201 693 182 698T129 704H116L118 714H449Q570 714 629 676T688 561Q688 509 661 470T578 407T433 379L432 376Q504 372 551 352T622 297T646 213Q646
165 628 126T574 59T482 15T353 0H-31ZM300 10Q344 10 375 30T425 84T454 160T464 249Q464 315 436 343T358 372H320L243 10H300ZM360 382Q399 382 426 400T471 448T497 516T506 596Q506 648 485 676T415 704H388L322 382H360Z" />
<glyph unicode="C" horiz-adv-x="685" d="M369 -10Q272 -10 204 23T101 120T65 281Q65 339 80 401T128 522T213 627T339 702T514 730Q622 730 672 698T723 615Q723 563 678 538T565 512Q565 566 563 605T553 669T529 706T486 719Q447 719 412 694T348 626T298
525T266 403T254 270Q254 171 272 113T326 29T415 4Q470 4 503 25T557 84T597 173Q606 172 614 161T622 138Q622 102 593 68T507 12T369 -10Z" />
<glyph unicode="D" horiz-adv-x="792" d="M-33 0L-30 10H-15Q15 10 41 19T74 65L193 630Q195 645 198 655T201 672Q201 692 182 698T129 704H116L118 714H454Q607 714 686 644T765 439Q765 376 750 314T703 195T619 94T491 25T316 0H-33ZM272 10Q340 10 390 39T475
119T531 232T563 363T573 495Q573 571 556 617T505 683T416 704H387L242 10H272Z" />
<glyph unicode="E" horiz-adv-x="644" d="M-31 0L-29 10H-16Q15 10 41 20T74 67L196 643Q198 651 199 658T201 671Q201 691 181 697T129 704H116L118 714H677L641 524H631Q634 539 635 550T638 572T639 593Q639 623 627 648T592 688T534 704H389L321 382H542L541
372H319L242 10H398Q442 10 473 23T526 56T559 99T578 140L596 190H606L558 0H-31Z" />
<glyph unicode="F" horiz-adv-x="621" d="M-31 0L-30 10H-17Q27 10 47 22T75 67L190 614Q193 627 194 637T196 656Q196 683 180 693T129 704H116L118 714H687L651 524H641Q645 545 647 561T649 583Q650 619 638 646T599 689T533 704H390L317 356H553L551 346H315L255
72Q254 66 253 61T252 51Q252 28 271 19T332 10H349L346 0H-31Z" />
<glyph unicode="G" horiz-adv-x="820" d="M377 -10Q223 -10 144 64T64 275Q64 336 79 399T126 520T211 624T339 697T514 724Q592 724 642 714T722 687T762 648T774 601Q774 563 753 542T696 511T615 502Q615 582 608 628T579 694T513 714Q471 714 435 694T370
639T319 555T282 452T259 338T251 220Q251 143 266 95T313 24T392 1Q406 1 422 3T451 8L506 263Q509 277 511 286T513 299Q513 319 494 325T441 331H426L428 341H788L787 331H782Q760 331 741 327T708 311T688 274L637 36Q573 13 508 2T377 -10Z" />
<glyph unicode="H" horiz-adv-x="826" d="M-31 0L-29 10H-16Q15 10 41 19T74 65L194 633Q197 650 199 660T201 673Q201 683 197 689T177 700T130 704H116L118 714H477L475 704H462Q432 704 408 695T376 647L321 378H555L611 640Q614 654 615 662T617 674Q617 687
606 695T552 704H539L541 714H900L898 704H885Q853 704 827 694T791 644L672 75Q668 61 667 53T666 42Q666 34 671 27T691 15T738 10H751L749 0H390L393 10H406Q434 10 458 20T491 72L555 368H320L255 69Q253 60 252 53T250 42Q250 25 263 18T315 10H328L326 0H-31Z"
/>
<glyph unicode="I" horiz-adv-x="413" d="M-31 0L-28 10H-15Q16 10 42 19T75 65L196 636Q200 652 200 660T201 672Q201 693 181 698T129 704H116L119 714H486L483 704H470Q437 704 411 694T376 644L260 89Q257 73 254 62T251 42Q251 21 272 16T325 10H338L335 0H-31Z" />
<glyph unicode="J" horiz-adv-x="419" d="M-69 -240Q-98 -240 -118 -237T-159 -229L-156 -219Q-142 -223 -124 -225T-91 -228Q-56 -228 -28 -213T23 -157T60 -43L206 651Q207 656 208 662T210 672Q210 693 190 698T138 704H125L128 714H494L492 704H479Q445 704
419 695T384 647L250 -1Q231 -90 184 -142T72 -217T-69 -240Z" />
<glyph unicode="K" horiz-adv-x="753" d="M-31 0L-29 10H-16Q4 10 23 13T56 29T74 65L194 636Q196 645 197 653T199 668Q200 690 185 697T129 704H116L118 714H477L475 704H462Q442 704 424 701T394 685T376 647L309 326L530 522Q589 573 618 604T648 663Q648
676 642 685T616 699T558 704L560 714H823L819 704Q798 704 782 701T750 691T717 670T676 636L425 414L483 472L625 125Q646 73 657 49T677 17T697 10H700L697 0H629Q577 0 542 9T482 37T441 86T409 157L339 347L402 395L306 311L255 68Q253 59 252 52T250 41Q250
21 271 16T324 10H337L335 0H-31Z" />
<glyph unicode="L" horiz-adv-x="656" d="M-32 0L-29 10H-8Q9 10 26 13T56 29T75 65L195 636Q198 648 199 657T201 672Q201 693 181 698T129 704H116L118 714H485L484 704H471Q438 704 411 695T377 652L243 10H413Q466 10 502 30T561 83T597 155L621 226H631L574 0H-32Z" />
<glyph unicode="M" horiz-adv-x="956" d="M-32 0L-30 10H14Q36 10 55 14T89 30T108 67L229 636Q232 653 233 660T235 672Q235 693 214 698T159 704H116L118 714H420L486 190L756 714H1029L1027 704H1014Q982 704 956 695T921 647L800 71Q799 60 798 53T796 42Q796
21 816 16T868 10H881L878 0H507L509 10H526Q558 10 578 15T609 34T624 70L751 680L400 0H341L249 680L119 74Q118 67 117 60T116 48Q116 22 140 16T215 10H223L221 0H-32Z" />
<glyph unicode="N" horiz-adv-x="793" d="M-32 0L-30 10H12Q35 10 54 13T88 29T106 65L228 636Q231 649 233 658T235 672Q235 693 214 698T159 704H116L118 714H390L624 172L722 640Q724 648 724 655T725 667Q725 688 708 696T655 704H624L626 714H878L876 704H829Q807
704 788 701T755 686T735 649L599 0H535L241 648L119 77Q117 64 116 56T115 43Q115 23 142 17T215 10H223L221 0H-32Z" />
<glyph unicode="O" horiz-adv-x="812" d="M368 -11Q276 -11 208 21T103 120T66 293Q66 338 78 395T119 510T197 617T318 695T491 725Q577 725 643 696T748 604T786 438Q786 401 779 354T753 256T703 158T625 72T516 12T368 -11ZM374 -1Q420 -1 457 30T521 113T567
229T594 362T603 494Q603 580 592 628T557 695T491 715Q442 715 404 684T337 599T289 482T261 349T252 220Q252 140 265 92T306 21T374 -1Z" />
<glyph unicode="P" horiz-adv-x="671" d="M-32 0L-30 10H-17Q14 10 40 19T73 65L195 636Q198 651 199 659T201 672Q201 693 181 698T129 704H116L118 714H418Q505 714 563 692T652 627T683 520Q683 489 676 455T648 388T592 329T499 287T359 271H299L256 76Q253
65 251 56T249 42Q249 21 269 16T319 10H352L350 0H-32ZM330 281Q376 281 408 308T459 378T487 473T496 571Q496 645 474 674T412 704H394L301 281H330Z" />
<glyph unicode="Q" horiz-adv-x="811" d="M492 -237Q450 -237 413 -226T345 -188T295 -115T272 -1Q210 14 164 51T93 151T68 302Q68 350 81 407T124 521T204 623T327 697T501 725Q581 725 646 696T750 601T788 431Q788 391 779 340T747 236T688 135T595 50T464
-1Q471 -72 481 -114T505 -178T534 -206T567 -213Q575 -213 581 -212T594 -210L596 -220Q567 -231 543 -234T492 -237ZM375 -1Q422 -1 459 26T523 100T569 210T597 342T606 485Q606 572 594 622T558 693T495 715Q450 715 413 691T346 623T296 520T265 387T254 230Q254
150 268 99T310 24T375 -1Z" />
<glyph unicode="R" horiz-adv-x="748" d="M-31 0L-29 10H-16Q5 10 23 14T56 32T76 74L195 636Q198 653 199 661T201 672Q201 693 181 698T129 704H116L119 714H463Q585 714 645 673T706 548Q706 499 688 463T642 404T581 366T518 345L602 128Q620 82 631 57T653
21T684 10H690L688 0H656Q585 0 536 9T457 47T410 135L355 340H312L258 87Q255 68 253 58T251 42Q251 21 272 16T324 10H357L354 0H-31ZM351 350Q401 350 436 374T490 445T509 563Q509 616 500 646T472 690T424 704H391L312 350H351Z" />
<glyph unicode="S" horiz-adv-x="603" d="M269 -10Q185 -10 129 9T45 61T17 137Q17 188 56 213T160 238Q160 159 172 106T213 27T291 0Q333 0 360 16T400 59T414 121Q414 162 400 188T356 237T276 287Q219 318 183 349T130 416T113 501Q113 548 130 587T182 658T267
706T383 724Q462 724 512 709T587 668T612 610Q612 566 580 541T473 516Q473 565 471 602T459 664T432 701T381 714Q344 714 316 699T273 656T258 591Q258 546 276 519T328 472T407 427Q458 401 490 373T538 310T554 230Q554 177 536 133T482 58T392 8T269 -10Z"
/>
<glyph unicode="T" horiz-adv-x="669" d="M103 0L104 10H111Q133 10 152 14T184 32T203 68L336 704H264Q226 704 191 689T129 645T88 573L68 512H58L106 714H751L715 512H705Q707 520 708 536T712 569T714 596Q714 652 684 678T598 704H519L385 78Q382 64 381
57T379 44Q379 24 400 17T453 10H460L458 0H103Z" />
<glyph unicode="U" horiz-adv-x="751" d="M348 -10Q228 -10 164 35T100 163Q100 179 103 207T111 252L190 618Q193 634 196 649T199 672Q199 693 180 698T129 704H116L117 714H486L484 704H471Q449 704 430 701T397 686T377 650L290 251Q286 230 283 210T277 172T275
136Q274 75 301 41T391 7Q453 7 500 31T578 103T625 222L714 642Q716 651 717 660T718 672Q718 693 698 698T647 704H624L626 714H844L841 704H818Q796 704 777 701T745 685T725 647L638 227Q621 146 586 94T493 16T348 -10Z" />
<glyph unicode="V" horiz-adv-x="713" d="M159 658Q155 689 143 696T107 704H95L97 714H451L449 704H412Q380 704 362 699T343 669Q343 661 343 651T345 634L384 268Q386 252 388 230T392 185T395 141T398 109Q405 123 414 142T435 183T456 224L655 619Q666 641
669 655T672 677Q672 695 658 699T613 704H558L560 714H811L808 704H764Q744 704 730 700T704 683T677 641L354 0H248L159 658Z" />
<glyph unicode="W" horiz-adv-x="1076" d="M159 658Q157 679 151 688T134 701T107 704H94L96 714H446L443 704H409Q377 704 359 698T340 668Q340 660 340 649T342 621L369 270Q370 259 371 242T373 205T376 165T379 127T380 97Q390 122 401 147T430 212L643 707H710L791
275Q796 251 800 228T807 182T814 141T819 106Q824 119 832 140T851 186T871 237T890 281L1029 617Q1037 634 1040 647T1044 672Q1044 688 1033 696T994 704H928L930 714H1183L1181 704H1139Q1119 704 1103 699T1073 678T1047 633L785 0H668L571 509L351 0H219L159
658Z" />
<glyph unicode="X" horiz-adv-x="761" d="M-39 0L-37 10H-25Q-2 10 18 16T59 39T106 82L388 379L337 320L200 653Q186 689 175 696T149 704H135L137 714H492L490 704H448Q423 704 412 697T401 676Q401 666 405 652T419 616L491 429L440 378L660 620Q672 634 680
647T689 672Q689 684 682 691T656 701T602 704H595L597 714H828L827 704H818Q798 704 777 698T735 677T688 635L443 367L492 426L642 63Q655 32 665 21T689 10H703L701 0H347L349 10H386Q416 10 427 19T439 45Q439 59 433 78T414 130L339 317L392 367L144 108Q126
89 116 73T105 43Q105 35 109 28T125 16T157 11L210 10L208 0H-39Z" />
<glyph unicode="Y" horiz-adv-x="720" d="M109 0L111 10H139Q171 10 195 21T228 69L271 274L154 651Q145 681 137 692T108 704H95L97 714H445L443 704H385Q362 704 353 696T343 674Q343 669 344 659T348 636T355 606L417 382Q424 359 429 340T439 304T445 270Q454
287 468 308T503 365L648 607Q662 629 666 643T671 670Q671 689 657 696T607 704H550L551 714H812L810 704H772Q753 704 738 699T709 680T682 643L448 257L410 69Q408 58 407 52T405 42Q405 21 426 16T479 10H503L501 0H109Z" />
<glyph unicode="Z" horiz-adv-x="691" d="M-11 0L-9 10L502 704H327Q287 704 248 690T179 644T133 560L114 495H104L156 714H720L719 704L200 10H402Q458 10 497 26T563 75T605 159L624 219H634L584 0H-11Z" />
<glyph unicode="[" horiz-adv-x="390" d="M-24 -128L165 760H464L462 750H419Q392 750 372 745T340 725T321 678L172 -32Q169 -45 168 -58T166 -77Q166 -105 183 -111T228 -118H277L275 -128H-24Z" />
<glyph unicode="\" horiz-adv-x="256" d="M163 -121L105 760H115L173 -121H163Z" />
<glyph unicode="]" horiz-adv-x="389" d="M-53 -128L-51 -118H-8Q21 -118 40 -112T72 -89T89 -46L238 655Q241 671 242 683T244 700Q244 733 224 741T177 750H134L135 760H434L245 -128H-53Z" />
<glyph unicode="^" horiz-adv-x="559" d="M81 261L265 714H289L475 261H453L277 694L103 261H81Z" />
<glyph unicode="_" horiz-adv-x="459" d="M-91 -137L-86 -117H382L377 -137H-91Z" />
<glyph unicode="`" horiz-adv-x="325" d="M346 606Q321 617 292 635T234 674T181 717T144 756L147 766H290Q296 746 307 717T331 660T359 614L357 606H346Z" />
<glyph unicode="a" horiz-adv-x="664" d="M193 -10Q143 -10 107 12T51 78T31 182Q31 225 41 274T75 372T137 459T229 522T357 546Q393 546 418 538T462 516L567 536H620L544 177Q541 164 538 146T531 108T528 74Q528 47 538 35T564 22Q585 22 606 35T641 59L646
50Q624 34 602 20T551 -2T482 -10Q434 -10 406 14T378 85Q378 117 380 138T386 177H382Q355 79 309 35T193 -10ZM260 31Q281 31 299 45T332 85T359 142T378 205L443 510Q434 521 419 526T386 532Q350 532 321 507T270 438T234 344T212 241T204 146Q204 101 211
76T231 41T260 31Z" />
<glyph unicode="b" horiz-adv-x="655" d="M309 -10Q265 -10 243 0T204 24L100 -3H34L173 653Q178 673 180 688T183 714Q183 734 172 742T137 750H108L110 760H373L335 584Q331 565 325 538T310 480T292 414H296Q310 449 333 478T391 527T473 546Q514 546 548 528T604
469T625 362Q625 325 617 277T587 179T529 86T439 17T309 -10ZM270 4Q305 4 333 29T384 97T421 191T444 294T452 390Q452 435 446 460T427 497T398 508Q378 508 361 495T329 458T303 407T285 348L216 28Q224 19 238 12T270 4Z" />
<glyph unicode="c" horiz-adv-x="539" d="M276 -10Q207 -10 153 13T68 85T37 214Q37 256 48 302T84 391T147 470T242 525T371 546Q431 546 468 532T524 493T542 438Q542 413 529 392T486 358T402 346Q404 362 404 378T405 414Q405 481 387 507T339 533Q316 533
296 513T260 457T233 376T215 282T209 185Q209 88 236 46T315 4Q345 4 369 20T413 69T445 157Q455 153 463 141T471 107Q471 79 451 52T388 8T276 -10Z" />
<glyph unicode="d" horiz-adv-x="665" d="M185 -10Q134 -10 100 14T49 83T32 188Q32 229 42 277T75 372T135 459T224 522T348 546Q383 546 404 541T445 525Q447 538 450 556T455 584L472 668Q475 682 477 694T479 717Q479 733 470 741T426 750H405L407 760H669L549
199Q546 182 541 158T531 111T527 73Q527 48 536 36T564 23Q585 23 607 36T640 60L647 50Q624 33 601 20T550 -2T483 -10Q436 -10 406 15T376 88Q376 118 378 137T384 176H379Q358 104 329 63T263 6T185 -10ZM261 28Q280 28 297 44T330 85T357 140T374 196L442
511Q431 521 417 526T386 532Q354 532 327 510T277 450T238 362T213 258T204 149Q204 103 212 77T233 39T261 28Z" />
<glyph unicode="e" horiz-adv-x="548" d="M274 -10Q198 -10 145 13T63 83T34 205Q34 245 45 291T82 383T148 465T247 524T385 546Q463 546 506 515T549 427Q549 373 510 333T403 271T248 248H210Q209 242 209 229T208 204T207 186Q207 119 218 78T250 20T302 2Q362
2 398 45T454 156Q464 153 470 143T476 111Q476 85 455 57T388 10T274 -10ZM228 258Q265 258 294 274T345 319T378 384T390 462Q390 501 379 516T344 532Q323 532 303 514T266 459T235 372T212 258H228Z" />
<glyph unicode="f" horiz-adv-x="429" d="M-83 -240Q-98 -240 -117 -238T-146 -232L-143 -223Q-135 -225 -122 -227T-97 -230Q-64 -230 -41 -215T-1 -163T30 -56L153 526H61L62 532L156 536L165 572Q189 670 249 720T419 770Q501 770 544 743T587 678Q587 645
555 626T459 606Q459 684 454 722T421 760Q405 760 393 749T372 712T354 645L331 536H463L461 526H328L221 16Q204 -63 171 -113T93 -191T4 -229T-83 -240Z" />
<glyph unicode="g" horiz-adv-x="590" d="M168 -240Q82 -240 29 -225T-48 -184T-72 -122Q-72 -89 -53 -65T7 -28T110 -13Q71 4 53 26T35 79Q35 118 64 150T172 200Q122 218 100 253T77 336Q77 369 89 405T128 473T204 525T325 546Q370 546 406 535T467 503Q477
519 491 537T525 568T570 581Q602 581 618 565T634 525Q634 499 620 475T568 450Q568 487 556 502T518 518Q506 518 495 513T472 497Q485 485 498 462T511 398Q511 364 498 328T455 260T380 209T267 189Q254 189 238 190T208 193T186 197Q161 185 151 175T140 151Q140
133 157 126T215 113L327 102Q379 98 414 82T468 37T487 -36Q487 -76 468 -113T409 -178T309 -223T168 -240ZM190 -230Q238 -230 274 -216T330 -176T350 -115Q350 -73 323 -56T236 -31L120 -18Q90 -32 72 -58T53 -125Q53 -171 84 -200T190 -230ZM266 199Q286 199
301 217T328 264T346 328T358 396T362 456Q362 484 358 501T345 527T319 536Q300 536 285 519T257 474T236 412T223 347T219 289Q219 248 230 224T266 199Z" />
<glyph unicode="h" horiz-adv-x="699" d="M516 -10Q453 -10 420 19T386 99Q386 121 390 146T401 207L432 339Q435 352 439 372T446 414T449 454Q449 470 446 482T436 502T415 510Q396 510 376 494T337 450T304 387T280 315L206 0H33L174 671Q177 683 179 694T181
713Q181 730 172 740T131 750H109L110 760H374L324 525Q322 514 318 496T309 457T300 419T292 393H295Q317 443 344 477T409 529T498 547Q543 547 570 531T608 489T620 430Q620 404 614 373T602 316L568 163Q562 136 558 113T553 69Q553 46 563 34T591 21Q613 21
635 36T677 72L683 64Q667 46 644 29T589 1T516 -10Z" />
<glyph unicode="i" horiz-adv-x="375" d="M199 -10Q135 -10 100 17T65 99Q65 113 66 129T72 166T82 216L126 434Q130 449 132 463T134 491Q134 511 124 518T85 526H65L67 536H326L245 158Q242 140 239 123T234 90T232 65Q233 44 241 34T269 23Q292 23 314 39T352
72L359 63Q334 35 298 13T199 -10ZM241 622Q209 622 187 637T164 686Q164 719 177 737T212 764T258 772Q289 772 313 758T337 707Q337 665 308 644T241 622Z" />
<glyph unicode="j" horiz-adv-x="358" d="M-25 -240Q-62 -240 -88 -236T-140 -226L-137 -216Q-130 -218 -116 -220T-92 -223Q-61 -223 -41 -208T-6 -153T24 -45L125 434Q128 450 130 463T133 487Q133 508 123 517T84 526H64L65 536H324L211 6Q192 -82 156 -136T72
-215T-25 -240ZM239 622Q207 622 185 637T162 686Q162 719 175 737T210 764T256 772Q287 772 311 758T335 707Q335 665 310 644T239 622Z" />
<glyph unicode="k" horiz-adv-x="638" d="M535 -5Q476 -5 439 4T378 38T337 109L280 261L337 307L254 234L205 0H32L174 671Q177 684 179 696T181 715Q181 737 171 743T135 750H108L110 760H373L309 467Q305 450 301 429T291 385T279 338T268 292T256 249L436
405Q465 431 483 450T501 489Q501 512 475 519T403 526L405 536H669L667 526Q632 526 588 506T493 442L353 319L410 375L548 56Q557 36 564 25T579 9T597 5L594 -5H535Z" />
<glyph unicode="l" horiz-adv-x="369" d="M192 -10Q127 -10 93 17T59 99Q59 114 61 131T67 170T77 222L171 665Q174 679 176 692T179 714Q179 730 170 740T132 750H108L110 760H371L239 158Q236 140 233 123T228 90T226 65Q227 44 235 34T264 23Q285 23 307 39T347
72L353 63Q337 45 315 28T263 1T192 -10Z" />
<glyph unicode="m" horiz-adv-x="997" d="M813 -8Q750 -8 717 20T684 102Q684 125 688 150T700 209L731 340Q734 353 738 373T745 416T748 454Q748 467 747 480T738 503T717 512Q694 512 674 493T637 443T608 379T590 318L561 191Q556 171 552 147T544 97T538
46T533 0H354Q356 23 360 51T370 110T382 168T394 220L422 339Q432 381 435 414T439 457Q439 470 437 482T428 501T408 508Q387 508 368 491T332 447T303 386T282 319L206 0H33L127 444Q129 456 131 469T134 493Q134 512 124 519T88 526H66L67 536H317L300 415H303Q329
470 358 498T420 537T490 547Q554 547 579 516T607 436Q607 429 607 421T607 409H609Q631 460 655 490T714 533T799 547Q844 547 869 532T906 491T917 436Q917 410 911 378T900 320L866 162Q861 136 857 114T852 70Q852 45 862 33T890 21Q907 21 923 30T953 51T976
72L982 64Q958 37 918 15T813 -8Z" />
<glyph unicode="n" horiz-adv-x="700" d="M518 -10Q454 -10 421 19T388 99Q388 120 391 146T403 207L431 335Q434 348 438 368T446 410T449 449Q449 463 447 476T437 499T412 509Q389 509 370 493T334 451T305 395T287 338L206 0H33L127 444Q129 456 131 470T134
493Q134 510 126 518T88 526H66L67 536H320L300 416H303Q327 465 353 493T415 534T496 546Q543 546 570 530T608 488T620 430Q620 404 614 373T602 315L569 162Q564 135 560 112T555 67Q555 45 565 34T592 22Q610 22 626 31T656 51T679 72L685 64Q661 37 620 14T518
-10Z" />
<glyph unicode="o" horiz-adv-x="624" d="M263 -10Q159 -10 97 43T34 204Q34 246 45 292T82 383T147 465T243 524T374 546Q434 546 483 524T561 456T591 334Q591 294 580 248T545 156T483 73T390 13T263 -10ZM267 0Q299 0 323 27T365 100T396 200T414 308T420
407Q420 458 415 486T399 525T366 536Q336 536 311 510T267 440T234 342T214 233T207 130Q207 59 221 30T267 0Z" />
<glyph unicode="p" horiz-adv-x="653" d="M128 447Q131 461 132 472T134 490Q134 509 126 517T88 526H65L67 536H300L271 371H276Q293 427 318 466T379 525T470 546Q514 546 548 527T604 468T625 365Q625 317 612 266T573 165T508 76T417 14T300 -10Q267 -10 245
-3T207 18Q205 6 203 -6T197 -35L174 -152Q171 -166 170 -176T168 -195Q168 -217 181 -223T222 -230H262L261 -240H-19L128 447ZM272 4Q304 4 331 27T380 89T417 179T441 283T449 389Q449 432 443 458T425 495T393 507Q374 507 356 493T323 454T297 403T280 347L212
29Q221 18 236 11T272 4Z" />
<glyph unicode="q" horiz-adv-x="643" d="M338 -40Q342 -21 348 10T361 73T374 132T382 170H377Q354 100 325 61T261 6T182 -10Q128 -10 95 15T45 82T29 173Q29 216 40 266T75 365T136 456T226 521T345 546Q393 546 418 538T460 518L567 546H620L474 -147Q471
-160 469 -173T466 -194Q466 -212 478 -220T514 -229H555L553 -240H298L338 -40ZM258 28Q278 28 296 44T331 90T361 155T383 232L442 512Q432 520 417 526T384 532Q350 532 321 509T270 445T233 354T210 248T202 141Q202 98 209 74T229 39T258 28Z" />
<glyph unicode="r" horiz-adv-x="579" d="M124 442Q127 457 129 470T132 496Q132 511 122 518T90 526H65L67 536H307L282 373H285Q306 438 332 475T392 529T469 546Q527 546 555 524T583 457Q583 420 568 397T523 362T451 350Q453 371 454 389T455 422Q455 458
449 477T432 502T404 509Q385 509 367 495T331 453T299 385T272 294L206 0H31L124 442Z" />
<glyph unicode="s" horiz-adv-x="534" d="M213 -10Q151 -10 107 3T38 40T14 99Q14 132 28 152T71 182T138 192Q137 180 137 170T136 150Q136 96 149 63T187 15T242 0Q286 0 310 26T334 94Q334 124 324 143T289 180T217 217Q171 237 140 259T91 311T74 380Q74 432
102 469T183 526T313 546Q389 546 431 533T491 499T508 453Q508 409 473 390T375 371Q377 386 377 400T378 426Q378 481 361 508T302 536Q266 536 241 511T216 444Q216 420 225 403T259 370T330 334Q382 311 412 288T456 237T470 173Q470 122 443 81T359 15T213
-10Z" />
<glyph unicode="t" horiz-adv-x="436" d="M202 -10Q163 -10 132 3T82 43T63 106Q63 120 64 134T68 163T74 191L147 526H67L68 534Q107 534 148 543T227 572T296 617T347 678H356L326 536H447L446 526H323L240 154Q237 139 234 123T230 93T228 66Q228 45 239 32T273
18Q300 18 330 34T387 74L392 66Q355 33 311 12T202 -10Z" />
<glyph unicode="u" horiz-adv-x="702" d="M520 -10Q470 -10 443 3T404 37T392 83Q392 90 394 106T398 140T402 163H395Q373 103 342 65T270 9T181 -9Q137 -9 112 6T75 47T64 102Q64 127 70 157T81 212L124 436Q129 459 131 473T133 495Q133 512 125 519T87 526H65L67
536H322L246 181Q242 163 239 144T234 109T232 80Q232 57 241 45T271 32Q291 32 312 48T351 93T383 156T405 228L473 536H648L565 148Q562 134 560 119T556 90T554 65Q554 41 563 30T589 18Q611 18 637 34T681 71L687 64Q661 37 623 14T520 -10Z" />
<glyph unicode="v" horiz-adv-x="558" d="M80 475Q77 496 71 507T56 522T30 526H20L22 536H237L289 186Q293 161 296 138T301 92T306 51H309Q366 113 405 165T464 266T485 365Q485 412 463 436T386 461Q386 495 403 520T461 545Q495 545 518 523T541 454Q541 406
525 357T480 258T417 163T345 75T275 -1L159 -9L80 475Z" />
<glyph unicode="w" horiz-adv-x="874" d="M469 -10Q469 31 468 79T465 177T461 274T456 362T450 431Q436 394 421 357T391 284T359 211T326 140T291 71T253 3L121 -5L109 472Q109 494 104 506T89 522T65 526H50L53 536H265Q267 489 268 442T271 349T272 256T273
164T274 71H279Q295 102 315 143T357 233T398 331T438 432T473 527L596 533Q599 503 602 455T610 350T617 236T621 130T623 53H628Q686 116 726 172T788 282T809 389Q809 429 790 452T715 475Q715 513 734 529T782 546Q819 546 839 523T859 457Q859 402 836 342T774
221T688 104T591 1L469 -10Z" />
<glyph unicode="x" horiz-adv-x="615" d="M-24 0L-23 10H-14Q13 10 33 15T72 35T111 75L241 236L141 482Q135 498 129 508T115 522T94 526H82L84 536H298L369 335L525 536H626L624 526H612Q587 526 566 520T525 498T479 452L374 326L482 80Q496 48 505 33T523
14T541 10H550L548 0H327L245 225L74 0H-24Z" />
<glyph unicode="y" horiz-adv-x="574" d="M-48 -240Q-84 -240 -114 -234T-166 -219L-163 -209Q-145 -214 -117 -219T-45 -225Q-4 -225 32 -219T101 -200T162 -166T219 -116L74 473Q67 503 57 514T24 526H14L17 536H239L306 209Q310 190 314 164T323 112T331 62T337
25H339Q381 78 411 123T462 209T491 288T501 368Q501 406 486 426T449 453T401 461Q401 504 422 525T478 546Q518 546 538 522T558 458Q558 401 536 337T474 203T384 67Q326 -8 280 -66T187 -162T85 -220T-48 -240Z" />
<glyph unicode="z" horiz-adv-x="579" d="M1 0L3 10L379 526H265Q217 526 185 515T131 478T93 406L78 366H68L114 536H559L557 526L189 10H346Q393 10 421 22T466 57T495 116L520 189H530L486 0H1Z" />
<glyph unicode="{" horiz-adv-x="447" d="M241 -124Q164 -124 126 -94T88 -12Q88 -3 89 12T100 70L132 216Q134 227 135 236T136 252Q135 290 108 302T38 316L40 326Q78 327 105 334T150 360T175 417L215 613Q226 666 251 698T320 745T428 760H536L535 750H492Q464
750 448 742T424 715T409 668L362 456Q354 419 332 390T264 343T142 320L141 315Q209 312 245 294T294 251T307 205Q307 198 307 192T304 178L262 -13Q259 -26 257 -37T255 -63Q255 -85 267 -99T308 -114H350L347 -124H241Z" />
<glyph unicode="|" horiz-adv-x="559" d="M240 -240V760H316V-240H240Z" />
<glyph unicode="}" horiz-adv-x="446" d="M-67 -122V-112H-24Q5 -112 20 -103T44 -75T60 -26L107 182Q115 219 137 248T203 295T324 319L325 323Q259 327 223 345T174 387T161 434Q161 440 162 446T164 459L207 651Q210 664 212 675T214 701Q214 723 202 737T160
752H118L121 762H227Q304 762 342 732T381 649Q381 641 380 626T368 568L336 421Q334 410 333 402T332 386Q334 347 361 336T430 322L428 312Q390 312 363 305T318 278T293 221L253 24Q243 -28 218 -60T149 -107T40 -122H-67Z" />
<glyph unicode="~" horiz-adv-x="559" d="M83 277Q88 300 93 327T110 379T140 420T189 436Q224 436 251 416T303 369Q329 343 353 320T408 297Q438 297 454 319T478 374T494 436H513Q510 418 504 391T487 338T456 295T406 277Q369 277 341 303T287 357Q272 374
257 387T226 408T190 416Q162 416 146 399T121 350T103 277H83Z" />
<glyph unicode="&#xa0;" horiz-adv-x="250" />
<glyph unicode="&#xa1;" horiz-adv-x="421" d="M230 295L207 -180H10L215 295H230ZM254 542Q287 542 307 525T327 473Q327 427 302 399T235 370Q203 370 183 387T162 440Q162 474 175 497T208 531T254 542Z" />
<glyph unicode="&#xa2;" horiz-adv-x="559" d="M282 0L417 714H427L292 0H282ZM313 83Q244 83 190 106T105 178T74 307Q74 349 85 395T121 484T184 563T279 618T408 639Q468 639 505 625T561 586T579 531Q579 506 566 485T523 451T439 439Q441 455 441 471T442
507Q442 574 424 600T376 626Q353 626 333 606T297 550T270 469T252 375T246 278Q246 181 273 139T352 97Q382 97 406 113T450 163T482 250Q492 246 500 234T508 200Q508 172 488 145T425 101T313 83Z" />
<glyph unicode="&#xa3;" horiz-adv-x="559" d="M384 -10Q345 -10 318 3T268 32T221 61T165 73Q142 72 117 65T54 38L1 10L-2 18L31 37Q69 59 94 78T135 120T159 174T167 250Q168 268 166 293T160 342T154 383H54L56 393H152Q149 413 145 443T140 507Q140 577 172
625T265 698T408 724Q469 724 509 710T570 670T590 611Q590 566 553 543T448 519Q448 599 442 641T421 699T382 714Q339 714 319 671T298 554Q298 521 300 481T307 393H485L483 383H308Q309 375 309 364T311 340T312 318Q312 273 295 237T243 168T150 99L152 95Q179
109 200 117T242 130T287 134Q316 134 336 126T377 105T420 84T477 75Q505 75 524 84T567 115L572 110Q550 83 520 55T456 9T384 -10Z" />
<glyph unicode="&#xa4;" horiz-adv-x="559" d="M141 147L87 202L142 257Q128 278 121 302T114 355Q114 383 122 409T145 458L88 516L141 569L199 511Q221 525 245 532T297 539Q324 539 349 532T396 510L456 570L509 516L451 455Q465 434 473 409T481 355Q481 327
474 303T453 257L509 200L456 147L400 203Q378 189 352 181T297 172Q269 172 244 180T196 202L141 147ZM297 244Q329 244 354 259T393 299T408 355Q408 387 394 412T354 453T297 468Q267 468 242 453T202 413T187 355Q187 325 202 300T242 259T297 244Z" />
<glyph unicode="&#xa5;" horiz-adv-x="559" d="M33 0L35 10H64Q95 10 120 21T153 69L183 209H43L44 219H185L202 303H60L62 313H202L152 651Q147 682 138 693T102 704H94L96 714H382L380 704H355Q333 704 324 698T315 677Q315 667 317 651T324 605L345 463Q349
441 353 413T361 358T366 313Q373 330 385 353T407 398L508 603Q518 623 522 640T526 667Q526 687 512 695T457 704H434L436 714H643L641 704H637Q616 704 597 697T562 672T530 626L375 313H512L510 303H371L354 219H495L493 209H352L324 81Q321 68 320 59T318
42Q318 21 338 16T389 10H414L412 0H33Z" />
<glyph unicode="&#xa6;" horiz-adv-x="559" d="M268 360V760H288V360H268ZM268 -240V160H288V-240H268Z" />
<glyph unicode="&#xa7;" horiz-adv-x="544" d="M219 -115Q158 -115 114 -100T47 -58T23 4Q23 41 40 60T82 87T129 94Q129 19 138 -24T169 -86T227 -105Q261 -105 288 -91T330 -52T346 10Q346 54 333 80T291 128T213 174Q159 203 129 230T88 284T77 342Q77 395
106 427T181 479Q170 494 159 519T148 580Q148 638 177 677T256 738T365 760Q430 760 470 747T529 709T548 654Q548 611 518 595T442 578Q442 642 434 679T408 733T360 750Q334 750 311 738T275 700T261 636Q261 595 273 570T312 526T383 485Q432 461 462 438T506
390T520 331Q520 294 503 267T461 222T408 192Q419 178 432 151T445 84Q445 32 419 -14T343 -87T219 -115ZM402 199Q418 212 426 230T435 271Q435 293 425 311T388 347T315 388Q283 404 259 417T217 443T185 473Q168 460 159 444T149 401Q149 378 160 358T200 318T284
270Q332 247 359 231T402 199Z" />
<glyph unicode="&#xa8;" horiz-adv-x="577" d="M483 616Q456 616 440 632T423 681Q423 707 430 726T453 755T487 766Q513 766 529 750T546 701Q546 653 526 635T483 616ZM269 616Q242 616 226 632T210 681Q210 707 218 726T240 755T274 766Q300 766 316 750T333
701Q333 653 313 635T269 616Z" />
<glyph unicode="&#xa9;" horiz-adv-x="845" d="M441 -10Q361 -10 294 17T178 93T101 210T74 358Q74 438 101 505T177 621T293 697T441 725Q521 725 588 698T705 622T782 505T809 357Q809 277 782 210T706 94T589 17T441 -10ZM449 124Q378 124 331 153T261 235T237
358Q237 430 262 482T338 562T460 590Q501 590 533 581T583 556T602 517Q602 493 582 480T531 466Q531 505 522 530T492 567T441 579Q399 579 373 556T334 484T322 358Q322 281 337 231T383 158T457 134Q507 134 541 163T585 245Q594 241 599 233T605 212Q605 192
587 172T533 138T449 124ZM443 0Q520 0 584 26T696 101T770 215T797 358Q797 435 771 500T697 614T584 688T441 715Q364 715 299 689T187 614T113 501T86 358Q86 279 113 213T189 100T303 26T443 0Z" />
<glyph unicode="&#xaa;" horiz-adv-x="464" d="M176 381Q124 381 100 414T75 494Q75 529 88 568T129 642T200 697T304 719Q329 719 343 713T368 698L427 712H470L425 500Q420 476 417 463T414 441Q414 424 418 415T435 406Q452 406 466 417T492 437L498 429Q485
416 457 399T389 381Q354 381 334 397T313 443Q313 455 314 471T318 500H314Q297 447 260 414T176 381ZM236 418Q249 418 262 432T288 468T306 512L354 694Q345 702 334 705T310 708Q286 708 267 689T233 639T212 572T204 501Q204 448 213 433T236 418Z" />
<glyph unicode="&#xab;" horiz-adv-x="547" d="M445 66L279 277L280 288L532 474H545L416 271L457 66H445ZM230 66L64 277L65 288L317 474H330L201 271L242 66H230Z" />
<glyph unicode="&#xac;" horiz-adv-x="559" d="M468 120V355H63V375H488V120H468Z" />
<glyph unicode="&#xad;" horiz-adv-x="310" d="M24 267L29 287H289L284 267H24Z" />
<glyph unicode="&#xae;" horiz-adv-x="845" d="M441 -10Q361 -10 294 16T178 91T101 208T74 358Q74 440 101 507T177 623T293 698T441 725Q521 725 588 699T705 624T782 507T809 357Q809 275 782 208T706 92T589 17T441 -10ZM442 0Q521 0 585 26T697 99T771 212T798
358Q798 437 772 502T698 615T585 689T442 715Q365 715 300 690T186 617T112 504T85 357Q85 276 112 210T188 97T302 25T442 0ZM251 141V151H264Q282 151 296 157T310 186V534Q310 557 296 563T264 569H251V579H434Q523 579 566 547T610 463Q610 415 582 388T514
350L619 176Q629 161 638 156T655 151V141H550L432 341H391V186Q391 163 406 157T440 151H454V141H251ZM433 351Q484 351 504 380T524 465Q524 516 503 542T430 569H391V351H433Z" />
<glyph unicode="&#xaf;" horiz-adv-x="459" d="M101 766L106 786H574L570 766H101Z" />
<glyph unicode="&#xb0;" horiz-adv-x="400" d="M264 421Q197 421 155 463T113 572Q113 639 155 681T264 724Q331 724 373 682T416 572Q416 505 374 463T264 421ZM266 441Q325 441 360 478T396 574Q396 632 360 668T266 704Q208 704 171 668T133 574Q133 516 170
479T266 441Z" />
<glyph unicode="&#xb1;" horiz-adv-x="559" d="M48 15V35H477V15H48ZM252 143V347H48V367H252V572H272V367H477V347H272V143H252Z" />
<glyph unicode="&#xb2;" horiz-adv-x="400" d="M65 386L79 455L215 555Q244 576 266 596T301 639T322 690T329 754Q329 773 327 786T317 807T296 814Q278 814 266 802T246 759T229 676Q191 676 170 691T148 729Q148 757 167 778T221 811T305 824Q369 824 406 799T443
735Q443 701 426 677T373 628T276 567L119 472H344Q360 472 370 475T387 487T397 506L405 534H415L387 386H65Z" />
<glyph unicode="&#xb3;" horiz-adv-x="400" d="M222 380Q145 380 107 402T68 463Q68 490 91 505T149 521Q149 461 163 426T223 390Q259 390 287 416T315 502Q315 553 295 578T228 603H195L197 613H230Q259 613 282 627T321 673T336 751Q336 778 330 796T303 814Q285
814 274 803T255 766T237 690Q197 690 174 701T150 737Q150 761 169 780T223 812T309 824Q381 824 415 798T449 733Q449 677 407 651T287 612L286 607Q350 606 387 585T424 517Q424 473 398 443T326 396T222 380Z" />
<glyph unicode="&#xb4;" horiz-adv-x="313" d="M114 615Q133 635 154 662T195 717T230 766H379L376 756Q364 745 335 725T269 682T193 639T124 606H112L114 615Z" />
<glyph unicode="&#xb5;" horiz-adv-x="707" d="M86 -240Q51 -240 25 -221T-2 -154Q-2 -114 12 -64T47 55T89 225L155 536H331L250 162Q245 137 242 115T238 74Q238 44 249 29T284 13Q303 13 321 26T356 65T386 129T411 217L479 536H655L579 176Q573 146 569 120T565
71Q565 43 575 30T605 17Q625 17 649 33T695 76L701 68Q676 38 636 14T536 -10Q481 -10 453 9T415 63T405 143H400Q377 65 338 28T242 -10Q193 -10 163 2T116 36T91 82T78 132Q71 105 63 74T48 11T42 -49Q42 -103 78 -127T197 -153Q189 -197 156 -218T86 -240Z"
/>
<glyph unicode="&#xb6;" horiz-adv-x="631" d="M200 -111V-101H213Q236 -101 254 -97T284 -77T295 -30V386H224Q166 386 133 413T85 485T71 582Q71 636 86 676T135 738T226 760H622V750H609Q587 750 568 745T538 725T527 678V-30Q527 -62 538 -77T568 -96T609
-101H622V-111H451V750H371V-111H200Z" />
<glyph unicode="&#xb7;" horiz-adv-x="311" d="M164 269Q132 269 112 285T91 338Q91 384 116 412T183 440Q215 440 235 424T256 370Q256 336 244 314T210 280T164 269Z" />
<glyph unicode="&#xb8;" horiz-adv-x="333" d="M118 -240Q84 -240 62 -236T22 -226L24 -216Q40 -220 56 -222T85 -224Q112 -224 132 -214T162 -180T173 -114Q173 -85 163 -67T128 -45L150 7H160L141 -36Q195 -37 225 -49T269 -80T282 -125Q282 -164 260 -189T200
-227T118 -240Z" />
<glyph unicode="&#xb9;" horiz-adv-x="400" d="M81 387L84 397H137Q157 397 172 403T192 435L260 761H258Q242 737 229 721T202 695T173 686Q155 686 147 701T139 738Q170 738 203 749T267 778T326 819H374L298 450Q297 442 296 436T294 424Q294 406 306 402T335
397H373L370 387H81Z" />
<glyph unicode="&#xba;" horiz-adv-x="411" d="M229 381Q157 381 114 413T70 508Q70 542 85 578T130 647T203 699T305 720Q349 720 384 707T441 666T462 596Q462 565 448 528T406 457T333 403T229 381ZM241 391Q266 391 285 407T317 451T336 515T343 595Q343 659
335 684T298 710Q278 710 259 695T225 653T201 589T192 505Q192 440 203 416T241 391Z" />
<glyph unicode="&#xbb;" horiz-adv-x="543" d="M211 66L341 269L300 474H311L481 273L480 262L224 66H211ZM3 66L133 269L92 474H103L273 273L272 262L16 66H3Z" />
<glyph unicode="&#xbc;" horiz-adv-x="1013" d="M316 543L319 553H372Q392 553 407 559T427 591L495 917H493Q477 893 464 877T437 851T408 842Q390 842 382 857T374 894Q405 894 438 905T502 934T561 975H609L533 606Q532 598 531 592T529 580Q529 562 541 558T570
553H608L605 543H316ZM295 0L804 714H815L306 0H295ZM694 0L696 10H724Q743 10 755 16T773 48L786 113H601L610 155L864 432H957L902 170H972L960 113H889L878 59Q877 50 876 44T875 32Q875 20 883 15T907 10H930L928 0H694ZM638 170H799L831 326Q834 340 836 351T842
374T848 399Q844 394 839 389T830 379L638 170Z" />
<glyph unicode="&#xbd;" horiz-adv-x="1013" d="M316 543L319 553H372Q392 553 407 559T427 591L495 917H493Q477 893 464 877T437 851T408 842Q390 842 382 857T374 894Q405 894 438 905T502 934T561 975H609L533 606Q532 598 531 592T529 580Q529 562 541 558T570
553H608L605 543H316ZM265 0L774 714H785L276 0H265ZM595 -1L609 68L745 168Q774 189 796 209T831 252T852 303T859 367Q859 386 857 399T847 420T826 427Q808 427 796 415T776 372T759 289Q721 289 700 304T678 342Q678 370 697 391T751 424T835 437Q899 437 936
412T973 348Q973 314 956 290T903 241T806 180L649 85H874Q890 85 900 88T917 100T927 119L935 147H945L917 -1H595Z" />
<glyph unicode="&#xbe;" horiz-adv-x="1013" d="M456 533Q379 533 341 555T302 616Q302 643 325 658T383 674Q383 614 397 579T457 543Q493 543 521 569T549 655Q549 706 529 731T462 756H429L431 766H464Q493 766 516 780T555 826T570 904Q570 931 564 949T537
967Q519 967 508 956T489 919T471 843Q431 843 408 854T384 890Q384 914 403 933T457 965T543 977Q615 977 649 951T683 886Q683 830 641 804T521 765L520 760Q584 759 621 738T658 670Q658 626 632 596T560 549T456 533ZM295 0L804 714H815L306 0H295ZM694 0L696
10H724Q743 10 755 16T773 48L786 113H601L610 155L864 432H957L902 170H972L960 113H889L878 59Q877 50 876 44T875 32Q875 20 883 15T907 10H930L928 0H694ZM638 170H799L831 326Q834 340 836 351T842 374T848 399Q844 394 839 389T830 379L638 170Z" />
<glyph unicode="&#xbf;" horiz-adv-x="549" d="M354 187Q300 178 264 157T205 102T173 23T163 -77Q163 -111 170 -133T189 -167T219 -178Q246 -178 265 -160T294 -99T309 25Q382 25 417 4T453 -59Q453 -97 424 -126T340 -171T211 -188Q102 -188 43 -147T-16 -30Q-16
30 17 73T108 143T244 184L310 297H321L354 187ZM338 544Q370 544 390 527T411 475Q411 429 385 401T319 372Q287 372 266 389T245 442Q245 476 258 499T292 533T338 544Z" />
<glyph unicode="&#xc0;" horiz-adv-x="765" d="M-57 0L-55 10H-13Q5 10 21 16T53 39T87 88L426 714H552L637 91Q642 57 648 40T666 16T699 10H705L703 0H349L351 10H387Q420 10 438 19T457 48Q457 56 457 64T455 80L412 505Q409 535 407 559T403 604T400 648Q393
633 386 619T370 589T351 555T329 514L106 102Q91 74 86 60T80 35Q80 21 94 16T141 10H190L188 0H-57ZM189 263L190 273H539V263H189ZM582 784Q557 795 528 813T470 852T417 895T380 934L383 944H526Q532 924 543 895T567 838T595 792L593 784H582Z" />
<glyph unicode="&#xc1;" horiz-adv-x="765" d="M-57 0L-55 10H-13Q5 10 21 16T53 39T87 88L426 714H552L637 91Q642 57 648 40T666 16T699 10H705L703 0H349L351 10H387Q420 10 438 19T457 48Q457 56 457 64T455 80L412 505Q409 535 407 559T403 604T400 648Q393
633 386 619T370 589T351 555T329 514L106 102Q91 74 86 60T80 35Q80 21 94 16T141 10H190L188 0H-57ZM189 263L190 273H539V263H189ZM694 783Q713 803 734 830T775 885T810 934H959L956 924Q944 913 915 893T849 850T773 807T704 774H692L694 783Z" />
<glyph unicode="&#xc2;" horiz-adv-x="765" d="M-57 0L-55 10H-13Q5 10 21 16T53 39T87 88L426 714H552L637 91Q642 57 648 40T666 16T699 10H705L703 0H349L351 10H387Q420 10 438 19T457 48Q457 56 457 64T455 80L412 505Q409 535 407 559T403 604T400 648Q393
633 386 619T370 589T351 555T329 514L106 102Q91 74 86 60T80 35Q80 21 94 16T141 10H190L188 0H-57ZM189 263L190 273H539V263H189ZM325 791Q352 815 378 841T430 893T475 944H597Q607 925 622 895T655 837T683 791V784H671Q624 812 588 838T529 885Q509 873
478 855T410 818T339 784H325V791Z" />
<glyph unicode="&#xc3;" horiz-adv-x="765" d="M-57 0L-55 10H-13Q5 10 21 16T53 39T87 88L426 714H552L637 91Q642 57 648 40T666 16T699 10H705L703 0H349L351 10H387Q420 10 438 19T457 48Q457 56 457 64T455 80L412 505Q409 535 407 559T403 604T400 648Q393
633 386 619T370 589T351 555T329 514L106 102Q91 74 86 60T80 35Q80 21 94 16T141 10H190L188 0H-57ZM189 263L190 273H539V263H189ZM587 788Q558 788 533 799T486 825T442 851T397 862Q375 862 360 851T334 824T320 794H310Q317 833 334 867T379 924T447 946Q474
946 497 935T543 910T589 884T637 873Q666 873 681 892T707 940H717Q711 903 696 868T654 810T587 788Z" />
<glyph unicode="&#xc4;" horiz-adv-x="765" d="M-57 0L-55 10H-13Q5 10 21 16T53 39T87 88L426 714H552L637 91Q642 57 648 40T666 16T699 10H705L703 0H349L351 10H387Q420 10 438 19T457 48Q457 56 457 64T455 80L412 505Q409 535 407 559T403 604T400 648Q393
633 386 619T370 589T351 555T329 514L106 102Q91 74 86 60T80 35Q80 21 94 16T141 10H190L188 0H-57ZM189 263L190 273H539V263H189ZM625 794Q598 794 582 810T565 859Q565 885 572 904T595 933T629 944Q655 944 671 928T688 879Q688 831 668 813T625 794ZM411
794Q384 794 368 810T352 859Q352 885 360 904T382 933T416 944Q442 944 458 928T475 879Q475 831 455 813T411 794Z" />
<glyph unicode="&#xc5;" horiz-adv-x="772" d="M-46 0L-44 10H-3Q16 10 32 16T64 39T97 88L441 722L483 706H523L563 715L648 91Q653 57 659 40T677 16T710 10H716L714 0H360L362 10H397Q431 10 449 19T468 48Q468 56 468 64T466 80L422 505Q419 535 417 559T414
604T410 648Q403 633 396 619T381 589T362 555T340 514L116 102Q102 74 96 60T90 35Q90 21 104 16T152 10H201L199 0H-46ZM200 263L201 273H550V263H200ZM513 699Q463 699 428 727T393 812Q393 869 428 897T513 925Q563 925 598 897T633 812Q633 756 598 728T513
699ZM513 709Q558 709 589 734T621 813Q621 867 590 891T513 915Q469 915 437 891T405 813Q405 759 437 734T513 709Z" />
<glyph unicode="&#xc6;" horiz-adv-x="989" d="M-55 0V10H-45Q-12 10 13 19T58 45T97 88L513 704H413L415 714H1022L986 524H976Q977 529 978 540T981 566T983 595Q983 633 968 657T929 692T874 704H734L666 382H888L887 372H664L586 10H736Q791 10 828 29T889
78T924 143L941 190H951L903 0H314L316 10H329Q350 10 368 14T400 30T418 67L460 264H227L119 102Q104 78 99 66T94 42Q94 27 109 19T151 10H201L199 0H-55ZM235 274H462L554 704H525Q499 664 480 636T443 583T403 524L235 274Z" />
<glyph unicode="&#xc7;" horiz-adv-x="685" d="M369 -10Q272 -10 204 23T101 120T65 281Q65 339 80 401T128 522T213 627T339 702T514 730Q622 730 672 698T723 615Q723 563 678 538T565 512Q565 566 563 605T553 669T529 706T486 719Q447 719 412 694T348 626T298
525T266 403T254 270Q254 171 272 113T326 29T415 4Q470 4 503 25T557 84T597 173Q606 172 614 161T622 138Q622 102 593 68T507 12T369 -10ZM270 -240Q236 -240 214 -236T174 -226L176 -216Q192 -220 208 -222T237 -224Q264 -224 284 -214T314 -180T325 -114Q325
-85 315 -67T280 -45L302 7H312L293 -36Q347 -37 377 -49T421 -80T434 -125Q434 -164 412 -189T352 -227T270 -240Z" />
<glyph unicode="&#xc8;" horiz-adv-x="644" d="M-31 0L-29 10H-16Q15 10 41 20T74 67L196 643Q198 651 199 658T201 671Q201 691 181 697T129 704H116L118 714H677L641 524H631Q634 539 635 550T638 572T639 593Q639 623 627 648T592 688T534 704H389L321 382H542L541
372H319L242 10H398Q442 10 473 23T526 56T559 99T578 140L596 190H606L558 0H-31ZM495 771Q470 782 441 800T383 839T330 882T293 921L296 931H439Q445 911 456 882T480 825T508 779L506 771H495Z" />
<glyph unicode="&#xc9;" horiz-adv-x="644" d="M-31 0L-29 10H-16Q15 10 41 20T74 67L196 643Q198 651 199 658T201 671Q201 691 181 697T129 704H116L118 714H677L641 524H631Q634 539 635 550T638 572T639 593Q639 623 627 648T592 688T534 704H389L321 382H542L541
372H319L242 10H398Q442 10 473 23T526 56T559 99T578 140L596 190H606L558 0H-31ZM370 780Q389 800 410 827T451 882T486 931H635L632 921Q620 910 591 890T525 847T449 804T380 771H368L370 780Z" />
<glyph unicode="&#xca;" horiz-adv-x="644" d="M-31 0L-29 10H-16Q15 10 41 20T74 67L196 643Q198 651 199 658T201 671Q201 691 181 697T129 704H116L118 714H677L641 524H631Q634 539 635 550T638 572T639 593Q639 623 627 648T592 688T534 704H389L321 382H542L541
372H319L242 10H398Q442 10 473 23T526 56T559 99T578 140L596 190H606L558 0H-31ZM305 778Q332 802 358 828T410 880T455 931H577Q587 912 602 882T635 824T663 778V771H651Q604 799 568 825T509 872Q489 860 458 842T390 805T319 771H305V778Z" />
<glyph unicode="&#xcb;" horiz-adv-x="644" d="M-31 0L-29 10H-16Q15 10 41 20T74 67L196 643Q198 651 199 658T201 671Q201 691 181 697T129 704H116L118 714H677L641 524H631Q634 539 635 550T638 572T639 593Q639 623 627 648T592 688T534 704H389L321 382H542L541
372H319L242 10H398Q442 10 473 23T526 56T559 99T578 140L596 190H606L558 0H-31ZM591 781Q564 781 548 797T531 846Q531 872 538 891T561 920T595 931Q621 931 637 915T654 866Q654 818 634 800T591 781ZM377 781Q350 781 334 797T318 846Q318 872 326 891T348
920T382 931Q408 931 424 915T441 866Q441 818 421 800T377 781Z" />
<glyph unicode="&#xcc;" horiz-adv-x="413" d="M-31 0L-28 10H-15Q16 10 42 19T75 65L196 636Q200 652 200 660T201 672Q201 693 181 698T129 704H116L119 714H486L483 704H470Q437 704 411 694T376 644L260 89Q257 73 254 62T251 42Q251 21 272 16T325 10H338L335
0H-31ZM377 771Q352 782 323 800T265 839T212 882T175 921L178 931H321Q327 911 338 882T362 825T390 779L388 771H377Z" />
<glyph unicode="&#xcd;" horiz-adv-x="413" d="M-31 0L-28 10H-15Q16 10 42 19T75 65L196 636Q200 652 200 660T201 672Q201 693 181 698T129 704H116L119 714H486L483 704H470Q437 704 411 694T376 644L260 89Q257 73 254 62T251 42Q251 21 272 16T325 10H338L335
0H-31ZM235 780Q254 800 275 827T316 882T351 931H500L497 921Q485 910 456 890T390 847T314 804T245 771H233L235 780Z" />
<glyph unicode="&#xce;" horiz-adv-x="413" d="M-31 0L-28 10H-15Q16 10 42 19T75 65L196 636Q200 652 200 660T201 672Q201 693 181 698T129 704H116L119 714H486L483 704H470Q437 704 411 694T376 644L260 89Q257 73 254 62T251 42Q251 21 272 16T325 10H338L335
0H-31ZM131 778Q158 802 184 828T236 880T281 931H403Q413 912 428 882T461 824T489 778V771H477Q430 799 394 825T335 872Q315 860 284 842T216 805T145 771H131V778Z" />
<glyph unicode="&#xcf;" horiz-adv-x="413" d="M-31 0L-28 10H-15Q16 10 42 19T75 65L196 636Q200 652 200 660T201 672Q201 693 181 698T129 704H116L119 714H486L483 704H470Q437 704 411 694T376 644L260 89Q257 73 254 62T251 42Q251 21 272 16T325 10H338L335
0H-31ZM434 794Q407 794 391 810T374 859Q374 885 381 904T404 933T438 944Q464 944 480 928T497 879Q497 831 477 813T434 794ZM220 794Q193 794 177 810T161 859Q161 885 169 904T191 933T225 944Q251 944 267 928T284 879Q284 831 264 813T220 794Z" />
<glyph unicode="&#xd0;" horiz-adv-x="786" d="M71 375L73 385H439L437 375H71ZM-33 0L-30 10H-15Q15 10 41 19T74 65L193 630Q195 645 198 655T201 672Q201 692 182 698T129 704H116L118 714H454Q607 714 686 644T765 439Q765 376 750 314T703 195T619 94T491
25T316 0H-33ZM272 10Q340 10 390 39T475 119T531 232T563 363T573 495Q573 571 556 617T505 683T416 704H387L242 10H272Z" />
<glyph unicode="&#xd1;" horiz-adv-x="793" d="M-32 0L-30 10H12Q35 10 54 13T88 29T106 65L228 636Q231 649 233 658T235 672Q235 693 214 698T159 704H116L118 714H390L624 172L722 640Q724 648 724 655T725 667Q725 688 708 696T655 704H624L626 714H878L876
704H829Q807 704 788 701T755 686T735 649L599 0H535L241 648L119 77Q117 64 116 56T115 43Q115 23 142 17T215 10H223L221 0H-32ZM609 788Q580 788 555 799T508 825T464 851T419 862Q397 862 382 851T356 824T342 794H332Q339 833 356 867T401 924T469 946Q496
946 519 935T565 910T611 884T659 873Q688 873 703 892T729 940H739Q733 903 718 868T676 810T609 788Z" />
<glyph unicode="&#xd2;" horiz-adv-x="812" d="M368 -11Q276 -11 208 21T103 120T66 293Q66 338 78 395T119 510T197 617T318 695T491 725Q577 725 643 696T748 604T786 438Q786 401 779 354T753 256T703 158T625 72T516 12T368 -11ZM374 -1Q420 -1 457 30T521
113T567 229T594 362T603 494Q603 580 592 628T557 695T491 715Q442 715 404 684T337 599T289 482T261 349T252 220Q252 140 265 92T306 21T374 -1ZM595 784Q570 795 541 813T483 852T430 895T393 934L396 944H539Q545 924 556 895T580 838T608 792L606 784H595Z"
/>
<glyph unicode="&#xd3;" horiz-adv-x="812" d="M368 -11Q276 -11 208 21T103 120T66 293Q66 338 78 395T119 510T197 617T318 695T491 725Q577 725 643 696T748 604T786 438Q786 401 779 354T753 256T703 158T625 72T516 12T368 -11ZM374 -1Q420 -1 457 30T521
113T567 229T594 362T603 494Q603 580 592 628T557 695T491 715Q442 715 404 684T337 599T289 482T261 349T252 220Q252 140 265 92T306 21T374 -1ZM706 783Q725 803 746 830T787 885T822 934H971L968 924Q956 913 927 893T861 850T785 807T716 774H704L706 783Z"
/>
<glyph unicode="&#xd4;" horiz-adv-x="812" d="M368 -11Q276 -11 208 21T103 120T66 293Q66 338 78 395T119 510T197 617T318 695T491 725Q577 725 643 696T748 604T786 438Q786 401 779 354T753 256T703 158T625 72T516 12T368 -11ZM374 -1Q420 -1 457 30T521
113T567 229T594 362T603 494Q603 580 592 628T557 695T491 715Q442 715 404 684T337 599T289 482T261 349T252 220Q252 140 265 92T306 21T374 -1ZM337 791Q364 815 390 841T442 893T487 944H609Q619 925 634 895T667 837T695 791V784H683Q636 812 600 838T541
885Q521 873 490 855T422 818T351 784H337V791Z" />
<glyph unicode="&#xd5;" horiz-adv-x="812" d="M368 -11Q276 -11 208 21T103 120T66 293Q66 338 78 395T119 510T197 617T318 695T491 725Q577 725 643 696T748 604T786 438Q786 401 779 354T753 256T703 158T625 72T516 12T368 -11ZM374 -1Q420 -1 457 30T521
113T567 229T594 362T603 494Q603 580 592 628T557 695T491 715Q442 715 404 684T337 599T289 482T261 349T252 220Q252 140 265 92T306 21T374 -1ZM599 788Q570 788 545 799T498 825T454 851T409 862Q387 862 372 851T346 824T332 794H322Q329 833 346 867T391
924T459 946Q486 946 509 935T555 910T601 884T649 873Q678 873 693 892T719 940H729Q723 903 708 868T666 810T599 788Z" />
<glyph unicode="&#xd6;" horiz-adv-x="812" d="M368 -11Q276 -11 208 21T103 120T66 293Q66 338 78 395T119 510T197 617T318 695T491 725Q577 725 643 696T748 604T786 438Q786 401 779 354T753 256T703 158T625 72T516 12T368 -11ZM374 -1Q420 -1 457 30T521
113T567 229T594 362T603 494Q603 580 592 628T557 695T491 715Q442 715 404 684T337 599T289 482T261 349T252 220Q252 140 265 92T306 21T374 -1ZM637 794Q610 794 594 810T577 859Q577 885 584 904T607 933T641 944Q667 944 683 928T700 879Q700 831 680 813T637
794ZM423 794Q396 794 380 810T364 859Q364 885 372 904T394 933T428 944Q454 944 470 928T487 879Q487 831 467 813T423 794Z" />
<glyph unicode="&#xd7;" horiz-adv-x="559" d="M101 145L87 159L285 357L87 555L101 569L299 371L496 569L510 555L312 357L510 159L496 145L299 343L101 145Z" />
<glyph unicode="&#xd8;" horiz-adv-x="812" d="M125 -48L728 763H739L136 -48H125ZM368 -11Q276 -11 208 21T103 120T66 293Q66 338 78 395T119 510T197 617T318 695T491 725Q577 725 643 696T748 604T786 438Q786 401 779 354T753 256T703 158T625 72T516 12T368
-11ZM374 -1Q420 -1 457 30T521 113T567 229T594 362T603 494Q603 580 592 628T557 695T491 715Q442 715 404 684T337 599T289 482T261 349T252 220Q252 140 265 92T306 21T374 -1Z" />
<glyph unicode="&#xd9;" horiz-adv-x="751" d="M348 -10Q228 -10 164 35T100 163Q100 179 103 207T111 252L190 618Q193 634 196 649T199 672Q199 693 180 698T129 704H116L117 714H486L484 704H471Q449 704 430 701T397 686T377 650L290 251Q286 230 283 210T277
172T275 136Q274 75 301 41T391 7Q453 7 500 31T578 103T625 222L714 642Q716 651 717 660T718 672Q718 693 698 698T647 704H624L626 714H844L841 704H818Q796 704 777 701T745 685T725 647L638 227Q621 146 586 94T493 16T348 -10ZM606 784Q581 795 552 813T494
852T441 895T404 934L407 944H550Q556 924 567 895T591 838T619 792L617 784H606Z" />
<glyph unicode="&#xda;" horiz-adv-x="751" d="M348 -10Q228 -10 164 35T100 163Q100 179 103 207T111 252L190 618Q193 634 196 649T199 672Q199 693 180 698T129 704H116L117 714H486L484 704H471Q449 704 430 701T397 686T377 650L290 251Q286 230 283 210T277
172T275 136Q274 75 301 41T391 7Q453 7 500 31T578 103T625 222L714 642Q716 651 717 660T718 672Q718 693 698 698T647 704H624L626 714H844L841 704H818Q796 704 777 701T745 685T725 647L638 227Q621 146 586 94T493 16T348 -10ZM718 783Q737 803 758 830T799
885T834 934H983L980 924Q968 913 939 893T873 850T797 807T728 774H716L718 783Z" />
<glyph unicode="&#xdb;" horiz-adv-x="751" d="M348 -10Q228 -10 164 35T100 163Q100 179 103 207T111 252L190 618Q193 634 196 649T199 672Q199 693 180 698T129 704H116L117 714H486L484 704H471Q449 704 430 701T397 686T377 650L290 251Q286 230 283 210T277
172T275 136Q274 75 301 41T391 7Q453 7 500 31T578 103T625 222L714 642Q716 651 717 660T718 672Q718 693 698 698T647 704H624L626 714H844L841 704H818Q796 704 777 701T745 685T725 647L638 227Q621 146 586 94T493 16T348 -10ZM349 791Q376 815 402 841T454
893T499 944H621Q631 925 646 895T679 837T707 791V784H695Q648 812 612 838T553 885Q533 873 502 855T434 818T363 784H349V791Z" />
<glyph unicode="&#xdc;" horiz-adv-x="751" d="M348 -10Q228 -10 164 35T100 163Q100 179 103 207T111 252L190 618Q193 634 196 649T199 672Q199 693 180 698T129 704H116L117 714H486L484 704H471Q449 704 430 701T397 686T377 650L290 251Q286 230 283 210T277
172T275 136Q274 75 301 41T391 7Q453 7 500 31T578 103T625 222L714 642Q716 651 717 660T718 672Q718 693 698 698T647 704H624L626 714H844L841 704H818Q796 704 777 701T745 685T725 647L638 227Q621 146 586 94T493 16T348 -10ZM649 794Q622 794 606 810T589
859Q589 885 596 904T619 933T653 944Q679 944 695 928T712 879Q712 831 692 813T649 794ZM435 794Q408 794 392 810T376 859Q376 885 384 904T406 933T440 944Q466 944 482 928T499 879Q499 831 479 813T435 794Z" />
<glyph unicode="&#xdd;" horiz-adv-x="720" d="M109 0L111 10H139Q171 10 195 21T228 69L271 274L154 651Q145 681 137 692T108 704H95L97 714H445L443 704H385Q362 704 353 696T343 674Q343 669 344 659T348 636T355 606L417 382Q424 359 429 340T439 304T445
270Q454 287 468 308T503 365L648 607Q662 629 666 643T671 670Q671 689 657 696T607 704H550L551 714H812L810 704H772Q753 704 738 699T709 680T682 643L448 257L410 69Q408 58 407 52T405 42Q405 21 426 16T479 10H503L501 0H109ZM665 783Q684 803 705 830T746
885T781 934H930L927 924Q915 913 886 893T820 850T744 807T675 774H663L665 783Z" />
<glyph unicode="&#xde;" horiz-adv-x="652" d="M-24 0L-22 10H-9Q22 10 48 19T81 65L202 642Q204 653 205 660T207 672Q207 693 188 698T136 704H124L126 714H488L486 704H477Q445 704 418 694T383 647L366 567H408Q531 567 594 524T658 394Q658 355 646 314T601
237T510 179T355 157H280L261 63Q260 58 259 52T258 42Q258 21 279 16T331 10H339L337 0H-24ZM308 167Q355 167 386 192T437 259T464 344T472 425Q472 496 452 527T383 558H365L282 167H308Z" />
<glyph unicode="&#xdf;" horiz-adv-x="722" d="M-84 -240Q-105 -240 -123 -237T-151 -229L-148 -219Q-140 -222 -129 -223T-103 -225Q-73 -225 -50 -211T-10 -158T21 -51L144 526H63L65 536H146L155 568Q168 624 195 663T260 726T346 761T453 773Q569 773 626
729T683 612Q683 587 681 571T675 536H618Q576 536 547 526T503 495T487 439Q487 412 497 395T527 361T578 322Q606 303 629 283T666 236T680 171Q680 119 652 78T571 14T448 -10Q397 -10 358 3T297 42T275 102Q275 146 305 168T388 191Q388 117 395 76T420 18T464
0Q497 0 517 22T537 86Q537 131 524 157T490 202T443 239Q417 259 394 279T357 326T342 392Q342 432 358 460T399 506T453 533T510 543Q515 565 518 589T521 642Q521 700 507 731T452 763Q420 763 399 747T362 690T330 572L205 -8Q190 -78 157 -123T82 -194T-3
-230T-84 -240Z" />
<glyph unicode="&#xe0;" horiz-adv-x="664" d="M193 -10Q143 -10 107 12T51 78T31 182Q31 225 41 274T75 372T137 459T229 522T357 546Q393 546 418 538T462 516L567 536H620L544 177Q541 164 538 146T531 108T528 74Q528 47 538 35T564 22Q585 22 606 35T641
59L646 50Q624 34 602 20T551 -2T482 -10Q434 -10 406 14T378 85Q378 117 380 138T386 177H382Q355 79 309 35T193 -10ZM260 31Q281 31 299 45T332 85T359 142T378 205L443 510Q434 521 419 526T386 532Q350 532 321 507T270 438T234 344T212 241T204 146Q204 101
211 76T231 41T260 31ZM489 606Q464 617 435 635T377 674T324 717T287 756L290 766H433Q439 746 450 717T474 660T502 614L500 606H489Z" />
<glyph unicode="&#xe1;" horiz-adv-x="664" d="M193 -10Q143 -10 107 12T51 78T31 182Q31 225 41 274T75 372T137 459T229 522T357 546Q393 546 418 538T462 516L567 536H620L544 177Q541 164 538 146T531 108T528 74Q528 47 538 35T564 22Q585 22 606 35T641
59L646 50Q624 34 602 20T551 -2T482 -10Q434 -10 406 14T378 85Q378 117 380 138T386 177H382Q355 79 309 35T193 -10ZM260 31Q281 31 299 45T332 85T359 142T378 205L443 510Q434 521 419 526T386 532Q350 532 321 507T270 438T234 344T212 241T204 146Q204 101
211 76T231 41T260 31ZM600 605Q619 625 640 652T681 707T716 756H865L862 746Q850 735 821 715T755 672T679 629T610 596H598L600 605Z" />
<glyph unicode="&#xe2;" horiz-adv-x="664" d="M193 -10Q143 -10 107 12T51 78T31 182Q31 225 41 274T75 372T137 459T229 522T357 546Q393 546 418 538T462 516L567 536H620L544 177Q541 164 538 146T531 108T528 74Q528 47 538 35T564 22Q585 22 606 35T641
59L646 50Q624 34 602 20T551 -2T482 -10Q434 -10 406 14T378 85Q378 117 380 138T386 177H382Q355 79 309 35T193 -10ZM260 31Q281 31 299 45T332 85T359 142T378 205L443 510Q434 521 419 526T386 532Q350 532 321 507T270 438T234 344T212 241T204 146Q204 101
211 76T231 41T260 31ZM232 613Q259 637 285 663T337 715T382 766H504Q514 747 529 717T562 659T590 613V606H578Q531 634 495 660T436 707Q416 695 385 677T317 640T246 606H232V613Z" />
<glyph unicode="&#xe3;" horiz-adv-x="664" d="M193 -10Q143 -10 107 12T51 78T31 182Q31 225 41 274T75 372T137 459T229 522T357 546Q393 546 418 538T462 516L567 536H620L544 177Q541 164 538 146T531 108T528 74Q528 47 538 35T564 22Q585 22 606 35T641
59L646 50Q624 34 602 20T551 -2T482 -10Q434 -10 406 14T378 85Q378 117 380 138T386 177H382Q355 79 309 35T193 -10ZM260 31Q281 31 299 45T332 85T359 142T378 205L443 510Q434 521 419 526T386 532Q350 532 321 507T270 438T234 344T212 241T204 146Q204 101
211 76T231 41T260 31ZM493 610Q464 610 439 621T392 647T348 673T303 684Q281 684 266 673T240 646T226 616H216Q223 655 240 689T285 746T353 768Q380 768 403 757T449 732T495 706T543 695Q572 695 587 714T613 762H623Q617 725 602 690T560 632T493 610Z" />
<glyph unicode="&#xe4;" horiz-adv-x="664" d="M193 -10Q143 -10 107 12T51 78T31 182Q31 225 41 274T75 372T137 459T229 522T357 546Q393 546 418 538T462 516L567 536H620L544 177Q541 164 538 146T531 108T528 74Q528 47 538 35T564 22Q585 22 606 35T641
59L646 50Q624 34 602 20T551 -2T482 -10Q434 -10 406 14T378 85Q378 117 380 138T386 177H382Q355 79 309 35T193 -10ZM260 31Q281 31 299 45T332 85T359 142T378 205L443 510Q434 521 419 526T386 532Q350 532 321 507T270 438T234 344T212 241T204 146Q204 101
211 76T231 41T260 31ZM532 616Q505 616 489 632T472 681Q472 707 479 726T502 755T536 766Q562 766 578 750T595 701Q595 653 575 635T532 616ZM318 616Q291 616 275 632T259 681Q259 707 267 726T289 755T323 766Q349 766 365 750T382 701Q382 653 362 635T318
616Z" />
<glyph unicode="&#xe5;" horiz-adv-x="664" d="M193 -10Q143 -10 107 12T51 78T31 182Q31 225 41 274T75 372T137 459T229 522T357 546Q393 546 418 538T462 516L567 536H620L544 177Q541 164 538 146T531 108T528 74Q528 47 538 35T564 22Q585 22 606 35T641
59L646 50Q624 34 602 20T551 -2T482 -10Q434 -10 406 14T378 85Q378 117 380 138T386 177H382Q355 79 309 35T193 -10ZM260 31Q281 31 299 45T332 85T359 142T378 205L443 510Q434 521 419 526T386 532Q350 532 321 507T270 438T234 344T212 241T204 146Q204 101
211 76T231 41T260 31ZM416 584Q366 584 331 612T296 697Q296 753 331 781T416 810Q466 810 501 782T536 697Q536 641 501 613T416 584ZM417 594Q461 594 492 619T524 698Q524 752 493 776T417 800Q373 800 341 776T308 698Q308 644 340 619T417 594Z" />
<glyph unicode="&#xe6;" horiz-adv-x="907" d="M190 -10Q137 -10 104 13T55 78T39 171Q39 219 51 271T87 372T150 460T241 522T362 546Q423 546 461 529T528 483Q569 513 621 530T740 548Q819 548 862 517T905 429Q905 375 866 334T759 270T604 247H562Q561 234
560 216T559 186Q559 93 582 47T658 0Q712 0 750 42T809 156Q820 154 826 143T832 114Q832 86 811 58T744 10T626 -10Q558 -10 511 7T435 58T395 138H392Q352 62 306 26T190 -10ZM268 36Q297 36 328 68T390 163Q389 171 389 179T388 198Q388 253 404 305T449 403T519
477Q499 498 471 512T407 527Q368 527 337 502T282 437T243 348T220 252T212 167Q212 89 226 63T268 36ZM575 257Q623 257 660 283T719 356T741 465Q741 502 731 518T697 534Q672 534 651 512T613 452T584 364T563 257H575Z" />
<glyph unicode="&#xe7;" horiz-adv-x="539" d="M276 -10Q207 -10 153 13T68 85T37 214Q37 256 48 302T84 391T147 470T242 525T371 546Q431 546 468 532T524 493T542 438Q542 413 529 392T486 358T402 346Q404 362 404 378T405 414Q405 481 387 507T339 533Q316
533 296 513T260 457T233 376T215 282T209 185Q209 88 236 46T315 4Q345 4 369 20T413 69T445 157Q455 153 463 141T471 107Q471 79 451 52T388 8T276 -10ZM176 -240Q142 -240 120 -236T80 -226L82 -216Q98 -220 114 -222T143 -224Q170 -224 190 -214T220 -180T231
-114Q231 -85 221 -67T186 -45L208 7H218L199 -36Q253 -37 283 -49T327 -80T340 -125Q340 -164 318 -189T258 -227T176 -240Z" />
<glyph unicode="&#xe8;" horiz-adv-x="548" d="M274 -10Q198 -10 145 13T63 83T34 205Q34 245 45 291T82 383T148 465T247 524T385 546Q463 546 506 515T549 427Q549 373 510 333T403 271T248 248H210Q209 242 209 229T208 204T207 186Q207 119 218 78T250 20T302
2Q362 2 398 45T454 156Q464 153 470 143T476 111Q476 85 455 57T388 10T274 -10ZM228 258Q265 258 294 274T345 319T378 384T390 462Q390 501 379 516T344 532Q323 532 303 514T266 459T235 372T212 258H228ZM463 606Q438 617 409 635T351 674T298 717T261 756L264
766H407Q413 746 424 717T448 660T476 614L474 606H463Z" />
<glyph unicode="&#xe9;" horiz-adv-x="548" d="M274 -10Q198 -10 145 13T63 83T34 205Q34 245 45 291T82 383T148 465T247 524T385 546Q463 546 506 515T549 427Q549 373 510 333T403 271T248 248H210Q209 242 209 229T208 204T207 186Q207 119 218 78T250 20T302
2Q362 2 398 45T454 156Q464 153 470 143T476 111Q476 85 455 57T388 10T274 -10ZM228 258Q265 258 294 274T345 319T378 384T390 462Q390 501 379 516T344 532Q323 532 303 514T266 459T235 372T212 258H228ZM574 605Q593 625 614 652T655 707T690 756H839L836
746Q824 735 795 715T729 672T653 629T584 596H572L574 605Z" />
<glyph unicode="&#xea;" horiz-adv-x="548" d="M274 -10Q198 -10 145 13T63 83T34 205Q34 245 45 291T82 383T148 465T247 524T385 546Q463 546 506 515T549 427Q549 373 510 333T403 271T248 248H210Q209 242 209 229T208 204T207 186Q207 119 218 78T250 20T302
2Q362 2 398 45T454 156Q464 153 470 143T476 111Q476 85 455 57T388 10T274 -10ZM228 258Q265 258 294 274T345 319T378 384T390 462Q390 501 379 516T344 532Q323 532 303 514T266 459T235 372T212 258H228ZM205 613Q232 637 258 663T310 715T355 766H477Q487
747 502 717T535 659T563 613V606H551Q504 634 468 660T409 707Q389 695 358 677T290 640T219 606H205V613Z" />
<glyph unicode="&#xeb;" horiz-adv-x="548" d="M274 -10Q198 -10 145 13T63 83T34 205Q34 245 45 291T82 383T148 465T247 524T385 546Q463 546 506 515T549 427Q549 373 510 333T403 271T248 248H210Q209 242 209 229T208 204T207 186Q207 119 218 78T250 20T302
2Q362 2 398 45T454 156Q464 153 470 143T476 111Q476 85 455 57T388 10T274 -10ZM228 258Q265 258 294 274T345 319T378 384T390 462Q390 501 379 516T344 532Q323 532 303 514T266 459T235 372T212 258H228ZM505 616Q478 616 462 632T445 681Q445 707 452 726T475
755T509 766Q535 766 551 750T568 701Q568 653 548 635T505 616ZM291 616Q264 616 248 632T232 681Q232 707 240 726T262 755T296 766Q322 766 338 750T355 701Q355 653 335 635T291 616Z" />
<glyph unicode="&#xec;" horiz-adv-x="371" d="M197 -10Q133 -10 98 17T63 99Q63 113 65 129T71 166T80 216L125 434Q128 449 130 463T133 491Q133 511 123 518T84 526H63L65 536H324L244 158Q240 140 237 123T232 90T230 65Q231 44 239 34T267 23Q290 23 312
39T351 72L357 63Q333 35 296 13T197 -10ZM315 606Q290 617 261 635T203 674T150 717T113 756L116 766H259Q265 746 276 717T300 660T328 614L326 606H315Z" />
<glyph unicode="&#xed;" horiz-adv-x="371" d="M197 -10Q133 -10 98 17T63 99Q63 113 65 129T71 166T80 216L125 434Q128 449 130 463T133 491Q133 511 123 518T84 526H63L65 536H324L244 158Q240 140 237 123T232 90T230 65Q231 44 239 34T267 23Q290 23 312
39T351 72L357 63Q333 35 296 13T197 -10ZM426 605Q445 625 466 652T507 707T542 756H691L688 746Q676 735 647 715T581 672T505 629T436 596H424L426 605Z" />
<glyph unicode="&#xee;" horiz-adv-x="371" d="M197 -10Q133 -10 98 17T63 99Q63 113 65 129T71 166T80 216L125 434Q128 449 130 463T133 491Q133 511 123 518T84 526H63L65 536H324L244 158Q240 140 237 123T232 90T230 65Q231 44 239 34T267 23Q290 23 312
39T351 72L357 63Q333 35 296 13T197 -10ZM57 613Q84 637 110 663T162 715T207 766H329Q339 747 354 717T387 659T415 613V606H403Q356 634 320 660T261 707Q241 695 210 677T142 640T71 606H57V613Z" />
<glyph unicode="&#xef;" horiz-adv-x="371" d="M197 -10Q133 -10 98 17T63 99Q63 113 65 129T71 166T80 216L125 434Q128 449 130 463T133 491Q133 511 123 518T84 526H63L65 536H324L244 158Q240 140 237 123T232 90T230 65Q231 44 239 34T267 23Q290 23 312
39T351 72L357 63Q333 35 296 13T197 -10ZM357 616Q330 616 314 632T297 681Q297 707 304 726T327 755T361 766Q387 766 403 750T420 701Q420 653 400 635T357 616ZM143 616Q116 616 100 632T84 681Q84 707 92 726T114 755T148 766Q174 766 190 750T207 701Q207
653 187 635T143 616Z" />
<glyph unicode="&#xf0;" horiz-adv-x="631" d="M274 -10Q204 -10 151 14T69 88T39 216Q39 251 49 291T79 371T130 443T205 495T304 515Q336 515 358 507T396 482T420 440Q418 498 403 550T362 645T301 716T222 759L225 768Q298 754 364 722T482 640T564 519T594
358Q594 283 573 217T512 99T412 19T274 -10ZM286 0Q312 0 333 16T370 63T398 138T414 236T420 355Q420 420 400 459T335 498Q309 498 289 482T254 435T230 365T215 278T210 180Q210 114 218 75T242 18T286 0ZM208 580L210 594L549 749L545 736L208 580Z" />
<glyph unicode="&#xf1;" horiz-adv-x="700" d="M518 -10Q454 -10 421 19T388 99Q388 120 391 146T403 207L431 335Q434 348 438 368T446 410T449 449Q449 463 447 476T437 499T412 509Q389 509 370 493T334 451T305 395T287 338L206 0H33L127 444Q129 456 131
470T134 493Q134 510 126 518T88 526H66L67 536H320L300 416H303Q327 465 353 493T415 534T496 546Q543 546 570 530T608 488T620 430Q620 404 614 373T602 315L569 162Q564 135 560 112T555 67Q555 45 565 34T592 22Q610 22 626 31T656 51T679 72L685 64Q661 37
620 14T518 -10ZM507 610Q478 610 453 621T406 647T362 673T317 684Q295 684 280 673T254 646T240 616H230Q237 655 254 689T299 746T367 768Q394 768 417 757T463 732T509 706T557 695Q586 695 601 714T627 762H637Q631 725 616 690T574 632T507 610Z" />
<glyph unicode="&#xf2;" horiz-adv-x="624" d="M263 -10Q159 -10 97 43T34 204Q34 246 45 292T82 383T147 465T243 524T374 546Q434 546 483 524T561 456T591 334Q591 294 580 248T545 156T483 73T390 13T263 -10ZM267 0Q299 0 323 27T365 100T396 200T414 308T420
407Q420 458 415 486T399 525T366 536Q336 536 311 510T267 440T234 342T214 233T207 130Q207 59 221 30T267 0ZM465 606Q440 617 411 635T353 674T300 717T263 756L266 766H409Q415 746 426 717T450 660T478 614L476 606H465Z" />
<glyph unicode="&#xf3;" horiz-adv-x="624" d="M263 -10Q159 -10 97 43T34 204Q34 246 45 292T82 383T147 465T243 524T374 546Q434 546 483 524T561 456T591 334Q591 294 580 248T545 156T483 73T390 13T263 -10ZM267 0Q299 0 323 27T365 100T396 200T414 308T420
407Q420 458 415 486T399 525T366 536Q336 536 311 510T267 440T234 342T214 233T207 130Q207 59 221 30T267 0ZM577 605Q596 625 617 652T658 707T693 756H842L839 746Q827 735 798 715T732 672T656 629T587 596H575L577 605Z" />
<glyph unicode="&#xf4;" horiz-adv-x="624" d="M263 -10Q159 -10 97 43T34 204Q34 246 45 292T82 383T147 465T243 524T374 546Q434 546 483 524T561 456T591 334Q591 294 580 248T545 156T483 73T390 13T263 -10ZM267 0Q299 0 323 27T365 100T396 200T414 308T420
407Q420 458 415 486T399 525T366 536Q336 536 311 510T267 440T234 342T214 233T207 130Q207 59 221 30T267 0ZM208 613Q235 637 261 663T313 715T358 766H480Q490 747 505 717T538 659T566 613V606H554Q507 634 471 660T412 707Q392 695 361 677T293 640T222
606H208V613Z" />
<glyph unicode="&#xf5;" horiz-adv-x="624" d="M263 -10Q159 -10 97 43T34 204Q34 246 45 292T82 383T147 465T243 524T374 546Q434 546 483 524T561 456T591 334Q591 294 580 248T545 156T483 73T390 13T263 -10ZM267 0Q299 0 323 27T365 100T396 200T414 308T420
407Q420 458 415 486T399 525T366 536Q336 536 311 510T267 440T234 342T214 233T207 130Q207 59 221 30T267 0ZM470 610Q441 610 416 621T369 647T325 673T280 684Q258 684 243 673T217 646T203 616H193Q200 655 217 689T262 746T330 768Q357 768 380 757T426
732T472 706T520 695Q549 695 564 714T590 762H600Q594 725 579 690T537 632T470 610Z" />
<glyph unicode="&#xf6;" horiz-adv-x="624" d="M263 -10Q159 -10 97 43T34 204Q34 246 45 292T82 383T147 465T243 524T374 546Q434 546 483 524T561 456T591 334Q591 294 580 248T545 156T483 73T390 13T263 -10ZM267 0Q299 0 323 27T365 100T396 200T414 308T420
407Q420 458 415 486T399 525T366 536Q336 536 311 510T267 440T234 342T214 233T207 130Q207 59 221 30T267 0ZM508 616Q481 616 465 632T448 681Q448 707 455 726T478 755T512 766Q538 766 554 750T571 701Q571 653 551 635T508 616ZM294 616Q267 616 251 632T235
681Q235 707 243 726T265 755T299 766Q325 766 341 750T358 701Q358 653 338 635T294 616Z" />
<glyph unicode="&#xf7;" horiz-adv-x="559" d="M84 347V367H513V347H84ZM299 144Q282 144 270 153T258 186Q258 211 270 220T299 229Q316 229 328 220T340 186Q340 163 328 154T299 144ZM299 486Q282 486 270 495T258 529Q258 553 270 562T299 571Q316 571 328
562T340 529Q340 505 328 496T299 486Z" />
<glyph unicode="&#xf8;" horiz-adv-x="636" d="M54 -50L566 586H576L64 -50H54ZM263 -10Q159 -10 97 43T34 204Q34 246 45 292T82 383T147 465T243 524T374 546Q434 546 483 524T561 456T591 334Q591 294 580 248T545 156T483 73T390 13T263 -10ZM267 0Q299 0
323 27T365 100T396 200T414 308T420 407Q420 458 415 486T399 525T366 536Q336 536 311 510T267 440T234 342T214 233T207 130Q207 59 221 30T267 0Z" />
<glyph unicode="&#xf9;" horiz-adv-x="702" d="M520 -10Q470 -10 443 3T404 37T392 83Q392 90 394 106T398 140T402 163H395Q373 103 342 65T270 9T181 -9Q137 -9 112 6T75 47T64 102Q64 127 70 157T81 212L124 436Q129 459 131 473T133 495Q133 512 125 519T87
526H65L67 536H322L246 181Q242 163 239 144T234 109T232 80Q232 57 241 45T271 32Q291 32 312 48T351 93T383 156T405 228L473 536H648L565 148Q562 134 560 119T556 90T554 65Q554 41 563 30T589 18Q611 18 637 34T681 71L687 64Q661 37 623 14T520 -10ZM495
606Q470 617 441 635T383 674T330 717T293 756L296 766H439Q445 746 456 717T480 660T508 614L506 606H495Z" />
<glyph unicode="&#xfa;" horiz-adv-x="702" d="M520 -10Q470 -10 443 3T404 37T392 83Q392 90 394 106T398 140T402 163H395Q373 103 342 65T270 9T181 -9Q137 -9 112 6T75 47T64 102Q64 127 70 157T81 212L124 436Q129 459 131 473T133 495Q133 512 125 519T87
526H65L67 536H322L246 181Q242 163 239 144T234 109T232 80Q232 57 241 45T271 32Q291 32 312 48T351 93T383 156T405 228L473 536H648L565 148Q562 134 560 119T556 90T554 65Q554 41 563 30T589 18Q611 18 637 34T681 71L687 64Q661 37 623 14T520 -10ZM606
605Q625 625 646 652T687 707T722 756H871L868 746Q856 735 827 715T761 672T685 629T616 596H604L606 605Z" />
<glyph unicode="&#xfb;" horiz-adv-x="702" d="M520 -10Q470 -10 443 3T404 37T392 83Q392 90 394 106T398 140T402 163H395Q373 103 342 65T270 9T181 -9Q137 -9 112 6T75 47T64 102Q64 127 70 157T81 212L124 436Q129 459 131 473T133 495Q133 512 125 519T87
526H65L67 536H322L246 181Q242 163 239 144T234 109T232 80Q232 57 241 45T271 32Q291 32 312 48T351 93T383 156T405 228L473 536H648L565 148Q562 134 560 119T556 90T554 65Q554 41 563 30T589 18Q611 18 637 34T681 71L687 64Q661 37 623 14T520 -10ZM238
613Q265 637 291 663T343 715T388 766H510Q520 747 535 717T568 659T596 613V606H584Q537 634 501 660T442 707Q422 695 391 677T323 640T252 606H238V613Z" />
<glyph unicode="&#xfc;" horiz-adv-x="702" d="M520 -10Q470 -10 443 3T404 37T392 83Q392 90 394 106T398 140T402 163H395Q373 103 342 65T270 9T181 -9Q137 -9 112 6T75 47T64 102Q64 127 70 157T81 212L124 436Q129 459 131 473T133 495Q133 512 125 519T87
526H65L67 536H322L246 181Q242 163 239 144T234 109T232 80Q232 57 241 45T271 32Q291 32 312 48T351 93T383 156T405 228L473 536H648L565 148Q562 134 560 119T556 90T554 65Q554 41 563 30T589 18Q611 18 637 34T681 71L687 64Q661 37 623 14T520 -10ZM538
616Q511 616 495 632T478 681Q478 707 485 726T508 755T542 766Q568 766 584 750T601 701Q601 653 581 635T538 616ZM324 616Q297 616 281 632T265 681Q265 707 273 726T295 755T329 766Q355 766 371 750T388 701Q388 653 368 635T324 616Z" />
<glyph unicode="&#xfd;" horiz-adv-x="574" d="M-48 -240Q-84 -240 -114 -234T-166 -219L-163 -209Q-145 -214 -117 -219T-45 -225Q-4 -225 32 -219T101 -200T162 -166T219 -116L74 473Q67 503 57 514T24 526H14L17 536H239L306 209Q310 190 314 164T323 112T331
62T337 25H339Q381 78 411 123T462 209T491 288T501 368Q501 406 486 426T449 453T401 461Q401 504 422 525T478 546Q518 546 538 522T558 458Q558 401 536 337T474 203T384 67Q326 -8 280 -66T187 -162T85 -220T-48 -240ZM540 605Q559 625 580 652T621 707T656
756H805L802 746Q790 735 761 715T695 672T619 629T550 596H538L540 605Z" />
<glyph unicode="&#xfe;" horiz-adv-x="648" d="M161 671Q163 685 165 696T167 714Q167 733 159 741T121 750H98L100 760H359L325 607Q319 575 308 537T285 458T259 379H265Q281 430 305 467T366 525T454 546Q499 546 534 527T589 467T610 364Q610 318 598 267T560
167T497 77T406 14T289 -10Q254 -10 231 -3T193 18Q191 6 189 -6T183 -35L161 -152Q159 -166 157 -176T155 -195Q155 -217 168 -223T209 -230H250L249 -240H-33L161 671ZM258 4Q290 4 317 26T367 88T404 176T428 278T436 382Q436 428 430 455T411 494T378 506Q359
506 341 492T308 453T282 402T266 347L198 29Q207 19 222 12T258 4Z" />
<glyph unicode="&#xff;" horiz-adv-x="574" d="M-48 -240Q-84 -240 -114 -234T-166 -219L-163 -209Q-145 -214 -117 -219T-45 -225Q-4 -225 32 -219T101 -200T162 -166T219 -116L74 473Q67 503 57 514T24 526H14L17 536H239L306 209Q310 190 314 164T323 112T331
62T337 25H339Q381 78 411 123T462 209T491 288T501 368Q501 406 486 426T449 453T401 461Q401 504 422 525T478 546Q518 546 538 522T558 458Q558 401 536 337T474 203T384 67Q326 -8 280 -66T187 -162T85 -220T-48 -240ZM471 616Q444 616 428 632T411 681Q411
707 418 726T441 755T475 766Q501 766 517 750T534 701Q534 653 514 635T471 616ZM257 616Q230 616 214 632T198 681Q198 707 206 726T228 755T262 766Q288 766 304 750T321 701Q321 653 301 635T257 616Z" />
<glyph unicode="&#x2013;" horiz-adv-x="500" d="M-5 273L-1 293H511L506 273H-5Z" />
<glyph unicode="&#x2014;" horiz-adv-x="1000" d="M-6 268L-1 288H1011L1005 268H-6Z" />
<glyph unicode="&#x2018;" horiz-adv-x="292" d="M210 401Q171 401 149 426T126 493Q126 546 150 590T221 667T338 715L337 705Q273 687 238 662T203 600Q203 575 214 561T241 538T268 515T280 476Q280 440 261 421T210 401Z" />
<glyph unicode="&#x2019;" horiz-adv-x="293" d="M79 411Q143 429 178 454T213 516Q213 542 201 555T174 578T148 601T136 640Q136 676 155 695T206 715Q245 715 267 690T290 623Q290 570 266 526T195 449T77 401L79 411Z" />
<glyph unicode="&#x201a;" horiz-adv-x="292" d="M-39 -145Q25 -127 60 -102T95 -40Q95 -14 83 -1T56 22T30 45T18 84Q18 120 37 139T88 159Q127 159 149 134T172 67Q172 14 148 -30T77 -107T-41 -155L-39 -145Z" />
<glyph unicode="&#x201c;" horiz-adv-x="505" d="M421 401Q382 401 360 426T338 493Q338 546 361 590T432 667T550 715L548 705Q484 687 449 662T414 600Q414 575 426 561T453 538T479 515T491 476Q491 440 472 421T421 401ZM209 401Q170 401 148 426T126 493Q126
546 149 590T220 667T338 715L336 705Q273 687 238 662T203 600Q203 575 214 561T241 538T267 515T279 476Q279 440 260 421T209 401Z" />
<glyph unicode="&#x201d;" horiz-adv-x="505" d="M319 411Q384 429 418 454T453 516Q453 542 442 555T415 578T388 601T376 640Q376 676 395 695T447 715Q486 715 508 690T530 623Q530 570 506 526T435 449T318 401L319 411ZM108 411Q172 429 207 454T242 516Q242
542 231 555T204 578T177 601T165 640Q165 676 184 695T235 715Q274 715 296 690T319 623Q319 570 295 526T224 449T107 401L108 411Z" />
<glyph unicode="&#x201e;" horiz-adv-x="505" d="M189 -201Q254 -183 288 -158T323 -96Q323 -70 312 -57T285 -34T258 -11T246 28Q246 64 265 83T317 103Q356 103 378 78T400 11Q400 -42 376 -86T305 -163T188 -211L189 -201ZM-22 -201Q42 -183 77 -158T112 -96Q112
-70 101 -57T74 -34T47 -11T35 28Q35 64 54 83T105 103Q144 103 166 78T189 11Q189 -42 165 -86T94 -163T-23 -211L-22 -201Z" />
<glyph unicode="&#x2022;" horiz-adv-x="415" d="M223 193Q163 193 125 231T87 342Q87 392 101 431T147 495T230 519Q269 519 299 502T346 451T364 370Q364 304 345 265T293 210T223 193Z" />
<glyph unicode="&#x2039;" horiz-adv-x="333" d="M230 66L64 277L65 288L317 474H330L201 271L242 66H230Z" />
<glyph unicode="&#x203a;" horiz-adv-x="335" d="M3 66L133 269L92 474H103L273 273L272 262L16 66H3Z" />
</font>
</defs>
</svg>
