<?xml version="1.0" standalone="no"?>
<!DOCTYPE svg PUBLIC "-//W3C//DTD SVG 1.1//EN" "http://www.w3.org/Graphics/SVG/1.1/DTD/svg11.dtd">
<svg xmlns="http://www.w3.org/2000/svg">
<defs >
<font id="NotoSerifDisplay" horiz-adv-x="592" ><font-face
    font-family="Noto Serif Display ExtraLight"
    units-per-em="1000"
    panose-1="2 2 5 2 8 5 5 9 2 4"
    ascent="1069"
    descent="-293"
    alphabetic="0" />
<glyph unicode=" " horiz-adv-x="250" />
<glyph unicode="!" horiz-adv-x="271" d="M108 190L203 714H251L121 190H108ZM80 -7Q70 -7 64 -1T57 22Q57 44 66 64T99 85Q110 85 116 79T123 56Q123 41 119 26T106 2T80 -7Z" />
<glyph unicode="&quot;" horiz-adv-x="195" d="M91 479L125 714H170L103 479H91ZM181 479L215 714H260L193 479H181Z" />
<glyph unicode="#" horiz-adv-x="559" d="M69 0L138 234H22V244H140L216 498H99V508H218L278 714H288L228 508H439L499 714H509L449 508H580V498H447L371 244H503V234H369L300 0H290L359 234H148L79 0H69ZM150 244H361L437 498H226L150 244Z" />
<glyph unicode="$" horiz-adv-x="521" d="M218 38Q154 39 116 63T62 124T46 199Q46 212 51 221T64 235T82 240Q82 179 95 137T138 73T220 48L284 348L251 364Q219 380 199 399T168 446T158 512Q158 563 181 600T248 659T355 681L371 760H381L365 681Q415 679 444
664T485 625T498 578Q498 561 487 552T460 543Q460 582 451 609T421 652T363 671L302 384L332 368Q371 348 395 326T432 274T445 206Q445 154 420 117T347 59T228 38L203 -79H193L218 38ZM230 48Q294 48 331 69T385 126T402 201Q402 233 394 256T361 300T293 344L230
48ZM352 671Q311 671 276 656T221 606T200 515Q200 485 209 462T238 420T292 388L352 671Z" />
<glyph unicode="%" horiz-adv-x="852" d="M198 0L688 714H700L209 0H198ZM191 283Q140 283 109 323T78 450Q78 488 89 534T123 623T181 693T265 721Q325 721 352 678T379 561Q379 530 372 493T351 418T314 351T261 302T191 283ZM191 293Q223 293 247 311T288 359T317
425T334 497T340 564Q340 645 320 678T265 711Q234 711 210 692T168 643T139 576T122 506T116 447Q116 366 136 330T191 293ZM624 -6Q574 -6 543 34T511 161Q511 199 522 245T556 334T615 404T699 432Q758 432 785 389T812 272Q812 241 805 204T784 129T747 62T694
13T624 -6ZM625 4Q656 4 680 22T722 70T751 136T767 208T773 275Q773 356 753 389T698 422Q666 422 642 403T601 354T572 287T555 217T550 158Q550 77 569 41T625 4Z" />
<glyph unicode="&amp;" horiz-adv-x="685" d="M211 -10Q145 -10 101 16T35 85T13 175Q13 245 43 287T121 354T226 394Q199 436 182 479T165 557Q165 607 186 645T251 703T361 724Q413 724 446 707T496 660T513 596Q513 548 489 513T413 451T272 398L447 151Q474
200 497 256T529 361L540 410H687L684 400H624Q601 400 588 396T568 379T551 343Q534 290 511 232T459 134L515 52Q534 26 545 18T580 10H625L623 0H504L434 100Q395 52 340 21T211 -10ZM214 0Q281 0 334 33T422 117L233 385Q172 363 133 338T75 274T56 176Q56
126 74 87T127 24T214 0ZM266 408Q343 432 388 458T454 518T474 595Q474 649 444 681T359 714Q278 714 242 674T206 559Q206 541 212 518T232 467T266 408Z" />
<glyph unicode="&apos;" horiz-adv-x="105" d="M91 479L125 714H170L103 479H91Z" />
<glyph unicode="(" horiz-adv-x="292" d="M166 -117Q122 -89 94 -43T53 63T40 196Q40 276 58 359T114 520T211 656T353 747L351 737Q295 709 252 662T176 555T124 432T93 304T82 187Q82 123 90 67T118 -34T169 -108L166 -117Z" />
<glyph unicode=")" horiz-adv-x="292" d="M-53 -109Q5 -80 49 -33T124 74T176 198T206 324T216 442Q216 507 209 563T183 664T130 736L132 746Q176 718 204 672T245 566T258 432Q258 353 241 269T185 109T88 -28T-55 -119L-53 -109Z" />
<glyph unicode="*" horiz-adv-x="410" d="M256 376L204 388L262 560L102 495L89 545L260 571L115 664L147 707L266 579L283 761L334 750L276 577L438 644L449 592L277 567L423 475L394 434L272 557L256 376Z" />
<glyph unicode="+" horiz-adv-x="559" d="M288 143V347H84V367H288V572H308V367H513V347H308V143H288Z" />
<glyph unicode="," horiz-adv-x="188" d="M-32 -132Q12 -122 34 -102T63 -60T70 -22Q70 -9 62 -2T44 12T25 27T17 46Q17 61 26 73T53 85Q74 85 86 68T98 22Q98 -12 88 -44T50 -102T-30 -141L-32 -132Z" />
<glyph unicode="-" horiz-adv-x="310" d="M25 268L29 288H289L285 268H25Z" />
<glyph unicode="." horiz-adv-x="184" d="M38 -7Q28 -7 22 -1T15 22Q15 44 24 64T57 85Q68 85 74 79T81 56Q81 41 77 26T64 2T38 -7Z" />
<glyph unicode="/" horiz-adv-x="241" d="M-78 -121L329 760H341L-68 -121H-78Z" />
<glyph unicode="0" horiz-adv-x="521" d="M215 -11Q138 -11 93 47T48 222Q48 282 58 350T91 485T147 605T229 691T340 723Q387 723 425 701T485 627T508 491Q508 429 499 360T468 226T413 106T330 21T215 -11ZM216 -1Q262 -1 298 21T361 81T409 169T441 274T459
385T465 491Q465 579 449 627T405 694T339 713Q285 713 245 682T175 599T127 481T100 348T91 217Q91 143 105 95T148 23T216 -1Z" />
<glyph unicode="1" horiz-adv-x="521" d="M50 0L52 10H122Q151 10 166 13T189 27T202 62L296 494Q308 547 316 583T330 643T340 684H339Q296 647 266 622T212 584T168 571Q151 571 146 578T140 598Q170 597 190 601T232 618T287 657L366 718H385L248 72Q246 62
245 53T243 35Q243 19 254 15T294 10H376L374 0H50Z" />
<glyph unicode="2" horiz-adv-x="521" d="M11 0L23 41L265 265Q316 312 350 350T405 423T435 494T444 573Q444 648 410 681T316 714Q279 714 251 702T204 668T175 616T164 554Q147 554 138 562T129 586Q129 616 150 648T214 702T317 724Q397 724 442 685T488 572Q488
515 465 466T396 367T278 253L33 37H332Q361 37 376 42T398 60T413 97L425 139H435L404 0H11Z" />
<glyph unicode="3" horiz-adv-x="521" d="M198 -10Q134 -10 94 6T36 49T17 105Q17 121 26 131T53 142Q53 98 68 67T115 18T199 0Q241 0 275 13T335 53T375 123T389 222Q389 300 352 335T244 371H200L204 381H250Q289 381 323 393T384 430T425 491T440 575Q440
639 409 676T317 714Q262 714 229 692T181 630T164 536Q150 536 139 545T128 576Q128 614 151 648T217 703T317 724Q391 724 437 683T484 573Q484 535 470 502T431 442T370 399T290 377Q330 373 362 354T413 301T433 223Q433 164 416 120T368 48T293 5T198 -10Z"
/>
<glyph unicode="4" horiz-adv-x="521" d="M132 0L134 10H213Q239 10 253 14T275 32T289 76L376 492Q387 543 399 596T423 701Q415 690 399 670T363 627T326 582L39 243L40 242H493L487 210H14L19 232L423 714H466L331 75Q329 66 328 57T326 42Q326 21 337 16T381
10H434L431 0H132Z" />
<glyph unicode="5" horiz-adv-x="521" d="M200 -10Q140 -10 103 10T48 59T30 114Q30 131 38 140T66 149Q66 109 80 75T125 21T200 0Q242 0 278 15T341 60T383 135T398 240Q398 286 382 325T333 387T252 410Q213 410 187 402T131 377L123 381L225 714H509L484 595H474Q478
615 480 629T482 652Q482 666 476 671T455 677H224L136 390Q151 399 170 406T211 417T255 422Q310 422 352 401T418 338T442 238Q442 186 426 141T379 61T303 9T200 -10Z" />
<glyph unicode="6" horiz-adv-x="521" d="M244 -10Q194 -10 156 17T96 96T75 226Q75 312 91 387T137 525T206 631T294 700T396 724Q458 724 491 696T524 623Q524 608 515 597T485 585Q485 624 478 653T452 698T396 714Q350 714 307 689T229 618T168 508T130 365Q160
392 204 412T298 432Q353 432 390 408T445 345T464 257Q464 205 451 157T410 72T341 12T244 -10ZM246 0Q290 0 322 18T377 71T410 152T421 255Q421 307 406 343T362 399T294 419Q248 419 207 402T128 351Q124 330 122 307T119 261T118 220Q118 146 133 97T177 24T246
0Z" />
<glyph unicode="7" horiz-adv-x="521" d="M155 0L537 677H192Q174 677 166 671T153 646L128 561H118L158 714H560L555 691L194 0H155Z" />
<glyph unicode="8" horiz-adv-x="521" d="M233 -10Q136 -10 84 35T32 154Q32 210 60 252T138 325T252 375Q211 399 184 425T142 481T128 546Q128 592 151 633T222 699T340 724Q429 724 474 683T519 578Q519 528 494 491T422 427T313 381Q364 357 398 329T451 266T469
187Q469 118 437 74T352 10T233 -10ZM237 0Q296 0 338 20T403 80T426 178Q426 223 409 255T355 314T262 367Q204 348 162 318T97 246T74 152Q74 105 93 71T148 19T237 0ZM302 388Q400 422 439 467T478 579Q478 617 465 647T420 696T339 714Q288 714 250 695T191
640T170 550Q170 518 184 490T227 437T302 388Z" />
<glyph unicode="9" horiz-adv-x="521" d="M171 -10Q119 -10 90 5T49 43T37 88Q37 104 45 114T71 124Q71 87 80 59T111 16T173 0Q225 0 267 28T343 106T400 225T436 373Q408 336 360 314T261 292Q183 292 140 341T97 473Q97 531 113 577T158 656T227 706T312 724Q369
724 407 695T466 614T486 489Q486 420 474 350T436 215T373 100T285 20T171 -10ZM263 303Q321 303 365 328T437 386Q439 401 440 423T442 465T443 497Q443 563 430 611T387 687T314 714Q274 714 243 699T188 652T153 577T140 473Q140 424 154 386T196 325T263 303Z"
/>
<glyph unicode=":" horiz-adv-x="214" d="M45 -7Q34 -7 28 -1T21 22Q21 44 30 64T63 85Q74 85 81 79T88 56Q88 41 84 26T70 2T45 -7ZM140 449Q129 449 123 455T116 478Q116 500 126 520T159 541Q170 541 176 535T183 512Q183 497 179 482T165 458T140 449Z" />
<glyph unicode=";" horiz-adv-x="214" d="M-41 -132Q-4 -124 18 -107T51 -67T61 -24Q61 -9 53 -1T35 13T17 26T9 48Q9 64 18 74T45 85Q64 85 76 68T89 22Q89 -15 78 -47T39 -104T-39 -141L-41 -132ZM140 449Q129 449 123 455T116 478Q116 500 126 520T159 541Q170
541 176 535T183 512Q183 497 179 482T165 458T140 449Z" />
<glyph unicode="&lt;" horiz-adv-x="559" d="M488 119L59 347V367L488 595V572L81 357L488 142V119Z" />
<glyph unicode="=" horiz-adv-x="559" d="M87 455V475H510V455H87ZM87 239V259H510V239H87Z" />
<glyph unicode="&gt;" horiz-adv-x="559" d="M108 119V142L515 357L108 572V595L537 367V347L108 119Z" />
<glyph unicode="?" horiz-adv-x="450" d="M185 330Q242 339 284 362T355 418T397 491T411 575Q411 623 396 653T354 699T291 714Q239 714 208 692T162 632T143 549Q128 549 121 557T113 582Q113 618 132 650T192 703T293 724Q365 724 409 684T454 575Q454 515
426 465T345 379T215 325L180 190H169L185 330ZM143 -7Q132 -7 126 -1T119 22Q119 44 129 64T161 85Q173 85 179 79T186 56Q186 41 182 26T168 2T143 -7Z" />
<glyph unicode="@" horiz-adv-x="861" d="M400 -142Q300 -142 228 -106T118 5T79 193Q79 311 114 407T210 572T354 677T530 714Q631 714 703 672T815 558T854 392Q854 322 837 265T789 165T724 100T652 77Q628 77 609 84T576 107T554 145T546 196H544Q534 168
514 141T466 95T399 77Q345 77 309 115T272 237Q272 295 289 348T338 441T414 505T510 529Q540 529 567 519T610 494L644 520H653L597 286Q588 247 585 224T582 179Q582 133 599 110T654 87Q682 87 711 109T764 171T804 268T819 394Q819 491 782 560T681 667T532
704Q440 704 364 667T233 561T148 401T118 198Q118 108 137 46T193 -56T283 -113T402 -132Q481 -132 545 -104T660 -36L667 -45Q634 -69 594 -91T505 -128T400 -142ZM407 89Q441 89 469 110T517 164T545 231L601 474Q590 494 567 506T513 519Q474 519 443 503T387
458T346 392T321 313T313 228Q313 153 339 121T407 89Z" />
<glyph unicode="A" horiz-adv-x="659" d="M-62 0L-60 10H-29Q-4 10 10 15T38 40T77 105L417 714H437L536 91Q542 54 547 37T563 15T591 10H604L602 0H402L404 10H439Q474 10 485 19T497 52Q497 63 496 77T493 97L435 480Q431 510 425 547T415 622T408 683Q399
664 390 647T369 610T344 564T310 504L87 102Q77 83 69 65T60 35Q60 19 71 15T112 10H162L160 0H-62ZM168 258L173 268H491L492 258H168Z" />
<glyph unicode="B" horiz-adv-x="617" d="M-10 0L-7 10H25Q59 10 76 17T98 50L228 666Q230 670 230 673T230 680Q230 694 219 699T186 704H139L141 714H358Q479 714 531 676T583 564Q583 507 559 468T493 406T396 377L395 374Q437 369 470 350T522 299T541 227Q541
175 526 133T477 61T392 16T270 0H-10ZM259 10Q324 10 369 25T442 69T483 139T496 231Q496 298 450 334T311 371H209L133 10H259ZM311 381Q378 381 422 395T491 434T527 492T538 565Q538 633 494 668T354 704H280L211 381H311Z" />
<glyph unicode="C" horiz-adv-x="590" d="M313 -10Q235 -10 179 24T92 119T61 256Q61 327 77 395T125 523T201 627T302 698T424 724Q512 724 558 688T604 591Q604 573 594 562T564 551Q564 588 557 618T534 669T490 702T423 714Q363 714 314 687T225 614T160 508T120
383T106 253Q106 178 132 121T205 32T315 0Q363 0 398 16T456 60T493 124Q498 122 500 118T503 106Q503 81 483 54T420 9T313 -10Z" />
<glyph unicode="D" horiz-adv-x="674" d="M-10 0L-6 10H28Q65 10 79 19T101 61L229 666Q230 670 230 673T231 680Q231 694 220 699T188 704H139L141 714H373Q506 714 576 645T647 442Q647 371 632 305T585 184T508 87T402 23T268 0H-10ZM259 10Q322 10 375 30T471
89T542 181T587 301T602 444Q602 533 573 591T493 676T372 704H280L133 10H259Z" />
<glyph unicode="E" horiz-adv-x="602" d="M-10 0L-7 10H30Q67 10 80 19T98 50L228 666Q229 669 229 672T230 678Q230 693 220 698T188 704H139L141 714H606L576 550H566Q568 568 570 583T574 613T575 637Q575 661 570 675T552 696T514 704H280L211 381H466L465
371H209L133 10H397Q422 10 438 14T465 28T484 58T501 107L518 164H528L487 0H-10Z" />
<glyph unicode="F" horiz-adv-x="554" d="M-11 0L-9 10H28Q60 10 76 17T98 50L226 655Q228 662 229 669T230 681Q230 695 219 699T182 704H139L141 714H597L567 550H557Q561 580 564 604T568 645Q568 664 563 677T544 697T502 704H280L206 358H461L460 348H204L142
54Q141 50 141 46T140 37Q140 19 152 15T190 10H242L240 0H-11Z" />
<glyph unicode="G" horiz-adv-x="660" d="M325 -10Q191 -10 126 62T60 258Q60 334 79 403T134 531T220 633T330 700T460 724Q506 724 542 715T602 690T639 650T652 596Q652 584 647 575T632 561T610 556Q610 613 596 647T548 698T454 714Q406 714 362 698T278
650T208 577T153 483T118 375T105 255Q105 185 127 128T197 35T326 0Q369 0 409 9T479 34L532 271Q533 275 533 278T533 286Q533 298 520 303T472 309H443L445 319H650L648 309H633Q614 309 603 306T585 294T575 267L522 33Q473 12 426 1T325 -10Z" />
<glyph unicode="H" horiz-adv-x="748" d="M-11 0L-9 10H28Q65 10 79 20T100 58L226 652Q228 658 228 664T229 675Q229 685 224 691T208 701T177 704H140L141 714H382V704H343Q307 704 291 694T269 653L211 379H601L657 646Q659 654 660 661T661 675Q661 691 650
697T610 704H572V714H814L813 704H776Q740 704 724 692T699 640L577 63Q576 59 575 54T574 44Q574 31 581 23T600 13T627 10H664L662 0H420L422 10H461Q498 10 512 20T533 61L599 369H209L144 58Q143 53 142 48T141 38Q141 24 153 17T194 10H232L230 0H-11Z" />
<glyph unicode="I" horiz-adv-x="314" d="M-11 0L-9 10H27Q64 10 79 21T102 68L224 646Q226 654 227 661T228 674Q228 690 217 697T175 704H139L141 714H380L378 704H342Q305 704 290 693T266 641L146 72Q144 63 143 55T141 39Q141 22 153 16T194 10H231L229 0H-11Z" />
<glyph unicode="J" horiz-adv-x="319" d="M-67 -240Q-91 -240 -109 -237T-145 -229L-140 -217Q-124 -221 -109 -223T-80 -226Q-41 -226 -14 -209T33 -152T67 -44L217 656Q218 661 218 665T219 674Q219 692 206 698T165 704H121L123 714H375L373 704H332Q295 704
281 694T260 654L114 -21Q97 -102 74 -150T16 -219T-67 -240Z" />
<glyph unicode="K" horiz-adv-x="662" d="M-11 0L-9 10H28Q52 10 66 15T89 34T104 78L225 651Q226 656 227 661T228 671Q228 689 216 696T175 704H139L141 714H380L378 704H342Q317 704 303 701T281 685T267 647L191 283L579 636Q599 655 609 666T620 687Q620
694 612 697T588 702T546 704L549 714H724L721 704Q702 704 688 701T659 689T620 659T559 604L341 402L354 423L498 76Q508 53 517 38T539 17T571 10H592L590 0H565Q541 0 524 3T493 14T471 35T453 68L320 390L334 395L188 266L148 82Q146 70 144 60T142 42Q142
24 154 17T194 10H231L229 0H-11Z" />
<glyph unicode="L" horiz-adv-x="578" d="M-11 0L-7 10H22Q51 10 65 14T88 33T104 84L227 660Q228 665 228 669T229 677Q229 697 215 700T175 704H139L141 714H380L378 704H342Q306 704 291 694T269 650L132 10H377Q411 10 430 20T461 55T484 119L508 207H518L467 0H-11Z" />
<glyph unicode="M" horiz-adv-x="904" d="M-11 0L-9 10H28Q53 10 68 14T92 32T107 69L224 620Q229 637 230 649T232 671Q232 692 218 698T175 704H139L141 714H281L422 46L828 714H971L969 704H933Q896 704 882 695T860 654L741 91Q738 74 736 62T733 40Q733 19
745 15T785 10H821L819 0H583L585 10H621Q646 10 660 15T682 38T699 93L823 685L407 0H390L245 671L117 68Q116 61 115 54T113 41Q113 25 126 18T171 10H210L208 0H-11Z" />
<glyph unicode="N" horiz-adv-x="697" d="M-11 0L-9 10H28Q53 10 68 13T91 29T104 66L229 649Q231 659 232 666T233 679Q233 694 223 699T189 704H139L141 714H281L522 58L642 620Q646 636 647 649T649 670Q649 690 635 697T591 704H539L541 714H774L772 704H735Q710
704 694 699T669 675T651 619L520 0H502L247 684L117 76Q115 64 113 54T111 37Q111 22 124 16T164 10H224L222 0H-11Z" />
<glyph unicode="O" horiz-adv-x="700" d="M306 -11Q237 -11 182 19T94 110T61 266Q61 324 76 387T121 510T196 618T301 696T435 725Q499 725 554 696T643 607T677 450Q677 401 667 348T636 243T585 146T513 65T420 9T306 -11ZM307 -1Q370 -1 422 25T513 96T578
201T618 325T631 455Q631 551 605 607T535 689T433 715Q371 715 320 689T229 618T162 514T120 390T106 260Q106 161 133 104T207 23T307 -1Z" />
<glyph unicode="P" horiz-adv-x="566" d="M-11 0L-9 10H27Q64 10 79 22T102 75L224 647Q226 653 226 659T227 670Q227 690 213 697T169 704H139L141 714H357Q426 714 471 691T541 630T565 543Q565 505 558 469T533 400T482 344T395 305T264 291H192L144 70Q142
63 141 55T140 41Q140 25 151 18T189 10H242L240 0H-11ZM255 301Q327 301 377 316T459 362T505 435T520 536Q520 617 480 660T353 704H280L195 301H255Z" />
<glyph unicode="Q" horiz-adv-x="702" d="M446 -212Q404 -212 374 -199T325 -159T295 -96T280 -9Q217 -4 168 27T90 118T61 266Q61 324 76 387T121 510T196 618T301 696T435 725Q499 725 554 696T643 607T677 450Q677 392 663 329T621 208T551 101T453 24T325
-10Q328 -61 337 -97T364 -155T405 -187T463 -197Q483 -197 506 -194T551 -186L554 -196Q528 -203 506 -207T446 -212ZM307 -1Q370 -1 422 25T513 96T578 199T618 323T631 455Q631 552 605 609T534 690T431 715Q368 715 317 689T226 616T160 511T120 388T106 260Q106
162 133 105T206 23T307 -1Z" />
<glyph unicode="R" horiz-adv-x="587" d="M-11 0L-9 10H27Q51 10 65 15T88 34T102 75L224 647Q225 655 226 663T228 676Q228 694 216 699T179 704H139L141 714H359Q458 714 510 671T562 542Q562 509 550 475T514 410T449 359T350 335L423 101Q434 67 443 47T466
18T502 10H522L520 0H492Q460 0 439 7T405 34T379 96L308 332H200L144 67Q143 59 142 52T140 39Q140 24 152 17T193 10H247L245 0H-11ZM310 342Q377 342 423 367T493 437T517 542Q517 597 500 633T448 686T357 704H279L202 342H310Z" />
<glyph unicode="S" horiz-adv-x="501" d="M202 -10Q132 -10 86 12T18 71T-4 153Q-4 172 7 182T34 192Q34 133 51 90T105 23T202 0Q263 0 307 20T376 79T401 173Q401 206 389 232T345 285T254 348Q214 373 184 398T138 455T122 533Q122 574 136 608T178 669T246
709T335 724Q397 724 433 707T486 663T502 607Q502 589 492 579T464 569Q464 599 460 625T443 672T404 703T335 714Q291 714 252 695T187 638T161 537Q161 502 175 476T217 427T282 381Q343 343 378 313T427 252T441 180Q441 135 425 100T378 40T302 3T202 -10Z"
/>
<glyph unicode="T" horiz-adv-x="573" d="M88 0L91 10H122Q155 10 175 15T207 37T225 90L356 704H248Q207 704 182 698T142 672T117 615L102 558H92L130 714H633L605 558H595Q599 579 601 595T604 624T606 648Q606 679 591 691T535 704H399L267 84Q266 73 265
65T263 49Q263 24 280 17T336 10H368L365 0H88Z" />
<glyph unicode="U" horiz-adv-x="706" d="M320 -10Q226 -10 171 34T115 161Q115 177 118 205T128 264L204 620Q209 636 210 649T212 670Q212 690 200 697T161 704H124L126 714H367L366 704H327Q303 704 289 698T265 675T248 619L171 264Q166 240 163 220T159 183T157
156Q157 84 202 44T324 3Q404 3 451 32T522 107T559 208L649 620Q651 633 652 643T654 660Q654 689 638 696T593 704H560L562 714H776L774 704H738Q713 704 699 699T675 676T658 619L570 204Q556 138 528 90T450 16T320 -10Z" />
<glyph unicode="V" horiz-adv-x="651" d="M146 660Q142 689 134 696T100 704H83L85 714H280L278 704H254Q219 704 205 696T191 671Q191 666 191 660T193 647L251 237Q254 214 258 188T267 135T275 84T281 41Q292 63 309 94T346 161T384 228L596 612Q609 636 616
652T624 679Q624 693 611 698T568 704H528L530 714H735L733 704H716Q690 704 676 700T649 679T615 626L268 0H245L146 660Z" />
<glyph unicode="W" horiz-adv-x="1001" d="M165 623Q161 660 157 677T142 699T114 704H98L100 714H307L305 704H257Q227 704 216 695T204 666Q204 656 205 644T208 617L244 225Q246 203 248 182T251 141T254 103T257 68T260 37Q276 73 296 116T341 213L571 708H599L639
228Q641 205 643 180T647 129T650 81T653 38Q661 56 671 76T692 119T716 166T741 217L936 612Q948 636 953 651T959 677Q959 693 946 698T906 704H874L876 714H1074L1072 704H1062Q1037 704 1020 700T989 680T955 626L645 0H616L562 666L253 0H225L165 623Z" />
<glyph unicode="X" horiz-adv-x="589" d="M-51 0L-49 10H-32Q-8 10 7 15T39 35T79 82L301 371L294 354L186 658Q176 688 163 696T123 704H106L108 714H312L310 704H262Q244 704 236 699T228 682Q228 675 232 664T240 636L326 387L317 382L503 631Q515 648 521
660T528 681Q528 690 521 695T499 702T464 704H440L442 714H655L653 704H636Q612 704 594 700T558 678T511 624L320 371L327 385L449 57Q461 26 471 18T502 10H524L522 0H314L317 10H352Q380 10 392 16T404 36Q404 42 402 50T395 71L295 351L306 361L117 115Q93
83 80 63T66 31Q66 23 72 19T91 12T125 10H163L160 0H-51Z" />
<glyph unicode="Y" horiz-adv-x="556" d="M104 0L106 10H145Q182 10 196 21T218 68L276 338L150 662Q140 689 131 696T97 704H84L86 714H300L298 704H232Q210 704 201 700T191 683Q191 678 192 673T195 661T201 645L267 472Q274 454 283 430T300 384T314 345Q328
364 345 385T386 437L536 632Q549 648 556 661T564 683Q564 694 555 699T521 704H465L467 714H660L658 704H634Q621 704 612 700T591 683T562 648L319 336L261 65Q260 58 259 51T258 39Q258 23 270 17T311 10H350L348 0H104Z" />
<glyph unicode="Z" horiz-adv-x="543" d="M-22 0L-20 10L525 700H224Q191 700 171 696T138 680T119 645L99 580H89L123 714H579L577 704L31 14H370Q401 14 419 22T449 46T467 86L483 143H493L458 0H-22Z" />
<glyph unicode="[" horiz-adv-x="260" d="M-23 -128L165 760H334L332 750H271Q244 750 229 746T207 729T192 683L27 -74Q26 -79 25 -84T24 -94Q24 -107 36 -112T80 -118H147L146 -128H-23Z" />
<glyph unicode="\" horiz-adv-x="242" d="M149 -121L105 760H115L159 -121H149Z" />
<glyph unicode="]" horiz-adv-x="260" d="M-53 -128L-52 -118H10Q38 -118 52 -114T74 -96T89 -51L250 685Q252 698 254 708T256 726Q256 743 243 746T201 750H135V760H304L116 -128H-53Z" />
<glyph unicode="^" horiz-adv-x="559" d="M81 261L265 714H289L475 261H453L277 694L103 261H81Z" />
<glyph unicode="_" horiz-adv-x="459" d="M-85 -112L-81 -92H387L383 -112H-85Z" />
<glyph unicode="`" horiz-adv-x="213" d="M237 606Q224 627 212 646T188 684T165 721T146 758V766H189Q195 746 203 721T223 668T246 614L245 606H237Z" />
<glyph unicode="a" horiz-adv-x="504" d="M149 -10Q110 -10 84 9T45 68T32 165Q32 212 44 264T79 366T136 456T213 521T310 546Q344 546 369 535T412 505L442 535H456L382 203Q378 185 374 160T366 109T363 68Q363 38 372 22T403 5Q426 5 443 15T483 44L488 36Q475
24 459 14T426 -3T389 -10Q356 -10 339 13T323 75Q323 91 326 115T333 159H330Q288 66 241 28T149 -10ZM159 4Q192 4 222 27T278 88T323 173T353 265L403 493Q390 515 364 525T311 536Q266 536 230 511T165 444T116 352T86 253T76 163Q76 102 86 68T116 19T159
4Z" />
<glyph unicode="b" horiz-adv-x="497" d="M189 -10Q155 -10 129 3T86 33L57 -3H43L189 688Q191 700 193 708T195 723Q195 740 184 745T145 750H107L110 760H247L193 504Q189 483 185 462T176 423T167 391H171Q193 434 220 469T281 525T352 546Q387 546 411 527T449
469T463 369Q463 319 451 266T416 164T360 75T283 13T189 -10ZM182 0Q230 0 268 25T334 91T382 183T410 282T419 373Q419 437 410 471T383 517T342 529Q310 529 279 510T222 456T177 380T148 294L94 44Q110 26 132 13T182 0Z" />
<glyph unicode="c" horiz-adv-x="438" d="M209 -10Q161 -10 123 13T62 81T39 197Q39 245 51 294T85 389T140 469T213 525T305 546Q349 546 379 531T423 492T438 442Q438 429 433 421T419 408T397 404Q397 409 397 415T398 429Q398 487 374 511T303 536Q263 536
229 516T168 462T122 383T93 291T83 195Q83 101 119 51T210 0Q245 0 271 12T317 48T348 102Q351 101 354 97T358 87Q358 64 341 42T290 5T209 -10Z" />
<glyph unicode="d" horiz-adv-x="504" d="M145 -10Q103 -10 79 12T43 73T32 165Q32 212 44 264T79 366T136 456T213 521T310 546Q340 546 365 537T407 510Q411 530 416 550T425 591L448 697Q450 704 450 709T451 720Q451 739 438 744T404 750H365L367 760H503L382
203Q378 185 374 161T366 112T363 72Q363 37 372 21T403 5Q424 5 444 15T483 44L488 37Q475 24 459 14T426 -3T389 -10Q356 -10 340 13T323 81Q323 98 326 118T334 159H330Q301 98 271 61T209 7T145 -10ZM155 7Q192 7 223 31T280 92T322 169T346 240L404 496Q390
515 364 525T310 536Q265 536 229 511T164 443T116 352T86 253T76 163Q76 105 85 71T113 22T155 7Z" />
<glyph unicode="e" horiz-adv-x="428" d="M205 -10Q159 -10 121 13T61 81T39 192Q39 238 49 287T81 382T133 465T204 524T295 546Q350 546 380 517T411 434Q411 377 374 336T273 271T132 248H86Q86 244 85 234T84 212T83 191Q83 132 99 89T143 23T206 0Q265 0
297 31T345 105Q349 104 351 100T353 89Q353 67 336 44T285 6T205 -10ZM130 258Q182 258 226 270T302 306T351 363T368 438Q368 490 350 513T291 536Q251 536 219 514T161 454T117 366T88 258H130Z" />
<glyph unicode="f" horiz-adv-x="252" d="M-82 -240Q-97 -240 -112 -238T-138 -232L-135 -222Q-127 -224 -113 -226T-88 -228Q-57 -228 -36 -211T1 -152T33 -36L152 526H67L68 531L154 536L167 600Q182 679 219 724T317 770Q365 770 390 747T416 690Q416 672 405
662T377 652Q377 712 365 736T317 760Q289 760 270 746T240 707T222 652L196 536H291L289 526H194L75 -36Q61 -97 47 -137T15 -199T-26 -231T-82 -240Z" />
<glyph unicode="g" horiz-adv-x="501" d="M160 -240Q98 -240 53 -225T-17 -180T-42 -104Q-42 -58 -19 -25T45 27T133 53Q103 63 91 79T79 116Q79 138 95 160T164 199Q133 214 112 244T91 320Q91 355 102 394T138 467T202 524T296 546Q329 546 352 537T393 512Q410
531 423 544T451 563T484 570Q502 570 513 560T524 533Q524 520 517 511T494 501Q494 527 488 539T467 551Q450 551 436 540T400 505Q412 491 422 467T433 408Q433 377 423 339T388 267T324 210T225 187Q219 187 209 188T190 190T175 194Q136 180 120 164T104 124Q104
104 120 95T169 82L247 74Q297 69 329 54T378 12T395 -52Q395 -90 382 -123T341 -183T269 -225T160 -240ZM159 -230Q233 -230 276 -206T339 -143T358 -62Q358 -19 328 6T241 36L146 46Q68 32 31 -6T-6 -103Q-6 -156 33 -193T159 -230ZM226 197Q266 197 294 211T341
250T371 303T387 360T392 413Q392 461 380 487T345 525T293 536Q256 536 229 523T184 486T154 434T138 375T133 319Q133 258 159 228T226 197Z" />
<glyph unicode="h" horiz-adv-x="526" d="M417 -10Q383 -10 365 14T347 84Q347 108 352 138T365 205L392 326Q397 345 401 366T409 407T412 447Q412 469 406 486T385 515T342 526Q307 526 276 505T221 454T181 393T162 346L89 0H47L187 685Q190 696 191 705T192
720Q192 739 177 744T126 750H107L110 760H246L197 523Q194 508 191 491T183 458T176 426T169 399H171Q199 448 228 480T288 527T354 543Q391 543 412 529T443 490T453 437Q453 414 447 385T435 330L406 201Q398 164 393 131T387 73Q387 41 397 24T433 6Q450 6
468 15T504 42L511 35Q497 23 483 13T453 -4T417 -10Z" />
<glyph unicode="i" horiz-adv-x="252" d="M140 -10Q103 -10 89 15T74 78Q74 96 76 116T82 157T89 194L145 475Q146 481 146 486T147 496Q147 514 134 520T84 526H65L67 536H200L120 145Q118 133 116 121T112 96T111 74Q111 38 122 23T152 7Q174 7 192 16T230 44L236
36Q215 17 192 4T140 -10ZM203 671Q191 671 182 679T173 703Q173 715 177 724T188 738T205 743Q218 743 226 736T235 711Q235 689 225 680T203 671Z" />
<glyph unicode="j" horiz-adv-x="243" d="M-88 -240Q-104 -240 -117 -239T-140 -234L-138 -224Q-128 -226 -116 -228T-90 -230Q-55 -230 -31 -210T12 -144T46 -22L143 445Q145 454 146 465T147 488Q147 513 136 519T88 526H68L70 536H203L89 -13Q71 -100 48 -150T-8
-220T-88 -240ZM206 671Q194 671 186 678T177 703Q177 715 181 724T192 738T209 743Q221 743 229 736T238 711Q238 689 229 680T206 671Z" />
<glyph unicode="k" horiz-adv-x="539" d="M462 -7Q425 -7 401 0T359 29T324 96L238 315L253 319L136 222L89 0H47L186 682Q188 690 190 702T192 720Q192 737 181 743T147 750H108L110 760H246L207 570Q200 540 194 507T180 438T164 368T150 300T137 237L420 468Q436
482 443 490T450 506Q450 516 431 521T364 526L366 536H552L550 526Q521 526 500 515T446 476L258 322L271 341L375 79Q387 51 397 34T425 10T475 3L472 -7H462Z" />
<glyph unicode="l" horiz-adv-x="253" d="M140 -10Q102 -10 87 15T71 76Q71 92 73 110T79 147T86 180L191 697Q193 704 193 710T194 720Q194 738 182 744T146 750H108L110 760H247L124 166Q122 154 119 139T115 109T113 80Q113 48 121 28T153 7Q176 7 195 17T232
45L238 36Q224 24 209 14T178 -3T140 -10Z" />
<glyph unicode="m" horiz-adv-x="812" d="M703 -10Q663 -10 647 18T631 85Q631 108 634 133T644 186L677 326Q682 345 686 366T693 407T696 446Q696 466 691 483T670 513T625 525Q590 525 560 505T507 457T469 402T450 361L410 199Q405 176 400 151T392 99T386
48T383 0H341Q341 22 343 47T349 99T358 152T369 203L397 326Q404 356 409 387T415 445Q415 464 409 482T388 513T343 525Q309 525 279 506T225 458T186 401T167 357L93 0H52L144 454Q146 465 147 474T148 489Q148 513 134 519T84 526H65L68 536H198L175 406H177Q205
455 234 485T293 529T359 543Q413 543 435 512T458 437Q458 430 458 422T455 406H457Q487 456 516 486T575 529T639 543Q676 543 697 529T728 490T738 437Q738 414 732 385T720 330L677 137Q675 127 673 111T670 77Q670 50 679 28T714 6Q731 6 743 10T766 23T791
43L797 35Q775 16 754 3T703 -10Z" />
<glyph unicode="n" horiz-adv-x="532" d="M422 -10Q386 -10 369 12T351 77Q351 105 356 137T370 205L398 334Q401 342 405 362T413 406T417 446Q417 463 412 480T391 511T347 525Q312 525 281 504T225 449T181 375T155 296L93 0H52L142 440Q144 450 145 463T147
488Q147 512 134 519T84 526H65L68 536H202L171 381H173Q201 437 230 473T292 526T360 543Q396 543 417 529T448 492T458 440Q458 414 452 385T440 330L408 189Q402 160 397 130T391 71Q391 41 401 24T436 6Q446 6 457 9T481 21T510 43L516 35Q491 13 469 2T422
-10Z" />
<glyph unicode="o" horiz-adv-x="514" d="M210 -10Q134 -10 86 39T38 191Q38 234 48 282T80 377T133 462T208 523T305 546Q354 546 392 526T453 460T476 342Q476 300 466 252T436 158T383 74T308 13T210 -10ZM210 0Q255 0 290 21T352 79T397 161T423 255T432 347Q432
413 417 455T374 516T304 536Q261 536 226 515T164 458T119 376T92 282T82 188Q82 84 117 42T210 0Z" />
<glyph unicode="p" horiz-adv-x="499" d="M139 430Q144 452 146 468T149 492Q149 515 134 520T84 526H65L68 536H196L173 397H175Q195 436 221 470T279 525T350 546Q390 546 415 526T453 468T466 370Q466 327 455 276T422 174T365 82T285 16T181 -10Q153 -10 132
-4T92 14Q90 4 89 -7T84 -35L55 -165Q53 -174 51 -184T49 -202Q49 -221 64 -225T116 -230H136L133 -240H-2L139 430ZM184 0Q229 0 266 25T332 91T382 181T412 280T423 370Q423 427 415 461T389 511T340 527Q303 527 272 505T218 447T178 373T155 301L96 27Q105
19 127 10T184 0Z" />
<glyph unicode="q" horiz-adv-x="480" d="M298 9Q302 26 306 45T315 83T324 121T334 157H331Q312 114 286 76T225 14T149 -10Q113 -10 87 10T46 70T32 166Q32 212 44 264T79 366T136 456T216 521T317 546Q344 546 366 539T408 517L438 546H454L304 -162Q301 -177
299 -188T296 -206Q296 -222 310 -226T356 -230H380L377 -240H245L298 9ZM161 6Q192 6 221 27T277 83T322 163T351 257L401 501Q393 515 371 525T321 536Q272 536 233 511T165 444T116 353T86 254T76 164Q76 112 87 77T117 24T161 6Z" />
<glyph unicode="r" horiz-adv-x="393" d="M143 440Q146 456 147 468T149 488Q149 513 133 519T83 526H65L67 536H196L173 402H175Q193 443 215 475T265 527T331 546Q372 546 387 527T403 486Q403 474 398 465T384 451T361 446Q362 452 362 457T362 466Q362 490
357 503T342 523T316 529Q287 529 262 510T217 459T183 392T162 322L95 0H53L143 440Z" />
<glyph unicode="s" horiz-adv-x="413" d="M177 -10Q129 -10 97 7T49 53T33 111Q33 127 38 136T53 149T72 153Q71 146 71 140T71 127Q71 88 82 60T117 16T177 0Q238 0 272 34T306 129Q306 156 295 179T262 222T205 259Q168 279 144 299T107 344T94 405Q94 448 113
480T168 529T247 547Q293 547 322 531T365 490T379 437Q379 421 369 411T340 401Q341 407 341 413T341 426Q341 477 320 507T246 537Q194 537 162 505T129 413Q129 385 140 364T173 326T227 293Q263 276 288 254T327 205T341 142Q341 101 323 66T268 11T177 -10Z"
/>
<glyph unicode="t" horiz-adv-x="306" d="M152 -10Q121 -10 103 2T76 34T68 82Q68 92 69 106T75 141T85 192L156 526H80L82 532Q112 533 132 536T168 552T194 590T216 659H226L201 536H312L309 526H198L124 181Q117 148 114 128T109 94T107 70Q107 39 119 22T160
5Q187 5 208 11T253 27L257 19Q230 5 203 -2T152 -10Z" />
<glyph unicode="u" horiz-adv-x="516" d="M410 -10Q388 -10 375 1T355 34T349 83Q349 89 349 97T351 116T353 142H352Q329 94 300 60T237 9T163 -9Q128 -9 106 6T74 47T64 102Q64 127 72 161T86 226L130 414Q135 436 140 460T145 496Q145 515 132 520T84 526H65L67
536H201L129 231Q125 211 120 187T110 140T106 103Q106 55 123 31T175 6Q214 6 245 26T301 78T340 141T359 195L431 536H473L403 204Q399 186 395 164T389 118T386 76Q386 45 394 26T422 6Q444 6 460 16T493 41L500 33Q484 18 461 4T410 -10Z" />
<glyph unicode="v" horiz-adv-x="476" d="M97 467Q93 494 88 506T72 522T39 526H20L23 536H129L172 240Q178 205 183 165T194 86T203 17H206Q282 98 333 171T410 311T436 440Q436 479 419 494T378 509Q378 529 388 537T412 545Q432 545 443 525T454 459Q454 418
444 375T412 286T360 195T290 100T204 1L168 -9L97 467Z" />
<glyph unicode="w" horiz-adv-x="756" d="M436 -13Q435 24 434 80T430 200T427 325T423 436T420 511Q406 482 386 440T343 350T294 251T245 152T201 64T166 -3L124 -12L114 463Q114 493 111 506T98 522T68 526H45L47 536H153Q154 494 155 440T157 326T160 209T162
102T163 18H165Q184 52 209 102T262 210T319 326T373 437T415 527L451 531Q453 501 456 451T462 339T467 215T471 100T473 13H476Q556 113 610 191T691 333T719 455Q719 490 706 501T667 514Q668 530 677 538T699 546Q718 546 728 529T738 472Q738 433 725 387T680
284T598 155T474 -4L436 -13Z" />
<glyph unicode="x" horiz-adv-x="468" d="M-24 0L-22 10H-9Q13 10 24 13T46 28T75 64L222 274L153 469Q143 495 138 507T125 522T101 526H82L84 536H171L250 305L412 536H481L478 526H462Q447 526 435 523T411 508T378 468L255 294L337 58Q345 37 350 27T364 14T393
10H403L401 0H315L227 263L43 0H-24Z" />
<glyph unicode="y" horiz-adv-x="463" d="M-56 -240Q-77 -240 -99 -235T-139 -222L-135 -214Q-123 -220 -103 -224T-57 -229Q-9 -229 30 -218T103 -180T170 -111T239 -3L87 483Q78 512 70 519T36 526H22L25 536H115L223 192Q229 174 235 154T246 112T256 73T264
39H267Q292 82 319 130T370 230T408 337T423 442Q423 469 417 483T398 503T365 509Q365 525 375 534T400 543Q418 543 429 524T440 461Q440 394 419 328T363 193T285 50Q239 -31 202 -87T128 -176T48 -225T-56 -240Z" />
<glyph unicode="z" horiz-adv-x="436" d="M2 0L4 9L378 522H222Q194 522 179 519T156 504T138 469L118 414H108L145 536H427L425 527L49 14H254Q288 14 305 18T330 32T344 63L367 143H377L342 0H2Z" />
<glyph unicode="{" horiz-adv-x="414" d="M226 -131Q180 -131 157 -109T133 -38Q133 -25 134 -12T139 17L173 175Q175 186 177 202T180 228Q180 274 158 290T81 309L83 320Q122 322 151 330T201 364T230 441L267 619Q279 673 294 704T338 747T416 760H452L450
750H423Q391 750 370 742T335 708T312 632L272 442Q264 405 248 378T206 335T139 315V312Q169 309 187 298T214 267T223 223Q223 213 221 200T215 171L180 6Q177 -8 175 -23T173 -52Q173 -89 188 -105T235 -121H276L274 -131H226Z" />
<glyph unicode="|" horiz-adv-x="559" d="M266 -240V760H290V-240H266Z" />
<glyph unicode="}" horiz-adv-x="414" d="M-18 -131L-16 -121H10Q44 -121 65 -112T99 -76T122 2L162 187Q170 224 185 251T227 294T293 315V317Q264 320 246 331T220 362T211 406Q211 416 213 429T218 458L254 623Q257 637 259 652T261 681Q261 719 245 734T199
750H157L159 760H208Q254 760 277 739T301 667Q301 655 299 641T295 612L261 455Q257 440 256 426T254 401Q254 355 276 339T352 320L350 310Q312 308 283 299T234 265T204 188L167 10Q156 -45 140 -75T96 -118T18 -131H-18Z" />
<glyph unicode="~" horiz-adv-x="559" d="M83 277Q88 300 93 327T110 379T140 420T189 436Q224 436 251 416T303 369Q329 343 353 320T408 297Q438 297 454 319T478 374T494 436H513Q510 418 504 391T487 338T456 295T406 277Q369 277 341 303T287 357Q272 374
257 387T226 408T190 416Q162 416 146 399T121 350T103 277H83Z" />
<glyph unicode="&#xa0;" horiz-adv-x="250" />
<glyph unicode="&#xa1;" horiz-adv-x="271" d="M162 344L67 -180H19L149 344H162ZM190 541Q200 541 206 535T213 512Q213 490 204 470T171 449Q160 449 154 455T147 478Q147 493 151 508T164 532T190 541Z" />
<glyph unicode="&#xa2;" horiz-adv-x="521" d="M212 0L364 714H374L222 0H212ZM247 84Q199 84 161 107T100 176T77 291Q77 339 89 388T123 482T178 563T252 619T343 640Q387 640 417 625T461 586T476 536Q476 523 471 515T457 502T435 498Q435 503 435 509T436
523Q436 581 412 605T341 630Q301 630 267 610T206 556T160 477T131 385T121 289Q121 195 157 145T248 94Q284 94 310 106T356 142T386 196Q390 195 393 191T396 180Q396 158 379 136T328 99T247 84Z" />
<glyph unicode="&#xa3;" horiz-adv-x="521" d="M319 -10Q289 -10 267 -3T225 15T188 32T147 39Q112 39 81 28T23 5L9 -2L4 10L40 29Q76 49 102 73T146 125T171 187T180 259Q180 274 178 290T173 322T167 348H68L69 358H164Q155 397 150 427T145 491Q145 561 171
613T249 695T374 724Q425 724 459 707T511 663T528 609Q528 589 518 579T490 569Q490 615 477 647T438 696T371 714Q282 714 234 657T186 495Q186 466 189 435T206 358H368L367 348H208Q211 339 213 324T217 293T219 261Q219 217 205 180T162 110T91 49L93 45Q106
52 118 57T143 65T170 69Q194 69 215 62T256 44T296 26T338 18Q371 18 397 37T445 82L455 73Q435 51 413 32T366 2T319 -10Z" />
<glyph unicode="&#xa4;" horiz-adv-x="521" d="M94 149L70 174L141 245Q122 268 111 297T100 360Q100 392 111 421T140 473L70 544L94 568L165 498Q189 517 218 527T280 538Q312 538 341 528T393 498L464 568L489 544L418 473Q437 450 447 421T458 360Q458 326
448 297T418 245L489 174L464 149L393 220Q370 202 341 191T280 180Q248 180 219 191T166 221L94 149ZM279 213Q320 213 353 232T405 285T424 359Q424 400 405 433T353 485T279 504Q239 504 206 485T154 433T134 359Q134 319 153 286T206 233T279 213Z" />
<glyph unicode="&#xa5;" horiz-adv-x="521" d="M85 0L87 10H126Q158 10 175 21T199 67L230 216H83L85 226H233L256 335H108L110 345H256L148 662Q140 687 131 695T104 704H93L96 714H262L259 704H235Q213 704 202 699T191 680Q191 673 193 663T199 641L251 483Q258
463 266 438T281 390T295 348Q312 373 335 404T373 457L477 603Q501 635 514 655T528 686Q528 696 518 700T484 704H456L458 714H613L611 704H599Q584 704 574 701T551 683T515 637L304 345H449L447 335H299L276 226H423L421 216H273L244 71Q243 63 242 56T240
44Q240 23 253 17T291 10H330L328 0H85Z" />
<glyph unicode="&#xa6;" horiz-adv-x="559" d="M268 360V760H288V360H268ZM268 -240V160H288V-240H268Z" />
<glyph unicode="&#xa7;" horiz-adv-x="544" d="M197 -115Q140 -115 102 -95T44 -43T25 26Q25 39 30 47T43 59T59 63Q59 13 73 -24T118 -83T199 -105Q251 -105 286 -87T339 -36T357 42Q357 71 347 96T308 149T222 212Q179 238 155 263T120 317T109 377Q109 416
133 449T202 505Q188 524 179 549T169 606Q169 647 189 681T250 736T348 757Q402 757 435 740T483 696T499 642Q499 622 489 613T461 604Q461 648 452 680T417 729T345 747Q298 747 268 729T222 681T207 613Q207 579 218 555T254 509T322 461Q377 428 405 402T444
349T455 289Q455 263 446 239T416 193T364 148Q380 127 387 106T395 53Q395 4 373 -34T307 -94T197 -115ZM358 158Q391 187 404 218T417 279Q417 303 410 324T377 369T299 426Q282 437 265 448T233 472T207 496Q174 473 160 447T146 387Q146 362 154 339T185 293T249
245Q284 223 312 201T358 158Z" />
<glyph unicode="&#xa8;" horiz-adv-x="577" d="M457 652Q447 652 441 658T435 678Q435 692 438 706T450 729T469 739Q480 739 485 733T491 713Q491 689 483 671T457 652ZM289 652Q280 652 274 658T268 678Q268 692 271 706T282 729T302 739Q312 739 318 733T324
713Q324 689 315 671T289 652Z" />
<glyph unicode="&#xa9;" horiz-adv-x="845" d="M441 -10Q361 -10 294 17T178 93T101 210T74 358Q74 438 101 505T177 621T293 697T441 725Q521 725 588 698T705 622T782 505T809 357Q809 277 782 210T706 94T589 17T441 -10ZM445 109Q386 109 339 136T264 220T236
361Q236 446 263 501T338 582T447 609Q492 609 527 596T581 561T601 515Q601 502 593 493T566 483Q566 517 552 543T510 583T441 598Q391 598 354 574T297 498T276 364Q276 277 299 223T362 144T450 119Q505 119 540 147T587 223Q595 220 598 213T601 200Q601 182
583 161T530 124T445 109ZM443 0Q520 0 584 26T696 101T770 215T797 358Q797 435 771 500T697 614T584 688T441 715Q364 715 299 689T187 614T113 501T86 358Q86 279 113 213T189 100T303 26T443 0Z" />
<glyph unicode="&#xaa;" horiz-adv-x="356" d="M164 387Q123 387 105 417T86 493Q86 530 99 570T138 644T197 699T271 720Q294 720 311 715T344 699L363 713H376L319 522Q313 501 309 480T304 443Q304 420 313 412T333 403Q348 403 359 409T381 425L387 417Q374
405 358 397T324 388Q300 388 287 402T274 438Q274 446 275 458T279 479H277Q256 440 229 414T164 387ZM178 402Q199 402 219 419T257 466T284 530L332 690Q324 700 309 705T275 710Q242 710 215 691T167 640T136 570T125 495Q125 445 139 424T178 402Z" />
<glyph unicode="&#xab;" horiz-adv-x="473" d="M351 89L237 259L239 266L427 451H443L282 260L365 89H351ZM444 89L330 259L332 266L520 451H536L375 260L458 89H444Z" />
<glyph unicode="&#xac;" horiz-adv-x="559" d="M468 120V355H63V375H488V120H468Z" />
<glyph unicode="&#xad;" horiz-adv-x="310" d="M25 268L29 288H289L285 268H25Z" />
<glyph unicode="&#xae;" horiz-adv-x="845" d="M441 -10Q361 -10 294 17T178 93T101 210T74 358Q74 438 101 505T177 621T293 697T441 725Q521 725 588 698T705 622T782 505T809 357Q809 277 782 210T706 94T589 17T441 -10ZM443 0Q520 0 584 26T696 101T770 215T797
358Q797 435 771 500T697 614T584 688T441 715Q364 715 299 689T187 614T113 501T86 358Q86 279 113 213T189 100T303 26T443 0ZM271 141V151H284Q304 151 318 156T333 179V528Q333 551 319 557T284 563H271V573H425Q511 573 552 543T593 454Q593 406 565 383T500
349L596 179Q606 161 616 156T646 151V141H571L459 343H372V179Q372 161 387 156T421 151H435V141H271ZM439 353Q500 353 526 378T553 454Q553 515 520 539T416 563H372V353H439Z" />
<glyph unicode="&#xaf;" horiz-adv-x="459" d="M102 773L107 793H576L571 773H102Z" />
<glyph unicode="&#xb0;" horiz-adv-x="400" d="M264 421Q197 421 155 463T113 572Q113 639 155 681T264 724Q331 724 373 682T416 572Q416 505 374 463T264 421ZM266 441Q325 441 360 478T396 574Q396 632 360 668T266 704Q208 704 171 668T133 574Q133 516 170
479T266 441Z" />
<glyph unicode="&#xb1;" horiz-adv-x="559" d="M48 15V35H477V15H48ZM252 143V347H48V367H252V572H272V367H477V347H272V143H252Z" />
<glyph unicode="&#xb2;" horiz-adv-x="400" d="M86 387L90 407L231 524Q277 561 305 589T348 638T369 681T375 727Q375 751 367 771T341 803T297 815Q260 815 238 797T205 750T193 683Q177 683 168 691T159 716Q159 737 174 762T221 806T298 825Q356 825 386 798T416
725Q416 686 396 655T337 590T239 511L118 419H310Q336 419 349 422T369 437T381 471L385 485H395L374 387H86Z" />
<glyph unicode="&#xb3;" horiz-adv-x="400" d="M220 380Q164 380 131 402T98 459Q98 478 108 493T135 509Q127 452 148 421T221 390Q284 390 321 421T359 518Q359 555 332 581T242 608H209L212 618H250Q292 618 322 634T367 675T383 732Q383 770 361 792T302 814Q270
814 246 800T207 760T186 699Q175 699 166 704T157 726Q157 748 174 770T223 808T303 824Q362 824 394 797T426 731Q426 686 392 655T311 615V612Q350 603 375 580T400 515Q400 473 378 443T315 397T220 380Z" />
<glyph unicode="&#xb4;" horiz-adv-x="189" d="M114 614Q131 636 148 661T181 713T210 766H253V758Q242 742 227 723T194 682T158 642T122 606H113L114 614Z" />
<glyph unicode="&#xb5;" horiz-adv-x="520" d="M27 -240Q6 -240 -4 -225T-15 -180Q-15 -153 -1 -96T34 45T80 229L151 536H193L122 232Q114 194 107 159T99 99Q99 54 117 28T171 2Q208 2 239 21T293 72T333 138T355 206L425 536H467L397 208Q388 167 385 131T381
71Q381 38 389 22T414 6Q425 6 436 9T455 18L459 8Q447 2 433 -4T401 -10Q375 -10 362 6T344 53T344 125H342Q305 59 263 25T166 -9Q145 -9 129 -4T100 11T79 39T68 79Q53 16 44 -26T31 -94T25 -137Q25 -168 35 -181T70 -198Q68 -218 57 -229T27 -240Z" />
<glyph unicode="&#xb6;" horiz-adv-x="608" d="M190 -111V-101H214Q240 -101 255 -98T277 -84T285 -49V386H214Q156 386 123 413T75 485T61 582Q61 636 76 676T125 738T216 760H578V750H557Q528 750 512 746T489 727T483 684V-44Q483 -69 490 -81T514 -97T556
-101H578V-111H448V750H320V-111H190Z" />
<glyph unicode="&#xb7;" horiz-adv-x="203" d="M110 311Q100 311 94 318T87 340Q87 363 96 383T129 404Q140 404 146 397T153 375Q153 360 149 345T136 321T110 311Z" />
<glyph unicode="&#xb8;" horiz-adv-x="333" d="M138 -224Q122 -224 106 -222T73 -214L75 -204Q90 -209 105 -211T131 -213Q159 -213 177 -201T204 -167T214 -121Q214 -97 200 -81T142 -61L172 7H182L155 -52Q187 -54 207 -63T239 -89T250 -127Q250 -157 236 -179T197
-212T138 -224Z" />
<glyph unicode="&#xb9;" horiz-adv-x="400" d="M113 387L115 397H176Q192 397 204 402T221 429L297 787L296 788Q281 770 263 754T225 727T186 716Q177 716 170 722T162 741Q189 741 215 750T269 777T324 819H343L262 438Q260 428 260 420T264 407Q268 400 275
399T291 397H360L358 387H113Z" />
<glyph unicode="&#xba;" horiz-adv-x="346" d="M205 387Q148 387 116 419T84 510Q84 544 95 580T128 648T184 700T264 720Q297 720 324 707T368 668T385 598Q385 567 374 531T341 461T285 408T205 387ZM205 397Q241 397 267 416T311 466T336 532T344 600Q344 656
322 683T262 710Q225 710 199 691T156 642T131 576T123 508Q123 453 147 425T205 397Z" />
<glyph unicode="&#xbb;" horiz-adv-x="476" d="M188 89L348 280L265 451H280L393 281L392 274L203 89H188ZM278 89L438 280L355 451H370L483 281L482 274L293 89H278Z" />
<glyph unicode="&#xbc;" horiz-adv-x="948" d="M347 539L349 549H410Q426 549 438 554T455 581L531 939L530 940Q515 922 497 906T459 879T420 868Q411 868 404 874T396 893Q423 893 449 902T503 929T558 971H577L496 590Q494 580 494 572T498 559Q502 552 509
551T525 549H594L592 539H347ZM253 0L762 714H773L264 0H253ZM651 0L653 10H681Q717 10 730 17T749 48L769 141H586L591 165L826 432H869L813 170H905L899 141H808L792 68Q790 56 789 48T788 33Q788 23 796 17T823 10H854L852 0H651ZM609 170H774L801 295Q806 314
811 337T821 382T831 420Q817 406 794 380T746 323L609 170Z" />
<glyph unicode="&#xbd;" horiz-adv-x="948" d="M347 539L349 549H410Q426 549 438 554T455 581L531 939L530 940Q515 922 497 906T459 879T420 868Q411 868 404 874T396 893Q423 893 449 902T503 929T558 971H577L496 590Q494 580 494 572T498 559Q502 552 509
551T525 549H594L592 539H347ZM233 0L742 714H753L244 0H233ZM568 0L572 20L713 137Q759 174 787 202T830 251T851 294T857 340Q857 364 849 384T823 416T779 428Q742 428 720 410T687 363T675 296Q659 296 650 304T641 329Q641 350 656 375T703 419T780 438Q838
438 868 411T898 338Q898 299 878 268T819 203T721 124L600 32H792Q818 32 831 35T851 50T863 84L867 98H877L856 0H568Z" />
<glyph unicode="&#xbe;" horiz-adv-x="948" d="M454 533Q398 533 365 555T332 612Q332 631 342 646T369 662Q361 605 382 574T455 543Q518 543 555 574T593 671Q593 708 566 734T476 761H443L446 771H484Q526 771 556 787T601 828T617 885Q617 923 595 945T536
967Q504 967 480 953T441 913T420 852Q409 852 400 857T391 879Q391 901 408 923T457 961T537 977Q596 977 628 950T660 884Q660 839 626 808T545 768V765Q584 756 609 733T634 668Q634 626 612 596T549 550T454 533ZM261 0L770 714H781L272 0H261ZM651 0L653 10H681Q717
10 730 17T749 48L769 141H586L591 165L826 432H869L813 170H905L899 141H808L792 68Q790 56 789 48T788 33Q788 23 796 17T823 10H854L852 0H651ZM609 170H774L801 295Q806 314 811 337T821 382T831 420Q817 406 794 380T746 323L609 170Z" />
<glyph unicode="&#xbf;" horiz-adv-x="451" d="M266 208Q209 199 167 176T96 120T54 47T40 -37Q40 -85 55 -115T97 -161T160 -176Q212 -176 243 -154T289 -94T308 -11Q323 -11 330 -19T338 -44Q338 -80 319 -112T259 -165T158 -186Q86 -186 42 -146T-3 -37Q-3
23 25 73T106 159T236 213L271 348H282L266 208ZM308 545Q319 545 325 539T332 516Q332 494 322 474T290 453Q278 453 272 459T265 482Q265 497 269 512T283 536T308 545Z" />
<glyph unicode="&#xc0;" horiz-adv-x="659" d="M-62 0L-60 10H-29Q-4 10 10 15T38 40T77 105L417 714H437L536 91Q542 54 547 37T563 15T591 10H604L602 0H402L404 10H439Q474 10 485 19T497 52Q497 63 496 77T493 97L435 480Q431 510 425 547T415 622T408 683Q399
664 390 647T369 610T344 564T310 504L87 102Q77 83 69 65T60 35Q60 19 71 15T112 10H162L160 0H-62ZM168 258L173 268H491L492 258H168ZM474 784Q461 805 449 824T425 862T402 899T383 936V944H426Q432 924 440 899T460 846T483 792L482 784H474Z" />
<glyph unicode="&#xc1;" horiz-adv-x="659" d="M-62 0L-60 10H-29Q-4 10 10 15T38 40T77 105L417 714H437L536 91Q542 54 547 37T563 15T591 10H604L602 0H402L404 10H439Q474 10 485 19T497 52Q497 63 496 77T493 97L435 480Q431 510 425 547T415 622T408 683Q399
664 390 647T369 610T344 564T310 504L87 102Q77 83 69 65T60 35Q60 19 71 15T112 10H162L160 0H-62ZM168 258L173 268H491L492 258H168ZM656 782Q673 804 690 829T723 881T752 934H795V926Q784 910 769 891T736 850T700 810T664 774H655L656 782Z" />
<glyph unicode="&#xc2;" horiz-adv-x="659" d="M-62 0L-60 10H-29Q-4 10 10 15T38 40T77 105L417 714H437L536 91Q542 54 547 37T563 15T591 10H604L602 0H402L404 10H439Q474 10 485 19T497 52Q497 63 496 77T493 97L435 480Q431 510 425 547T415 622T408 683Q399
664 390 647T369 610T344 564T310 504L87 102Q77 83 69 65T60 35Q60 19 71 15T112 10H162L160 0H-62ZM168 258L173 268H491L492 258H168ZM317 792Q337 812 363 838T412 893T447 944H487Q491 922 502 894T528 839T554 792L553 784H545Q515 818 497 847T463 912Q442
889 422 868T378 827T325 784H317V792Z" />
<glyph unicode="&#xc3;" horiz-adv-x="659" d="M-62 0L-60 10H-29Q-4 10 10 15T38 40T77 105L417 714H437L536 91Q542 54 547 37T563 15T591 10H604L602 0H402L404 10H439Q474 10 485 19T497 52Q497 63 496 77T493 97L435 480Q431 510 425 547T415 622T408 683Q399
664 390 647T369 610T344 564T310 504L87 102Q77 83 69 65T60 35Q60 19 71 15T112 10H162L160 0H-62ZM168 258L173 268H491L492 258H168ZM512 791Q487 791 469 800T434 820T399 839T357 848Q334 848 320 840T298 818T285 791H274Q281 813 294 834T328 868T378 882Q403
882 421 874T454 854T488 835T530 826Q561 826 576 842T599 879H609Q602 857 591 837T560 804T512 791Z" />
<glyph unicode="&#xc4;" horiz-adv-x="659" d="M-62 0L-60 10H-29Q-4 10 10 15T38 40T77 105L417 714H437L536 91Q542 54 547 37T563 15T591 10H604L602 0H402L404 10H439Q474 10 485 19T497 52Q497 63 496 77T493 97L435 480Q431 510 425 547T415 622T408 683Q399
664 390 647T369 610T344 564T310 504L87 102Q77 83 69 65T60 35Q60 19 71 15T112 10H162L160 0H-62ZM168 258L173 268H491L492 258H168ZM527 830Q517 830 511 836T505 856Q505 870 508 884T520 907T539 917Q550 917 555 911T561 891Q561 867 553 849T527 830ZM359
830Q350 830 344 836T338 856Q338 870 341 884T352 907T372 917Q382 917 388 911T394 891Q394 867 385 849T359 830Z" />
<glyph unicode="&#xc5;" horiz-adv-x="657" d="M-60 0L-58 10H-27Q-2 10 12 15T40 40T79 105L411 700L419 698H430L441 700L538 91Q544 54 550 37T565 15T593 10H606L604 0H404L406 10H441Q476 10 487 19T499 52Q499 63 498 77T495 97L437 480Q433 510 428 547T418
622T410 683Q401 664 392 647T371 610T346 564T312 504L89 102Q79 83 71 65T62 35Q62 19 73 15T114 10H164L162 0H-60ZM170 258L175 268H493L495 258H170ZM440 693Q393 693 361 719T329 796Q329 847 361 873T440 899Q487 899 518 873T550 796Q550 746 519 720T440
693ZM440 703Q482 703 510 725T538 796Q538 844 510 866T440 889Q397 889 369 867T341 796Q341 747 369 725T440 703Z" />
<glyph unicode="&#xc6;" horiz-adv-x="903" d="M-62 0L-60 10H-42Q-23 10 -11 13T17 33T59 88L494 704H365L367 714H907L876 550H866Q868 559 870 577T874 613T876 640Q876 659 871 673T853 696T808 704H580L512 381H769L768 371H509L433 10H692Q728 10 747 18T779
49T805 117L819 164H829L788 0H290L292 10H321Q349 10 364 13T387 26T399 56L445 270H200L67 80Q57 66 51 55T45 34Q45 22 60 16T112 10H161L159 0H-62ZM207 280H447L537 704H506Q489 678 462 640T407 561T356 489L207 280Z" />
<glyph unicode="&#xc7;" horiz-adv-x="590" d="M313 -10Q235 -10 179 24T92 119T61 256Q61 327 77 395T125 523T201 627T302 698T424 724Q512 724 558 688T604 591Q604 573 594 562T564 551Q564 588 557 618T534 669T490 702T423 714Q363 714 314 687T225 614T160
508T120 383T106 253Q106 178 132 121T205 32T315 0Q363 0 398 16T456 60T493 124Q498 122 500 118T503 106Q503 81 483 54T420 9T313 -10ZM250 25Q234 25 218 27T185 35L187 45Q202 40 217 38T243 36Q271 36 289 48T316 82T326 128Q326 152 312 168T254 188L284
256H294L267 197Q299 195 319 186T351 160T362 122Q362 92 348 70T309 37T250 25Z" />
<glyph unicode="&#xc8;" horiz-adv-x="602" d="M-10 0L-7 10H30Q67 10 80 19T98 50L228 666Q229 669 229 672T230 678Q230 693 220 698T188 704H139L141 714H606L576 550H566Q568 568 570 583T574 613T575 637Q575 661 570 675T552 696T514 704H280L211 381H466L465
371H209L133 10H397Q422 10 438 14T465 28T484 58T501 107L518 164H528L487 0H-10ZM452 771Q439 792 427 811T403 849T380 886T361 923V931H404Q410 911 418 886T438 833T461 779L460 771H452Z" />
<glyph unicode="&#xc9;" horiz-adv-x="602" d="M-10 0L-7 10H30Q67 10 80 19T98 50L228 666Q229 669 229 672T230 678Q230 693 220 698T188 704H139L141 714H606L576 550H566Q568 568 570 583T574 613T575 637Q575 661 570 675T552 696T514 704H280L211 381H466L465
371H209L133 10H397Q422 10 438 14T465 28T484 58T501 107L518 164H528L487 0H-10ZM425 779Q442 801 459 826T492 878T521 931H564V923Q553 907 538 888T505 847T469 807T433 771H424L425 779Z" />
<glyph unicode="&#xca;" horiz-adv-x="602" d="M-10 0L-7 10H30Q67 10 80 19T98 50L228 666Q229 669 229 672T230 678Q230 693 220 698T188 704H139L141 714H606L576 550H566Q568 568 570 583T574 613T575 637Q575 661 570 675T552 696T514 704H280L211 381H466L465
371H209L133 10H397Q422 10 438 14T465 28T484 58T501 107L518 164H528L487 0H-10ZM306 779Q326 799 352 825T401 880T436 931H476Q480 909 491 881T517 826T543 779L542 771H534Q504 805 486 834T452 899Q431 876 411 855T367 814T314 771H306V779Z" />
<glyph unicode="&#xcb;" horiz-adv-x="602" d="M-10 0L-7 10H30Q67 10 80 19T98 50L228 666Q229 669 229 672T230 678Q230 693 220 698T188 704H139L141 714H606L576 550H566Q568 568 570 583T574 613T575 637Q575 661 570 675T552 696T514 704H280L211 381H466L465
371H209L133 10H397Q422 10 438 14T465 28T484 58T501 107L518 164H528L487 0H-10ZM519 817Q509 817 503 823T497 843Q497 857 500 871T512 894T531 904Q542 904 547 898T553 878Q553 854 545 836T519 817ZM351 817Q342 817 336 823T330 843Q330 857 333 871T344
894T364 904Q374 904 380 898T386 878Q386 854 377 836T351 817Z" />
<glyph unicode="&#xcc;" horiz-adv-x="314" d="M-11 0L-9 10H27Q64 10 79 21T102 68L224 646Q226 654 227 661T228 674Q228 690 217 697T175 704H139L141 714H380L378 704H342Q305 704 290 693T266 641L146 72Q144 63 143 55T141 39Q141 22 153 16T194 10H231L229
0H-11ZM289 771Q276 792 264 811T240 849T217 886T198 923V931H241Q247 911 255 886T275 833T298 779L297 771H289Z" />
<glyph unicode="&#xcd;" horiz-adv-x="314" d="M-11 0L-9 10H27Q64 10 79 21T102 68L224 646Q226 654 227 661T228 674Q228 690 217 697T175 704H139L141 714H380L378 704H342Q305 704 290 693T266 641L146 72Q144 63 143 55T141 39Q141 22 153 16T194 10H231L229
0H-11ZM240 779Q257 801 274 826T307 878T336 931H379V923Q368 907 353 888T320 847T284 807T248 771H239L240 779Z" />
<glyph unicode="&#xce;" horiz-adv-x="314" d="M-11 0L-9 10H27Q64 10 79 21T102 68L224 646Q226 654 227 661T228 674Q228 690 217 697T175 704H139L141 714H380L378 704H342Q305 704 290 693T266 641L146 72Q144 63 143 55T141 39Q141 22 153 16T194 10H231L229
0H-11ZM150 779Q170 799 196 825T245 880T280 931H320Q324 909 335 881T361 826T387 779L386 771H378Q348 805 330 834T296 899Q275 876 255 855T211 814T158 771H150V779Z" />
<glyph unicode="&#xcf;" horiz-adv-x="314" d="M-11 0L-9 10H27Q64 10 79 21T102 68L224 646Q226 654 227 661T228 674Q228 690 217 697T175 704H139L141 714H380L378 704H342Q305 704 290 693T266 641L146 72Q144 63 143 55T141 39Q141 22 153 16T194 10H231L229
0H-11ZM367 830Q357 830 351 836T345 856Q345 870 348 884T360 907T379 917Q390 917 395 911T401 891Q401 867 393 849T367 830ZM199 830Q190 830 184 836T178 856Q178 870 181 884T192 907T212 917Q222 917 228 911T234 891Q234 867 225 849T199 830Z" />
<glyph unicode="&#xd0;" horiz-adv-x="682" d="M49 375L51 385H416L413 375H49ZM-10 0L-6 10H28Q65 10 79 19T101 61L229 666Q230 670 230 673T231 680Q231 694 220 699T188 704H139L141 714H373Q506 714 576 645T647 442Q647 371 632 305T585 184T508 87T402
23T268 0H-10ZM259 10Q322 10 375 30T471 89T542 181T587 301T602 444Q602 533 573 591T493 676T372 704H280L133 10H259Z" />
<glyph unicode="&#xd1;" horiz-adv-x="697" d="M-11 0L-9 10H28Q53 10 68 13T91 29T104 66L229 649Q231 659 232 666T233 679Q233 694 223 699T189 704H139L141 714H281L522 58L642 620Q646 636 647 649T649 670Q649 690 635 697T591 704H539L541 714H774L772
704H735Q710 704 694 699T669 675T651 619L520 0H502L247 684L117 76Q115 64 113 54T111 37Q111 22 124 16T164 10H224L222 0H-11ZM548 791Q523 791 505 800T470 820T435 839T393 848Q370 848 356 840T334 818T321 791H310Q317 813 330 834T364 868T414 882Q439
882 457 874T490 854T524 835T566 826Q597 826 612 842T635 879H645Q638 857 627 837T596 804T548 791Z" />
<glyph unicode="&#xd2;" horiz-adv-x="700" d="M306 -11Q237 -11 182 19T94 110T61 266Q61 324 76 387T121 510T196 618T301 696T435 725Q499 725 554 696T643 607T677 450Q677 401 667 348T636 243T585 146T513 65T420 9T306 -11ZM307 -1Q370 -1 422 25T513 96T578
201T618 325T631 455Q631 551 605 607T535 689T433 715Q371 715 320 689T229 618T162 514T120 390T106 260Q106 161 133 104T207 23T307 -1ZM506 784Q493 805 481 824T457 862T434 899T415 936V944H458Q464 924 472 899T492 846T515 792L514 784H506Z" />
<glyph unicode="&#xd3;" horiz-adv-x="700" d="M306 -11Q237 -11 182 19T94 110T61 266Q61 324 76 387T121 510T196 618T301 696T435 725Q499 725 554 696T643 607T677 450Q677 401 667 348T636 243T585 146T513 65T420 9T306 -11ZM307 -1Q370 -1 422 25T513 96T578
201T618 325T631 455Q631 551 605 607T535 689T433 715Q371 715 320 689T229 618T162 514T120 390T106 260Q106 161 133 104T207 23T307 -1ZM688 782Q705 804 722 829T755 881T784 934H827V926Q816 910 801 891T768 850T732 810T696 774H687L688 782Z" />
<glyph unicode="&#xd4;" horiz-adv-x="700" d="M306 -11Q237 -11 182 19T94 110T61 266Q61 324 76 387T121 510T196 618T301 696T435 725Q499 725 554 696T643 607T677 450Q677 401 667 348T636 243T585 146T513 65T420 9T306 -11ZM307 -1Q370 -1 422 25T513 96T578
201T618 325T631 455Q631 551 605 607T535 689T433 715Q371 715 320 689T229 618T162 514T120 390T106 260Q106 161 133 104T207 23T307 -1ZM349 792Q369 812 395 838T444 893T479 944H519Q523 922 534 894T560 839T586 792L585 784H577Q547 818 529 847T495 912Q474
889 454 868T410 827T357 784H349V792Z" />
<glyph unicode="&#xd5;" horiz-adv-x="700" d="M306 -11Q237 -11 182 19T94 110T61 266Q61 324 76 387T121 510T196 618T301 696T435 725Q499 725 554 696T643 607T677 450Q677 401 667 348T636 243T585 146T513 65T420 9T306 -11ZM307 -1Q370 -1 422 25T513 96T578
201T618 325T631 455Q631 551 605 607T535 689T433 715Q371 715 320 689T229 618T162 514T120 390T106 260Q106 161 133 104T207 23T307 -1ZM544 791Q519 791 501 800T466 820T431 839T389 848Q366 848 352 840T330 818T317 791H306Q313 813 326 834T360 868T410
882Q435 882 453 874T486 854T520 835T562 826Q593 826 608 842T631 879H641Q634 857 623 837T592 804T544 791Z" />
<glyph unicode="&#xd6;" horiz-adv-x="700" d="M306 -11Q237 -11 182 19T94 110T61 266Q61 324 76 387T121 510T196 618T301 696T435 725Q499 725 554 696T643 607T677 450Q677 401 667 348T636 243T585 146T513 65T420 9T306 -11ZM307 -1Q370 -1 422 25T513 96T578
201T618 325T631 455Q631 551 605 607T535 689T433 715Q371 715 320 689T229 618T162 514T120 390T106 260Q106 161 133 104T207 23T307 -1ZM559 830Q549 830 543 836T537 856Q537 870 540 884T552 907T571 917Q582 917 587 911T593 891Q593 867 585 849T559 830ZM391
830Q382 830 376 836T370 856Q370 870 373 884T384 907T404 917Q414 917 420 911T426 891Q426 867 417 849T391 830Z" />
<glyph unicode="&#xd7;" horiz-adv-x="559" d="M101 145L87 159L285 357L87 555L101 569L299 371L496 569L510 555L312 357L510 159L496 145L299 343L101 145Z" />
<glyph unicode="&#xd8;" horiz-adv-x="700" d="M75 -40L645 755H658L87 -40H75ZM306 -11Q237 -11 182 19T94 110T61 266Q61 324 76 387T121 510T196 618T301 696T435 725Q499 725 554 696T643 607T677 450Q677 401 667 348T636 243T585 146T513 65T420 9T306 -11ZM307
-1Q370 -1 422 25T513 96T578 201T618 325T631 455Q631 551 605 607T535 689T433 715Q371 715 320 689T229 618T162 514T120 390T106 260Q106 161 133 104T207 23T307 -1Z" />
<glyph unicode="&#xd9;" horiz-adv-x="706" d="M320 -10Q226 -10 171 34T115 161Q115 177 118 205T128 264L204 620Q209 636 210 649T212 670Q212 690 200 697T161 704H124L126 714H367L366 704H327Q303 704 289 698T265 675T248 619L171 264Q166 240 163 220T159
183T157 156Q157 84 202 44T324 3Q404 3 451 32T522 107T559 208L649 620Q651 633 652 643T654 660Q654 689 638 696T593 704H560L562 714H776L774 704H738Q713 704 699 699T675 676T658 619L570 204Q556 138 528 90T450 16T320 -10ZM511 784Q498 805 486 824T462
862T439 899T420 936V944H463Q469 924 477 899T497 846T520 792L519 784H511Z" />
<glyph unicode="&#xda;" horiz-adv-x="706" d="M320 -10Q226 -10 171 34T115 161Q115 177 118 205T128 264L204 620Q209 636 210 649T212 670Q212 690 200 697T161 704H124L126 714H367L366 704H327Q303 704 289 698T265 675T248 619L171 264Q166 240 163 220T159
183T157 156Q157 84 202 44T324 3Q404 3 451 32T522 107T559 208L649 620Q651 633 652 643T654 660Q654 689 638 696T593 704H560L562 714H776L774 704H738Q713 704 699 699T675 676T658 619L570 204Q556 138 528 90T450 16T320 -10ZM693 782Q710 804 727 829T760
881T789 934H832V926Q821 910 806 891T773 850T737 810T701 774H692L693 782Z" />
<glyph unicode="&#xdb;" horiz-adv-x="706" d="M320 -10Q226 -10 171 34T115 161Q115 177 118 205T128 264L204 620Q209 636 210 649T212 670Q212 690 200 697T161 704H124L126 714H367L366 704H327Q303 704 289 698T265 675T248 619L171 264Q166 240 163 220T159
183T157 156Q157 84 202 44T324 3Q404 3 451 32T522 107T559 208L649 620Q651 633 652 643T654 660Q654 689 638 696T593 704H560L562 714H776L774 704H738Q713 704 699 699T675 676T658 619L570 204Q556 138 528 90T450 16T320 -10ZM354 792Q374 812 400 838T449
893T484 944H524Q528 922 539 894T565 839T591 792L590 784H582Q552 818 534 847T500 912Q479 889 459 868T415 827T362 784H354V792Z" />
<glyph unicode="&#xdc;" horiz-adv-x="706" d="M320 -10Q226 -10 171 34T115 161Q115 177 118 205T128 264L204 620Q209 636 210 649T212 670Q212 690 200 697T161 704H124L126 714H367L366 704H327Q303 704 289 698T265 675T248 619L171 264Q166 240 163 220T159
183T157 156Q157 84 202 44T324 3Q404 3 451 32T522 107T559 208L649 620Q651 633 652 643T654 660Q654 689 638 696T593 704H560L562 714H776L774 704H738Q713 704 699 699T675 676T658 619L570 204Q556 138 528 90T450 16T320 -10ZM564 830Q554 830 548 836T542
856Q542 870 545 884T557 907T576 917Q587 917 592 911T598 891Q598 867 590 849T564 830ZM396 830Q387 830 381 836T375 856Q375 870 378 884T389 907T409 917Q419 917 425 911T431 891Q431 867 422 849T396 830Z" />
<glyph unicode="&#xdd;" horiz-adv-x="556" d="M104 0L106 10H145Q182 10 196 21T218 68L276 338L150 662Q140 689 131 696T97 704H84L86 714H300L298 704H232Q210 704 201 700T191 683Q191 678 192 673T195 661T201 645L267 472Q274 454 283 430T300 384T314
345Q328 364 345 385T386 437L536 632Q549 648 556 661T564 683Q564 694 555 699T521 704H465L467 714H660L658 704H634Q621 704 612 700T591 683T562 648L319 336L261 65Q260 58 259 51T258 39Q258 23 270 17T311 10H350L348 0H104ZM608 782Q625 804 642 829T675
881T704 934H747V926Q736 910 721 891T688 850T652 810T616 774H607L608 782Z" />
<glyph unicode="&#xde;" horiz-adv-x="570" d="M-19 0L-17 10H19Q52 10 69 22T94 71L211 620Q215 637 217 649T219 671Q219 692 206 698T167 704H130L132 714H374L372 704H334Q302 704 285 693T260 647L248 592H327Q425 592 480 545T535 405Q535 367 523 325T477
246T384 186T227 163H157L138 71Q136 61 135 52T133 37Q133 23 146 17T186 10H224L222 0H-19ZM223 173Q295 173 346 191T429 241T475 314T490 405Q490 493 449 537T323 582H246L159 173H223Z" />
<glyph unicode="&#xdf;" horiz-adv-x="558" d="M-75 -240Q-87 -240 -100 -238T-125 -232L-122 -222Q-113 -225 -102 -227T-79 -229Q-42 -229 -19 -208T20 -141T51 -21L167 526H90L93 536H169L178 579Q190 636 214 671T269 726T331 752T391 759Q471 759 506 717T542
609Q542 590 542 575T535 530H493Q421 530 382 512T327 465T311 401Q311 381 318 366T342 334T389 293Q422 269 444 247T479 198T491 138Q491 91 472 58T417 8T333 -10Q289 -10 260 3T216 40T203 91Q203 112 211 122T237 133Q236 100 242 69T270 19T336 0Q390 0
421 31T452 131Q452 151 446 169T423 208T375 253Q346 276 323 296T287 340T273 393Q273 423 283 449T319 496T387 528T496 540Q500 560 502 583T504 619Q504 683 477 716T391 749Q343 749 309 730T253 678T222 599L94 -8Q81 -70 66 -114T32 -186T-14 -227T-75
-240Z" />
<glyph unicode="&#xe0;" horiz-adv-x="504" d="M149 -10Q110 -10 84 9T45 68T32 165Q32 212 44 264T79 366T136 456T213 521T310 546Q344 546 369 535T412 505L442 535H456L382 203Q378 185 374 160T366 109T363 68Q363 38 372 22T403 5Q426 5 443 15T483 44L488
36Q475 24 459 14T426 -3T389 -10Q356 -10 339 13T323 75Q323 91 326 115T333 159H330Q288 66 241 28T149 -10ZM159 4Q192 4 222 27T278 88T323 173T353 265L403 493Q390 515 364 525T311 536Q266 536 230 511T165 444T116 352T86 253T76 163Q76 102 86 68T116
19T159 4ZM355 606Q342 627 330 646T306 684T283 721T264 758V766H307Q313 746 321 721T341 668T364 614L363 606H355Z" />
<glyph unicode="&#xe1;" horiz-adv-x="504" d="M149 -10Q110 -10 84 9T45 68T32 165Q32 212 44 264T79 366T136 456T213 521T310 546Q344 546 369 535T412 505L442 535H456L382 203Q378 185 374 160T366 109T363 68Q363 38 372 22T403 5Q426 5 443 15T483 44L488
36Q475 24 459 14T426 -3T389 -10Q356 -10 339 13T323 75Q323 91 326 115T333 159H330Q288 66 241 28T149 -10ZM159 4Q192 4 222 27T278 88T323 173T353 265L403 493Q390 515 364 525T311 536Q266 536 230 511T165 444T116 352T86 253T76 163Q76 102 86 68T116
19T159 4ZM537 604Q554 626 571 651T604 703T633 756H676V748Q665 732 650 713T617 672T581 632T545 596H536L537 604Z" />
<glyph unicode="&#xe2;" horiz-adv-x="504" d="M149 -10Q110 -10 84 9T45 68T32 165Q32 212 44 264T79 366T136 456T213 521T310 546Q344 546 369 535T412 505L442 535H456L382 203Q378 185 374 160T366 109T363 68Q363 38 372 22T403 5Q426 5 443 15T483 44L488
36Q475 24 459 14T426 -3T389 -10Q356 -10 339 13T323 75Q323 91 326 115T333 159H330Q288 66 241 28T149 -10ZM159 4Q192 4 222 27T278 88T323 173T353 265L403 493Q390 515 364 525T311 536Q266 536 230 511T165 444T116 352T86 253T76 163Q76 102 86 68T116
19T159 4ZM198 614Q218 634 244 660T293 715T328 766H368Q372 744 383 716T409 661T435 614L434 606H426Q396 640 378 669T344 734Q323 711 303 690T259 649T206 606H198V614Z" />
<glyph unicode="&#xe3;" horiz-adv-x="504" d="M149 -10Q110 -10 84 9T45 68T32 165Q32 212 44 264T79 366T136 456T213 521T310 546Q344 546 369 535T412 505L442 535H456L382 203Q378 185 374 160T366 109T363 68Q363 38 372 22T403 5Q426 5 443 15T483 44L488
36Q475 24 459 14T426 -3T389 -10Q356 -10 339 13T323 75Q323 91 326 115T333 159H330Q288 66 241 28T149 -10ZM159 4Q192 4 222 27T278 88T323 173T353 265L403 493Q390 515 364 525T311 536Q266 536 230 511T165 444T116 352T86 253T76 163Q76 102 86 68T116
19T159 4ZM393 613Q368 613 350 622T315 642T280 661T238 670Q215 670 201 662T179 640T166 613H155Q162 635 175 656T209 690T259 704Q284 704 302 696T335 676T369 657T411 648Q442 648 457 664T480 701H490Q483 679 472 659T441 626T393 613Z" />
<glyph unicode="&#xe4;" horiz-adv-x="504" d="M149 -10Q110 -10 84 9T45 68T32 165Q32 212 44 264T79 366T136 456T213 521T310 546Q344 546 369 535T412 505L442 535H456L382 203Q378 185 374 160T366 109T363 68Q363 38 372 22T403 5Q426 5 443 15T483 44L488
36Q475 24 459 14T426 -3T389 -10Q356 -10 339 13T323 75Q323 91 326 115T333 159H330Q288 66 241 28T149 -10ZM159 4Q192 4 222 27T278 88T323 173T353 265L403 493Q390 515 364 525T311 536Q266 536 230 511T165 444T116 352T86 253T76 163Q76 102 86 68T116
19T159 4ZM408 652Q398 652 392 658T386 678Q386 692 389 706T401 729T420 739Q431 739 436 733T442 713Q442 689 434 671T408 652ZM240 652Q231 652 225 658T219 678Q219 692 222 706T233 729T253 739Q263 739 269 733T275 713Q275 689 266 671T240 652Z" />
<glyph unicode="&#xe5;" horiz-adv-x="504" d="M149 -10Q110 -10 84 9T45 68T32 165Q32 212 44 264T79 366T136 456T213 521T310 546Q344 546 369 535T412 505L442 535H456L382 203Q378 185 374 160T366 109T363 68Q363 38 372 22T403 5Q426 5 443 15T483 44L488
36Q475 24 459 14T426 -3T389 -10Q356 -10 339 13T323 75Q323 91 326 115T333 159H330Q288 66 241 28T149 -10ZM159 4Q192 4 222 27T278 88T323 173T353 265L403 493Q390 515 364 525T311 536Q266 536 230 511T165 444T116 352T86 253T76 163Q76 102 86 68T116
19T159 4ZM347 612Q301 612 269 638T237 714Q237 765 269 791T347 817Q395 817 426 791T458 714Q458 665 427 639T347 612ZM347 622Q390 622 418 643T446 714Q446 762 418 784T347 807Q305 807 277 785T249 714Q249 665 277 644T347 622Z" />
<glyph unicode="&#xe6;" horiz-adv-x="744" d="M180 -10Q135 -10 104 12T56 79T39 192Q39 232 49 279T79 374T131 459T207 522T307 546Q348 546 382 533T452 481Q479 509 515 527T597 546Q650 546 680 517T710 437Q710 384 677 341T579 273T421 248H391Q390 235
389 220T387 191Q387 102 419 51T516 0Q563 0 595 27T645 105Q649 103 651 99T654 88Q654 68 638 45T591 6T514 -10Q470 -10 437 5T381 53T350 140H347Q319 71 280 31T180 -10ZM194 2Q240 2 277 41T347 161Q346 169 346 178T346 195Q346 251 360 304T396 402T444
475Q416 509 383 521T316 533Q268 533 231 509T165 446T119 361T92 269T83 186Q83 91 112 47T194 2ZM407 258Q500 258 557 283T641 351T668 442Q668 496 647 516T589 536Q552 536 520 513T461 451T418 362T392 258H407Z" />
<glyph unicode="&#xe7;" horiz-adv-x="438" d="M209 -10Q161 -10 123 13T62 81T39 197Q39 245 51 294T85 389T140 469T213 525T305 546Q349 546 379 531T423 492T438 442Q438 429 433 421T419 408T397 404Q397 409 397 415T398 429Q398 487 374 511T303 536Q263
536 229 516T168 462T122 383T93 291T83 195Q83 101 119 51T210 0Q245 0 271 12T317 48T348 102Q351 101 354 97T358 87Q358 64 341 42T290 5T209 -10ZM172 24Q156 24 140 26T107 34L109 44Q124 39 139 37T165 35Q193 35 211 47T238 81T248 127Q248 151 234 167T176
187L206 255H216L189 196Q221 194 241 185T273 159T284 121Q284 91 270 69T231 36T172 24Z" />
<glyph unicode="&#xe8;" horiz-adv-x="428" d="M205 -10Q159 -10 121 13T61 81T39 192Q39 238 49 287T81 382T133 465T204 524T295 546Q350 546 380 517T411 434Q411 377 374 336T273 271T132 248H86Q86 244 85 234T84 212T83 191Q83 132 99 89T143 23T206 0Q265
0 297 31T345 105Q349 104 351 100T353 89Q353 67 336 44T285 6T205 -10ZM130 258Q182 258 226 270T302 306T351 363T368 438Q368 490 350 513T291 536Q251 536 219 514T161 454T117 366T88 258H130ZM336 606Q323 627 311 646T287 684T264 721T245 758V766H288Q294
746 302 721T322 668T345 614L344 606H336Z" />
<glyph unicode="&#xe9;" horiz-adv-x="428" d="M205 -10Q159 -10 121 13T61 81T39 192Q39 238 49 287T81 382T133 465T204 524T295 546Q350 546 380 517T411 434Q411 377 374 336T273 271T132 248H86Q86 244 85 234T84 212T83 191Q83 132 99 89T143 23T206 0Q265
0 297 31T345 105Q349 104 351 100T353 89Q353 67 336 44T285 6T205 -10ZM130 258Q182 258 226 270T302 306T351 363T368 438Q368 490 350 513T291 536Q251 536 219 514T161 454T117 366T88 258H130ZM518 604Q535 626 552 651T585 703T614 756H657V748Q646 732
631 713T598 672T562 632T526 596H517L518 604Z" />
<glyph unicode="&#xea;" horiz-adv-x="428" d="M205 -10Q159 -10 121 13T61 81T39 192Q39 238 49 287T81 382T133 465T204 524T295 546Q350 546 380 517T411 434Q411 377 374 336T273 271T132 248H86Q86 244 85 234T84 212T83 191Q83 132 99 89T143 23T206 0Q265
0 297 31T345 105Q349 104 351 100T353 89Q353 67 336 44T285 6T205 -10ZM130 258Q182 258 226 270T302 306T351 363T368 438Q368 490 350 513T291 536Q251 536 219 514T161 454T117 366T88 258H130ZM180 614Q200 634 226 660T275 715T310 766H350Q354 744 365
716T391 661T417 614L416 606H408Q378 640 360 669T326 734Q305 711 285 690T241 649T188 606H180V614Z" />
<glyph unicode="&#xeb;" horiz-adv-x="428" d="M205 -10Q159 -10 121 13T61 81T39 192Q39 238 49 287T81 382T133 465T204 524T295 546Q350 546 380 517T411 434Q411 377 374 336T273 271T132 248H86Q86 244 85 234T84 212T83 191Q83 132 99 89T143 23T206 0Q265
0 297 31T345 105Q349 104 351 100T353 89Q353 67 336 44T285 6T205 -10ZM130 258Q182 258 226 270T302 306T351 363T368 438Q368 490 350 513T291 536Q251 536 219 514T161 454T117 366T88 258H130ZM390 652Q380 652 374 658T368 678Q368 692 371 706T383 729T402
739Q413 739 418 733T424 713Q424 689 416 671T390 652ZM222 652Q213 652 207 658T201 678Q201 692 204 706T215 729T235 739Q245 739 251 733T257 713Q257 689 248 671T222 652Z" />
<glyph unicode="&#xec;" horiz-adv-x="252" d="M143 -10Q106 -10 92 15T77 78Q77 96 79 116T85 157T92 194L148 475Q149 481 149 486T150 496Q150 514 137 520T88 526H68L70 536H203L123 145Q121 133 119 121T115 96T114 74Q114 38 126 23T155 7Q178 7 195 16T234
44L240 36Q218 17 195 4T143 -10ZM229 606Q216 627 204 646T180 684T157 721T138 758V766H181Q187 746 195 721T215 668T238 614L237 606H229Z" />
<glyph unicode="&#xed;" horiz-adv-x="252" d="M143 -10Q106 -10 92 15T77 78Q77 96 79 116T85 157T92 194L148 475Q149 481 149 486T150 496Q150 514 137 520T88 526H68L70 536H203L123 145Q121 133 119 121T115 96T114 74Q114 38 126 23T155 7Q178 7 195 16T234
44L240 36Q218 17 195 4T143 -10ZM411 860Q428 882 445 907T478 959T507 1012H550V1004Q539 988 524 969T491 928T455 888T419 852H410L411 860Z" />
<glyph unicode="&#xee;" horiz-adv-x="252" d="M143 -10Q106 -10 92 15T77 78Q77 96 79 116T85 157T92 194L148 475Q149 481 149 486T150 496Q150 514 137 520T88 526H68L70 536H203L123 145Q121 133 119 121T115 96T114 74Q114 38 126 23T155 7Q178 7 195 16T234
44L240 36Q218 17 195 4T143 -10ZM72 614Q92 634 118 660T167 715T202 766H242Q246 744 257 716T283 661T309 614L308 606H300Q270 640 252 669T218 734Q197 711 177 690T133 649T80 606H72V614Z" />
<glyph unicode="&#xef;" horiz-adv-x="252" d="M143 -10Q106 -10 92 15T77 78Q77 96 79 116T85 157T92 194L148 475Q149 481 149 486T150 496Q150 514 137 520T88 526H68L70 536H203L123 145Q121 133 119 121T115 96T114 74Q114 38 126 23T155 7Q178 7 195 16T234
44L240 36Q218 17 195 4T143 -10ZM282 652Q272 652 266 658T260 678Q260 692 263 706T275 729T294 739Q305 739 310 733T316 713Q316 689 308 671T282 652ZM114 652Q105 652 99 658T93 678Q93 692 96 706T107 729T127 739Q137 739 143 733T149 713Q149 689 140
671T114 652Z" />
<glyph unicode="&#xf0;" horiz-adv-x="532" d="M220 -10Q167 -10 128 11T67 75T45 179Q45 218 54 261T84 347T134 424T208 478T308 499Q333 499 358 492T403 467T437 415Q436 464 421 515T377 614T311 695T223 745L227 755Q298 734 346 693T425 595T469 473T482
342Q482 271 465 208T414 95T333 18T220 -10ZM217 0Q261 0 296 18T359 67T403 139T429 225T438 315Q438 404 403 446T309 489Q260 489 224 468T162 412T120 336T97 252T89 173Q89 111 106 73T153 18T217 0ZM220 568L222 580L509 738L508 726L220 568Z" />
<glyph unicode="&#xf1;" horiz-adv-x="532" d="M422 -10Q386 -10 369 12T351 77Q351 105 356 137T370 205L398 334Q401 342 405 362T413 406T417 446Q417 463 412 480T391 511T347 525Q312 525 281 504T225 449T181 375T155 296L93 0H52L142 440Q144 450 145 463T147
488Q147 512 134 519T84 526H65L68 536H202L171 381H173Q201 437 230 473T292 526T360 543Q396 543 417 529T448 492T458 440Q458 414 452 385T440 330L408 189Q402 160 397 130T391 71Q391 41 401 24T436 6Q446 6 457 9T481 21T510 43L516 35Q491 13 469 2T422
-10ZM419 613Q394 613 376 622T341 642T306 661T264 670Q241 670 227 662T205 640T192 613H181Q188 635 201 656T235 690T285 704Q310 704 328 696T361 676T395 657T437 648Q468 648 483 664T506 701H516Q509 679 498 659T467 626T419 613Z" />
<glyph unicode="&#xf2;" horiz-adv-x="514" d="M210 -10Q134 -10 86 39T38 191Q38 234 48 282T80 377T133 462T208 523T305 546Q354 546 392 526T453 460T476 342Q476 300 466 252T436 158T383 74T308 13T210 -10ZM210 0Q255 0 290 21T352 79T397 161T423 255T432
347Q432 413 417 455T374 516T304 536Q261 536 226 515T164 458T119 376T92 282T82 188Q82 84 117 42T210 0ZM364 606Q351 627 339 646T315 684T292 721T273 758V766H316Q322 746 330 721T350 668T373 614L372 606H364Z" />
<glyph unicode="&#xf3;" horiz-adv-x="514" d="M210 -10Q134 -10 86 39T38 191Q38 234 48 282T80 377T133 462T208 523T305 546Q354 546 392 526T453 460T476 342Q476 300 466 252T436 158T383 74T308 13T210 -10ZM210 0Q255 0 290 21T352 79T397 161T423 255T432
347Q432 413 417 455T374 516T304 536Q261 536 226 515T164 458T119 376T92 282T82 188Q82 84 117 42T210 0ZM546 604Q563 626 580 651T613 703T642 756H685V748Q674 732 659 713T626 672T590 632T554 596H545L546 604Z" />
<glyph unicode="&#xf4;" horiz-adv-x="514" d="M210 -10Q134 -10 86 39T38 191Q38 234 48 282T80 377T133 462T208 523T305 546Q354 546 392 526T453 460T476 342Q476 300 466 252T436 158T383 74T308 13T210 -10ZM210 0Q255 0 290 21T352 79T397 161T423 255T432
347Q432 413 417 455T374 516T304 536Q261 536 226 515T164 458T119 376T92 282T82 188Q82 84 117 42T210 0ZM207 614Q227 634 253 660T302 715T337 766H377Q381 744 392 716T418 661T444 614L443 606H435Q405 640 387 669T353 734Q332 711 312 690T268 649T215
606H207V614Z" />
<glyph unicode="&#xf5;" horiz-adv-x="514" d="M210 -10Q134 -10 86 39T38 191Q38 234 48 282T80 377T133 462T208 523T305 546Q354 546 392 526T453 460T476 342Q476 300 466 252T436 158T383 74T308 13T210 -10ZM210 0Q255 0 290 21T352 79T397 161T423 255T432
347Q432 413 417 455T374 516T304 536Q261 536 226 515T164 458T119 376T92 282T82 188Q82 84 117 42T210 0ZM402 613Q377 613 359 622T324 642T289 661T247 670Q224 670 210 662T188 640T175 613H164Q171 635 184 656T218 690T268 704Q293 704 311 696T344 676T378
657T420 648Q451 648 466 664T489 701H499Q492 679 481 659T450 626T402 613Z" />
<glyph unicode="&#xf6;" horiz-adv-x="514" d="M210 -10Q134 -10 86 39T38 191Q38 234 48 282T80 377T133 462T208 523T305 546Q354 546 392 526T453 460T476 342Q476 300 466 252T436 158T383 74T308 13T210 -10ZM210 0Q255 0 290 21T352 79T397 161T423 255T432
347Q432 413 417 455T374 516T304 536Q261 536 226 515T164 458T119 376T92 282T82 188Q82 84 117 42T210 0ZM417 652Q407 652 401 658T395 678Q395 692 398 706T410 729T429 739Q440 739 445 733T451 713Q451 689 443 671T417 652ZM249 652Q240 652 234 658T228
678Q228 692 231 706T242 729T262 739Q272 739 278 733T284 713Q284 689 275 671T249 652Z" />
<glyph unicode="&#xf7;" horiz-adv-x="559" d="M84 347V367H513V347H84ZM299 144Q282 144 270 153T258 186Q258 211 270 220T299 229Q316 229 328 220T340 186Q340 163 328 154T299 144ZM299 486Q282 486 270 495T258 529Q258 553 270 562T299 571Q316 571 328
562T340 529Q340 505 328 496T299 486Z" />
<glyph unicode="&#xf8;" horiz-adv-x="529" d="M-1 -50L525 586H538L12 -50H-1ZM210 -10Q134 -10 86 39T38 191Q38 234 48 282T80 377T133 462T208 523T305 546Q354 546 392 526T453 460T476 342Q476 300 466 252T436 158T383 74T308 13T210 -10ZM210 0Q255 0
290 21T352 79T397 161T423 255T432 347Q432 413 417 455T374 516T304 536Q261 536 226 515T164 458T119 376T92 282T82 188Q82 84 117 42T210 0Z" />
<glyph unicode="&#xf9;" horiz-adv-x="516" d="M410 -10Q388 -10 375 1T355 34T349 83Q349 89 349 97T351 116T353 142H352Q329 94 300 60T237 9T163 -9Q128 -9 106 6T74 47T64 102Q64 127 72 161T86 226L130 414Q135 436 140 460T145 496Q145 515 132 520T84
526H65L67 536H201L129 231Q125 211 120 187T110 140T106 103Q106 55 123 31T175 6Q214 6 245 26T301 78T340 141T359 195L431 536H473L403 204Q399 186 395 164T389 118T386 76Q386 45 394 26T422 6Q444 6 460 16T493 41L500 33Q484 18 461 4T410 -10ZM375 606Q362
627 350 646T326 684T303 721T284 758V766H327Q333 746 341 721T361 668T384 614L383 606H375Z" />
<glyph unicode="&#xfa;" horiz-adv-x="516" d="M410 -10Q388 -10 375 1T355 34T349 83Q349 89 349 97T351 116T353 142H352Q329 94 300 60T237 9T163 -9Q128 -9 106 6T74 47T64 102Q64 127 72 161T86 226L130 414Q135 436 140 460T145 496Q145 515 132 520T84
526H65L67 536H201L129 231Q125 211 120 187T110 140T106 103Q106 55 123 31T175 6Q214 6 245 26T301 78T340 141T359 195L431 536H473L403 204Q399 186 395 164T389 118T386 76Q386 45 394 26T422 6Q444 6 460 16T493 41L500 33Q484 18 461 4T410 -10ZM557 604Q574
626 591 651T624 703T653 756H696V748Q685 732 670 713T637 672T601 632T565 596H556L557 604Z" />
<glyph unicode="&#xfb;" horiz-adv-x="516" d="M410 -10Q388 -10 375 1T355 34T349 83Q349 89 349 97T351 116T353 142H352Q329 94 300 60T237 9T163 -9Q128 -9 106 6T74 47T64 102Q64 127 72 161T86 226L130 414Q135 436 140 460T145 496Q145 515 132 520T84
526H65L67 536H201L129 231Q125 211 120 187T110 140T106 103Q106 55 123 31T175 6Q214 6 245 26T301 78T340 141T359 195L431 536H473L403 204Q399 186 395 164T389 118T386 76Q386 45 394 26T422 6Q444 6 460 16T493 41L500 33Q484 18 461 4T410 -10ZM218 614Q238
634 264 660T313 715T348 766H388Q392 744 403 716T429 661T455 614L454 606H446Q416 640 398 669T364 734Q343 711 323 690T279 649T226 606H218V614Z" />
<glyph unicode="&#xfc;" horiz-adv-x="516" d="M410 -10Q388 -10 375 1T355 34T349 83Q349 89 349 97T351 116T353 142H352Q329 94 300 60T237 9T163 -9Q128 -9 106 6T74 47T64 102Q64 127 72 161T86 226L130 414Q135 436 140 460T145 496Q145 515 132 520T84
526H65L67 536H201L129 231Q125 211 120 187T110 140T106 103Q106 55 123 31T175 6Q214 6 245 26T301 78T340 141T359 195L431 536H473L403 204Q399 186 395 164T389 118T386 76Q386 45 394 26T422 6Q444 6 460 16T493 41L500 33Q484 18 461 4T410 -10ZM428 652Q418
652 412 658T406 678Q406 692 409 706T421 729T440 739Q451 739 456 733T462 713Q462 689 454 671T428 652ZM260 652Q251 652 245 658T239 678Q239 692 242 706T253 729T273 739Q283 739 289 733T295 713Q295 689 286 671T260 652Z" />
<glyph unicode="&#xfd;" horiz-adv-x="463" d="M-56 -240Q-77 -240 -99 -235T-139 -222L-135 -214Q-123 -220 -103 -224T-57 -229Q-9 -229 30 -218T103 -180T170 -111T239 -3L87 483Q78 512 70 519T36 526H22L25 536H115L223 192Q229 174 235 154T246 112T256
73T264 39H267Q292 82 319 130T370 230T408 337T423 442Q423 469 417 483T398 503T365 509Q365 525 375 534T400 543Q418 543 429 524T440 461Q440 394 419 328T363 193T285 50Q239 -31 202 -87T128 -176T48 -225T-56 -240ZM478 604Q495 626 512 651T545 703T574
756H617V748Q606 732 591 713T558 672T522 632T486 596H477L478 604Z" />
<glyph unicode="&#xfe;" horiz-adv-x="500" d="M174 663Q179 683 181 697T183 719Q183 739 172 744T136 750H98L100 760H236L179 489Q176 474 172 459T165 428T158 397H160Q180 436 206 470T264 525T336 546Q375 546 401 526T439 468T452 370Q452 327 441 276T406
174T349 82T269 16T165 -10Q137 -10 116 -4T77 14Q76 4 75 -7T69 -35L40 -165Q38 -174 36 -184T34 -202Q34 -221 49 -225T101 -230H121L119 -240H-17L174 663ZM168 0Q212 0 249 25T316 91T366 181T397 280T408 370Q408 427 400 461T374 511T326 527Q291 527 261
507T206 453T165 384T141 314L83 27Q94 18 114 9T168 0Z" />
<glyph unicode="&#xff;" horiz-adv-x="463" d="M-56 -240Q-77 -240 -99 -235T-139 -222L-135 -214Q-123 -220 -103 -224T-57 -229Q-9 -229 30 -218T103 -180T170 -111T239 -3L87 483Q78 512 70 519T36 526H22L25 536H115L223 192Q229 174 235 154T246 112T256
73T264 39H267Q292 82 319 130T370 230T408 337T423 442Q423 469 417 483T398 503T365 509Q365 525 375 534T400 543Q418 543 429 524T440 461Q440 394 419 328T363 193T285 50Q239 -31 202 -87T128 -176T48 -225T-56 -240ZM349 652Q339 652 333 658T327 678Q327
692 330 706T342 729T361 739Q372 739 377 733T383 713Q383 689 375 671T349 652ZM181 652Q172 652 166 658T160 678Q160 692 163 706T174 729T194 739Q204 739 210 733T216 713Q216 689 207 671T181 652Z" />
<glyph unicode="&#x2013;" horiz-adv-x="500" d="M-5 273L-1 293H511L506 273H-5Z" />
<glyph unicode="&#x2014;" horiz-adv-x="1000" d="M-6 268L-1 288H1011L1005 268H-6Z" />
<glyph unicode="&#x2018;" horiz-adv-x="178" d="M145 495Q126 495 116 511T106 550Q106 584 117 615T151 671T212 709L215 699Q182 688 162 662T141 610Q141 596 147 588T161 574T176 560T183 538Q183 519 173 507T145 495Z" />
<glyph unicode="&#x2019;" horiz-adv-x="177" d="M105 505Q138 516 158 542T179 595Q179 609 173 617T158 630T144 644T137 668Q137 687 147 698T174 709Q192 709 203 695T214 655Q214 619 202 587T166 532T108 495L105 505Z" />
<glyph unicode="&#x201a;" horiz-adv-x="177" d="M-24 -101Q9 -90 29 -64T50 -11Q50 3 44 11T29 24T15 38T8 62Q8 81 18 92T45 103Q63 103 74 89T85 49Q85 13 73 -19T37 -74T-21 -111L-24 -101Z" />
<glyph unicode="&#x201c;" horiz-adv-x="299" d="M274 495Q255 495 245 511T235 550Q235 584 246 615T282 671T341 709L344 699Q311 688 291 662T270 610Q270 597 276 589T290 574T305 560T312 540Q312 517 302 506T274 495ZM145 495Q126 495 116 511T106 550Q106
584 117 615T153 671T212 709L215 699Q182 688 162 662T141 610Q141 596 147 588T161 573T176 560T183 538Q183 519 173 507T145 495Z" />
<glyph unicode="&#x201d;" horiz-adv-x="303" d="M227 505Q260 516 281 542T302 596Q302 609 296 616T281 630T266 644T259 665Q259 688 269 698T298 709Q313 709 324 696T336 655Q336 620 325 589T290 533T230 495L227 505ZM94 505Q129 517 149 544T169 595Q169
608 163 616T148 630T133 643T126 665Q126 688 136 698T165 709Q180 709 191 696T203 655Q203 620 192 589T157 533T97 495L94 505Z" />
<glyph unicode="&#x201e;" horiz-adv-x="303" d="M97 -107Q130 -96 151 -70T172 -16Q172 -3 166 4T151 18T136 32T129 53Q129 76 139 86T168 97Q183 97 194 84T206 43Q206 8 195 -23T160 -79T100 -117L97 -107ZM-36 -107Q-1 -95 19 -68T39 -17Q39 -4 33 4T18 18T3
31T-4 53Q-4 76 6 86T35 97Q50 97 61 84T73 43Q73 8 62 -23T27 -79T-33 -117L-36 -107Z" />
<glyph unicode="&#x2022;" horiz-adv-x="306" d="M172 227Q124 228 94 255T62 356Q63 405 77 433T115 472T172 485Q203 486 227 474T265 434T280 356Q279 308 265 280T227 239T172 227Z" />
<glyph unicode="&#x2039;" horiz-adv-x="311" d="M189 89L75 259L77 266L265 451H281L120 260L203 89H189Z" />
<glyph unicode="&#x203a;" horiz-adv-x="311" d="M31 89L191 280L108 451H123L236 281L235 274L46 89H31Z" />
</font>
</defs>
</svg>
