<?xml version="1.0" encoding="UTF-8"?>
<svg xmlns="http://www.w3.org/2000/svg" xmlns:xlink="http://www.w3.org/1999/xlink" width="33px" height="26px" viewBox="0 0 32 26" version="1.1" style="padding:3.25px 3px 3px;">
<g id="surface1">
<path d="M 12.855469 11.511719 C 11.972656 11.894531 10.972656 12.328125 9.675781 12.328125 C 9.132812 12.328125 8.597656 12.25 8.070312 12.101562 L 8.972656 21.449219 C 9 21.839844 9.175781 22.203125 9.457031 22.472656 C 9.746094 22.738281 10.117188 22.886719 10.5 22.886719 C 10.5 22.886719 11.769531 22.949219 12.195312 22.949219 C 12.652344 22.949219 14.019531 22.886719 14.019531 22.886719 C 14.410156 22.886719 14.777344 22.738281 15.0625 22.472656 C 15.347656 22.203125 15.519531 21.839844 15.554688 21.449219 L 16.515625 11.121094 C 16.085938 10.972656 15.652344 10.875 15.164062 10.875 C 14.320312 10.871094 13.640625 11.167969 12.855469 11.511719 Z M 12.855469 11.511719 "/>
<path d="M 5.296875 7.523438 L 5.3125 7.535156 L 5.320312 7.542969 C 5.316406 7.535156 5.308594 7.527344 5.296875 7.523438 Z M 5.296875 7.523438 "/>
<path d="M 20.660156 6.660156 L 20.523438 5.964844 C 20.402344 5.347656 20.128906 4.761719 19.5 4.535156 C 19.300781 4.464844 19.070312 4.433594 18.917969 4.285156 C 18.761719 4.136719 18.722656 3.90625 18.683594 3.695312 C 18.617188 3.300781 18.554688 2.90625 18.488281 2.519531 C 18.429688 2.179688 18.382812 1.796875 18.230469 1.488281 C 18.035156 1.074219 17.621094 0.832031 17.210938 0.671875 C 17.003906 0.59375 16.792969 0.523438 16.574219 0.472656 C 15.554688 0.199219 14.480469 0.0976562 13.429688 0.0429688 C 12.167969 -0.03125 10.902344 -0.0078125 9.644531 0.105469 C 8.710938 0.191406 7.726562 0.296875 6.835938 0.625 C 6.511719 0.746094 6.175781 0.886719 5.929688 1.144531 C 5.625 1.457031 5.523438 1.941406 5.746094 2.332031 C 5.902344 2.609375 6.171875 2.804688 6.453125 2.9375 C 6.820312 3.101562 7.207031 3.230469 7.605469 3.316406 C 8.699219 3.5625 9.839844 3.660156 10.960938 3.703125 C 12.207031 3.753906 13.453125 3.710938 14.691406 3.574219 C 15 3.542969 15.304688 3.503906 15.609375 3.453125 C 15.964844 3.398438 16.199219 2.917969 16.089844 2.589844 C 15.964844 2.191406 15.625 2.035156 15.242188 2.09375 C 15.183594 2.105469 15.128906 2.117188 15.070312 2.125 L 15.027344 2.128906 C 14.898438 2.144531 14.769531 2.164062 14.636719 2.175781 C 14.371094 2.203125 14.101562 2.230469 13.828125 2.246094 C 13.222656 2.289062 12.613281 2.308594 12.003906 2.308594 C 11.410156 2.308594 10.808594 2.292969 10.210938 2.253906 C 9.941406 2.234375 9.671875 2.214844 9.398438 2.183594 C 9.273438 2.171875 9.152344 2.160156 9.035156 2.140625 L 8.914062 2.128906 L 8.886719 2.125 L 8.765625 2.105469 C 8.519531 2.070312 8.269531 2.027344 8.027344 1.972656 C 8.003906 1.96875 7.980469 1.957031 7.964844 1.933594 C 7.949219 1.914062 7.941406 1.886719 7.941406 1.863281 C 7.941406 1.835938 7.949219 1.8125 7.964844 1.789062 C 7.980469 1.773438 8.003906 1.757812 8.027344 1.753906 L 8.035156 1.753906 C 8.246094 1.707031 8.457031 1.667969 8.675781 1.632812 C 8.746094 1.621094 8.816406 1.609375 8.886719 1.597656 L 8.890625 1.597656 C 9.023438 1.589844 9.160156 1.566406 9.292969 1.550781 C 10.457031 1.425781 11.625 1.382812 12.796875 1.425781 C 13.363281 1.4375 13.929688 1.472656 14.496094 1.53125 C 14.617188 1.542969 14.738281 1.558594 14.859375 1.574219 C 14.902344 1.578125 14.949219 1.585938 14.996094 1.589844 L 15.089844 1.609375 C 15.363281 1.644531 15.632812 1.695312 15.902344 1.757812 C 16.308594 1.84375 16.820312 1.875 17 2.320312 C 17.054688 2.464844 17.082031 2.621094 17.113281 2.769531 L 17.152344 2.957031 C 17.152344 2.957031 17.152344 2.960938 17.152344 2.964844 C 17.25 3.414062 17.347656 3.859375 17.4375 4.308594 C 17.445312 4.339844 17.445312 4.375 17.4375 4.410156 C 17.433594 4.4375 17.421875 4.472656 17.398438 4.5 C 17.378906 4.527344 17.359375 4.550781 17.328125 4.570312 C 17.300781 4.585938 17.265625 4.597656 17.234375 4.605469 L 17.175781 4.609375 L 17.117188 4.617188 C 16.9375 4.640625 16.753906 4.664062 16.574219 4.683594 C 16.214844 4.726562 15.859375 4.761719 15.5 4.789062 C 14.792969 4.855469 14.074219 4.890625 13.363281 4.910156 C 12.996094 4.921875 12.632812 4.925781 12.269531 4.925781 C 10.820312 4.921875 9.375 4.835938 7.933594 4.667969 C 7.777344 4.652344 7.625 4.628906 7.464844 4.609375 C 7.585938 4.625 7.378906 4.597656 7.335938 4.589844 C 7.238281 4.578125 7.136719 4.5625 7.042969 4.542969 C 6.707031 4.5 6.378906 4.433594 6.046875 4.378906 C 5.644531 4.3125 5.261719 4.347656 4.898438 4.542969 C 4.601562 4.714844 4.359375 4.96875 4.207031 5.273438 C 4.050781 5.601562 4.003906 5.957031 3.933594 6.3125 C 3.867188 6.664062 3.753906 7.046875 3.796875 7.410156 C 3.886719 8.1875 4.425781 8.828125 5.199219 8.96875 C 5.929688 9.101562 6.660156 9.210938 7.394531 9.300781 C 10.277344 9.660156 13.191406 9.703125 16.085938 9.433594 C 16.320312 9.40625 16.558594 9.386719 16.792969 9.355469 C 16.867188 9.351562 16.941406 9.359375 17.007812 9.382812 C 17.078125 9.40625 17.140625 9.449219 17.195312 9.5 C 17.25 9.554688 17.289062 9.617188 17.3125 9.691406 C 17.335938 9.757812 17.347656 9.835938 17.335938 9.910156 L 17.265625 10.632812 C 17.117188 12.09375 16.972656 13.554688 16.824219 15.019531 C 16.671875 16.550781 16.511719 18.085938 16.359375 19.621094 C 16.3125 20.054688 16.269531 20.484375 16.226562 20.917969 C 16.183594 21.34375 16.179688 21.78125 16.101562 22.203125 C 15.972656 22.863281 15.535156 23.269531 14.886719 23.417969 C 14.300781 23.554688 13.699219 23.625 13.097656 23.628906 C 12.425781 23.632812 11.753906 23.605469 11.085938 23.609375 C 10.371094 23.613281 9.496094 23.546875 8.941406 23.003906 C 8.457031 22.53125 8.390625 21.785156 8.324219 21.144531 C 8.238281 20.296875 8.148438 19.445312 8.0625 18.59375 L 7.578125 13.863281 L 7.265625 10.804688 C 7.257812 10.753906 7.253906 10.703125 7.25 10.652344 C 7.210938 10.289062 6.957031 9.925781 6.558594 9.949219 C 6.210938 9.960938 5.824219 10.257812 5.863281 10.652344 L 6.097656 12.917969 L 6.578125 17.613281 C 6.710938 18.945312 6.851562 20.277344 6.988281 21.613281 C 7.011719 21.871094 7.039062 22.125 7.066406 22.382812 C 7.214844 23.773438 8.265625 24.527344 9.566406 24.738281 C 10.324219 24.863281 11.105469 24.890625 11.875 24.902344 C 12.863281 24.917969 13.859375 24.953125 14.828125 24.773438 C 16.269531 24.507812 17.351562 23.527344 17.503906 22.019531 C 17.546875 21.578125 17.589844 21.140625 17.632812 20.707031 C 17.785156 19.257812 17.929688 17.8125 18.074219 16.363281 L 18.550781 11.636719 L 18.769531 9.476562 C 18.777344 9.363281 18.824219 9.261719 18.894531 9.183594 C 18.964844 9.105469 19.0625 9.050781 19.167969 9.03125 C 19.578125 8.949219 19.976562 8.808594 20.265625 8.492188 C 20.734375 7.984375 20.824219 7.324219 20.660156 6.660156 Z M 5.179688 7.125 C 5.183594 7.121094 5.171875 7.175781 5.167969 7.203125 C 5.167969 7.164062 5.167969 7.128906 5.179688 7.125 Z M 5.214844 7.441406 C 5.222656 7.441406 5.230469 7.453125 5.242188 7.46875 C 5.226562 7.453125 5.214844 7.445312 5.214844 7.441406 Z M 5.257812 7.496094 C 5.269531 7.519531 5.277344 7.53125 5.257812 7.496094 Z M 5.335938 7.558594 C 5.335938 7.5625 5.339844 7.5625 5.339844 7.566406 C 5.339844 7.5625 5.335938 7.5625 5.335938 7.558594 Z M 19.148438 7.460938 C 19 7.605469 18.777344 7.671875 18.558594 7.703125 C 16.085938 8.074219 13.582031 8.265625 11.085938 8.179688 C 9.304688 8.121094 7.535156 7.917969 5.765625 7.664062 C 5.589844 7.636719 5.402344 7.609375 5.289062 7.476562 C 5.0625 7.230469 5.171875 6.742188 5.230469 6.445312 C 5.285156 6.175781 5.386719 5.808594 5.703125 5.773438 C 6.199219 5.714844 6.773438 5.925781 7.261719 6 C 7.855469 6.09375 8.445312 6.164062 9.039062 6.222656 C 11.574219 6.457031 14.152344 6.417969 16.675781 6.078125 C 17.136719 6.011719 17.597656 5.941406 18.054688 5.855469 C 18.457031 5.785156 18.910156 5.644531 19.152344 6.074219 C 19.324219 6.363281 19.347656 6.753906 19.320312 7.082031 C 19.3125 7.226562 19.25 7.363281 19.148438 7.460938 Z M 19.148438 7.460938 "/>
</g>
</svg>
