<svg version="1.1" id="Layer_1" xmlns="http://www.w3.org/2000/svg" xmlns:xlink="http://www.w3.org/1999/xlink" viewBox="0 0 30 24" style="enable-background:new 0 0 30 24;" xml:space="preserve" class="icon">
                              <g>
                                <path class="st0" d="M15,4c-4.5,0-8.2,3.7-8.2,8.2c0,3.6,2.4,6.7,5.6,7.8c0.4,0.1,0.6-0.2,0.6-0.4c0-0.2,0-0.8,0-1.5
                                  c-2.3,0.5-2.8-1-2.8-1c-0.4-0.9-0.9-1.2-0.9-1.2c-0.7-0.5,0.1-0.5,0.1-0.5c0.8,0.1,1.3,0.8,1.3,0.8c0.7,1.3,1.9,0.9,2.4,0.7
                                  c0.1-0.5,0.3-0.9,0.5-1.1c-1.8-0.2-3.7-0.9-3.7-4.1c0-0.9,0.3-1.6,0.8-2.2c-0.1-0.2-0.4-1,0.1-2.2c0,0,0.7-0.2,2.3,0.8
                                  C13.6,8.1,14.3,8,15,8c0.7,0,1.4,0.1,2.1,0.3c1.6-1.1,2.3-0.8,2.3-0.8c0.4,1.1,0.2,2,0.1,2.2c0.5,0.6,0.8,1.3,0.8,2.2
                                  c0,3.2-1.9,3.8-3.7,4c0.3,0.3,0.6,0.8,0.6,1.5c0,1.1,0,2,0,2.3c0,0.2,0.1,0.5,0.6,0.4c3.3-1.1,5.6-4.2,5.6-7.8
                                  C23.2,7.7,19.5,4,15,4z"></path>
                                <path class="st1" d="M9.9,15.8c0,0-0.1,0.1-0.1,0c-0.1,0-0.1-0.1-0.1-0.1c0,0,0.1-0.1,0.1,0C9.9,15.7,9.9,15.7,9.9,15.8L9.9,15.8z
                                   M9.8,15.7"></path>
                                <path class="st1" d="M10.2,16.1c0,0-0.1,0-0.2,0C10,16.1,10,16,10,15.9c0,0,0.1,0,0.2,0C10.3,16,10.3,16.1,10.2,16.1L10.2,16.1z
                                   M10.2,16.1"></path>
                                <path class="st1" d="M10.6,16.6c-0.1,0-0.1,0-0.2-0.1c-0.1-0.1-0.1-0.2,0-0.2c0.1,0,0.1,0,0.2,0.1C10.6,16.5,10.6,16.6,10.6,16.6
                                  L10.6,16.6z M10.6,16.6"></path>
                                <path class="st1" d="M11,17.1c0,0-0.1,0-0.2,0c-0.1-0.1-0.1-0.2,0-0.2c0,0,0.1,0,0.2,0C11,16.9,11.1,17,11,17.1L11,17.1z M11,17.1"></path>
                                <path class="st1" d="M11.6,17.3c0,0.1-0.1,0.1-0.2,0.1c-0.1,0-0.2-0.1-0.1-0.2c0-0.1,0.1-0.1,0.2-0.1
                                  C11.6,17.2,11.6,17.3,11.6,17.3L11.6,17.3z M11.6,17.3"></path>
                                <path class="st1" d="M12.3,17.4c0,0.1-0.1,0.1-0.2,0.1c-0.1,0-0.2-0.1-0.2-0.1c0-0.1,0.1-0.1,0.2-0.1
                                  C12.2,17.3,12.3,17.3,12.3,17.4L12.3,17.4z M12.3,17.4"></path>
                                <path class="st1" d="M12.9,17.3c0,0.1-0.1,0.1-0.2,0.2c-0.1,0-0.2,0-0.2-0.1c0-0.1,0.1-0.1,0.2-0.2C12.8,17.2,12.9,17.2,12.9,17.3
                                  L12.9,17.3z M12.9,17.3"></path>
                              </g>
                              </svg>