<svg id="Layer_1" data-name="Layer 1" xmlns="http://www.w3.org/2000/svg" viewBox="0 0 2600.97 1226.51"><defs><style>.cls-1{fill:#cacaca;}.cls-2{fill:#f2f2f2;}.cls-3{fill:#e6e6e6;}.cls-4{fill:#282220;}.cls-5{fill:#fdb;}.cls-6{fill:#2f2e41;}.cls-7{fill:#0173de;}.cls-8{fill:#002c51;}.cls-9{fill:#fff;}.cls-10{fill:#e5e5e5;}.cls-11{isolation:isolate;font-size:600px;font-family:Americane-Bold, Americane;font-weight:700;}</style></defs><g id="Layer_2" data-name="Layer 2"><g id="Layer_1-2" data-name="Layer 1-2"><path class="cls-1" d="M1571.6,495.44h0a249.9,249.9,0,0,1-2.09-54.11l2.09-29.89h0c-11.54,23-8.93,53.19,0,84Z"/><path class="cls-1" d="M1580.6,500.44h0a184.39,184.39,0,0,1-1-32.21l1-17.79h0C1575.05,464.11,1576.31,482.1,1580.6,500.44Z"/><path class="cls-2" d="M1620.61,522.44v10a3,3,0,0,1-3,3h-5a1,1,0,0,0-1,1h0v82a3,3,0,0,1-3,3h-61a3,3,0,0,1-3-3v-82a1,1,0,0,0-1-1h-6a3,3,0,0,1-3-3v-10a3,3,0,0,1,3-3h80A3,3,0,0,1,1620.61,522.44Z"/><rect class="cls-3" x="1544.7" y="537.54" width="67" height="3"/><path class="cls-3" d="M1611.61,581.69c-22.42,9.27-45.08,9.38-68,0V560.55a106.78,106.78,0,0,1,68,0Z"/><circle class="cls-4" cx="1298.75" cy="208.94" r="36.4"/><path class="cls-4" d="M1308.89,173.55a36.4,36.4,0,0,1,32,53.66A36.39,36.39,0,0,0,1284.7,181l-.66.83a36,36,0,0,0-3.61,5.45A36.31,36.31,0,0,1,1308.89,173.55Z"/><circle class="cls-4" cx="1221.62" cy="107.03" r="106.91"/><path class="cls-4" d="M1137.71,40.69a106.91,106.91,0,0,1,148.17-11.21c-.88-.83-1.74-1.66-2.65-2.47a106.91,106.91,0,0,0-142.07,159.81c.91.8,1.84,1.56,2.77,2.33A106.9,106.9,0,0,1,1137.71,40.69Z"/><circle class="cls-5" cx="1220.71" cy="145.18" r="68.86"/><path class="cls-1" d="M1255.89,226.73,1182.2,230s6.15,38.11-33.72,41.73-76.1-7.24-90.6,19.94-8.25,124-8.25,124,27.18,97.85,48.93,112.35,212-5.44,212-5.44L1390.2,422l-2.7-77.54c-1.41-40.49-38.37-70.89-78.19-63.4l-2.36.48c-1.19.25-8.75-6.54-32.75-18.54C1259.52,255.7,1255.89,226.73,1255.89,226.73Z"/><path class="cls-6" d="M1095.93,270s17.52,31.78,10.27,77.08,23.16,141.12,23.16,141.12l21.75-5.44s-14.5-94.23-10.87-116,4.62-85.92-13.5-96.79S1095.93,270,1095.93,270Z"/><path class="cls-6" d="M1305.67,286.62l7.62,200.63,14.5,9.06s20.83-220.17,10-220.17h-22.12a10,10,0,0,0-10,10h0A3.84,3.84,0,0,0,1305.67,286.62Z"/><circle class="cls-7" cx="1139.33" cy="474.56" r="9.06"/><circle class="cls-7" cx="1320.54" cy="483.63" r="9.06"/><polygon class="cls-4" points="1161.82 58.1 1161.82 126.96 1177.77 126.96 1198.06 105.22 1195.34 126.96 1265.83 126.96 1261.48 105.22 1270.18 126.96 1281.42 126.96 1281.42 58.1 1161.82 58.1"/><ellipse class="cls-5" cx="1150.95" cy="130.68" rx="5.44" ry="9.97"/><ellipse class="cls-5" cx="1290.48" cy="130.68" rx="5.44" ry="9.97"/><path class="cls-8" d="M1441.3,603.48v6.07a13.49,13.49,0,0,1-.91,4.87,13.83,13.83,0,0,1-1,2,13.43,13.43,0,0,1-11.55,6.56H981.32a13.43,13.43,0,0,1-11.55-6.56,13.83,13.83,0,0,1-1-2,13.28,13.28,0,0,1-.91-4.87v-6.07A13.42,13.42,0,0,1,981.26,590h25.8v-2.83a.56.56,0,0,1,.56-.56h13.43a.56.56,0,0,1,.56.56V590H1030v-2.83a.56.56,0,0,1,.56-.56H1044a.56.56,0,0,1,.56.56h0V590h8.4v-2.83a.56.56,0,0,1,.56-.56H1067a.56.56,0,0,1,.56.56h0V590h8.39v-2.83a.56.56,0,0,1,.56-.56h13.43a.56.56,0,0,1,.56.56h0V590h8.39v-2.83a.56.56,0,0,1,.56-.56h13.43a.56.56,0,0,1,.56.56h0V590h8.4v-2.83a.56.56,0,0,1,.56-.56h13.43a.56.56,0,0,1,.56.56h0V590h8.39v-2.83a.56.56,0,0,1,.56-.56h105.2a.56.56,0,0,1,.56.56h0V590h8.4v-2.83a.56.56,0,0,1,.56-.56h13.43a.56.56,0,0,1,.56.56h0V590h8.39v-2.83a.56.56,0,0,1,.56-.56h13.43a.56.56,0,0,1,.56.56h0V590h8.39v-2.83a.56.56,0,0,1,.56-.56h13.43a.56.56,0,0,1,.56.56h0V590h8.4v-2.83a.56.56,0,0,1,.56-.56h13.43a.55.55,0,0,1,.55.55h0V590h8.4v-2.83a.56.56,0,0,1,.56-.56h13.43a.56.56,0,0,1,.56.56h0V590h8.39v-2.83a.56.56,0,0,1,.56-.56h13.43a.56.56,0,0,1,.56.56h0V590h39.17a13.42,13.42,0,0,1,13.43,13.42Z"/><path class="cls-8" d="M1405.34,347.84h-409A11.26,11.26,0,0,0,985,359v.08h0V587a11.26,11.26,0,0,0,11.26,11.25h409a11.25,11.25,0,0,0,11.34-11.18v-228a11.26,11.26,0,0,0-11.26-11.26Z"/><circle class="cls-7" cx="1201.15" cy="427.41" r="25"/><rect id="e81a7c33-c795-457d-8abc-c4a3c260cd56" class="cls-3" x="1484.62" y="24.58" width="463.64" height="220.01"/><rect id="be98c830-918a-42d1-b1b0-0085d5874e90" class="cls-9" x="1497.87" y="43.45" width="437.13" height="183.56"/><rect id="ea07d9fd-7a34-4098-acd7-056fd1871281" class="cls-7" x="1484.42" y="11.87" width="463.64" height="19.7"/><circle id="b9ed5a45-8896-4ed9-86b4-15f853c9a185" class="cls-9" cx="1499.05" cy="23.45" r="3.65"/><circle id="a9233a38-f8ba-48e0-88f3-496fd4836d40" class="cls-9" cx="1512.91" cy="23.45" r="3.65"/><circle id="aa82180f-a6a9-4f5f-82fc-e73106f4ad92" class="cls-9" cx="1526.77" cy="23.45" r="3.65"/><rect class="cls-2" x="1759.41" y="73.15" width="72.68" height="124.15"/><rect class="cls-7" x="1600.78" y="73.15" width="146.59" height="34.18"/><rect class="cls-2" x="1600.78" y="116.84" width="146.59" height="36.77"/><rect class="cls-2" x="1600.78" y="163.13" width="146.59" height="34.18"/><path class="cls-10" d="M1954.1,344.23h-.94V318.7a14.77,14.77,0,0,0-14.76-14.78h-54.11a14.78,14.78,0,0,0-14.78,14.78h0V458.77a14.78,14.78,0,0,0,14.78,14.78h54.1a14.78,14.78,0,0,0,14.77-14.78h0V362.4h.94Z"/><path class="cls-9" d="M1938.37,307.76h-7.07a5.24,5.24,0,0,1-2.86,6.84h0a5.28,5.28,0,0,1-2,.39h-31a5.25,5.25,0,0,1-5.24-5.24h0a5.51,5.51,0,0,1,.38-2H1884a11,11,0,0,0-11,11h0V458.67a11,11,0,0,0,11,11h54.36a11,11,0,0,0,11-11h0V318.8a11,11,0,0,0-11-11h0Z"/><rect class="cls-10" x="1906.35" y="359.05" width="33.7" height="2.67"/><rect class="cls-10" x="1906.35" y="367.5" width="33.7" height="2.67"/><rect class="cls-10" x="1906.35" y="375.96" width="33.7" height="2.67"/><rect class="cls-10" x="1883.56" y="360.7" width="16.28" height="16.28"/><circle class="cls-7" cx="1894.69" cy="411.34" r="7.08"/><circle class="cls-7" cx="1913.59" cy="411.34" r="5.79"/><circle class="cls-7" cx="1932.48" cy="411.34" r="3.52"/><path class="cls-10" d="M1819.51,498.72H1695.33a11.11,11.11,0,0,1-11.1-11.1V307.53a11.11,11.11,0,0,1,11.1-11.1h124.18a11.11,11.11,0,0,1,11.1,11.1V487.62A11.11,11.11,0,0,1,1819.51,498.72Z"/><path class="cls-9" d="M1819.73,491.64H1695.11a3.42,3.42,0,0,1-3.42-3.42h0V306.93a3.43,3.43,0,0,1,3.42-3.42h124.62a3.42,3.42,0,0,1,3.42,3.42h0V488.22a3.42,3.42,0,0,1-3.42,3.42Z"/><circle class="cls-9" cx="1756.95" cy="299.83" r="0.94"/><rect class="cls-10" x="1739.76" y="359.11" width="69.31" height="3.98"/><rect class="cls-10" x="1739.76" y="371.72" width="69.31" height="3.98"/><rect class="cls-10" x="1739.76" y="384.33" width="69.31" height="3.98"/><rect class="cls-10" x="1705.77" y="361.57" width="24.28" height="24.28"/><circle class="cls-7" cx="1734.12" cy="426.39" r="9.65"/><circle class="cls-7" cx="1759.85" cy="426.39" r="7.88"/><circle class="cls-7" cx="1785.58" cy="426.39" r="4.8"/><text class="cls-11" transform="translate(0 1063.31)">LING KAN</text></g></g></svg>